<svg width="30" height="31" viewBox="0 0 30 31" fill="none" xmlns="http://www.w3.org/2000/svg">
<g id="icons8-youtube-live 1">
<path id="Vector" d="M15 19.25C17.0711 19.25 18.75 17.5711 18.75 15.5C18.75 13.4289 17.0711 11.75 15 11.75C12.9289 11.75 11.25 13.4289 11.25 15.5C11.25 17.5711 12.9289 19.25 15 19.25Z" fill="#D8FE00"/>
<path id="Vector_2" d="M10.6813 10.9931L8.95062 9.1875C7.28938 10.78 6.25 13.0169 6.25 15.5C6.25 17.9831 7.28938 20.22 8.95062 21.8125L10.6813 20.0069C9.49375 18.8681 8.75 17.2706 8.75 15.5C8.75 13.7294 9.49375 12.1312 10.6813 10.9931Z" fill="#D8FE00"/>
<path id="Vector_3" d="M21.0494 9.1875L19.3187 10.9931C20.5062 12.1319 21.25 13.7294 21.25 15.5C21.25 17.2706 20.5062 18.8681 19.3187 20.0069L21.0494 21.8125C22.7106 20.22 23.75 17.9831 23.75 15.5C23.75 13.0169 22.7106 10.78 21.0494 9.1875Z" fill="#D8FE00"/>
<g id="Group">
<path id="Vector_4" d="M7.22563 7.38818L5.48875 5.57568C2.87812 8.07818 1.25 11.5982 1.25 15.5001C1.25 19.4019 2.87812 22.9219 5.48875 25.4244L7.22563 23.6119C5.08875 21.5632 3.75 18.6876 3.75 15.5001C3.75 12.3126 5.08875 9.43693 7.22563 7.38818Z" fill="#D8FE00"/>
<path id="Vector_5" d="M24.5112 5.57568L22.7744 7.38818C24.9112 9.43693 26.25 12.3126 26.25 15.5001C26.25 18.6876 24.9112 21.5632 22.7744 23.6119L24.5112 25.4244C27.1219 22.9219 28.75 19.4019 28.75 15.5001C28.75 11.5982 27.1219 8.07818 24.5112 5.57568Z" fill="#D8FE00"/>
</g>
</g>
</svg>
