<svg width="110" height="36" viewBox="0 0 110 36" fill="none" xmlns="http://www.w3.org/2000/svg">
<path fill-rule="evenodd" clip-rule="evenodd" d="M77.6471 0.902186H79.81C80.5309 0.902186 80.7123 1.13052 80.7077 1.81554C80.7077 2.05674 80.7116 2.26126 80.7149 2.43627L80.715 2.43692V2.437C80.7248 2.95137 80.7298 3.21081 80.616 3.39815C80.5003 3.5888 80.2616 3.70478 79.7799 3.9388C79.6313 4.01102 79.4595 4.09448 79.2611 4.19483C78.9233 4.36656 78.5878 4.53866 78.2526 4.71059C77.4201 5.13765 76.5896 5.56369 75.7307 5.98045C74.9818 6.35036 74.4609 6.04438 74.4516 5.23149V1.82468C74.4516 1.19446 74.74 0.911319 75.3819 0.911319C75.9468 0.897624 76.5117 0.89933 77.0786 0.901042C77.2678 0.901614 77.4573 0.902186 77.6471 0.902186ZM100.192 23.1704H91.7219C90.9591 23.1704 90.9452 23.1704 91.1266 23.9285C91.41 25.2574 92.132 26.4574 93.1806 27.3425C94.2293 28.2276 95.5461 28.7484 96.9268 28.8241C98.0066 28.9442 99.1001 28.84 100.136 28.5182C101.172 28.1964 102.128 27.6642 102.941 26.9563C103.718 26.2895 103.839 26.2849 104.764 26.769L107.788 28.3537C108.471 28.7099 108.546 29.2351 108.011 29.7922C106.797 31.0797 105.319 32.1011 103.675 32.7897C102.031 33.4783 100.258 33.8185 98.471 33.7882C95.7163 33.874 92.9959 33.1693 90.6428 31.7605C89.0566 30.8277 87.7093 29.5502 86.7046 28.0262C85.6999 26.5022 85.0645 24.7723 84.8472 22.9695C84.4786 20.6251 84.7564 18.2266 85.6519 16.0234C86.2404 14.5337 87.128 13.1754 88.2618 12.0292C89.3957 10.883 90.7527 9.97232 92.2522 9.35133C95.3532 7.94299 98.8748 7.7088 102.141 8.69371C105.457 9.68927 107.616 11.9224 108.867 15.0415C109.74 17.3773 110.115 19.8643 109.969 22.3484C109.984 22.5322 109.926 22.7144 109.807 22.8573C109.688 23.0002 109.518 23.0927 109.332 23.1156C109.085 23.1635 108.834 23.1864 108.583 23.1841L100.192 23.1704ZM97.3082 18.5169H103.15L103.173 18.5169L103.204 18.5172C103.443 18.5193 103.701 18.5216 103.671 18.1652C103.527 16.5668 103.011 15.1329 101.694 14.0916C100.457 13.1604 98.921 12.6939 97.364 12.7764C94.0243 12.7764 91.694 14.6853 91.0847 17.9095C90.9731 18.4986 90.987 18.5169 91.6196 18.5169H97.3082ZM80.711 32.0789V20.9953L80.7249 9.81585C80.7249 8.79745 80.204 8.47778 79.2737 8.93446C78.6876 9.23098 78.1074 9.53334 77.5262 9.83619L77.5261 9.83626C76.7468 10.2423 75.9659 10.6493 75.1666 11.0443C74.9355 11.1409 74.7417 11.3071 74.6129 11.5188C74.4842 11.7306 74.4272 11.977 74.4503 12.2225V19.4426V32.1109C74.4503 32.9466 74.6829 33.1795 75.5155 33.1795H79.604C80.5482 33.1795 80.711 32.9923 80.711 32.0789ZM30.8686 20.9947V9.81525C30.8686 8.79229 31.3942 8.44522 32.3152 8.9293C33.6578 9.61127 34.9959 10.3039 36.3293 11.0072C36.3949 11.056 36.4698 11.0914 36.5496 11.1115C36.6294 11.1315 36.7124 11.1356 36.7939 11.1237C36.8753 11.1118 36.9535 11.0841 37.0239 11.0421C37.0943 11.0001 37.1554 10.9448 37.2037 10.8793C38.9898 9.0115 41.2736 8.26711 43.8086 8.13924C44.7654 8.08918 45.7249 8.14432 46.6692 8.30365C48.4583 8.55573 50.0863 9.45676 51.2322 10.8291C51.4601 11.0985 51.6043 11.167 51.9159 10.9295C54.5962 8.90541 57.9383 7.9145 61.3117 8.14381C63.1472 8.17623 64.917 8.82038 66.3305 9.97052C67.5997 11.0832 68.4978 12.5459 68.9073 14.1674C69.2618 15.4239 69.4371 16.7226 69.4283 18.0263V32.1285C69.4283 33.0419 69.2701 33.1743 68.3771 33.1789H64.256C63.4141 33.1789 63.1815 32.9506 63.1769 32.1148V18.7068C63.1807 17.797 63.0021 16.8955 62.6513 16.0535C61.9861 14.4688 60.6977 13.7701 59.0139 13.6833C55.8789 13.5463 53.8323 15.3411 53.4323 18.5606C53.3594 19.1164 53.3237 19.6763 53.3253 20.2366V32.06C53.3253 32.9734 53.1299 33.1789 52.2136 33.1789H48.0786C47.2971 33.1789 47.0646 32.946 47.0646 32.1651V18.5606C47.0637 17.8837 46.973 17.2098 46.7948 16.5558C46.3297 14.8707 45.2785 13.898 43.5156 13.7153C41.5992 13.5143 39.8596 13.9345 38.5573 15.4507C37.6495 16.5331 37.1661 17.8986 37.1944 19.3005C37.1758 22.0918 37.182 24.8851 37.1882 27.6778V27.6798V27.6803C37.1913 29.0766 37.1944 30.4727 37.1944 31.8682C37.2084 32.0659 37.2084 32.2643 37.1944 32.4619C37.1952 32.566 37.1728 32.6689 37.1287 32.7636C37.0846 32.8582 37.02 32.9422 36.9393 33.0097C36.8586 33.0772 36.7638 33.1265 36.6617 33.1541C36.5595 33.1818 36.4524 33.1871 36.3479 33.1698H31.6081C31.05 33.1698 30.8639 32.9186 30.8639 32.2564L30.8686 20.9947ZM3.42575 29.6085C6.14214 32.3714 9.54694 33.577 13.4122 33.577C14.4865 33.6082 15.5605 33.5038 16.6077 33.2665C20.5334 32.4033 23.5847 30.3666 25.4453 26.8227C26.8145 24.182 27.2325 21.1639 26.6313 18.26C25.8034 13.6796 23.208 10.4371 18.7706 8.73829C17.2398 8.18427 15.5562 8.19464 14.0326 8.76747C12.5089 9.3403 11.2489 10.4366 10.4865 11.8528C9.99348 12.7297 10.1237 13.2548 10.9238 13.7481C13.299 15.1942 15.6588 16.6464 18.0031 18.1048C18.2982 18.286 18.5937 18.4669 18.8895 18.648C19.8757 19.2518 20.8636 19.8566 21.8405 20.4749C22.4544 20.8631 22.4126 21.3928 21.78 21.7399L21.4637 21.8952L10.6214 27.1013C9.98882 27.4256 9.35625 27.727 8.71436 28.0147C8.61903 28.0702 8.51082 28.1008 8.40003 28.1038C8.28925 28.1068 8.17955 28.0819 8.08128 28.0316C7.983 27.9813 7.89942 27.9072 7.83846 27.8164C7.7775 27.7255 7.74116 27.6208 7.73291 27.5123C7.70495 27.3172 7.69561 27.12 7.705 26.9232V15.593C7.70874 14.9329 7.76047 14.2727 7.81202 13.6149C7.82466 13.4536 7.83728 13.2925 7.84919 13.1315C7.93531 11.9119 8.18236 10.7084 8.58411 9.55118C8.66784 9.30457 8.76087 9.01687 8.47714 8.82506C8.22152 8.65226 8.01118 8.76117 7.79854 8.87127C7.77516 8.88338 7.75175 8.8955 7.72825 8.90726C7.63034 8.95698 7.53735 9.01633 7.44569 9.07482C7.41107 9.09691 7.37664 9.11889 7.34221 9.14017C6.16873 9.88379 5.09109 10.7639 4.13277 11.7615C1.16055 14.8075 -0.458125 18.3377 0.113992 22.6533C0.408739 25.2662 1.57275 27.7108 3.42575 29.6085Z" fill="#00E2F4"/>
</svg>
