<svg width="323" height="187" viewBox="0 0 323 187" fill="none" xmlns="http://www.w3.org/2000/svg">
<rect width="323" height="187" fill="#1E1E1E"/>
<g clip-path="url(#clip0_1004_1483)">
<rect width="1440" height="5210" transform="translate(-475 -1750)" fill="white"/>
<rect x="-475" y="-1707" width="1440" height="1975" fill="#001E27"/>
<rect width="323" height="187" fill="#00475D"/>
<path d="M43.824 51.52H38.96L38.064 54H36.528L40.56 42.912H42.24L46.256 54H44.72L43.824 51.52ZM43.408 50.336L41.392 44.704L39.376 50.336H43.408ZM57.0853 54L54.4293 49.44H52.6693V54H51.2132V42.848H54.8133C55.6559 42.848 56.3653 42.992 56.9413 43.28C57.5279 43.568 57.9653 43.9573 58.2533 44.448C58.5413 44.9387 58.6853 45.4987 58.6853 46.128C58.6853 46.896 58.4613 47.5733 58.0133 48.16C57.5759 48.7467 56.9146 49.136 56.0293 49.328L58.8293 54H57.0853ZM52.6693 48.272H54.8133C55.6026 48.272 56.1946 48.08 56.5893 47.696C56.9839 47.3013 57.1813 46.7787 57.1813 46.128C57.1813 45.4667 56.9839 44.9547 56.5893 44.592C56.2052 44.2293 55.6132 44.048 54.8133 44.048H52.6693V48.272ZM73.0916 56.112L70.8676 53.888C70.3236 54.0373 69.769 54.112 69.2036 54.112C68.169 54.112 67.225 53.872 66.3716 53.392C65.5183 52.9013 64.841 52.224 64.3396 51.36C63.849 50.4853 63.6036 49.504 63.6036 48.416C63.6036 47.328 63.849 46.352 64.3396 45.488C64.841 44.6133 65.5183 43.936 66.3716 43.456C67.225 42.9653 68.169 42.72 69.2036 42.72C70.249 42.72 71.1983 42.9653 72.0516 43.456C72.905 43.936 73.577 44.608 74.0676 45.472C74.5583 46.336 74.8036 47.3173 74.8036 48.416C74.8036 49.4827 74.569 50.4427 74.0996 51.296C73.6303 52.1493 72.985 52.8213 72.1636 53.312L74.9796 56.112H73.0916ZM65.0916 48.416C65.0916 49.3013 65.2676 50.08 65.6196 50.752C65.9823 51.424 66.473 51.9413 67.0916 52.304C67.721 52.6667 68.425 52.848 69.2036 52.848C69.9823 52.848 70.681 52.6667 71.2996 52.304C71.929 51.9413 72.4196 51.424 72.7716 50.752C73.1343 50.08 73.3156 49.3013 73.3156 48.416C73.3156 47.52 73.1343 46.7413 72.7716 46.08C72.4196 45.408 71.9343 44.8907 71.3156 44.528C70.697 44.1653 69.993 43.984 69.2036 43.984C68.4143 43.984 67.7103 44.1653 67.0916 44.528C66.473 44.8907 65.9823 45.408 65.6196 46.08C65.2676 46.7413 65.0916 47.52 65.0916 48.416ZM81.381 42.848V49.904C81.381 50.896 81.621 51.632 82.101 52.112C82.5917 52.592 83.269 52.832 84.133 52.832C84.9863 52.832 85.653 52.592 86.133 52.112C86.6237 51.632 86.869 50.896 86.869 49.904V42.848H88.325V49.888C88.325 50.816 88.1383 51.6 87.765 52.24C87.3917 52.8693 86.885 53.3387 86.245 53.648C85.6157 53.9573 84.9063 54.112 84.117 54.112C83.3277 54.112 82.613 53.9573 81.973 53.648C81.3437 53.3387 80.8423 52.8693 80.469 52.24C80.1063 51.6 79.925 50.816 79.925 49.888V42.848H81.381ZM95.4099 42.848V54H93.9539V42.848H95.4099ZM110.307 42.848L106.099 54H104.419L100.211 42.848H101.763L105.267 52.464L108.771 42.848H110.307ZM120.16 54.112C119.125 54.112 118.181 53.872 117.328 53.392C116.475 52.9013 115.797 52.224 115.296 51.36C114.805 50.4853 114.56 49.504 114.56 48.416C114.56 47.328 114.805 46.352 115.296 45.488C115.797 44.6133 116.475 43.936 117.328 43.456C118.181 42.9653 119.125 42.72 120.16 42.72C121.205 42.72 122.155 42.9653 123.008 43.456C123.861 43.936 124.533 44.608 125.024 45.472C125.515 46.336 125.76 47.3173 125.76 48.416C125.76 49.5147 125.515 50.496 125.024 51.36C124.533 52.224 123.861 52.9013 123.008 53.392C122.155 53.872 121.205 54.112 120.16 54.112ZM120.16 52.848C120.939 52.848 121.637 52.6667 122.256 52.304C122.885 51.9413 123.376 51.424 123.728 50.752C124.091 50.08 124.272 49.3013 124.272 48.416C124.272 47.52 124.091 46.7413 123.728 46.08C123.376 45.408 122.891 44.8907 122.272 44.528C121.653 44.1653 120.949 43.984 120.16 43.984C119.371 43.984 118.667 44.1653 118.048 44.528C117.429 44.8907 116.939 45.408 116.576 46.08C116.224 46.7413 116.048 47.52 116.048 48.416C116.048 49.3013 116.224 50.08 116.576 50.752C116.939 51.424 117.429 51.9413 118.048 52.304C118.677 52.6667 119.381 52.848 120.16 52.848ZM149.66 42.928V54H148.204V45.744L144.524 54H143.5L139.804 45.728V54H138.348V42.928H139.916L144.012 52.08L148.108 42.928H149.66ZM156.785 44.032V47.76H160.849V48.96H156.785V52.8H161.329V54H155.329V42.832H161.329V44.032H156.785ZM175.5 54H174.044L168.188 45.12V54H166.732V42.832H168.188L174.044 51.696V42.832H175.5V54ZM184.718 54.112C183.982 54.112 183.321 53.984 182.734 53.728C182.158 53.4613 181.705 53.0987 181.374 52.64C181.043 52.1707 180.873 51.632 180.862 51.024H182.414C182.467 51.5467 182.681 51.9893 183.054 52.352C183.438 52.704 183.993 52.88 184.718 52.88C185.411 52.88 185.955 52.7093 186.35 52.368C186.755 52.016 186.958 51.568 186.958 51.024C186.958 50.5973 186.841 50.2507 186.606 49.984C186.371 49.7173 186.078 49.5147 185.726 49.376C185.374 49.2373 184.899 49.088 184.302 48.928C183.566 48.736 182.974 48.544 182.526 48.352C182.089 48.16 181.71 47.8613 181.39 47.456C181.081 47.04 180.926 46.4853 180.926 45.792C180.926 45.184 181.081 44.6453 181.39 44.176C181.699 43.7067 182.131 43.344 182.686 43.088C183.251 42.832 183.897 42.704 184.622 42.704C185.667 42.704 186.521 42.9653 187.182 43.488C187.854 44.0107 188.233 44.704 188.318 45.568H186.718C186.665 45.1413 186.441 44.768 186.046 44.448C185.651 44.1173 185.129 43.952 184.478 43.952C183.87 43.952 183.374 44.112 182.99 44.432C182.606 44.7413 182.414 45.1787 182.414 45.744C182.414 46.1493 182.526 46.48 182.75 46.736C182.985 46.992 183.267 47.1893 183.598 47.328C183.939 47.456 184.414 47.6053 185.022 47.776C185.758 47.9787 186.35 48.1813 186.798 48.384C187.246 48.576 187.63 48.88 187.95 49.296C188.27 49.7013 188.43 50.256 188.43 50.96C188.43 51.504 188.286 52.016 187.998 52.496C187.71 52.976 187.283 53.3653 186.718 53.664C186.153 53.9627 185.486 54.112 184.718 54.112ZM200.365 51.52H195.501L194.605 54H193.069L197.101 42.912H198.781L202.797 54H201.261L200.365 51.52ZM199.949 50.336L197.933 44.704L195.917 50.336H199.949ZM209.21 52.816H213.114V54H207.754V42.848H209.21V52.816Z" fill="white"/>
<path d="M294.479 22C293.282 22 292.394 22.39 291.831 22.99C291.268 23.59 291.07 24.34 291 24.91L292.408 25.105C292.465 24.73 292.577 24.355 292.845 24.07C293.113 23.785 293.535 23.5 294.479 23.5C295.408 23.5 295.915 23.74 296.197 24.01C296.479 24.28 296.592 24.61 296.592 25C296.592 26.245 296.113 26.59 295.408 27.25C294.704 27.91 293.775 28.87 293.775 30.625V31H295.183V30.625C295.183 29.38 295.62 29.035 296.324 28.375C297.028 27.715 298 26.755 298 25C298 24.28 297.761 23.47 297.169 22.885C296.563 22.3 295.662 22 294.479 22ZM293.775 32.5V34H295.183V32.5H293.775Z" fill="white"/>
<rect x="283" y="16.5" width="23" height="23" rx="11.5" stroke="white"/>
<path d="M40.256 91.098C39.6027 91.098 39.0147 90.986 38.492 90.762C37.9693 90.5287 37.5587 90.202 37.26 89.782C36.9613 89.362 36.812 88.872 36.812 88.312H38.52C38.5573 88.732 38.7207 89.0773 39.01 89.348C39.3087 89.6187 39.724 89.754 40.256 89.754C40.8067 89.754 41.236 89.6233 41.544 89.362C41.852 89.0913 42.006 88.746 42.006 88.326C42.006 87.9993 41.908 87.7333 41.712 87.528C41.5253 87.3227 41.2873 87.164 40.998 87.052C40.718 86.94 40.326 86.8187 39.822 86.688C39.1873 86.52 38.6693 86.352 38.268 86.184C37.876 86.0067 37.54 85.736 37.26 85.372C36.98 85.008 36.84 84.5227 36.84 83.916C36.84 83.356 36.98 82.866 37.26 82.446C37.54 82.026 37.932 81.704 38.436 81.48C38.94 81.256 39.5233 81.144 40.186 81.144C41.1287 81.144 41.8987 81.382 42.496 81.858C43.1027 82.3247 43.4387 82.9687 43.504 83.79H41.74C41.712 83.4353 41.544 83.132 41.236 82.88C40.928 82.628 40.522 82.502 40.018 82.502C39.5607 82.502 39.1873 82.6187 38.898 82.852C38.6087 83.0853 38.464 83.4213 38.464 83.86C38.464 84.1587 38.5527 84.406 38.73 84.602C38.9167 84.7887 39.15 84.938 39.43 85.05C39.71 85.162 40.0927 85.2833 40.578 85.414C41.222 85.5913 41.7447 85.7687 42.146 85.946C42.5567 86.1233 42.902 86.3987 43.182 86.772C43.4713 87.136 43.616 87.626 43.616 88.242C43.616 88.7367 43.4807 89.2033 43.21 89.642C42.9487 90.0807 42.5613 90.4353 42.048 90.706C41.544 90.9673 40.9467 91.098 40.256 91.098ZM52.5692 86.954C52.5692 87.2433 52.5506 87.5047 52.5132 87.738H46.6192C46.6659 88.354 46.8946 88.8487 47.3052 89.222C47.7159 89.5953 48.2199 89.782 48.8172 89.782C49.6759 89.782 50.2826 89.4227 50.6372 88.704H52.3592C52.1259 89.4133 51.7012 89.9967 51.0852 90.454C50.4786 90.902 49.7226 91.126 48.8172 91.126C48.0799 91.126 47.4172 90.9627 46.8292 90.636C46.2506 90.3 45.7932 89.8333 45.4572 89.236C45.1306 88.6293 44.9672 87.9293 44.9672 87.136C44.9672 86.3427 45.1259 85.6473 45.4432 85.05C45.7699 84.4433 46.2226 83.9767 46.8012 83.65C47.3892 83.3233 48.0612 83.16 48.8172 83.16C49.5452 83.16 50.1939 83.3187 50.7632 83.636C51.3326 83.9533 51.7759 84.4013 52.0932 84.98C52.4106 85.5493 52.5692 86.2073 52.5692 86.954ZM50.9032 86.45C50.8939 85.862 50.6839 85.3907 50.2732 85.036C49.8626 84.6813 49.3539 84.504 48.7472 84.504C48.1966 84.504 47.7252 84.6813 47.3332 85.036C46.9412 85.3813 46.7079 85.8527 46.6332 86.45H50.9032ZM55.7358 80.64V91H54.1398V80.64H55.7358ZM64.9013 86.954C64.9013 87.2433 64.8826 87.5047 64.8453 87.738H58.9513C58.9979 88.354 59.2266 88.8487 59.6373 89.222C60.0479 89.5953 60.5519 89.782 61.1493 89.782C62.0079 89.782 62.6146 89.4227 62.9693 88.704H64.6912C64.4579 89.4133 64.0333 89.9967 63.4173 90.454C62.8106 90.902 62.0546 91.126 61.1493 91.126C60.4119 91.126 59.7493 90.9627 59.1613 90.636C58.5826 90.3 58.1253 89.8333 57.7893 89.236C57.4626 88.6293 57.2993 87.9293 57.2993 87.136C57.2993 86.3427 57.4579 85.6473 57.7753 85.05C58.1019 84.4433 58.5546 83.9767 59.1333 83.65C59.7213 83.3233 60.3933 83.16 61.1493 83.16C61.8773 83.16 62.5259 83.3187 63.0953 83.636C63.6646 83.9533 64.1079 84.4013 64.4253 84.98C64.7426 85.5493 64.9013 86.2073 64.9013 86.954ZM63.2353 86.45C63.2259 85.862 63.0159 85.3907 62.6053 85.036C62.1946 84.6813 61.6859 84.504 61.0793 84.504C60.5286 84.504 60.0573 84.6813 59.6653 85.036C59.2733 85.3813 59.0399 85.8527 58.9653 86.45H63.2353ZM65.9399 87.136C65.9399 86.3427 66.0985 85.6473 66.4159 85.05C66.7425 84.4433 67.1905 83.9767 67.7599 83.65C68.3292 83.3233 68.9825 83.16 69.7199 83.16C70.6532 83.16 71.4232 83.384 72.0299 83.832C72.6459 84.2707 73.0612 84.9007 73.2759 85.722H71.5539C71.4139 85.3393 71.1899 85.0407 70.8819 84.826C70.5739 84.6113 70.1865 84.504 69.7199 84.504C69.0665 84.504 68.5439 84.7373 68.1519 85.204C67.7692 85.6613 67.5779 86.3053 67.5779 87.136C67.5779 87.9667 67.7692 88.6153 68.1519 89.082C68.5439 89.5487 69.0665 89.782 69.7199 89.782C70.6439 89.782 71.2552 89.376 71.5539 88.564H73.2759C73.0519 89.348 72.6319 89.9733 72.0159 90.44C71.3999 90.8973 70.6345 91.126 69.7199 91.126C68.9825 91.126 68.3292 90.9627 67.7599 90.636C67.1905 90.3 66.7425 89.8333 66.4159 89.236C66.0985 88.6293 65.9399 87.9293 65.9399 87.136ZM75.6784 82.264C75.3891 82.264 75.1464 82.166 74.9504 81.97C74.7544 81.774 74.6564 81.5313 74.6564 81.242C74.6564 80.9527 74.7544 80.71 74.9504 80.514C75.1464 80.318 75.3891 80.22 75.6784 80.22C75.9584 80.22 76.1964 80.318 76.3924 80.514C76.5884 80.71 76.6864 80.9527 76.6864 81.242C76.6864 81.5313 76.5884 81.774 76.3924 81.97C76.1964 82.166 75.9584 82.264 75.6784 82.264ZM76.4624 83.286V91H74.8664V83.286H76.4624ZM81.9038 91.126C81.1758 91.126 80.5178 90.9627 79.9298 90.636C79.3418 90.3 78.8798 89.8333 78.5438 89.236C78.2078 88.6293 78.0398 87.9293 78.0398 87.136C78.0398 86.352 78.2125 85.6567 78.5578 85.05C78.9031 84.4433 79.3745 83.9767 79.9718 83.65C80.5691 83.3233 81.2365 83.16 81.9738 83.16C82.7111 83.16 83.3785 83.3233 83.9758 83.65C84.5731 83.9767 85.0445 84.4433 85.3898 85.05C85.7351 85.6567 85.9078 86.352 85.9078 87.136C85.9078 87.92 85.7305 88.6153 85.3758 89.222C85.0211 89.8287 84.5358 90.3 83.9198 90.636C83.3131 90.9627 82.6411 91.126 81.9038 91.126ZM81.9038 89.74C82.3145 89.74 82.6971 89.642 83.0518 89.446C83.4158 89.25 83.7098 88.956 83.9338 88.564C84.1578 88.172 84.2698 87.696 84.2698 87.136C84.2698 86.576 84.1625 86.1047 83.9478 85.722C83.7331 85.33 83.4485 85.036 83.0938 84.84C82.7391 84.644 82.3565 84.546 81.9458 84.546C81.5351 84.546 81.1525 84.644 80.7978 84.84C80.4525 85.036 80.1771 85.33 79.9718 85.722C79.7665 86.1047 79.6638 86.576 79.6638 87.136C79.6638 87.9667 79.8738 88.6107 80.2938 89.068C80.7231 89.516 81.2598 89.74 81.9038 89.74ZM91.3775 83.16C91.9842 83.16 92.5255 83.286 93.0015 83.538C93.4869 83.79 93.8649 84.1633 94.1355 84.658C94.4062 85.1527 94.5415 85.75 94.5415 86.45V91H92.9595V86.688C92.9595 85.9973 92.7869 85.47 92.4415 85.106C92.0962 84.7327 91.6249 84.546 91.0275 84.546C90.4302 84.546 89.9542 84.7327 89.5995 85.106C89.2542 85.47 89.0815 85.9973 89.0815 86.688V91H87.4855V83.286H89.0815V84.168C89.3429 83.8507 89.6742 83.6033 90.0755 83.426C90.4862 83.2487 90.9202 83.16 91.3775 83.16ZM103.647 86.954C103.647 87.2433 103.629 87.5047 103.591 87.738H97.6973C97.744 88.354 97.9727 88.8487 98.3833 89.222C98.794 89.5953 99.298 89.782 99.8953 89.782C100.754 89.782 101.361 89.4227 101.715 88.704H103.437C103.204 89.4133 102.779 89.9967 102.163 90.454C101.557 90.902 100.801 91.126 99.8953 91.126C99.158 91.126 98.4953 90.9627 97.9073 90.636C97.3287 90.3 96.8713 89.8333 96.5353 89.236C96.2087 88.6293 96.0453 87.9293 96.0453 87.136C96.0453 86.3427 96.204 85.6473 96.5213 85.05C96.848 84.4433 97.3007 83.9767 97.8793 83.65C98.4673 83.3233 99.1393 83.16 99.8953 83.16C100.623 83.16 101.272 83.3187 101.841 83.636C102.411 83.9533 102.854 84.4013 103.171 84.98C103.489 85.5493 103.647 86.2073 103.647 86.954ZM101.981 86.45C101.972 85.862 101.762 85.3907 101.351 85.036C100.941 84.6813 100.432 84.504 99.8253 84.504C99.2747 84.504 98.8033 84.6813 98.4113 85.036C98.0193 85.3813 97.786 85.8527 97.7113 86.45H101.981ZM112.201 91.126C111.473 91.126 110.815 90.9627 110.227 90.636C109.639 90.3 109.177 89.8333 108.841 89.236C108.505 88.6293 108.337 87.9293 108.337 87.136C108.337 86.352 108.509 85.6567 108.855 85.05C109.2 84.4433 109.671 83.9767 110.269 83.65C110.866 83.3233 111.533 83.16 112.271 83.16C113.008 83.16 113.675 83.3233 114.273 83.65C114.87 83.9767 115.341 84.4433 115.687 85.05C116.032 85.6567 116.205 86.352 116.205 87.136C116.205 87.92 116.027 88.6153 115.673 89.222C115.318 89.8287 114.833 90.3 114.217 90.636C113.61 90.9627 112.938 91.126 112.201 91.126ZM112.201 89.74C112.611 89.74 112.994 89.642 113.349 89.446C113.713 89.25 114.007 88.956 114.231 88.564C114.455 88.172 114.567 87.696 114.567 87.136C114.567 86.576 114.459 86.1047 114.245 85.722C114.03 85.33 113.745 85.036 113.391 84.84C113.036 84.644 112.653 84.546 112.243 84.546C111.832 84.546 111.449 84.644 111.095 84.84C110.749 85.036 110.474 85.33 110.269 85.722C110.063 86.1047 109.961 86.576 109.961 87.136C109.961 87.9667 110.171 88.6107 110.591 89.068C111.02 89.516 111.557 89.74 112.201 89.74ZM130.757 83.16C131.364 83.16 131.905 83.286 132.381 83.538C132.866 83.79 133.244 84.1633 133.515 84.658C133.795 85.1527 133.935 85.75 133.935 86.45V91H132.353V86.688C132.353 85.9973 132.18 85.47 131.835 85.106C131.49 84.7327 131.018 84.546 130.421 84.546C129.824 84.546 129.348 84.7327 128.993 85.106C128.648 85.47 128.475 85.9973 128.475 86.688V91H126.893V86.688C126.893 85.9973 126.72 85.47 126.375 85.106C126.03 84.7327 125.558 84.546 124.961 84.546C124.364 84.546 123.888 84.7327 123.533 85.106C123.188 85.47 123.015 85.9973 123.015 86.688V91H121.419V83.286H123.015V84.168C123.276 83.8507 123.608 83.6033 124.009 83.426C124.41 83.2487 124.84 83.16 125.297 83.16C125.913 83.16 126.464 83.2907 126.949 83.552C127.434 83.8133 127.808 84.1913 128.069 84.686C128.302 84.2193 128.666 83.8507 129.161 83.58C129.656 83.3 130.188 83.16 130.757 83.16ZM143.036 86.954C143.036 87.2433 143.017 87.5047 142.98 87.738H137.086C137.133 88.354 137.361 88.8487 137.772 89.222C138.183 89.5953 138.687 89.782 139.284 89.782C140.143 89.782 140.749 89.4227 141.104 88.704H142.826C142.593 89.4133 142.168 89.9967 141.552 90.454C140.945 90.902 140.189 91.126 139.284 91.126C138.547 91.126 137.884 90.9627 137.296 90.636C136.717 90.3 136.26 89.8333 135.924 89.236C135.597 88.6293 135.434 87.9293 135.434 87.136C135.434 86.3427 135.593 85.6473 135.91 85.05C136.237 84.4433 136.689 83.9767 137.268 83.65C137.856 83.3233 138.528 83.16 139.284 83.16C140.012 83.16 140.661 83.3187 141.23 83.636C141.799 83.9533 142.243 84.4013 142.56 84.98C142.877 85.5493 143.036 86.2073 143.036 86.954ZM141.37 86.45C141.361 85.862 141.151 85.3907 140.74 85.036C140.329 84.6813 139.821 84.504 139.214 84.504C138.663 84.504 138.192 84.6813 137.8 85.036C137.408 85.3813 137.175 85.8527 137.1 86.45H141.37ZM139.242 81.536L137.24 82.74V81.494L139.242 80.332L141.244 81.494V82.74L139.242 81.536ZM147.407 91.126C146.8 91.126 146.254 91.0187 145.769 90.804C145.293 90.58 144.915 90.2813 144.635 89.908C144.355 89.5253 144.205 89.1007 144.187 88.634H145.839C145.867 88.9607 146.021 89.236 146.301 89.46C146.59 89.6747 146.949 89.782 147.379 89.782C147.827 89.782 148.172 89.698 148.415 89.53C148.667 89.3527 148.793 89.1287 148.793 88.858C148.793 88.5687 148.653 88.354 148.373 88.214C148.102 88.074 147.668 87.92 147.071 87.752C146.492 87.5933 146.021 87.4393 145.657 87.29C145.293 87.1407 144.975 86.912 144.705 86.604C144.443 86.296 144.313 85.89 144.313 85.386C144.313 84.9753 144.434 84.602 144.677 84.266C144.919 83.9207 145.265 83.65 145.713 83.454C146.17 83.258 146.693 83.16 147.281 83.16C148.158 83.16 148.863 83.384 149.395 83.832C149.936 84.2707 150.225 84.8727 150.263 85.638H148.667C148.639 85.2927 148.499 85.0173 148.247 84.812C147.995 84.6067 147.654 84.504 147.225 84.504C146.805 84.504 146.483 84.5833 146.259 84.742C146.035 84.9007 145.923 85.1107 145.923 85.372C145.923 85.5773 145.997 85.75 146.147 85.89C146.296 86.03 146.478 86.142 146.693 86.226C146.907 86.3007 147.225 86.3987 147.645 86.52C148.205 86.6693 148.662 86.8233 149.017 86.982C149.381 87.1313 149.693 87.3553 149.955 87.654C150.216 87.9527 150.351 88.3493 150.361 88.844C150.361 89.2827 150.239 89.6747 149.997 90.02C149.754 90.3653 149.409 90.636 148.961 90.832C148.522 91.028 148.004 91.126 147.407 91.126ZM152.729 91.098C152.44 91.098 152.197 91 152.001 90.804C151.805 90.608 151.707 90.3653 151.707 90.076C151.707 89.7867 151.805 89.544 152.001 89.348C152.197 89.152 152.44 89.054 152.729 89.054C153.009 89.054 153.247 89.152 153.443 89.348C153.639 89.544 153.737 89.7867 153.737 90.076C153.737 90.3653 153.639 90.608 153.443 90.804C153.247 91 153.009 91.098 152.729 91.098ZM152.729 85.218C152.44 85.218 152.197 85.12 152.001 84.924C151.805 84.728 151.707 84.4853 151.707 84.196C151.707 83.9067 151.805 83.664 152.001 83.468C152.197 83.272 152.44 83.174 152.729 83.174C153.009 83.174 153.247 83.272 153.443 83.468C153.639 83.664 153.737 83.9067 153.737 84.196C153.737 84.4853 153.639 84.728 153.443 84.924C153.247 85.12 153.009 85.218 152.729 85.218Z" fill="white"/>
<path d="M61.5532 121.04V130.84C61.5532 132.2 61.1599 133.26 60.3732 134.02C59.5865 134.767 58.5332 135.14 57.2132 135.14C55.8799 135.14 54.7999 134.753 53.9732 133.98C53.1599 133.207 52.7532 132.127 52.7532 130.74H55.5532C55.5665 131.34 55.7065 131.807 55.9732 132.14C56.2532 132.473 56.6532 132.64 57.1732 132.64C57.6799 132.64 58.0665 132.48 58.3332 132.16C58.5999 131.84 58.7332 131.4 58.7332 130.84V121.04H61.5532ZM64.0995 129.42C64.0995 128.3 64.3195 127.307 64.7595 126.44C65.2128 125.573 65.8195 124.907 66.5795 124.44C67.3528 123.973 68.2128 123.74 69.1595 123.74C69.9861 123.74 70.7061 123.907 71.3195 124.24C71.9461 124.573 72.4461 124.993 72.8195 125.5V123.92H75.6395V135H72.8195V133.38C72.4595 133.9 71.9595 134.333 71.3195 134.68C70.6928 135.013 69.9661 135.18 69.1395 135.18C68.2061 135.18 67.3528 134.94 66.5795 134.46C65.8195 133.98 65.2128 133.307 64.7595 132.44C64.3195 131.56 64.0995 130.553 64.0995 129.42ZM72.8195 129.46C72.8195 128.78 72.6861 128.2 72.4195 127.72C72.1528 127.227 71.7928 126.853 71.3395 126.6C70.8861 126.333 70.3995 126.2 69.8795 126.2C69.3595 126.2 68.8795 126.327 68.4395 126.58C67.9995 126.833 67.6395 127.207 67.3595 127.7C67.0928 128.18 66.9595 128.753 66.9595 129.42C66.9595 130.087 67.0928 130.673 67.3595 131.18C67.6395 131.673 67.9995 132.053 68.4395 132.32C68.8928 132.587 69.3728 132.72 69.8795 132.72C70.3995 132.72 70.8861 132.593 71.3395 132.34C71.7928 132.073 72.1528 131.7 72.4195 131.22C72.6861 130.727 72.8195 130.14 72.8195 129.46ZM84.5141 123.76C85.8341 123.76 86.9008 124.18 87.7141 125.02C88.5275 125.847 88.9341 127.007 88.9341 128.5V135H86.1341V128.88C86.1341 128 85.9141 127.327 85.4741 126.86C85.0341 126.38 84.4341 126.14 83.6741 126.14C82.9008 126.14 82.2875 126.38 81.8341 126.86C81.3941 127.327 81.1741 128 81.1741 128.88V135H78.3741V123.92H81.1741V125.3C81.5475 124.82 82.0208 124.447 82.5941 124.18C83.1808 123.9 83.8208 123.76 84.5141 123.76ZM101.897 129.22C101.897 129.62 101.87 129.98 101.817 130.3H93.7168C93.7835 131.1 94.0635 131.727 94.5568 132.18C95.0501 132.633 95.6568 132.86 96.3768 132.86C97.4168 132.86 98.1568 132.413 98.5968 131.52H101.617C101.297 132.587 100.683 133.467 99.7768 134.16C98.8701 134.84 97.7568 135.18 96.4368 135.18C95.3701 135.18 94.4101 134.947 93.5568 134.48C92.7168 134 92.0568 133.327 91.5768 132.46C91.1101 131.593 90.8768 130.593 90.8768 129.46C90.8768 128.313 91.1101 127.307 91.5768 126.44C92.0435 125.573 92.6968 124.907 93.5368 124.44C94.3768 123.973 95.3435 123.74 96.4368 123.74C97.4901 123.74 98.4301 123.967 99.2568 124.42C100.097 124.873 100.743 125.52 101.197 126.36C101.663 127.187 101.897 128.14 101.897 129.22ZM98.9968 128.42C98.9835 127.7 98.7235 127.127 98.2168 126.7C97.7101 126.26 97.0901 126.04 96.3568 126.04C95.6635 126.04 95.0768 126.253 94.5968 126.68C94.1301 127.093 93.8435 127.673 93.7368 128.42H98.9968ZM105.361 122.6C104.867 122.6 104.454 122.447 104.121 122.14C103.801 121.82 103.641 121.427 103.641 120.96C103.641 120.493 103.801 120.107 104.121 119.8C104.454 119.48 104.867 119.32 105.361 119.32C105.854 119.32 106.261 119.48 106.581 119.8C106.914 120.107 107.081 120.493 107.081 120.96C107.081 121.427 106.914 121.82 106.581 122.14C106.261 122.447 105.854 122.6 105.361 122.6ZM106.741 123.92V135H103.941V123.92H106.741ZM112.307 125.64C112.667 125.053 113.134 124.593 113.707 124.26C114.294 123.927 114.96 123.76 115.707 123.76V126.7H114.967C114.087 126.7 113.42 126.907 112.967 127.32C112.527 127.733 112.307 128.453 112.307 129.48V135H109.507V123.92H112.307V125.64ZM122.513 135.18C121.446 135.18 120.486 134.947 119.633 134.48C118.78 134 118.106 133.327 117.613 132.46C117.133 131.593 116.893 130.593 116.893 129.46C116.893 128.327 117.14 127.327 117.633 126.46C118.14 125.593 118.826 124.927 119.693 124.46C120.56 123.98 121.526 123.74 122.593 123.74C123.66 123.74 124.626 123.98 125.493 124.46C126.36 124.927 127.04 125.593 127.533 126.46C128.04 127.327 128.293 128.327 128.293 129.46C128.293 130.593 128.033 131.593 127.513 132.46C127.006 133.327 126.313 134 125.433 134.48C124.566 134.947 123.593 135.18 122.513 135.18ZM122.513 132.74C123.02 132.74 123.493 132.62 123.933 132.38C124.386 132.127 124.746 131.753 125.013 131.26C125.28 130.767 125.413 130.167 125.413 129.46C125.413 128.407 125.133 127.6 124.573 127.04C124.026 126.467 123.353 126.18 122.553 126.18C121.753 126.18 121.08 126.467 120.533 127.04C120 127.6 119.733 128.407 119.733 129.46C119.733 130.513 119.993 131.327 120.513 131.9C121.046 132.46 121.713 132.74 122.513 132.74Z" fill="white"/>
<path d="M198.266 124.5C197.397 124.5 196.942 125.532 197.528 126.174L201.662 130.704C202.054 131.134 202.728 131.14 203.128 130.717L207.407 126.187C208.009 125.549 207.557 124.5 206.68 124.5H198.266Z" fill="#00E2F4"/>
<path d="M261.42 117.678V125.419H256.259L264 133.161L271.741 125.419H266.58V117.678H261.42ZM253.678 135.741V138.322H274.322V135.741H253.678Z" fill="#00E2F4"/>
</g>
<defs>
<clipPath id="clip0_1004_1483">
<rect width="1440" height="5210" fill="white" transform="translate(-475 -1750)"/>
</clipPath>
</defs>
</svg>
