<svg width="323" height="404" viewBox="0 0 323 404" fill="none" xmlns="http://www.w3.org/2000/svg">
<rect width="323" height="404" fill="#1E1E1E"/>
<g clip-path="url(#clip0_1004_1483)">
<rect width="1440" height="5210" transform="translate(-128 -1533)" fill="white"/>
<rect x="-128" y="-1490" width="1440" height="1975" fill="#001E27"/>
<rect width="323" height="404" fill="#00475D"/>
<path d="M36.688 48.416C36.688 47.328 36.9333 46.352 37.424 45.488C37.9147 44.6133 38.5813 43.9307 39.424 43.44C40.2773 42.9493 41.2213 42.704 42.256 42.704C43.472 42.704 44.5333 42.9973 45.44 43.584C46.3467 44.1707 47.008 45.0027 47.424 46.08H45.68C45.3707 45.408 44.9227 44.8907 44.336 44.528C43.76 44.1653 43.0667 43.984 42.256 43.984C41.4773 43.984 40.7787 44.1653 40.16 44.528C39.5413 44.8907 39.056 45.408 38.704 46.08C38.352 46.7413 38.176 47.52 38.176 48.416C38.176 49.3013 38.352 50.08 38.704 50.752C39.056 51.4133 39.5413 51.9253 40.16 52.288C40.7787 52.6507 41.4773 52.832 42.256 52.832C43.0667 52.832 43.76 52.656 44.336 52.304C44.9227 51.9413 45.3707 51.424 45.68 50.752H47.424C47.008 51.8187 46.3467 52.6453 45.44 53.232C44.5333 53.808 43.472 54.096 42.256 54.096C41.2213 54.096 40.2773 53.856 39.424 53.376C38.5813 52.8853 37.9147 52.208 37.424 51.344C36.9333 50.48 36.688 49.504 36.688 48.416ZM57.8474 54.112C56.8127 54.112 55.8687 53.872 55.0154 53.392C54.162 52.9013 53.4847 52.224 52.9834 51.36C52.4927 50.4853 52.2474 49.504 52.2474 48.416C52.2474 47.328 52.4927 46.352 52.9834 45.488C53.4847 44.6133 54.162 43.936 55.0154 43.456C55.8687 42.9653 56.8127 42.72 57.8474 42.72C58.8927 42.72 59.842 42.9653 60.6954 43.456C61.5487 43.936 62.2207 44.608 62.7114 45.472C63.202 46.336 63.4474 47.3173 63.4474 48.416C63.4474 49.5147 63.202 50.496 62.7114 51.36C62.2207 52.224 61.5487 52.9013 60.6954 53.392C59.842 53.872 58.8927 54.112 57.8474 54.112ZM57.8474 52.848C58.626 52.848 59.3247 52.6667 59.9434 52.304C60.5727 51.9413 61.0634 51.424 61.4154 50.752C61.778 50.08 61.9594 49.3013 61.9594 48.416C61.9594 47.52 61.778 46.7413 61.4154 46.08C61.0634 45.408 60.578 44.8907 59.9594 44.528C59.3407 44.1653 58.6367 43.984 57.8474 43.984C57.058 43.984 56.354 44.1653 55.7354 44.528C55.1167 44.8907 54.626 45.408 54.2634 46.08C53.9114 46.7413 53.7354 47.52 53.7354 48.416C53.7354 49.3013 53.9114 50.08 54.2634 50.752C54.626 51.424 55.1167 51.9413 55.7354 52.304C56.3647 52.6667 57.0687 52.848 57.8474 52.848ZM79.8815 42.928V54H78.4255V45.744L74.7455 54H73.7215L70.0255 45.728V54H68.5695V42.928H70.1375L74.2335 52.08L78.3295 42.928H79.8815ZM93.0067 46.112C93.0067 47.04 92.6867 47.8133 92.0467 48.432C91.4174 49.04 90.4521 49.344 89.1507 49.344H87.0067V54H85.5507V42.848H89.1507C90.4094 42.848 91.3641 43.152 92.0147 43.76C92.6761 44.368 93.0067 45.152 93.0067 46.112ZM89.1507 48.144C89.9614 48.144 90.5587 47.968 90.9427 47.616C91.3267 47.264 91.5187 46.7627 91.5187 46.112C91.5187 44.736 90.7294 44.048 89.1507 44.048H87.0067V48.144H89.1507ZM104.608 51.52H99.7444L98.8484 54H97.3124L101.344 42.912H103.024L107.04 54H105.504L104.608 51.52ZM104.192 50.336L102.176 44.704L100.16 50.336H104.192ZM117.87 54L115.214 49.44H113.454V54H111.998V42.848H115.598C116.44 42.848 117.15 42.992 117.726 43.28C118.312 43.568 118.75 43.9573 119.038 44.448C119.326 44.9387 119.47 45.4987 119.47 46.128C119.47 46.896 119.246 47.5733 118.798 48.16C118.36 48.7467 117.699 49.136 116.814 49.328L119.614 54H117.87ZM113.454 48.272H115.598C116.387 48.272 116.979 48.08 117.374 47.696C117.768 47.3013 117.966 46.7787 117.966 46.128C117.966 45.4667 117.768 44.9547 117.374 44.592C116.99 44.2293 116.398 44.048 115.598 44.048H113.454V48.272ZM131.524 51.52H126.66L125.764 54H124.228L128.26 42.912H129.94L133.956 54H132.42L131.524 51.52ZM131.108 50.336L129.092 44.704L127.076 50.336H131.108ZM145.777 42.848V44.032H142.737V54H141.281V44.032H138.225V42.848H145.777ZM152.225 42.848V54H150.769V42.848H152.225ZM167.123 42.848L162.915 54H161.235L157.027 42.848H158.579L162.083 52.464L165.587 42.848H167.123ZM176.976 54.112C175.941 54.112 174.997 53.872 174.144 53.392C173.29 52.9013 172.613 52.224 172.112 51.36C171.621 50.4853 171.376 49.504 171.376 48.416C171.376 47.328 171.621 46.352 172.112 45.488C172.613 44.6133 173.29 43.936 174.144 43.456C174.997 42.9653 175.941 42.72 176.976 42.72C178.021 42.72 178.97 42.9653 179.824 43.456C180.677 43.936 181.349 44.608 181.84 45.472C182.33 46.336 182.576 47.3173 182.576 48.416C182.576 49.5147 182.33 50.496 181.84 51.36C181.349 52.224 180.677 52.9013 179.824 53.392C178.97 53.872 178.021 54.112 176.976 54.112ZM176.976 52.848C177.754 52.848 178.453 52.6667 179.072 52.304C179.701 51.9413 180.192 51.424 180.544 50.752C180.906 50.08 181.088 49.3013 181.088 48.416C181.088 47.52 180.906 46.7413 180.544 46.08C180.192 45.408 179.706 44.8907 179.088 44.528C178.469 44.1653 177.765 43.984 176.976 43.984C176.186 43.984 175.482 44.1653 174.864 44.528C174.245 44.8907 173.754 45.408 173.392 46.08C173.04 46.7413 172.864 47.52 172.864 48.416C172.864 49.3013 173.04 50.08 173.392 50.752C173.754 51.424 174.245 51.9413 174.864 52.304C175.493 52.6667 176.197 52.848 176.976 52.848ZM201.755 51.52H196.891L195.995 54H194.459L198.491 42.912H200.171L204.187 54H202.651L201.755 51.52ZM201.339 50.336L199.323 44.704L197.307 50.336H201.339ZM217.913 54H216.457L210.601 45.12V54H209.145V42.832H210.601L216.457 51.696V42.832H217.913V54ZM225.019 42.848V49.904C225.019 50.896 225.259 51.632 225.739 52.112C226.229 52.592 226.907 52.832 227.771 52.832C228.624 52.832 229.291 52.592 229.771 52.112C230.261 51.632 230.507 50.896 230.507 49.904V42.848H231.963V49.888C231.963 50.816 231.776 51.6 231.403 52.24C231.029 52.8693 230.523 53.3387 229.883 53.648C229.253 53.9573 228.544 54.112 227.755 54.112C226.965 54.112 226.251 53.9573 225.611 53.648C224.981 53.3387 224.48 52.8693 224.107 52.24C223.744 51.6 223.563 50.816 223.563 49.888V42.848H225.019ZM244.183 51.52H239.319L238.423 54H236.887L240.919 42.912H242.599L246.615 54H245.079L244.183 51.52ZM243.767 50.336L241.751 44.704L239.735 50.336H243.767ZM253.029 52.816H256.933V54H251.573V42.848H253.029V52.816Z" fill="white"/>
<rect x="37" y="77" width="88" height="42" fill="#001E27"/>
<path d="M52.936 102.712C53.48 102.28 53.728 102.08 53.68 102.112C55.248 100.816 56.48 99.752 57.376 98.92C58.288 98.088 59.056 97.216 59.68 96.304C60.304 95.392 60.616 94.504 60.616 93.64C60.616 92.984 60.464 92.472 60.16 92.104C59.856 91.736 59.4 91.552 58.792 91.552C58.184 91.552 57.704 91.784 57.352 92.248C57.016 92.696 56.848 93.336 56.848 94.168H52.888C52.92 92.808 53.208 91.672 53.752 90.76C54.312 89.848 55.04 89.176 55.936 88.744C56.848 88.312 57.856 88.096 58.96 88.096C60.864 88.096 62.296 88.584 63.256 89.56C64.232 90.536 64.72 91.808 64.72 93.376C64.72 95.088 64.136 96.68 62.968 98.152C61.8 99.608 60.312 101.032 58.504 102.424H64.984V105.76H52.936V102.712ZM66.7909 97C66.7909 94.248 67.3189 92.08 68.3749 90.496C69.4469 88.912 71.1669 88.12 73.5349 88.12C75.9029 88.12 77.6149 88.912 78.6709 90.496C79.7429 92.08 80.2789 94.248 80.2789 97C80.2789 99.784 79.7429 101.968 78.6709 103.552C77.6149 105.136 75.9029 105.928 73.5349 105.928C71.1669 105.928 69.4469 105.136 68.3749 103.552C67.3189 101.968 66.7909 99.784 66.7909 97ZM76.2469 97C76.2469 95.384 76.0709 94.144 75.7189 93.28C75.3669 92.4 74.6389 91.96 73.5349 91.96C72.4309 91.96 71.7029 92.4 71.3509 93.28C70.9989 94.144 70.8229 95.384 70.8229 97C70.8229 98.088 70.8869 98.992 71.0149 99.712C71.1429 100.416 71.3989 100.992 71.7829 101.44C72.1829 101.872 72.7669 102.088 73.5349 102.088C74.3029 102.088 74.8789 101.872 75.2629 101.44C75.6629 100.992 75.9269 100.416 76.0549 99.712C76.1829 98.992 76.2469 98.088 76.2469 97ZM82.3032 102.712C82.8472 102.28 83.0952 102.08 83.0472 102.112C84.6152 100.816 85.8472 99.752 86.7432 98.92C87.6552 98.088 88.4232 97.216 89.0472 96.304C89.6712 95.392 89.9832 94.504 89.9832 93.64C89.9832 92.984 89.8312 92.472 89.5272 92.104C89.2232 91.736 88.7672 91.552 88.1592 91.552C87.5512 91.552 87.0712 91.784 86.7192 92.248C86.3832 92.696 86.2152 93.336 86.2152 94.168H82.2552C82.2872 92.808 82.5752 91.672 83.1192 90.76C83.6792 89.848 84.4072 89.176 85.3032 88.744C86.2152 88.312 87.2232 88.096 88.3272 88.096C90.2312 88.096 91.6632 88.584 92.6232 89.56C93.5992 90.536 94.0872 91.808 94.0872 93.376C94.0872 95.088 93.5032 96.68 92.3352 98.152C91.1672 99.608 89.6792 101.032 87.8712 102.424H94.3512V105.76H82.3032V102.712ZM96.3021 93.424C96.3661 91.712 96.9261 90.392 97.9821 89.464C99.0381 88.536 100.47 88.072 102.278 88.072C103.478 88.072 104.502 88.28 105.35 88.696C106.214 89.112 106.862 89.68 107.294 90.4C107.742 91.12 107.966 91.928 107.966 92.824C107.966 93.88 107.702 94.744 107.174 95.416C106.646 96.072 106.03 96.52 105.326 96.76V96.856C106.238 97.16 106.958 97.664 107.486 98.368C108.014 99.072 108.278 99.976 108.278 101.08C108.278 102.072 108.046 102.952 107.582 103.72C107.134 104.472 106.47 105.064 105.59 105.496C104.726 105.928 103.694 106.144 102.494 106.144C100.574 106.144 99.0381 105.672 97.8861 104.728C96.7501 103.784 96.1501 102.36 96.0861 100.456H100.07C100.086 101.16 100.286 101.72 100.67 102.136C101.054 102.536 101.614 102.736 102.35 102.736C102.974 102.736 103.454 102.56 103.79 102.208C104.142 101.84 104.318 101.36 104.318 100.768C104.318 100 104.07 99.448 103.574 99.112C103.094 98.76 102.318 98.584 101.246 98.584H100.478V95.248H101.246C102.062 95.248 102.718 95.112 103.214 94.84C103.726 94.552 103.982 94.048 103.982 93.328C103.982 92.752 103.822 92.304 103.502 91.984C103.182 91.664 102.742 91.504 102.182 91.504C101.574 91.504 101.118 91.688 100.814 92.056C100.526 92.424 100.358 92.88 100.31 93.424H96.3021Z" fill="#00E2F4"/>
<rect x="37" y="77" width="88" height="42" stroke="#00E2F4" stroke-width="2"/>
<path d="M150.936 102.712C151.48 102.28 151.728 102.08 151.68 102.112C153.248 100.816 154.48 99.752 155.376 98.92C156.288 98.088 157.056 97.216 157.68 96.304C158.304 95.392 158.616 94.504 158.616 93.64C158.616 92.984 158.464 92.472 158.16 92.104C157.856 91.736 157.4 91.552 156.792 91.552C156.184 91.552 155.704 91.784 155.352 92.248C155.016 92.696 154.848 93.336 154.848 94.168H150.888C150.92 92.808 151.208 91.672 151.752 90.76C152.312 89.848 153.04 89.176 153.936 88.744C154.848 88.312 155.856 88.096 156.96 88.096C158.864 88.096 160.296 88.584 161.256 89.56C162.232 90.536 162.72 91.808 162.72 93.376C162.72 95.088 162.136 96.68 160.968 98.152C159.8 99.608 158.312 101.032 156.504 102.424H162.984V105.76H150.936V102.712ZM164.791 97C164.791 94.248 165.319 92.08 166.375 90.496C167.447 88.912 169.167 88.12 171.535 88.12C173.903 88.12 175.615 88.912 176.671 90.496C177.743 92.08 178.279 94.248 178.279 97C178.279 99.784 177.743 101.968 176.671 103.552C175.615 105.136 173.903 105.928 171.535 105.928C169.167 105.928 167.447 105.136 166.375 103.552C165.319 101.968 164.791 99.784 164.791 97ZM174.247 97C174.247 95.384 174.071 94.144 173.719 93.28C173.367 92.4 172.639 91.96 171.535 91.96C170.431 91.96 169.703 92.4 169.351 93.28C168.999 94.144 168.823 95.384 168.823 97C168.823 98.088 168.887 98.992 169.015 99.712C169.143 100.416 169.399 100.992 169.783 101.44C170.183 101.872 170.767 102.088 171.535 102.088C172.303 102.088 172.879 101.872 173.263 101.44C173.663 100.992 173.927 100.416 174.055 99.712C174.183 98.992 174.247 98.088 174.247 97ZM180.303 102.712C180.847 102.28 181.095 102.08 181.047 102.112C182.615 100.816 183.847 99.752 184.743 98.92C185.655 98.088 186.423 97.216 187.047 96.304C187.671 95.392 187.983 94.504 187.983 93.64C187.983 92.984 187.831 92.472 187.527 92.104C187.223 91.736 186.767 91.552 186.159 91.552C185.551 91.552 185.071 91.784 184.719 92.248C184.383 92.696 184.215 93.336 184.215 94.168H180.255C180.287 92.808 180.575 91.672 181.119 90.76C181.679 89.848 182.407 89.176 183.303 88.744C184.215 88.312 185.223 88.096 186.327 88.096C188.231 88.096 189.663 88.584 190.623 89.56C191.599 90.536 192.087 91.808 192.087 93.376C192.087 95.088 191.503 96.68 190.335 98.152C189.167 99.608 187.679 101.032 185.871 102.424H192.351V105.76H180.303V102.712ZM194.014 102.712C194.558 102.28 194.806 102.08 194.758 102.112C196.326 100.816 197.558 99.752 198.454 98.92C199.366 98.088 200.134 97.216 200.758 96.304C201.382 95.392 201.694 94.504 201.694 93.64C201.694 92.984 201.542 92.472 201.238 92.104C200.934 91.736 200.478 91.552 199.87 91.552C199.262 91.552 198.782 91.784 198.43 92.248C198.094 92.696 197.926 93.336 197.926 94.168H193.966C193.998 92.808 194.286 91.672 194.83 90.76C195.39 89.848 196.118 89.176 197.014 88.744C197.926 88.312 198.934 88.096 200.038 88.096C201.942 88.096 203.374 88.584 204.334 89.56C205.31 90.536 205.798 91.808 205.798 93.376C205.798 95.088 205.214 96.68 204.046 98.152C202.878 99.608 201.39 101.032 199.582 102.424H206.062V105.76H194.014V102.712Z" fill="#0A909F"/>
<path d="M158.248 178.733L42.3243 159.651V332.873H272.811V159.054L158.248 178.733Z" fill="url(#paint0_linear_1004_1483)"/>
<circle cx="42" cy="159.684" r="6" fill="#D8FE00" fill-opacity="0.4"/>
<path d="M48 160L153 177" stroke="#D8FE00" stroke-opacity="0.4" stroke-width="2"/>
<path d="M164 175.267L266 160.903" stroke="#D8FE00" stroke-opacity="0.4" stroke-width="2"/>
<circle cx="158.243" cy="176.981" r="6" fill="#D8FE00" fill-opacity="0.4"/>
<circle cx="272.081" cy="161.09" r="6" fill="#D8FE00" fill-opacity="0.4"/>
<circle cx="43.027" cy="178.294" r="7.02703" fill="#00E2F4"/>
<path d="M49 176.267L155 188.267" stroke="#00E2F4" stroke-width="2"/>
<path d="M163 188.267L267.061 174.904" stroke="#00E2F4" stroke-width="2"/>
<circle cx="158.27" cy="188.294" r="7.02703" fill="#00E2F4"/>
<circle cx="272.108" cy="175.827" r="7.02703" fill="#00E2F4"/>
<path d="M159 187.767L42.3243 175.827V346.583H272.811V175.827L159 187.767Z" fill="url(#paint1_linear_1004_1483)"/>
<path d="M239.31 211.779C238.433 211.312 237.994 210.579 237.994 209.581C237.994 209.077 238.125 208.619 238.386 208.209C238.647 207.789 239.044 207.457 239.576 207.215C240.108 206.963 240.761 206.837 241.536 206.837C242.311 206.837 242.959 206.963 243.482 207.215C244.014 207.457 244.411 207.789 244.672 208.209C244.933 208.619 245.064 209.077 245.064 209.581C245.064 210.085 244.943 210.523 244.7 210.897C244.467 211.27 244.149 211.564 243.748 211.779C244.252 212.021 244.639 212.357 244.91 212.787C245.181 213.207 245.316 213.701 245.316 214.271C245.316 214.933 245.148 215.507 244.812 215.993C244.476 216.469 244.019 216.833 243.44 217.085C242.871 217.337 242.236 217.463 241.536 217.463C240.836 217.463 240.197 217.337 239.618 217.085C239.049 216.833 238.596 216.469 238.26 215.993C237.924 215.507 237.756 214.933 237.756 214.271C237.756 213.692 237.891 213.193 238.162 212.773C238.433 212.343 238.815 212.012 239.31 211.779ZM242.74 209.945C242.74 209.562 242.628 209.268 242.404 209.063C242.189 208.848 241.9 208.741 241.536 208.741C241.172 208.741 240.878 208.848 240.654 209.063C240.439 209.277 240.332 209.576 240.332 209.959C240.332 210.323 240.444 210.612 240.668 210.827C240.892 211.032 241.181 211.135 241.536 211.135C241.891 211.135 242.18 211.027 242.404 210.813C242.628 210.598 242.74 210.309 242.74 209.945ZM241.536 212.815C241.097 212.815 240.743 212.936 240.472 213.179C240.201 213.412 240.066 213.739 240.066 214.159C240.066 214.551 240.197 214.873 240.458 215.125C240.729 215.377 241.088 215.503 241.536 215.503C241.984 215.503 242.334 215.377 242.586 215.125C242.847 214.873 242.978 214.551 242.978 214.159C242.978 213.748 242.843 213.421 242.572 213.179C242.311 212.936 241.965 212.815 241.536 212.815ZM253.232 208.839L249.718 217.267H247.268L250.824 209.105H246.47V207.061H253.232V208.839ZM257.014 215.055L255.46 219.073H253.934L254.746 215.055H257.014ZM259.9 211.779C259.023 211.312 258.584 210.579 258.584 209.581C258.584 209.077 258.715 208.619 258.976 208.209C259.237 207.789 259.634 207.457 260.166 207.215C260.698 206.963 261.351 206.837 262.126 206.837C262.901 206.837 263.549 206.963 264.072 207.215C264.604 207.457 265.001 207.789 265.262 208.209C265.523 208.619 265.654 209.077 265.654 209.581C265.654 210.085 265.533 210.523 265.29 210.897C265.057 211.27 264.739 211.564 264.338 211.779C264.842 212.021 265.229 212.357 265.5 212.787C265.771 213.207 265.906 213.701 265.906 214.271C265.906 214.933 265.738 215.507 265.402 215.993C265.066 216.469 264.609 216.833 264.03 217.085C263.461 217.337 262.826 217.463 262.126 217.463C261.426 217.463 260.787 217.337 260.208 217.085C259.639 216.833 259.186 216.469 258.85 215.993C258.514 215.507 258.346 214.933 258.346 214.271C258.346 213.692 258.481 213.193 258.752 212.773C259.023 212.343 259.405 212.012 259.9 211.779ZM263.33 209.945C263.33 209.562 263.218 209.268 262.994 209.063C262.779 208.848 262.49 208.741 262.126 208.741C261.762 208.741 261.468 208.848 261.244 209.063C261.029 209.277 260.922 209.576 260.922 209.959C260.922 210.323 261.034 210.612 261.258 210.827C261.482 211.032 261.771 211.135 262.126 211.135C262.481 211.135 262.77 211.027 262.994 210.813C263.218 210.598 263.33 210.309 263.33 209.945ZM262.126 212.815C261.687 212.815 261.333 212.936 261.062 213.179C260.791 213.412 260.656 213.739 260.656 214.159C260.656 214.551 260.787 214.873 261.048 215.125C261.319 215.377 261.678 215.503 262.126 215.503C262.574 215.503 262.924 215.377 263.176 215.125C263.437 214.873 263.568 214.551 263.568 214.159C263.568 213.748 263.433 213.421 263.162 213.179C262.901 212.936 262.555 212.815 262.126 212.815ZM268.978 211.779C268.101 211.312 267.662 210.579 267.662 209.581C267.662 209.077 267.793 208.619 268.054 208.209C268.315 207.789 268.712 207.457 269.244 207.215C269.776 206.963 270.429 206.837 271.204 206.837C271.979 206.837 272.627 206.963 273.15 207.215C273.682 207.457 274.079 207.789 274.34 208.209C274.601 208.619 274.732 209.077 274.732 209.581C274.732 210.085 274.611 210.523 274.368 210.897C274.135 211.27 273.817 211.564 273.416 211.779C273.92 212.021 274.307 212.357 274.578 212.787C274.849 213.207 274.984 213.701 274.984 214.271C274.984 214.933 274.816 215.507 274.48 215.993C274.144 216.469 273.687 216.833 273.108 217.085C272.539 217.337 271.904 217.463 271.204 217.463C270.504 217.463 269.865 217.337 269.286 217.085C268.717 216.833 268.264 216.469 267.928 215.993C267.592 215.507 267.424 214.933 267.424 214.271C267.424 213.692 267.559 213.193 267.83 212.773C268.101 212.343 268.483 212.012 268.978 211.779ZM272.408 209.945C272.408 209.562 272.296 209.268 272.072 209.063C271.857 208.848 271.568 208.741 271.204 208.741C270.84 208.741 270.546 208.848 270.322 209.063C270.107 209.277 270 209.576 270 209.959C270 210.323 270.112 210.612 270.336 210.827C270.56 211.032 270.849 211.135 271.204 211.135C271.559 211.135 271.848 211.027 272.072 210.813C272.296 210.598 272.408 210.309 272.408 209.945ZM271.204 212.815C270.765 212.815 270.411 212.936 270.14 213.179C269.869 213.412 269.734 213.739 269.734 214.159C269.734 214.551 269.865 214.873 270.126 215.125C270.397 215.377 270.756 215.503 271.204 215.503C271.652 215.503 272.002 215.377 272.254 215.125C272.515 214.873 272.646 214.551 272.646 214.159C272.646 213.748 272.511 213.421 272.24 213.179C271.979 212.936 271.633 212.815 271.204 212.815Z" fill="white"/>
<path d="M248.968 227.843L246.052 233.483V236.267H244V233.483L241.084 227.843H243.412L245.044 231.371L246.664 227.843H248.968ZM252.843 236.363C252.187 236.363 251.595 236.223 251.067 235.943C250.547 235.663 250.135 235.263 249.831 234.743C249.535 234.223 249.387 233.615 249.387 232.919C249.387 232.231 249.539 231.627 249.843 231.107C250.147 230.579 250.563 230.175 251.091 229.895C251.619 229.615 252.211 229.475 252.867 229.475C253.523 229.475 254.115 229.615 254.643 229.895C255.171 230.175 255.587 230.579 255.891 231.107C256.195 231.627 256.347 232.231 256.347 232.919C256.347 233.607 256.191 234.215 255.879 234.743C255.575 235.263 255.155 235.663 254.619 235.943C254.091 236.223 253.499 236.363 252.843 236.363ZM252.843 234.587C253.235 234.587 253.567 234.443 253.839 234.155C254.119 233.867 254.259 233.455 254.259 232.919C254.259 232.383 254.123 231.971 253.851 231.683C253.587 231.395 253.259 231.251 252.867 231.251C252.467 231.251 252.135 231.395 251.871 231.683C251.607 231.963 251.475 232.375 251.475 232.919C251.475 233.455 251.603 233.867 251.859 234.155C252.123 234.443 252.451 234.587 252.843 234.587ZM264.659 227.843L261.743 233.483V236.267H259.691V233.483L256.775 227.843H259.103L260.735 231.371L262.355 227.843H264.659ZM265.114 229.715C265.114 229.067 265.298 228.567 265.666 228.215C266.042 227.863 266.526 227.687 267.118 227.687C267.71 227.687 268.19 227.863 268.558 228.215C268.926 228.567 269.11 229.067 269.11 229.715C269.11 230.363 268.926 230.863 268.558 231.215C268.19 231.567 267.71 231.743 267.118 231.743C266.526 231.743 266.042 231.567 265.666 231.215C265.298 230.863 265.114 230.363 265.114 229.715ZM273.262 227.819L268.642 236.267H266.662L271.282 227.819H273.262ZM267.106 228.887C266.722 228.887 266.53 229.163 266.53 229.715C266.53 230.259 266.722 230.531 267.106 230.531C267.29 230.531 267.434 230.463 267.538 230.327C267.642 230.191 267.694 229.987 267.694 229.715C267.694 229.163 267.498 228.887 267.106 228.887ZM270.826 234.371C270.826 233.723 271.01 233.223 271.378 232.871C271.746 232.519 272.226 232.343 272.818 232.343C273.41 232.343 273.89 232.519 274.258 232.871C274.626 233.223 274.81 233.723 274.81 234.371C274.81 235.019 274.626 235.519 274.258 235.871C273.89 236.223 273.41 236.399 272.818 236.399C272.226 236.399 271.746 236.223 271.378 235.871C271.01 235.519 270.826 235.019 270.826 234.371ZM272.806 233.543C272.622 233.543 272.478 233.611 272.374 233.747C272.278 233.883 272.23 234.091 272.23 234.371C272.23 234.915 272.422 235.187 272.806 235.187C272.99 235.187 273.134 235.119 273.238 234.983C273.342 234.847 273.394 234.643 273.394 234.371C273.394 234.099 273.342 233.895 273.238 233.759C273.134 233.615 272.99 233.543 272.806 233.543Z" fill="white"/>
<path d="M236.904 249.203V250.907H231.624V249.203H236.904ZM238.285 247.415V245.507H241.609V254.267H239.473V247.415H238.285ZM245.425 252.371L244.093 255.815H242.785L243.481 252.371H245.425ZM246.386 252.623C246.658 252.407 246.782 252.307 246.758 252.323C247.542 251.675 248.158 251.143 248.606 250.727C249.062 250.311 249.446 249.875 249.758 249.419C250.07 248.963 250.226 248.519 250.226 248.087C250.226 247.759 250.15 247.503 249.998 247.319C249.846 247.135 249.618 247.043 249.314 247.043C249.01 247.043 248.77 247.159 248.594 247.391C248.426 247.615 248.342 247.935 248.342 248.351H246.362C246.378 247.671 246.522 247.103 246.794 246.647C247.074 246.191 247.438 245.855 247.886 245.639C248.342 245.423 248.846 245.315 249.398 245.315C250.35 245.315 251.066 245.559 251.546 246.047C252.034 246.535 252.278 247.171 252.278 247.955C252.278 248.811 251.986 249.607 251.402 250.343C250.818 251.071 250.074 251.783 249.17 252.479H252.41V254.147H246.386V252.623ZM253.145 247.715C253.145 247.067 253.329 246.567 253.697 246.215C254.073 245.863 254.557 245.687 255.149 245.687C255.741 245.687 256.221 245.863 256.589 246.215C256.957 246.567 257.141 247.067 257.141 247.715C257.141 248.363 256.957 248.863 256.589 249.215C256.221 249.567 255.741 249.743 255.149 249.743C254.557 249.743 254.073 249.567 253.697 249.215C253.329 248.863 253.145 248.363 253.145 247.715ZM261.293 245.819L256.673 254.267H254.693L259.313 245.819H261.293ZM255.137 246.887C254.753 246.887 254.561 247.163 254.561 247.715C254.561 248.259 254.753 248.531 255.137 248.531C255.321 248.531 255.465 248.463 255.569 248.327C255.673 248.191 255.725 247.987 255.725 247.715C255.725 247.163 255.529 246.887 255.137 246.887ZM258.857 252.371C258.857 251.723 259.041 251.223 259.409 250.871C259.777 250.519 260.257 250.343 260.849 250.343C261.441 250.343 261.921 250.519 262.289 250.871C262.657 251.223 262.841 251.723 262.841 252.371C262.841 253.019 262.657 253.519 262.289 253.871C261.921 254.223 261.441 254.399 260.849 254.399C260.257 254.399 259.777 254.223 259.409 253.871C259.041 253.519 258.857 253.019 258.857 252.371ZM260.837 251.543C260.653 251.543 260.509 251.611 260.405 251.747C260.309 251.883 260.261 252.091 260.261 252.371C260.261 252.915 260.453 253.187 260.837 253.187C261.021 253.187 261.165 253.119 261.269 252.983C261.373 252.847 261.425 252.643 261.425 252.371C261.425 252.099 261.373 251.895 261.269 251.759C261.165 251.615 261.021 251.543 260.837 251.543Z" fill="#FF6565"/>
<path d="M272 253.767L268 246.767L276 246.767L272 253.767Z" fill="#FF6565"/>
<path d="M239.31 211.779C238.433 211.312 237.994 210.579 237.994 209.581C237.994 209.077 238.125 208.619 238.386 208.209C238.647 207.789 239.044 207.457 239.576 207.215C240.108 206.963 240.761 206.837 241.536 206.837C242.311 206.837 242.959 206.963 243.482 207.215C244.014 207.457 244.411 207.789 244.672 208.209C244.933 208.619 245.064 209.077 245.064 209.581C245.064 210.085 244.943 210.523 244.7 210.897C244.467 211.27 244.149 211.564 243.748 211.779C244.252 212.021 244.639 212.357 244.91 212.787C245.181 213.207 245.316 213.701 245.316 214.271C245.316 214.933 245.148 215.507 244.812 215.993C244.476 216.469 244.019 216.833 243.44 217.085C242.871 217.337 242.236 217.463 241.536 217.463C240.836 217.463 240.197 217.337 239.618 217.085C239.049 216.833 238.596 216.469 238.26 215.993C237.924 215.507 237.756 214.933 237.756 214.271C237.756 213.692 237.891 213.193 238.162 212.773C238.433 212.343 238.815 212.012 239.31 211.779ZM242.74 209.945C242.74 209.562 242.628 209.268 242.404 209.063C242.189 208.848 241.9 208.741 241.536 208.741C241.172 208.741 240.878 208.848 240.654 209.063C240.439 209.277 240.332 209.576 240.332 209.959C240.332 210.323 240.444 210.612 240.668 210.827C240.892 211.032 241.181 211.135 241.536 211.135C241.891 211.135 242.18 211.027 242.404 210.813C242.628 210.598 242.74 210.309 242.74 209.945ZM241.536 212.815C241.097 212.815 240.743 212.936 240.472 213.179C240.201 213.412 240.066 213.739 240.066 214.159C240.066 214.551 240.197 214.873 240.458 215.125C240.729 215.377 241.088 215.503 241.536 215.503C241.984 215.503 242.334 215.377 242.586 215.125C242.847 214.873 242.978 214.551 242.978 214.159C242.978 213.748 242.843 213.421 242.572 213.179C242.311 212.936 241.965 212.815 241.536 212.815ZM253.232 208.839L249.718 217.267H247.268L250.824 209.105H246.47V207.061H253.232V208.839ZM257.014 215.055L255.46 219.073H253.934L254.746 215.055H257.014ZM259.9 211.779C259.023 211.312 258.584 210.579 258.584 209.581C258.584 209.077 258.715 208.619 258.976 208.209C259.237 207.789 259.634 207.457 260.166 207.215C260.698 206.963 261.351 206.837 262.126 206.837C262.901 206.837 263.549 206.963 264.072 207.215C264.604 207.457 265.001 207.789 265.262 208.209C265.523 208.619 265.654 209.077 265.654 209.581C265.654 210.085 265.533 210.523 265.29 210.897C265.057 211.27 264.739 211.564 264.338 211.779C264.842 212.021 265.229 212.357 265.5 212.787C265.771 213.207 265.906 213.701 265.906 214.271C265.906 214.933 265.738 215.507 265.402 215.993C265.066 216.469 264.609 216.833 264.03 217.085C263.461 217.337 262.826 217.463 262.126 217.463C261.426 217.463 260.787 217.337 260.208 217.085C259.639 216.833 259.186 216.469 258.85 215.993C258.514 215.507 258.346 214.933 258.346 214.271C258.346 213.692 258.481 213.193 258.752 212.773C259.023 212.343 259.405 212.012 259.9 211.779ZM263.33 209.945C263.33 209.562 263.218 209.268 262.994 209.063C262.779 208.848 262.49 208.741 262.126 208.741C261.762 208.741 261.468 208.848 261.244 209.063C261.029 209.277 260.922 209.576 260.922 209.959C260.922 210.323 261.034 210.612 261.258 210.827C261.482 211.032 261.771 211.135 262.126 211.135C262.481 211.135 262.77 211.027 262.994 210.813C263.218 210.598 263.33 210.309 263.33 209.945ZM262.126 212.815C261.687 212.815 261.333 212.936 261.062 213.179C260.791 213.412 260.656 213.739 260.656 214.159C260.656 214.551 260.787 214.873 261.048 215.125C261.319 215.377 261.678 215.503 262.126 215.503C262.574 215.503 262.924 215.377 263.176 215.125C263.437 214.873 263.568 214.551 263.568 214.159C263.568 213.748 263.433 213.421 263.162 213.179C262.901 212.936 262.555 212.815 262.126 212.815ZM268.978 211.779C268.101 211.312 267.662 210.579 267.662 209.581C267.662 209.077 267.793 208.619 268.054 208.209C268.315 207.789 268.712 207.457 269.244 207.215C269.776 206.963 270.429 206.837 271.204 206.837C271.979 206.837 272.627 206.963 273.15 207.215C273.682 207.457 274.079 207.789 274.34 208.209C274.601 208.619 274.732 209.077 274.732 209.581C274.732 210.085 274.611 210.523 274.368 210.897C274.135 211.27 273.817 211.564 273.416 211.779C273.92 212.021 274.307 212.357 274.578 212.787C274.849 213.207 274.984 213.701 274.984 214.271C274.984 214.933 274.816 215.507 274.48 215.993C274.144 216.469 273.687 216.833 273.108 217.085C272.539 217.337 271.904 217.463 271.204 217.463C270.504 217.463 269.865 217.337 269.286 217.085C268.717 216.833 268.264 216.469 267.928 215.993C267.592 215.507 267.424 214.933 267.424 214.271C267.424 213.692 267.559 213.193 267.83 212.773C268.101 212.343 268.483 212.012 268.978 211.779ZM272.408 209.945C272.408 209.562 272.296 209.268 272.072 209.063C271.857 208.848 271.568 208.741 271.204 208.741C270.84 208.741 270.546 208.848 270.322 209.063C270.107 209.277 270 209.576 270 209.959C270 210.323 270.112 210.612 270.336 210.827C270.56 211.032 270.849 211.135 271.204 211.135C271.559 211.135 271.848 211.027 272.072 210.813C272.296 210.598 272.408 210.309 272.408 209.945ZM271.204 212.815C270.765 212.815 270.411 212.936 270.14 213.179C269.869 213.412 269.734 213.739 269.734 214.159C269.734 214.551 269.865 214.873 270.126 215.125C270.397 215.377 270.756 215.503 271.204 215.503C271.652 215.503 272.002 215.377 272.254 215.125C272.515 214.873 272.646 214.551 272.646 214.159C272.646 213.748 272.511 213.421 272.24 213.179C271.979 212.936 271.633 212.815 271.204 212.815Z" fill="#00E2F4"/>
<path d="M248.968 227.843L246.052 233.483V236.267H244V233.483L241.084 227.843H243.412L245.044 231.371L246.664 227.843H248.968ZM252.843 236.363C252.187 236.363 251.595 236.223 251.067 235.943C250.547 235.663 250.135 235.263 249.831 234.743C249.535 234.223 249.387 233.615 249.387 232.919C249.387 232.231 249.539 231.627 249.843 231.107C250.147 230.579 250.563 230.175 251.091 229.895C251.619 229.615 252.211 229.475 252.867 229.475C253.523 229.475 254.115 229.615 254.643 229.895C255.171 230.175 255.587 230.579 255.891 231.107C256.195 231.627 256.347 232.231 256.347 232.919C256.347 233.607 256.191 234.215 255.879 234.743C255.575 235.263 255.155 235.663 254.619 235.943C254.091 236.223 253.499 236.363 252.843 236.363ZM252.843 234.587C253.235 234.587 253.567 234.443 253.839 234.155C254.119 233.867 254.259 233.455 254.259 232.919C254.259 232.383 254.123 231.971 253.851 231.683C253.587 231.395 253.259 231.251 252.867 231.251C252.467 231.251 252.135 231.395 251.871 231.683C251.607 231.963 251.475 232.375 251.475 232.919C251.475 233.455 251.603 233.867 251.859 234.155C252.123 234.443 252.451 234.587 252.843 234.587ZM264.659 227.843L261.743 233.483V236.267H259.691V233.483L256.775 227.843H259.103L260.735 231.371L262.355 227.843H264.659ZM265.114 229.715C265.114 229.067 265.298 228.567 265.666 228.215C266.042 227.863 266.526 227.687 267.118 227.687C267.71 227.687 268.19 227.863 268.558 228.215C268.926 228.567 269.11 229.067 269.11 229.715C269.11 230.363 268.926 230.863 268.558 231.215C268.19 231.567 267.71 231.743 267.118 231.743C266.526 231.743 266.042 231.567 265.666 231.215C265.298 230.863 265.114 230.363 265.114 229.715ZM273.262 227.819L268.642 236.267H266.662L271.282 227.819H273.262ZM267.106 228.887C266.722 228.887 266.53 229.163 266.53 229.715C266.53 230.259 266.722 230.531 267.106 230.531C267.29 230.531 267.434 230.463 267.538 230.327C267.642 230.191 267.694 229.987 267.694 229.715C267.694 229.163 267.498 228.887 267.106 228.887ZM270.826 234.371C270.826 233.723 271.01 233.223 271.378 232.871C271.746 232.519 272.226 232.343 272.818 232.343C273.41 232.343 273.89 232.519 274.258 232.871C274.626 233.223 274.81 233.723 274.81 234.371C274.81 235.019 274.626 235.519 274.258 235.871C273.89 236.223 273.41 236.399 272.818 236.399C272.226 236.399 271.746 236.223 271.378 235.871C271.01 235.519 270.826 235.019 270.826 234.371ZM272.806 233.543C272.622 233.543 272.478 233.611 272.374 233.747C272.278 233.883 272.23 234.091 272.23 234.371C272.23 234.915 272.422 235.187 272.806 235.187C272.99 235.187 273.134 235.119 273.238 234.983C273.342 234.847 273.394 234.643 273.394 234.371C273.394 234.099 273.342 233.895 273.238 233.759C273.134 233.615 272.99 233.543 272.806 233.543Z" fill="white"/>
<path d="M236.904 249.203V250.907H231.624V249.203H236.904ZM238.285 247.415V245.507H241.609V254.267H239.473V247.415H238.285ZM245.425 252.371L244.093 255.815H242.785L243.481 252.371H245.425ZM246.386 252.623C246.658 252.407 246.782 252.307 246.758 252.323C247.542 251.675 248.158 251.143 248.606 250.727C249.062 250.311 249.446 249.875 249.758 249.419C250.07 248.963 250.226 248.519 250.226 248.087C250.226 247.759 250.15 247.503 249.998 247.319C249.846 247.135 249.618 247.043 249.314 247.043C249.01 247.043 248.77 247.159 248.594 247.391C248.426 247.615 248.342 247.935 248.342 248.351H246.362C246.378 247.671 246.522 247.103 246.794 246.647C247.074 246.191 247.438 245.855 247.886 245.639C248.342 245.423 248.846 245.315 249.398 245.315C250.35 245.315 251.066 245.559 251.546 246.047C252.034 246.535 252.278 247.171 252.278 247.955C252.278 248.811 251.986 249.607 251.402 250.343C250.818 251.071 250.074 251.783 249.17 252.479H252.41V254.147H246.386V252.623ZM253.145 247.715C253.145 247.067 253.329 246.567 253.697 246.215C254.073 245.863 254.557 245.687 255.149 245.687C255.741 245.687 256.221 245.863 256.589 246.215C256.957 246.567 257.141 247.067 257.141 247.715C257.141 248.363 256.957 248.863 256.589 249.215C256.221 249.567 255.741 249.743 255.149 249.743C254.557 249.743 254.073 249.567 253.697 249.215C253.329 248.863 253.145 248.363 253.145 247.715ZM261.293 245.819L256.673 254.267H254.693L259.313 245.819H261.293ZM255.137 246.887C254.753 246.887 254.561 247.163 254.561 247.715C254.561 248.259 254.753 248.531 255.137 248.531C255.321 248.531 255.465 248.463 255.569 248.327C255.673 248.191 255.725 247.987 255.725 247.715C255.725 247.163 255.529 246.887 255.137 246.887ZM258.857 252.371C258.857 251.723 259.041 251.223 259.409 250.871C259.777 250.519 260.257 250.343 260.849 250.343C261.441 250.343 261.921 250.519 262.289 250.871C262.657 251.223 262.841 251.723 262.841 252.371C262.841 253.019 262.657 253.519 262.289 253.871C261.921 254.223 261.441 254.399 260.849 254.399C260.257 254.399 259.777 254.223 259.409 253.871C259.041 253.519 258.857 253.019 258.857 252.371ZM260.837 251.543C260.653 251.543 260.509 251.611 260.405 251.747C260.309 251.883 260.261 252.091 260.261 252.371C260.261 252.915 260.453 253.187 260.837 253.187C261.021 253.187 261.165 253.119 261.269 252.983C261.373 252.847 261.425 252.643 261.425 252.371C261.425 252.099 261.373 251.895 261.269 251.759C261.165 251.615 261.021 251.543 260.837 251.543Z" fill="#FF6565"/>
<path d="M272 253.767L268 246.767L276 246.767L272 253.767Z" fill="#FF6565"/>
<path d="M141.378 209.273V207.047H145.256V217.267H142.764V209.273H141.378ZM146.894 212.017C146.894 210.411 147.202 209.147 147.818 208.223C148.443 207.299 149.446 206.837 150.828 206.837C152.209 206.837 153.208 207.299 153.824 208.223C154.449 209.147 154.762 210.411 154.762 212.017C154.762 213.641 154.449 214.915 153.824 215.839C153.208 216.763 152.209 217.225 150.828 217.225C149.446 217.225 148.443 216.763 147.818 215.839C147.202 214.915 146.894 213.641 146.894 212.017ZM152.41 212.017C152.41 211.074 152.307 210.351 152.102 209.847C151.896 209.333 151.472 209.077 150.828 209.077C150.184 209.077 149.759 209.333 149.554 209.847C149.348 210.351 149.246 211.074 149.246 212.017C149.246 212.651 149.283 213.179 149.358 213.599C149.432 214.009 149.582 214.345 149.806 214.607C150.039 214.859 150.38 214.985 150.828 214.985C151.276 214.985 151.612 214.859 151.836 214.607C152.069 214.345 152.223 214.009 152.298 213.599C152.372 213.179 152.41 212.651 152.41 212.017ZM155.774 209.273V207.047H159.652V217.267H157.16V209.273H155.774ZM164.104 215.055L162.55 219.073H161.024L161.836 215.055H164.104ZM165.058 209.273V207.047H168.936V217.267H166.444V209.273H165.058ZM172.253 211.779C171.376 211.312 170.937 210.579 170.937 209.581C170.937 209.077 171.068 208.619 171.329 208.209C171.591 207.789 171.987 207.457 172.519 207.215C173.051 206.963 173.705 206.837 174.479 206.837C175.254 206.837 175.903 206.963 176.425 207.215C176.957 207.457 177.354 207.789 177.615 208.209C177.877 208.619 178.007 209.077 178.007 209.581C178.007 210.085 177.886 210.523 177.643 210.897C177.41 211.27 177.093 211.564 176.691 211.779C177.195 212.021 177.583 212.357 177.853 212.787C178.124 213.207 178.259 213.701 178.259 214.271C178.259 214.933 178.091 215.507 177.755 215.993C177.419 216.469 176.962 216.833 176.383 217.085C175.814 217.337 175.179 217.463 174.479 217.463C173.779 217.463 173.14 217.337 172.561 217.085C171.992 216.833 171.539 216.469 171.203 215.993C170.867 215.507 170.699 214.933 170.699 214.271C170.699 213.692 170.835 213.193 171.105 212.773C171.376 212.343 171.759 212.012 172.253 211.779ZM175.683 209.945C175.683 209.562 175.571 209.268 175.347 209.063C175.133 208.848 174.843 208.741 174.479 208.741C174.115 208.741 173.821 208.848 173.597 209.063C173.383 209.277 173.275 209.576 173.275 209.959C173.275 210.323 173.387 210.612 173.611 210.827C173.835 211.032 174.125 211.135 174.479 211.135C174.834 211.135 175.123 211.027 175.347 210.813C175.571 210.598 175.683 210.309 175.683 209.945ZM174.479 212.815C174.041 212.815 173.686 212.936 173.415 213.179C173.145 213.412 173.009 213.739 173.009 214.159C173.009 214.551 173.14 214.873 173.401 215.125C173.672 215.377 174.031 215.503 174.479 215.503C174.927 215.503 175.277 215.377 175.529 215.125C175.791 214.873 175.921 214.551 175.921 214.159C175.921 213.748 175.786 213.421 175.515 213.179C175.254 212.936 174.909 212.815 174.479 212.815Z" fill="white"/>
<path d="M39.206 214.271C39.346 215.008 39.7753 215.377 40.494 215.377C40.9887 215.377 41.3387 215.157 41.544 214.719C41.7493 214.28 41.852 213.566 41.852 212.577C41.6467 212.866 41.3667 213.09 41.012 213.249C40.6573 213.407 40.2607 213.487 39.822 213.487C39.2247 213.487 38.6927 213.365 38.226 213.123C37.7593 212.871 37.3907 212.502 37.12 212.017C36.8587 211.522 36.728 210.925 36.728 210.225C36.728 209.534 36.868 208.932 37.148 208.419C37.4373 207.905 37.8433 207.509 38.366 207.229C38.898 206.949 39.5233 206.809 40.242 206.809C41.6233 206.809 42.5893 207.238 43.14 208.097C43.6907 208.955 43.966 210.22 43.966 211.891C43.966 213.104 43.854 214.107 43.63 214.901C43.4153 215.685 43.0467 216.282 42.524 216.693C42.0107 217.103 41.306 217.309 40.41 217.309C39.7007 217.309 39.094 217.169 38.59 216.889C38.0953 216.609 37.7127 216.24 37.442 215.783C37.1807 215.325 37.0313 214.821 36.994 214.271H39.206ZM40.368 211.597C40.76 211.597 41.0727 211.48 41.306 211.247C41.5393 211.004 41.656 210.677 41.656 210.267C41.656 209.819 41.5347 209.473 41.292 209.231C41.0493 208.988 40.7227 208.867 40.312 208.867C39.9013 208.867 39.5747 208.993 39.332 209.245C39.0987 209.487 38.982 209.823 38.982 210.253C38.982 210.654 39.0987 210.981 39.332 211.233C39.5747 211.475 39.92 211.597 40.368 211.597ZM51.7673 208.839L48.2533 217.267H45.8033L49.3593 209.105H45.0053V207.061H51.7673V208.839ZM55.5495 215.055L53.9955 219.073H52.4695L53.2815 215.055H55.5495ZM63.279 208.839L59.765 217.267H57.315L60.871 209.105H56.517V207.061H63.279V208.839ZM64.1632 215.349C64.4805 215.097 64.6252 214.98 64.5972 214.999C65.5119 214.243 66.2305 213.622 66.7532 213.137C67.2852 212.651 67.7332 212.143 68.0972 211.611C68.4612 211.079 68.6432 210.561 68.6432 210.057C68.6432 209.674 68.5545 209.375 68.3772 209.161C68.1999 208.946 67.9339 208.839 67.5792 208.839C67.2245 208.839 66.9445 208.974 66.7392 209.245C66.5432 209.506 66.4452 209.879 66.4452 210.365H64.1352C64.1539 209.571 64.3219 208.909 64.6392 208.377C64.9659 207.845 65.3905 207.453 65.9132 207.201C66.4452 206.949 67.0332 206.823 67.6772 206.823C68.7879 206.823 69.6232 207.107 70.1832 207.677C70.7525 208.246 71.0372 208.988 71.0372 209.903C71.0372 210.901 70.6965 211.83 70.0152 212.689C69.3339 213.538 68.4659 214.369 67.4112 215.181H71.1912V217.127H64.1632V215.349Z" fill="white"/>
<path d="M47.4969 361H45.5369L41.0989 354.294V361H39.1389V351.214H41.0989L45.5369 357.934V351.214H47.4969V361ZM53.9698 361.098C53.0551 361.098 52.2151 360.883 51.4498 360.454C50.6844 360.025 50.0778 359.432 49.6298 358.676C49.1818 357.911 48.9578 357.047 48.9578 356.086C48.9578 355.134 49.1818 354.28 49.6298 353.524C50.0778 352.759 50.6844 352.161 51.4498 351.732C52.2151 351.303 53.0551 351.088 53.9698 351.088C54.8938 351.088 55.7338 351.303 56.4898 351.732C57.2551 352.161 57.8571 352.759 58.2958 353.524C58.7438 354.28 58.9678 355.134 58.9678 356.086C58.9678 357.047 58.7438 357.911 58.2958 358.676C57.8571 359.432 57.2551 360.025 56.4898 360.454C55.7244 360.883 54.8844 361.098 53.9698 361.098ZM53.9698 359.348C54.5578 359.348 55.0758 359.217 55.5238 358.956C55.9718 358.685 56.3218 358.303 56.5738 357.808C56.8258 357.313 56.9518 356.739 56.9518 356.086C56.9518 355.433 56.8258 354.863 56.5738 354.378C56.3218 353.883 55.9718 353.505 55.5238 353.244C55.0758 352.983 54.5578 352.852 53.9698 352.852C53.3818 352.852 52.8591 352.983 52.4018 353.244C51.9538 353.505 51.6038 353.883 51.3518 354.378C51.0998 354.863 50.9738 355.433 50.9738 356.086C50.9738 356.739 51.0998 357.313 51.3518 357.808C51.6038 358.303 51.9538 358.685 52.4018 358.956C52.8591 359.217 53.3818 359.348 53.9698 359.348ZM69.204 351.228L65.62 361H63.24L59.656 351.228H61.756L64.444 358.998L67.118 351.228H69.204ZM74.107 358.788C75.003 358.041 75.717 357.421 76.249 356.926C76.781 356.422 77.2244 355.899 77.579 355.358C77.9337 354.817 78.111 354.285 78.111 353.762C78.111 353.286 77.999 352.913 77.775 352.642C77.551 352.371 77.2057 352.236 76.739 352.236C76.2724 352.236 75.913 352.395 75.661 352.712C75.409 353.02 75.2784 353.445 75.269 353.986H73.365C73.4024 352.866 73.7337 352.017 74.359 351.438C74.9937 350.859 75.7964 350.57 76.767 350.57C77.831 350.57 78.6477 350.855 79.217 351.424C79.7864 351.984 80.071 352.726 80.071 353.65C80.071 354.378 79.875 355.073 79.483 355.736C79.091 356.399 78.643 356.977 78.139 357.472C77.635 357.957 76.977 358.545 76.165 359.236H80.295V360.86H73.379V359.404L74.107 358.788ZM82.1461 358.788C83.0421 358.041 83.7561 357.421 84.2881 356.926C84.8201 356.422 85.2634 355.899 85.6181 355.358C85.9728 354.817 86.1501 354.285 86.1501 353.762C86.1501 353.286 86.0381 352.913 85.8141 352.642C85.5901 352.371 85.2448 352.236 84.7781 352.236C84.3114 352.236 83.9521 352.395 83.7001 352.712C83.4481 353.02 83.3174 353.445 83.3081 353.986H81.4041C81.4414 352.866 81.7728 352.017 82.3981 351.438C83.0328 350.859 83.8354 350.57 84.8061 350.57C85.8701 350.57 86.6868 350.855 87.2561 351.424C87.8254 351.984 88.1101 352.726 88.1101 353.65C88.1101 354.378 87.9141 355.073 87.5221 355.736C87.1301 356.399 86.6821 356.977 86.1781 357.472C85.6741 357.957 85.0161 358.545 84.2041 359.236H88.3341V360.86H81.4181V359.404L82.1461 358.788Z" fill="white"/>
<path d="M145.399 351.228C146.425 351.228 147.326 351.429 148.101 351.83C148.885 352.231 149.487 352.805 149.907 353.552C150.336 354.289 150.551 355.148 150.551 356.128C150.551 357.108 150.336 357.967 149.907 358.704C149.487 359.432 148.885 359.997 148.101 360.398C147.326 360.799 146.425 361 145.399 361H141.983V351.228H145.399ZM145.329 359.334C146.355 359.334 147.149 359.054 147.709 358.494C148.269 357.934 148.549 357.145 148.549 356.128C148.549 355.111 148.269 354.317 147.709 353.748C147.149 353.169 146.355 352.88 145.329 352.88H143.943V359.334H145.329ZM153.978 352.81V355.26H157.268V356.814H153.978V359.404H157.688V361H152.018V351.214H157.688V352.81H153.978ZM161.471 359.348H165.867V361H159.203V359.488L163.571 352.88H159.203V351.228H165.867V352.74L161.471 359.348ZM171.263 358.788C172.159 358.041 172.873 357.421 173.405 356.926C173.937 356.422 174.381 355.899 174.735 355.358C175.09 354.817 175.267 354.285 175.267 353.762C175.267 353.286 175.155 352.913 174.931 352.642C174.707 352.371 174.362 352.236 173.895 352.236C173.429 352.236 173.069 352.395 172.817 352.712C172.565 353.02 172.435 353.445 172.425 353.986H170.521C170.559 352.866 170.89 352.017 171.515 351.438C172.15 350.859 172.953 350.57 173.923 350.57C174.987 350.57 175.804 350.855 176.373 351.424C176.943 351.984 177.227 352.726 177.227 353.65C177.227 354.378 177.031 355.073 176.639 355.736C176.247 356.399 175.799 356.977 175.295 357.472C174.791 357.957 174.133 358.545 173.321 359.236H177.451V360.86H170.535V359.404L171.263 358.788ZM179.302 358.788C180.198 358.041 180.912 357.421 181.444 356.926C181.976 356.422 182.42 355.899 182.774 355.358C183.129 354.817 183.306 354.285 183.306 353.762C183.306 353.286 183.194 352.913 182.97 352.642C182.746 352.371 182.401 352.236 181.934 352.236C181.468 352.236 181.108 352.395 180.856 352.712C180.604 353.02 180.474 353.445 180.464 353.986H178.56C178.598 352.866 178.929 352.017 179.554 351.438C180.189 350.859 180.992 350.57 181.962 350.57C183.026 350.57 183.843 350.855 184.412 351.424C184.982 351.984 185.266 352.726 185.266 353.65C185.266 354.378 185.07 355.073 184.678 355.736C184.286 356.399 183.838 356.977 183.334 357.472C182.83 357.957 182.172 358.545 181.36 359.236H185.49V360.86H178.574V359.404L179.302 358.788Z" fill="white"/>
<path d="M244.136 351.228V358.088C244.136 359.04 243.86 359.782 243.31 360.314C242.759 360.837 242.022 361.098 241.098 361.098C240.164 361.098 239.408 360.827 238.83 360.286C238.26 359.745 237.976 358.989 237.976 358.018H239.936C239.945 358.438 240.043 358.765 240.23 358.998C240.426 359.231 240.706 359.348 241.07 359.348C241.424 359.348 241.695 359.236 241.882 359.012C242.068 358.788 242.162 358.48 242.162 358.088V351.228H244.136ZM252.414 359.138H248.522L247.878 361H245.82L249.334 351.214H251.616L255.13 361H253.058L252.414 359.138ZM251.882 357.57L250.468 353.482L249.054 357.57H251.882ZM264.802 361H262.842L258.404 354.294V361H256.444V351.214H258.404L262.842 357.934V351.214H264.802V361ZM270.466 358.788C271.362 358.041 272.076 357.421 272.608 356.926C273.14 356.422 273.584 355.899 273.938 355.358C274.293 354.817 274.47 354.285 274.47 353.762C274.47 353.286 274.358 352.913 274.134 352.642C273.91 352.371 273.565 352.236 273.098 352.236C272.632 352.236 272.272 352.395 272.02 352.712C271.768 353.02 271.638 353.445 271.628 353.986H269.724C269.762 352.866 270.093 352.017 270.718 351.438C271.353 350.859 272.156 350.57 273.126 350.57C274.19 350.57 275.007 350.855 275.576 351.424C276.146 351.984 276.43 352.726 276.43 353.65C276.43 354.378 276.234 355.073 275.842 355.736C275.45 356.399 275.002 356.977 274.498 357.472C273.994 357.957 273.336 358.545 272.524 359.236H276.654V360.86H269.738V359.404L270.466 358.788ZM277.917 353.482C277.964 352.549 278.291 351.83 278.897 351.326C279.513 350.813 280.321 350.556 281.319 350.556C282.001 350.556 282.584 350.677 283.069 350.92C283.555 351.153 283.919 351.475 284.161 351.886C284.413 352.287 284.539 352.745 284.539 353.258C284.539 353.846 284.385 354.345 284.077 354.756C283.779 355.157 283.419 355.428 282.999 355.568V355.624C283.541 355.792 283.961 356.091 284.259 356.52C284.567 356.949 284.721 357.5 284.721 358.172C284.721 358.732 284.591 359.231 284.329 359.67C284.077 360.109 283.699 360.454 283.195 360.706C282.701 360.949 282.103 361.07 281.403 361.07C280.349 361.07 279.49 360.804 278.827 360.272C278.165 359.74 277.815 358.956 277.777 357.92H279.681C279.7 358.377 279.854 358.746 280.143 359.026C280.442 359.297 280.848 359.432 281.361 359.432C281.837 359.432 282.201 359.301 282.453 359.04C282.715 358.769 282.845 358.424 282.845 358.004C282.845 357.444 282.668 357.043 282.313 356.8C281.959 356.557 281.408 356.436 280.661 356.436H280.255V354.826H280.661C281.987 354.826 282.649 354.383 282.649 353.496C282.649 353.095 282.528 352.782 282.285 352.558C282.052 352.334 281.711 352.222 281.263 352.222C280.825 352.222 280.484 352.343 280.241 352.586C280.008 352.819 279.873 353.118 279.835 353.482H277.917Z" fill="white"/>
<path d="M294.979 22C293.782 22 292.894 22.39 292.331 22.99C291.768 23.59 291.57 24.34 291.5 24.91L292.908 25.105C292.965 24.73 293.077 24.355 293.345 24.07C293.613 23.785 294.035 23.5 294.979 23.5C295.908 23.5 296.415 23.74 296.697 24.01C296.979 24.28 297.092 24.61 297.092 25C297.092 26.245 296.613 26.59 295.908 27.25C295.204 27.91 294.275 28.87 294.275 30.625V31H295.683V30.625C295.683 29.38 296.12 29.035 296.824 28.375C297.528 27.715 298.5 26.755 298.5 25C298.5 24.28 298.261 23.47 297.669 22.885C297.063 22.3 296.162 22 294.979 22ZM294.275 32.5V34H295.683V32.5H294.275Z" fill="white"/>
<rect x="283.5" y="16.5" width="23" height="23" rx="11.5" stroke="white"/>
</g>
<defs>
<linearGradient id="paint0_linear_1004_1483" x1="157.568" y1="145.955" x2="157.568" y2="332.873" gradientUnits="userSpaceOnUse">
<stop stop-color="#BFBFBF" stop-opacity="0.09"/>
<stop offset="1" stop-color="#76A6AB" stop-opacity="0"/>
</linearGradient>
<linearGradient id="paint1_linear_1004_1483" x1="157.568" y1="159.664" x2="157.568" y2="346.583" gradientUnits="userSpaceOnUse">
<stop stop-color="#00E2F4" stop-opacity="0.12"/>
<stop offset="1" stop-color="#00E2F4" stop-opacity="0"/>
</linearGradient>
<clipPath id="clip0_1004_1483">
<rect width="1440" height="5210" fill="white" transform="translate(-128 -1533)"/>
</clipPath>
</defs>
</svg>
