<svg width="483" height="234" viewBox="0 0 483 234" fill="none" xmlns="http://www.w3.org/2000/svg">
<rect width="483" height="234" fill="#1E1E1E"/>
<g clip-path="url(#clip0_1004_1483)">
<rect width="1440" height="5210" transform="translate(-829 -713)" fill="white"/>
<rect x="-829" y="-670" width="1440" height="1975" fill="#001E27"/>
<rect width="483" height="234" fill="#00475D"/>
<path d="M45.704 39.848C46.92 39.848 47.9707 40.0773 48.856 40.536C49.752 40.984 50.4347 41.6293 50.904 42.472C51.384 43.3147 51.624 44.3067 51.624 45.448C51.624 46.5893 51.384 47.5813 50.904 48.424C50.4347 49.256 49.752 49.896 48.856 50.344C47.9707 50.7813 46.92 51 45.704 51H42.232V39.848H45.704ZM45.704 49.8C47.144 49.8 48.2427 49.4213 49 48.664C49.7573 47.896 50.136 46.824 50.136 45.448C50.136 44.0613 49.752 42.9787 48.984 42.2C48.2267 41.4213 47.1333 41.032 45.704 41.032H43.688V49.8H45.704ZM58.2005 41.032V44.76H62.2645V45.96H58.2005V49.8H62.7445V51H56.7445V39.832H62.7445V41.032H58.2005ZM71.6836 51.112C70.9476 51.112 70.2863 50.984 69.6996 50.728C69.1236 50.4613 68.6703 50.0987 68.3396 49.64C68.009 49.1707 67.8383 48.632 67.8276 48.024H69.3796C69.433 48.5467 69.6463 48.9893 70.0196 49.352C70.4036 49.704 70.9583 49.88 71.6836 49.88C72.377 49.88 72.921 49.7093 73.3156 49.368C73.721 49.016 73.9236 48.568 73.9236 48.024C73.9236 47.5973 73.8063 47.2507 73.5716 46.984C73.337 46.7173 73.0436 46.5147 72.6916 46.376C72.3396 46.2373 71.865 46.088 71.2676 45.928C70.5316 45.736 69.9396 45.544 69.4916 45.352C69.0543 45.16 68.6756 44.8613 68.3556 44.456C68.0463 44.04 67.8916 43.4853 67.8916 42.792C67.8916 42.184 68.0463 41.6453 68.3556 41.176C68.665 40.7067 69.097 40.344 69.6516 40.088C70.217 39.832 70.8623 39.704 71.5876 39.704C72.633 39.704 73.4863 39.9653 74.1476 40.488C74.8196 41.0107 75.1983 41.704 75.2836 42.568H73.6836C73.6303 42.1413 73.4063 41.768 73.0116 41.448C72.617 41.1173 72.0943 40.952 71.4436 40.952C70.8356 40.952 70.3396 41.112 69.9556 41.432C69.5716 41.7413 69.3796 42.1787 69.3796 42.744C69.3796 43.1493 69.4916 43.48 69.7156 43.736C69.9503 43.992 70.233 44.1893 70.5636 44.328C70.905 44.456 71.3796 44.6053 71.9876 44.776C72.7236 44.9787 73.3156 45.1813 73.7636 45.384C74.2116 45.576 74.5956 45.88 74.9156 46.296C75.2356 46.7013 75.3956 47.256 75.3956 47.96C75.3956 48.504 75.2516 49.016 74.9636 49.496C74.6756 49.976 74.249 50.3653 73.6836 50.664C73.1183 50.9627 72.4516 51.112 71.6836 51.112ZM87.6022 39.848V41.032H84.5622V51H83.1062V41.032H80.0502V39.848H87.6022ZM99.1865 48.52H94.3225L93.4265 51H91.8905L95.9225 39.912H97.6025L101.618 51H100.082L99.1865 48.52ZM98.7705 47.336L96.7545 41.704L94.7385 47.336H98.7705ZM115.52 53.112L113.296 50.888C112.752 51.0373 112.197 51.112 111.632 51.112C110.597 51.112 109.653 50.872 108.8 50.392C107.946 49.9013 107.269 49.224 106.768 48.36C106.277 47.4853 106.032 46.504 106.032 45.416C106.032 44.328 106.277 43.352 106.768 42.488C107.269 41.6133 107.946 40.936 108.8 40.456C109.653 39.9653 110.597 39.72 111.632 39.72C112.677 39.72 113.626 39.9653 114.48 40.456C115.333 40.936 116.005 41.608 116.496 42.472C116.986 43.336 117.232 44.3173 117.232 45.416C117.232 46.4827 116.997 47.4427 116.528 48.296C116.058 49.1493 115.413 49.8213 114.592 50.312L117.408 53.112H115.52ZM107.52 45.416C107.52 46.3013 107.696 47.08 108.048 47.752C108.41 48.424 108.901 48.9413 109.52 49.304C110.149 49.6667 110.853 49.848 111.632 49.848C112.41 49.848 113.109 49.6667 113.728 49.304C114.357 48.9413 114.848 48.424 115.2 47.752C115.562 47.08 115.744 46.3013 115.744 45.416C115.744 44.52 115.562 43.7413 115.2 43.08C114.848 42.408 114.362 41.8907 113.744 41.528C113.125 41.1653 112.421 40.984 111.632 40.984C110.842 40.984 110.138 41.1653 109.52 41.528C108.901 41.8907 108.41 42.408 108.048 43.08C107.696 43.7413 107.52 44.52 107.52 45.416ZM123.809 39.848V46.904C123.809 47.896 124.049 48.632 124.529 49.112C125.02 49.592 125.697 49.832 126.561 49.832C127.414 49.832 128.081 49.592 128.561 49.112C129.052 48.632 129.297 47.896 129.297 46.904V39.848H130.753V46.888C130.753 47.816 130.566 48.6 130.193 49.24C129.82 49.8693 129.313 50.3387 128.673 50.648C128.044 50.9573 127.334 51.112 126.545 51.112C125.756 51.112 125.041 50.9573 124.401 50.648C123.772 50.3387 123.27 49.8693 122.897 49.24C122.534 48.6 122.353 47.816 122.353 46.888V39.848H123.809ZM137.838 41.032V44.76H141.902V45.96H137.838V49.8H142.382V51H136.382V39.832H142.382V41.032H137.838ZM158.723 39.848C159.939 39.848 160.989 40.0773 161.875 40.536C162.771 40.984 163.453 41.6293 163.923 42.472C164.403 43.3147 164.643 44.3067 164.643 45.448C164.643 46.5893 164.403 47.5813 163.923 48.424C163.453 49.256 162.771 49.896 161.875 50.344C160.989 50.7813 159.939 51 158.723 51H155.251V39.848H158.723ZM158.723 49.8C160.163 49.8 161.261 49.4213 162.019 48.664C162.776 47.896 163.155 46.824 163.155 45.448C163.155 44.0613 162.771 42.9787 162.003 42.2C161.245 41.4213 160.152 41.032 158.723 41.032H156.707V49.8H158.723ZM174.819 51.112C173.785 51.112 172.841 50.872 171.987 50.392C171.134 49.9013 170.457 49.224 169.955 48.36C169.465 47.4853 169.219 46.504 169.219 45.416C169.219 44.328 169.465 43.352 169.955 42.488C170.457 41.6133 171.134 40.936 171.987 40.456C172.841 39.9653 173.785 39.72 174.819 39.72C175.865 39.72 176.814 39.9653 177.667 40.456C178.521 40.936 179.193 41.608 179.683 42.472C180.174 43.336 180.419 44.3173 180.419 45.416C180.419 46.5147 180.174 47.496 179.683 48.36C179.193 49.224 178.521 49.9013 177.667 50.392C176.814 50.872 175.865 51.112 174.819 51.112ZM174.819 49.848C175.598 49.848 176.297 49.6667 176.915 49.304C177.545 48.9413 178.035 48.424 178.387 47.752C178.75 47.08 178.931 46.3013 178.931 45.416C178.931 44.52 178.75 43.7413 178.387 43.08C178.035 42.408 177.55 41.8907 176.931 41.528C176.313 41.1653 175.609 40.984 174.819 40.984C174.03 40.984 173.326 41.1653 172.707 41.528C172.089 41.8907 171.598 42.408 171.235 43.08C170.883 43.7413 170.707 44.52 170.707 45.416C170.707 46.3013 170.883 47.08 171.235 47.752C171.598 48.424 172.089 48.9413 172.707 49.304C173.337 49.6667 174.041 49.848 174.819 49.848ZM204.319 39.928V51H202.863V42.744L199.183 51H198.159L194.463 42.728V51H193.007V39.928H194.575L198.671 49.08L202.767 39.928H204.319ZM211.444 41.032V44.76H215.508V45.96H211.444V49.8H215.988V51H209.988V39.832H215.988V41.032H211.444ZM212.836 37.768L210.612 39.128V37.976L212.836 36.648L215.044 37.976V39.128L212.836 37.768ZM224.927 51.112C224.191 51.112 223.53 50.984 222.943 50.728C222.367 50.4613 221.914 50.0987 221.583 49.64C221.253 49.1707 221.082 48.632 221.071 48.024H222.623C222.677 48.5467 222.89 48.9893 223.263 49.352C223.647 49.704 224.202 49.88 224.927 49.88C225.621 49.88 226.165 49.7093 226.559 49.368C226.965 49.016 227.167 48.568 227.167 48.024C227.167 47.5973 227.05 47.2507 226.815 46.984C226.581 46.7173 226.287 46.5147 225.935 46.376C225.583 46.2373 225.109 46.088 224.511 45.928C223.775 45.736 223.183 45.544 222.735 45.352C222.298 45.16 221.919 44.8613 221.599 44.456C221.29 44.04 221.135 43.4853 221.135 42.792C221.135 42.184 221.29 41.6453 221.599 41.176C221.909 40.7067 222.341 40.344 222.895 40.088C223.461 39.832 224.106 39.704 224.831 39.704C225.877 39.704 226.73 39.9653 227.391 40.488C228.063 41.0107 228.442 41.704 228.527 42.568H226.927C226.874 42.1413 226.65 41.768 226.255 41.448C225.861 41.1173 225.338 40.952 224.687 40.952C224.079 40.952 223.583 41.112 223.199 41.432C222.815 41.7413 222.623 42.1787 222.623 42.744C222.623 43.1493 222.735 43.48 222.959 43.736C223.194 43.992 223.477 44.1893 223.807 44.328C224.149 44.456 224.623 44.6053 225.231 44.776C225.967 44.9787 226.559 45.1813 227.007 45.384C227.455 45.576 227.839 45.88 228.159 46.296C228.479 46.7013 228.639 47.256 228.639 47.96C228.639 48.504 228.495 49.016 228.207 49.496C227.919 49.976 227.493 50.3653 226.927 50.664C226.362 50.9627 225.695 51.112 224.927 51.112Z" fill="white"/>
<path d="M41.78 109.26C42.2333 108.9 42.44 108.733 42.4 108.76C43.7067 107.68 44.7333 106.793 45.48 106.1C46.24 105.407 46.88 104.68 47.4 103.92C47.92 103.16 48.18 102.42 48.18 101.7C48.18 101.153 48.0533 100.727 47.8 100.42C47.5467 100.113 47.1667 99.96 46.66 99.96C46.1533 99.96 45.7533 100.153 45.46 100.54C45.18 100.913 45.04 101.447 45.04 102.14H41.74C41.7667 101.007 42.0067 100.06 42.46 99.3C42.9267 98.54 43.5333 97.98 44.28 97.62C45.04 97.26 45.88 97.08 46.8 97.08C48.3867 97.08 49.58 97.4867 50.38 98.3C51.1933 99.1133 51.6 100.173 51.6 101.48C51.6 102.907 51.1133 104.233 50.14 105.46C49.1667 106.673 47.9267 107.86 46.42 109.02H51.82V111.8H41.78V109.26ZM53.3258 104.5C53.3258 102.207 53.7658 100.4 54.6458 99.08C55.5391 97.76 56.9724 97.1 58.9458 97.1C60.9191 97.1 62.3458 97.76 63.2258 99.08C64.1191 100.4 64.5658 102.207 64.5658 104.5C64.5658 106.82 64.1191 108.64 63.2258 109.96C62.3458 111.28 60.9191 111.94 58.9458 111.94C56.9724 111.94 55.5391 111.28 54.6458 109.96C53.7658 108.64 53.3258 106.82 53.3258 104.5ZM61.2058 104.5C61.2058 103.153 61.0591 102.12 60.7658 101.4C60.4724 100.667 59.8658 100.3 58.9458 100.3C58.0258 100.3 57.4191 100.667 57.1258 101.4C56.8324 102.12 56.6858 103.153 56.6858 104.5C56.6858 105.407 56.7391 106.16 56.8458 106.76C56.9524 107.347 57.1658 107.827 57.4858 108.2C57.8191 108.56 58.3058 108.74 58.9458 108.74C59.5858 108.74 60.0658 108.56 60.3858 108.2C60.7191 107.827 60.9391 107.347 61.0458 106.76C61.1524 106.16 61.2058 105.407 61.2058 104.5ZM66.2527 109.26C66.706 108.9 66.9127 108.733 66.8727 108.76C68.1793 107.68 69.206 106.793 69.9527 106.1C70.7127 105.407 71.3527 104.68 71.8727 103.92C72.3927 103.16 72.6527 102.42 72.6527 101.7C72.6527 101.153 72.526 100.727 72.2727 100.42C72.0193 100.113 71.6393 99.96 71.1327 99.96C70.626 99.96 70.226 100.153 69.9327 100.54C69.6527 100.913 69.5127 101.447 69.5127 102.14H66.2127C66.2393 101.007 66.4793 100.06 66.9327 99.3C67.3993 98.54 68.006 97.98 68.7527 97.62C69.5127 97.26 70.3527 97.08 71.2727 97.08C72.8593 97.08 74.0527 97.4867 74.8527 98.3C75.666 99.1133 76.0727 100.173 76.0727 101.48C76.0727 102.907 75.586 104.233 74.6127 105.46C73.6393 106.673 72.3993 107.86 70.8927 109.02H76.2927V111.8H66.2527V109.26ZM77.9184 101.52C77.9718 100.093 78.4384 98.9933 79.3184 98.22C80.1984 97.4467 81.3918 97.06 82.8984 97.06C83.8984 97.06 84.7518 97.2333 85.4584 97.58C86.1784 97.9267 86.7184 98.4 87.0784 99C87.4518 99.6 87.6384 100.273 87.6384 101.02C87.6384 101.9 87.4184 102.62 86.9784 103.18C86.5384 103.727 86.0251 104.1 85.4384 104.3V104.38C86.1984 104.633 86.7984 105.053 87.2384 105.64C87.6784 106.227 87.8984 106.98 87.8984 107.9C87.8984 108.727 87.7051 109.46 87.3184 110.1C86.9451 110.727 86.3918 111.22 85.6584 111.58C84.9384 111.94 84.0784 112.12 83.0784 112.12C81.4784 112.12 80.1984 111.727 79.2384 110.94C78.2918 110.153 77.7918 108.967 77.7384 107.38H81.0584C81.0718 107.967 81.2384 108.433 81.5584 108.78C81.8784 109.113 82.3451 109.28 82.9584 109.28C83.4784 109.28 83.8784 109.133 84.1584 108.84C84.4518 108.533 84.5984 108.133 84.5984 107.64C84.5984 107 84.3918 106.54 83.9784 106.26C83.5784 105.967 82.9318 105.82 82.0384 105.82H81.3984V103.04H82.0384C82.7184 103.04 83.2651 102.927 83.6784 102.7C84.1051 102.46 84.3184 102.04 84.3184 101.44C84.3184 100.96 84.1851 100.587 83.9184 100.32C83.6518 100.053 83.2851 99.92 82.8184 99.92C82.3118 99.92 81.9318 100.073 81.6784 100.38C81.4384 100.687 81.2984 101.067 81.2584 101.52H77.9184ZM93.8061 106.42C93.8061 105.26 94.0394 104.247 94.5061 103.38C94.9861 102.513 95.6461 101.847 96.4861 101.38C97.3394 100.913 98.3128 100.68 99.4061 100.68C100.806 100.68 101.973 101.047 102.906 101.78C103.853 102.513 104.473 103.547 104.766 104.88H101.126C100.819 104.027 100.226 103.6 99.3461 103.6C98.7194 103.6 98.2194 103.847 97.8461 104.34C97.4728 104.82 97.2861 105.513 97.2861 106.42C97.2861 107.327 97.4728 108.027 97.8461 108.52C98.2194 109 98.7194 109.24 99.3461 109.24C100.226 109.24 100.819 108.813 101.126 107.96H104.766C104.473 109.267 103.853 110.293 102.906 111.04C101.959 111.787 100.793 112.16 99.4061 112.16C98.3128 112.16 97.3394 111.927 96.4861 111.46C95.6461 110.993 94.9861 110.327 94.5061 109.46C94.0394 108.593 93.8061 107.58 93.8061 106.42ZM111.675 112.16C110.582 112.16 109.595 111.927 108.715 111.46C107.849 110.993 107.162 110.327 106.655 109.46C106.162 108.593 105.915 107.58 105.915 106.42C105.915 105.273 106.169 104.267 106.675 103.4C107.182 102.52 107.875 101.847 108.755 101.38C109.635 100.913 110.622 100.68 111.715 100.68C112.809 100.68 113.795 100.913 114.675 101.38C115.555 101.847 116.249 102.52 116.755 103.4C117.262 104.267 117.515 105.273 117.515 106.42C117.515 107.567 117.255 108.58 116.735 109.46C116.229 110.327 115.529 110.993 114.635 111.46C113.755 111.927 112.769 112.16 111.675 112.16ZM111.675 109.2C112.329 109.2 112.882 108.96 113.335 108.48C113.802 108 114.035 107.313 114.035 106.42C114.035 105.527 113.809 104.84 113.355 104.36C112.915 103.88 112.369 103.64 111.715 103.64C111.049 103.64 110.495 103.88 110.055 104.36C109.615 104.827 109.395 105.513 109.395 106.42C109.395 107.313 109.609 108 110.035 108.48C110.475 108.96 111.022 109.2 111.675 109.2ZM133.57 100.72C134.957 100.72 136.057 101.14 136.87 101.98C137.697 102.82 138.11 103.987 138.11 105.48V112H134.71V105.94C134.71 105.22 134.517 104.667 134.13 104.28C133.757 103.88 133.237 103.68 132.57 103.68C131.903 103.68 131.377 103.88 130.99 104.28C130.617 104.667 130.43 105.22 130.43 105.94V112H127.03V105.94C127.03 105.22 126.837 104.667 126.45 104.28C126.077 103.88 125.557 103.68 124.89 103.68C124.223 103.68 123.697 103.88 123.31 104.28C122.937 104.667 122.75 105.22 122.75 105.94V112H119.33V100.84H122.75V102.24C123.097 101.773 123.55 101.407 124.11 101.14C124.67 100.86 125.303 100.72 126.01 100.72C126.85 100.72 127.597 100.9 128.25 101.26C128.917 101.62 129.437 102.133 129.81 102.8C130.197 102.187 130.723 101.687 131.39 101.3C132.057 100.913 132.783 100.72 133.57 100.72ZM151.022 106.24C151.022 106.56 151.002 106.893 150.962 107.24H143.222C143.275 107.933 143.495 108.467 143.882 108.84C144.282 109.2 144.768 109.38 145.342 109.38C146.195 109.38 146.788 109.02 147.122 108.3H150.762C150.575 109.033 150.235 109.693 149.742 110.28C149.262 110.867 148.655 111.327 147.922 111.66C147.188 111.993 146.368 112.16 145.462 112.16C144.368 112.16 143.395 111.927 142.542 111.46C141.688 110.993 141.022 110.327 140.542 109.46C140.062 108.593 139.822 107.58 139.822 106.42C139.822 105.26 140.055 104.247 140.522 103.38C141.002 102.513 141.668 101.847 142.522 101.38C143.375 100.913 144.355 100.68 145.462 100.68C146.542 100.68 147.502 100.907 148.342 101.36C149.182 101.813 149.835 102.46 150.302 103.3C150.782 104.14 151.022 105.12 151.022 106.24ZM147.522 105.34C147.522 104.753 147.322 104.287 146.922 103.94C146.522 103.593 146.022 103.42 145.422 103.42C144.848 103.42 144.362 103.587 143.962 103.92C143.575 104.253 143.335 104.727 143.242 105.34H147.522ZM157.686 109.24C158.566 109.24 159.159 108.813 159.466 107.96H163.106C162.853 109.093 162.346 110.02 161.586 110.74C160.826 111.46 159.879 111.907 158.746 112.08V112.82C159.439 112.82 160.046 113.007 160.566 113.38C161.086 113.767 161.346 114.34 161.346 115.1C161.346 115.86 161.073 116.433 160.526 116.82C159.979 117.22 159.326 117.42 158.566 117.42H155.486V115.54H158.106C158.373 115.54 158.573 115.5 158.706 115.42C158.839 115.34 158.906 115.207 158.906 115.02C158.906 114.833 158.839 114.7 158.706 114.62C158.573 114.553 158.373 114.52 158.106 114.52H156.686V112.08C155.313 111.867 154.213 111.26 153.386 110.26C152.559 109.247 152.146 107.967 152.146 106.42C152.146 105.26 152.379 104.247 152.846 103.38C153.326 102.513 153.986 101.847 154.826 101.38C155.679 100.913 156.653 100.68 157.746 100.68C159.146 100.68 160.313 101.047 161.246 101.78C162.193 102.513 162.813 103.547 163.106 104.88H159.466C159.159 104.027 158.566 103.6 157.686 103.6C157.059 103.6 156.559 103.847 156.186 104.34C155.813 104.82 155.626 105.513 155.626 106.42C155.626 107.327 155.813 108.027 156.186 108.52C156.559 109 157.059 109.24 157.686 109.24ZM170.015 112.16C168.922 112.16 167.935 111.927 167.055 111.46C166.189 110.993 165.502 110.327 164.995 109.46C164.502 108.593 164.255 107.58 164.255 106.42C164.255 105.273 164.509 104.267 165.015 103.4C165.522 102.52 166.215 101.847 167.095 101.38C167.975 100.913 168.962 100.68 170.055 100.68C171.149 100.68 172.135 100.913 173.015 101.38C173.895 101.847 174.589 102.52 175.095 103.4C175.602 104.267 175.855 105.273 175.855 106.42C175.855 107.567 175.595 108.58 175.075 109.46C174.569 110.327 173.869 110.993 172.975 111.46C172.095 111.927 171.109 112.16 170.015 112.16ZM170.015 109.2C170.669 109.2 171.222 108.96 171.675 108.48C172.142 108 172.375 107.313 172.375 106.42C172.375 105.527 172.149 104.84 171.695 104.36C171.255 103.88 170.709 103.64 170.055 103.64C169.389 103.64 168.835 103.88 168.395 104.36C167.955 104.827 167.735 105.513 167.735 106.42C167.735 107.313 167.949 108 168.375 108.48C168.815 108.96 169.362 109.2 170.015 109.2ZM188.69 100.84V112H185.27V110.48C184.923 110.973 184.45 111.373 183.85 111.68C183.263 111.973 182.61 112.12 181.89 112.12C181.036 112.12 180.283 111.933 179.63 111.56C178.976 111.173 178.47 110.62 178.11 109.9C177.75 109.18 177.57 108.333 177.57 107.36V100.84H180.97V106.9C180.97 107.647 181.163 108.227 181.55 108.64C181.936 109.053 182.456 109.26 183.11 109.26C183.776 109.26 184.303 109.053 184.69 108.64C185.076 108.227 185.27 107.647 185.27 106.9V100.84H188.69ZM194.705 106.42C194.705 105.26 194.938 104.247 195.405 103.38C195.885 102.513 196.545 101.847 197.385 101.38C198.238 100.913 199.211 100.68 200.305 100.68C201.705 100.68 202.871 101.047 203.805 101.78C204.751 102.513 205.371 103.547 205.665 104.88H202.025C201.718 104.027 201.125 103.6 200.245 103.6C199.618 103.6 199.118 103.847 198.745 104.34C198.371 104.82 198.185 105.513 198.185 106.42C198.185 107.327 198.371 108.027 198.745 108.52C199.118 109 199.618 109.24 200.245 109.24C201.125 109.24 201.718 108.813 202.025 107.96H205.665C205.371 109.267 204.751 110.293 203.805 111.04C202.858 111.787 201.691 112.16 200.305 112.16C199.211 112.16 198.238 111.927 197.385 111.46C196.545 110.993 195.885 110.327 195.405 109.46C194.938 108.593 194.705 107.58 194.705 106.42ZM214.354 100.72C215.634 100.72 216.661 101.147 217.434 102C218.207 102.84 218.594 104 218.594 105.48V112H215.194V105.94C215.194 105.193 215.001 104.613 214.614 104.2C214.227 103.787 213.707 103.58 213.054 103.58C212.401 103.58 211.881 103.787 211.494 104.2C211.107 104.613 210.914 105.193 210.914 105.94V112H207.494V97.2H210.914V102.34C211.261 101.847 211.734 101.453 212.334 101.16C212.934 100.867 213.607 100.72 214.354 100.72ZM231.49 106.24C231.49 106.56 231.47 106.893 231.43 107.24H223.69C223.744 107.933 223.964 108.467 224.35 108.84C224.75 109.2 225.237 109.38 225.81 109.38C226.664 109.38 227.257 109.02 227.59 108.3H231.23C231.044 109.033 230.704 109.693 230.21 110.28C229.73 110.867 229.124 111.327 228.39 111.66C227.657 111.993 226.837 112.16 225.93 112.16C224.837 112.16 223.864 111.927 223.01 111.46C222.157 110.993 221.49 110.327 221.01 109.46C220.53 108.593 220.29 107.58 220.29 106.42C220.29 105.26 220.524 104.247 220.99 103.38C221.47 102.513 222.137 101.847 222.99 101.38C223.844 100.913 224.824 100.68 225.93 100.68C227.01 100.68 227.97 100.907 228.81 101.36C229.65 101.813 230.304 102.46 230.77 103.3C231.25 104.14 231.49 105.12 231.49 106.24ZM227.99 105.34C227.99 104.753 227.79 104.287 227.39 103.94C226.99 103.593 226.49 103.42 225.89 103.42C225.317 103.42 224.83 103.587 224.43 103.92C224.044 104.253 223.804 104.727 223.71 105.34H227.99ZM235.015 99.68C234.415 99.68 233.921 99.5067 233.535 99.16C233.161 98.8 232.975 98.36 232.975 97.84C232.975 97.3067 233.161 96.8667 233.535 96.52C233.921 96.16 234.415 95.98 235.015 95.98C235.601 95.98 236.081 96.16 236.455 96.52C236.841 96.8667 237.035 97.3067 237.035 97.84C237.035 98.36 236.841 98.8 236.455 99.16C236.081 99.5067 235.601 99.68 235.015 99.68ZM236.715 100.84V112H233.295V100.84H236.715ZM244.273 112.16C243.18 112.16 242.193 111.927 241.313 111.46C240.446 110.993 239.76 110.327 239.253 109.46C238.76 108.593 238.513 107.58 238.513 106.42C238.513 105.273 238.766 104.267 239.273 103.4C239.78 102.52 240.473 101.847 241.353 101.38C242.233 100.913 243.22 100.68 244.313 100.68C245.406 100.68 246.393 100.913 247.273 101.38C248.153 101.847 248.846 102.52 249.353 103.4C249.86 104.267 250.113 105.273 250.113 106.42C250.113 107.567 249.853 108.58 249.333 109.46C248.826 110.327 248.126 110.993 247.233 111.46C246.353 111.927 245.366 112.16 244.273 112.16ZM244.273 109.2C244.926 109.2 245.48 108.96 245.933 108.48C246.4 108 246.633 107.313 246.633 106.42C246.633 105.527 246.406 104.84 245.953 104.36C245.513 103.88 244.966 103.64 244.313 103.64C243.646 103.64 243.093 103.88 242.653 104.36C242.213 104.827 241.993 105.513 241.993 106.42C241.993 107.313 242.206 108 242.633 108.48C243.073 108.96 243.62 109.2 244.273 109.2ZM255.486 106.4C255.486 105.253 255.699 104.247 256.126 103.38C256.566 102.513 257.159 101.847 257.906 101.38C258.652 100.913 259.486 100.68 260.406 100.68C261.139 100.68 261.806 100.833 262.406 101.14C263.019 101.447 263.499 101.86 263.846 102.38V97.2H267.266V112H263.846V110.4C263.526 110.933 263.066 111.36 262.466 111.68C261.879 112 261.192 112.16 260.406 112.16C259.486 112.16 258.652 111.927 257.906 111.46C257.159 110.98 256.566 110.307 256.126 109.44C255.699 108.56 255.486 107.547 255.486 106.4ZM263.846 106.42C263.846 105.567 263.606 104.893 263.126 104.4C262.659 103.907 262.086 103.66 261.406 103.66C260.726 103.66 260.146 103.907 259.666 104.4C259.199 104.88 258.966 105.547 258.966 106.4C258.966 107.253 259.199 107.933 259.666 108.44C260.146 108.933 260.726 109.18 261.406 109.18C262.086 109.18 262.659 108.933 263.126 108.44C263.606 107.947 263.846 107.273 263.846 106.42ZM280.26 106.24C280.26 106.56 280.24 106.893 280.2 107.24H272.46C272.513 107.933 272.733 108.467 273.12 108.84C273.52 109.2 274.007 109.38 274.58 109.38C275.433 109.38 276.027 109.02 276.36 108.3H280C279.813 109.033 279.473 109.693 278.98 110.28C278.5 110.867 277.893 111.327 277.16 111.66C276.427 111.993 275.607 112.16 274.7 112.16C273.607 112.16 272.633 111.927 271.78 111.46C270.927 110.993 270.26 110.327 269.78 109.46C269.3 108.593 269.06 107.58 269.06 106.42C269.06 105.26 269.293 104.247 269.76 103.38C270.24 102.513 270.907 101.847 271.76 101.38C272.613 100.913 273.593 100.68 274.7 100.68C275.78 100.68 276.74 100.907 277.58 101.36C278.42 101.813 279.073 102.46 279.54 103.3C280.02 104.14 280.26 105.12 280.26 106.24ZM276.76 105.34C276.76 104.753 276.56 104.287 276.16 103.94C275.76 103.593 275.26 103.42 274.66 103.42C274.087 103.42 273.6 103.587 273.2 103.92C272.813 104.253 272.573 104.727 272.48 105.34H276.76ZM285.623 106.4C285.623 105.253 285.836 104.247 286.263 103.38C286.703 102.513 287.296 101.847 288.043 101.38C288.789 100.913 289.623 100.68 290.543 100.68C291.276 100.68 291.943 100.833 292.543 101.14C293.156 101.447 293.636 101.86 293.983 102.38V97.2H297.403V112H293.983V110.4C293.663 110.933 293.203 111.36 292.603 111.68C292.016 112 291.329 112.16 290.543 112.16C289.623 112.16 288.789 111.927 288.043 111.46C287.296 110.98 286.703 110.307 286.263 109.44C285.836 108.56 285.623 107.547 285.623 106.4ZM293.983 106.42C293.983 105.567 293.743 104.893 293.263 104.4C292.796 103.907 292.223 103.66 291.543 103.66C290.863 103.66 290.283 103.907 289.803 104.4C289.336 104.88 289.103 105.547 289.103 106.4C289.103 107.253 289.336 107.933 289.803 108.44C290.283 108.933 290.863 109.18 291.543 109.18C292.223 109.18 292.796 108.933 293.263 108.44C293.743 107.947 293.983 107.273 293.983 106.42ZM310.397 106.24C310.397 106.56 310.377 106.893 310.337 107.24H302.597C302.65 107.933 302.87 108.467 303.257 108.84C303.657 109.2 304.143 109.38 304.717 109.38C305.57 109.38 306.163 109.02 306.497 108.3H310.137C309.95 109.033 309.61 109.693 309.117 110.28C308.637 110.867 308.03 111.327 307.297 111.66C306.563 111.993 305.743 112.16 304.837 112.16C303.743 112.16 302.77 111.927 301.917 111.46C301.063 110.993 300.397 110.327 299.917 109.46C299.437 108.593 299.197 107.58 299.197 106.42C299.197 105.26 299.43 104.247 299.897 103.38C300.377 102.513 301.043 101.847 301.897 101.38C302.75 100.913 303.73 100.68 304.837 100.68C305.917 100.68 306.877 100.907 307.717 101.36C308.557 101.813 309.21 102.46 309.677 103.3C310.157 104.14 310.397 105.12 310.397 106.24ZM306.897 105.34C306.897 104.753 306.697 104.287 306.297 103.94C305.897 103.593 305.397 103.42 304.797 103.42C304.223 103.42 303.737 103.587 303.337 103.92C302.95 104.253 302.71 104.727 302.617 105.34H306.897ZM316.741 112.16C315.768 112.16 314.901 111.993 314.141 111.66C313.381 111.327 312.781 110.873 312.341 110.3C311.901 109.713 311.654 109.06 311.601 108.34H314.981C315.021 108.727 315.201 109.04 315.521 109.28C315.841 109.52 316.234 109.64 316.701 109.64C317.128 109.64 317.454 109.56 317.681 109.4C317.921 109.227 318.041 109.007 318.041 108.74C318.041 108.42 317.874 108.187 317.541 108.04C317.208 107.88 316.668 107.707 315.921 107.52C315.121 107.333 314.454 107.14 313.921 106.94C313.388 106.727 312.928 106.4 312.541 105.96C312.154 105.507 311.961 104.9 311.961 104.14C311.961 103.5 312.134 102.92 312.481 102.4C312.841 101.867 313.361 101.447 314.041 101.14C314.734 100.833 315.554 100.68 316.501 100.68C317.901 100.68 319.001 101.027 319.801 101.72C320.614 102.413 321.081 103.333 321.201 104.48H318.041C317.988 104.093 317.814 103.787 317.521 103.56C317.241 103.333 316.868 103.22 316.401 103.22C316.001 103.22 315.694 103.3 315.481 103.46C315.268 103.607 315.161 103.813 315.161 104.08C315.161 104.4 315.328 104.64 315.661 104.8C316.008 104.96 316.541 105.12 317.261 105.28C318.088 105.493 318.761 105.707 319.281 105.92C319.801 106.12 320.254 106.453 320.641 106.92C321.041 107.373 321.248 107.987 321.261 108.76C321.261 109.413 321.074 110 320.701 110.52C320.341 111.027 319.814 111.427 319.121 111.72C318.441 112.013 317.648 112.16 316.741 112.16ZM322.673 106.4C322.673 105.253 322.887 104.247 323.313 103.38C323.753 102.513 324.347 101.847 325.093 101.38C325.84 100.913 326.673 100.68 327.593 100.68C328.38 100.68 329.067 100.84 329.653 101.16C330.253 101.48 330.713 101.9 331.033 102.42V100.84H334.453V112H331.033V110.42C330.7 110.94 330.233 111.36 329.633 111.68C329.047 112 328.36 112.16 327.573 112.16C326.667 112.16 325.84 111.927 325.093 111.46C324.347 110.98 323.753 110.307 323.313 109.44C322.887 108.56 322.673 107.547 322.673 106.4ZM331.033 106.42C331.033 105.567 330.793 104.893 330.313 104.4C329.847 103.907 329.273 103.66 328.593 103.66C327.913 103.66 327.333 103.907 326.853 104.4C326.387 104.88 326.153 105.547 326.153 106.4C326.153 107.253 326.387 107.933 326.853 108.44C327.333 108.933 327.913 109.18 328.593 109.18C329.273 109.18 329.847 108.933 330.313 108.44C330.793 107.947 331.033 107.273 331.033 106.42ZM342.528 103.68H340.688V112H337.268V103.68H336.028V100.84H337.268V100.52C337.268 99.1467 337.661 98.1067 338.448 97.4C339.234 96.68 340.388 96.32 341.908 96.32C342.161 96.32 342.348 96.3267 342.468 96.34V99.24C341.814 99.2 341.354 99.2933 341.088 99.52C340.821 99.7467 340.688 100.153 340.688 100.74V100.84H342.528V103.68ZM345.855 99.68C345.255 99.68 344.761 99.5067 344.375 99.16C344.001 98.8 343.815 98.36 343.815 97.84C343.815 97.3067 344.001 96.8667 344.375 96.52C344.761 96.16 345.255 95.98 345.855 95.98C346.441 95.98 346.921 96.16 347.295 96.52C347.681 96.8667 347.875 97.3067 347.875 97.84C347.875 98.36 347.681 98.8 347.295 99.16C346.921 99.5067 346.441 99.68 345.855 99.68ZM347.555 100.84V112H344.135V100.84H347.555ZM355.113 112.16C354.02 112.16 353.033 111.927 352.153 111.46C351.286 110.993 350.6 110.327 350.093 109.46C349.6 108.593 349.353 107.58 349.353 106.42C349.353 105.273 349.606 104.267 350.113 103.4C350.62 102.52 351.313 101.847 352.193 101.38C353.073 100.913 354.06 100.68 355.153 100.68C356.246 100.68 357.233 100.913 358.113 101.38C358.993 101.847 359.686 102.52 360.193 103.4C360.7 104.267 360.953 105.273 360.953 106.42C360.953 107.567 360.693 108.58 360.173 109.46C359.666 110.327 358.966 110.993 358.073 111.46C357.193 111.927 356.206 112.16 355.113 112.16ZM355.113 109.2C355.766 109.2 356.32 108.96 356.773 108.48C357.24 108 357.473 107.313 357.473 106.42C357.473 105.527 357.246 104.84 356.793 104.36C356.353 103.88 355.806 103.64 355.153 103.64C354.486 103.64 353.933 103.88 353.493 104.36C353.053 104.827 352.833 105.513 352.833 106.42C352.833 107.313 353.046 108 353.473 108.48C353.913 108.96 354.46 109.2 355.113 109.2ZM367.307 112.16C366.334 112.16 365.467 111.993 364.707 111.66C363.947 111.327 363.347 110.873 362.907 110.3C362.467 109.713 362.221 109.06 362.167 108.34H365.547C365.587 108.727 365.767 109.04 366.087 109.28C366.407 109.52 366.801 109.64 367.267 109.64C367.694 109.64 368.021 109.56 368.247 109.4C368.487 109.227 368.607 109.007 368.607 108.74C368.607 108.42 368.441 108.187 368.107 108.04C367.774 107.88 367.234 107.707 366.487 107.52C365.687 107.333 365.021 107.14 364.487 106.94C363.954 106.727 363.494 106.4 363.107 105.96C362.721 105.507 362.527 104.9 362.527 104.14C362.527 103.5 362.701 102.92 363.047 102.4C363.407 101.867 363.927 101.447 364.607 101.14C365.301 100.833 366.121 100.68 367.067 100.68C368.467 100.68 369.567 101.027 370.367 101.72C371.181 102.413 371.647 103.333 371.767 104.48H368.607C368.554 104.093 368.381 103.787 368.087 103.56C367.807 103.333 367.434 103.22 366.967 103.22C366.567 103.22 366.261 103.3 366.047 103.46C365.834 103.607 365.727 103.813 365.727 104.08C365.727 104.4 365.894 104.64 366.227 104.8C366.574 104.96 367.107 105.12 367.827 105.28C368.654 105.493 369.327 105.707 369.847 105.92C370.367 106.12 370.821 106.453 371.207 106.92C371.607 107.373 371.814 107.987 371.827 108.76C371.827 109.413 371.641 110 371.267 110.52C370.907 111.027 370.381 111.427 369.687 111.72C369.007 112.013 368.214 112.16 367.307 112.16ZM376.68 109.26L374.26 114.78H372.78L374.2 109.26H376.68ZM397.207 100.8C398.074 100.8 398.847 100.98 399.527 101.34C400.221 101.7 400.761 102.233 401.147 102.94C401.547 103.647 401.747 104.5 401.747 105.5V112H399.487V105.84C399.487 104.853 399.241 104.1 398.747 103.58C398.254 103.047 397.581 102.78 396.727 102.78C395.874 102.78 395.194 103.047 394.687 103.58C394.194 104.1 393.947 104.853 393.947 105.84V112H391.687V105.84C391.687 104.853 391.441 104.1 390.947 103.58C390.454 103.047 389.781 102.78 388.927 102.78C388.074 102.78 387.394 103.047 386.887 103.58C386.394 104.1 386.147 104.853 386.147 105.84V112H383.867V100.98H386.147V102.24C386.521 101.787 386.994 101.433 387.567 101.18C388.141 100.927 388.754 100.8 389.407 100.8C390.287 100.8 391.074 100.987 391.767 101.36C392.461 101.733 392.994 102.273 393.367 102.98C393.701 102.313 394.221 101.787 394.927 101.4C395.634 101 396.394 100.8 397.207 100.8ZM403.888 106.44C403.888 105.333 404.115 104.353 404.568 103.5C405.035 102.647 405.662 101.987 406.448 101.52C407.248 101.04 408.128 100.8 409.088 100.8C409.955 100.8 410.708 100.973 411.348 101.32C412.002 101.653 412.522 102.073 412.908 102.58V100.98H415.208V112H412.908V110.36C412.522 110.88 411.995 111.313 411.328 111.66C410.662 112.007 409.902 112.18 409.048 112.18C408.102 112.18 407.235 111.94 406.448 111.46C405.662 110.967 405.035 110.287 404.568 109.42C404.115 108.54 403.888 107.547 403.888 106.44ZM412.908 106.48C412.908 105.72 412.748 105.06 412.428 104.5C412.122 103.94 411.715 103.513 411.208 103.22C410.702 102.927 410.155 102.78 409.568 102.78C408.982 102.78 408.435 102.927 407.928 103.22C407.422 103.5 407.008 103.92 406.688 104.48C406.382 105.027 406.228 105.68 406.228 106.44C406.228 107.2 406.382 107.867 406.688 108.44C407.008 109.013 407.422 109.453 407.928 109.76C408.448 110.053 408.995 110.2 409.568 110.2C410.155 110.2 410.702 110.053 411.208 109.76C411.715 109.467 412.122 109.04 412.428 108.48C412.748 107.907 412.908 107.24 412.908 106.48ZM422.203 112.18C421.336 112.18 420.556 112.027 419.863 111.72C419.183 111.4 418.643 110.973 418.243 110.44C417.843 109.893 417.63 109.287 417.603 108.62H419.963C420.003 109.087 420.223 109.48 420.623 109.8C421.036 110.107 421.55 110.26 422.163 110.26C422.803 110.26 423.296 110.14 423.643 109.9C424.003 109.647 424.183 109.327 424.183 108.94C424.183 108.527 423.983 108.22 423.583 108.02C423.196 107.82 422.576 107.6 421.723 107.36C420.896 107.133 420.223 106.913 419.703 106.7C419.183 106.487 418.73 106.16 418.343 105.72C417.97 105.28 417.783 104.7 417.783 103.98C417.783 103.393 417.956 102.86 418.303 102.38C418.65 101.887 419.143 101.5 419.783 101.22C420.436 100.94 421.183 100.8 422.023 100.8C423.276 100.8 424.283 101.12 425.043 101.76C425.816 102.387 426.23 103.247 426.283 104.34H424.003C423.963 103.847 423.763 103.453 423.403 103.16C423.043 102.867 422.556 102.72 421.943 102.72C421.343 102.72 420.883 102.833 420.563 103.06C420.243 103.287 420.083 103.587 420.083 103.96C420.083 104.253 420.19 104.5 420.403 104.7C420.616 104.9 420.876 105.06 421.183 105.18C421.49 105.287 421.943 105.427 422.543 105.6C423.343 105.813 423.996 106.033 424.503 106.26C425.023 106.473 425.47 106.793 425.843 107.22C426.216 107.647 426.41 108.213 426.423 108.92C426.423 109.547 426.25 110.107 425.903 110.6C425.556 111.093 425.063 111.48 424.423 111.76C423.796 112.04 423.056 112.18 422.203 112.18ZM41.74 136.48C41.74 135.347 41.9667 134.353 42.42 133.5C42.8867 132.633 43.5267 131.967 44.34 131.5C45.1533 131.033 46.0867 130.8 47.14 130.8C48.4733 130.8 49.5733 131.12 50.44 131.76C51.32 132.387 51.9133 133.287 52.22 134.46H49.76C49.56 133.913 49.24 133.487 48.8 133.18C48.36 132.873 47.8067 132.72 47.14 132.72C46.2067 132.72 45.46 133.053 44.9 133.72C44.3533 134.373 44.08 135.293 44.08 136.48C44.08 137.667 44.3533 138.593 44.9 139.26C45.46 139.927 46.2067 140.26 47.14 140.26C48.46 140.26 49.3333 139.68 49.76 138.52H52.22C51.9 139.64 51.3 140.533 50.42 141.2C49.54 141.853 48.4467 142.18 47.14 142.18C46.0867 142.18 45.1533 141.947 44.34 141.48C43.5267 141 42.8867 140.333 42.42 139.48C41.9667 138.613 41.74 137.613 41.74 136.48ZM59.2722 142.18C58.2322 142.18 57.2922 141.947 56.4522 141.48C55.6122 141 54.9522 140.333 54.4722 139.48C53.9922 138.613 53.7522 137.613 53.7522 136.48C53.7522 135.36 53.9989 134.367 54.4922 133.5C54.9855 132.633 55.6589 131.967 56.5122 131.5C57.3655 131.033 58.3189 130.8 59.3722 130.8C60.4255 130.8 61.3789 131.033 62.2322 131.5C63.0855 131.967 63.7589 132.633 64.2522 133.5C64.7455 134.367 64.9922 135.36 64.9922 136.48C64.9922 137.6 64.7389 138.593 64.2322 139.46C63.7255 140.327 63.0322 141 62.1522 141.48C61.2855 141.947 60.3255 142.18 59.2722 142.18ZM59.2722 140.2C59.8589 140.2 60.4055 140.06 60.9122 139.78C61.4322 139.5 61.8522 139.08 62.1722 138.52C62.4922 137.96 62.6522 137.28 62.6522 136.48C62.6522 135.68 62.4989 135.007 62.1922 134.46C61.8855 133.9 61.4789 133.48 60.9722 133.2C60.4655 132.92 59.9189 132.78 59.3322 132.78C58.7455 132.78 58.1989 132.92 57.6922 133.2C57.1989 133.48 56.8055 133.9 56.5122 134.46C56.2189 135.007 56.0722 135.68 56.0722 136.48C56.0722 137.667 56.3722 138.587 56.9722 139.24C57.5855 139.88 58.3522 140.2 59.2722 140.2ZM80.5861 130.8C81.4528 130.8 82.2261 130.98 82.9061 131.34C83.5994 131.7 84.1394 132.233 84.5261 132.94C84.9261 133.647 85.1261 134.5 85.1261 135.5V142H82.8661V135.84C82.8661 134.853 82.6194 134.1 82.1261 133.58C81.6328 133.047 80.9594 132.78 80.1061 132.78C79.2528 132.78 78.5728 133.047 78.0661 133.58C77.5728 134.1 77.3261 134.853 77.3261 135.84V142H75.0661V135.84C75.0661 134.853 74.8194 134.1 74.3261 133.58C73.8328 133.047 73.1594 132.78 72.3061 132.78C71.4528 132.78 70.7728 133.047 70.2661 133.58C69.7728 134.1 69.5261 134.853 69.5261 135.84V142H67.2461V130.98H69.5261V132.24C69.8994 131.787 70.3728 131.433 70.9461 131.18C71.5194 130.927 72.1328 130.8 72.7861 130.8C73.6661 130.8 74.4528 130.987 75.1461 131.36C75.8394 131.733 76.3728 132.273 76.7461 132.98C77.0794 132.313 77.5994 131.787 78.3061 131.4C79.0128 131 79.7728 130.8 80.5861 130.8ZM103.323 136.22C103.323 136.633 103.296 137.007 103.243 137.34H94.8227C94.8893 138.22 95.216 138.927 95.8027 139.46C96.3893 139.993 97.1093 140.26 97.9627 140.26C99.1893 140.26 100.056 139.747 100.563 138.72H103.023C102.689 139.733 102.083 140.567 101.203 141.22C100.336 141.86 99.256 142.18 97.9627 142.18C96.9093 142.18 95.9627 141.947 95.1227 141.48C94.296 141 93.6427 140.333 93.1627 139.48C92.696 138.613 92.4627 137.613 92.4627 136.48C92.4627 135.347 92.6893 134.353 93.1427 133.5C93.6093 132.633 94.256 131.967 95.0827 131.5C95.9227 131.033 96.8827 130.8 97.9627 130.8C99.0027 130.8 99.9293 131.027 100.743 131.48C101.556 131.933 102.189 132.573 102.643 133.4C103.096 134.213 103.323 135.153 103.323 136.22ZM100.943 135.5C100.929 134.66 100.629 133.987 100.043 133.48C99.456 132.973 98.7293 132.72 97.8627 132.72C97.076 132.72 96.4027 132.973 95.8427 133.48C95.2827 133.973 94.9493 134.647 94.8427 135.5H100.943ZM109.566 142.18C108.7 142.18 107.92 142.027 107.226 141.72C106.546 141.4 106.006 140.973 105.606 140.44C105.206 139.893 104.993 139.287 104.966 138.62H107.326C107.366 139.087 107.586 139.48 107.986 139.8C108.4 140.107 108.913 140.26 109.526 140.26C110.166 140.26 110.66 140.14 111.006 139.9C111.366 139.647 111.546 139.327 111.546 138.94C111.546 138.527 111.346 138.22 110.946 138.02C110.56 137.82 109.94 137.6 109.086 137.36C108.26 137.133 107.586 136.913 107.066 136.7C106.546 136.487 106.093 136.16 105.706 135.72C105.333 135.28 105.146 134.7 105.146 133.98C105.146 133.393 105.32 132.86 105.666 132.38C106.013 131.887 106.506 131.5 107.146 131.22C107.8 130.94 108.546 130.8 109.386 130.8C110.64 130.8 111.646 131.12 112.406 131.76C113.18 132.387 113.593 133.247 113.646 134.34H111.366C111.326 133.847 111.126 133.453 110.766 133.16C110.406 132.867 109.92 132.72 109.306 132.72C108.706 132.72 108.246 132.833 107.926 133.06C107.606 133.287 107.446 133.587 107.446 133.96C107.446 134.253 107.553 134.5 107.766 134.7C107.98 134.9 108.24 135.06 108.546 135.18C108.853 135.287 109.306 135.427 109.906 135.6C110.706 135.813 111.36 136.033 111.866 136.26C112.386 136.473 112.833 136.793 113.206 137.22C113.58 137.647 113.773 138.213 113.786 138.92C113.786 139.547 113.613 140.107 113.266 140.6C112.92 141.093 112.426 141.48 111.786 141.76C111.16 142.04 110.42 142.18 109.566 142.18ZM118.53 132.6C118.917 132.093 119.443 131.667 120.11 131.32C120.777 130.973 121.53 130.8 122.37 130.8C123.33 130.8 124.203 131.04 124.99 131.52C125.79 131.987 126.417 132.647 126.87 133.5C127.323 134.353 127.55 135.333 127.55 136.44C127.55 137.547 127.323 138.54 126.87 139.42C126.417 140.287 125.79 140.967 124.99 141.46C124.203 141.94 123.33 142.18 122.37 142.18C121.53 142.18 120.783 142.013 120.13 141.68C119.477 141.333 118.943 140.907 118.53 140.4V147.24H116.25V130.98H118.53V132.6ZM125.23 136.44C125.23 135.68 125.07 135.027 124.75 134.48C124.443 133.92 124.03 133.5 123.51 133.22C123.003 132.927 122.457 132.78 121.87 132.78C121.297 132.78 120.75 132.927 120.23 133.22C119.723 133.513 119.31 133.94 118.99 134.5C118.683 135.06 118.53 135.72 118.53 136.48C118.53 137.24 118.683 137.907 118.99 138.48C119.31 139.04 119.723 139.467 120.23 139.76C120.75 140.053 121.297 140.2 121.87 140.2C122.457 140.2 123.003 140.053 123.51 139.76C124.03 139.453 124.443 139.013 124.75 138.44C125.07 137.867 125.23 137.2 125.23 136.44ZM129.045 136.44C129.045 135.333 129.271 134.353 129.725 133.5C130.191 132.647 130.818 131.987 131.605 131.52C132.405 131.04 133.285 130.8 134.245 130.8C135.111 130.8 135.865 130.973 136.505 131.32C137.158 131.653 137.678 132.073 138.065 132.58V130.98H140.365V142H138.065V140.36C137.678 140.88 137.151 141.313 136.485 141.66C135.818 142.007 135.058 142.18 134.205 142.18C133.258 142.18 132.391 141.94 131.605 141.46C130.818 140.967 130.191 140.287 129.725 139.42C129.271 138.54 129.045 137.547 129.045 136.44ZM138.065 136.48C138.065 135.72 137.905 135.06 137.585 134.5C137.278 133.94 136.871 133.513 136.365 133.22C135.858 132.927 135.311 132.78 134.725 132.78C134.138 132.78 133.591 132.927 133.085 133.22C132.578 133.5 132.165 133.92 131.845 134.48C131.538 135.027 131.385 135.68 131.385 136.44C131.385 137.2 131.538 137.867 131.845 138.44C132.165 139.013 132.578 139.453 133.085 139.76C133.605 140.053 134.151 140.2 134.725 140.2C135.311 140.2 135.858 140.053 136.365 139.76C136.871 139.467 137.278 139.04 137.585 138.48C137.905 137.907 138.065 137.24 138.065 136.48ZM147.999 140.26C149.319 140.26 150.193 139.68 150.619 138.52H153.079C152.786 139.533 152.259 140.367 151.499 141.02C150.753 141.66 149.813 142.033 148.679 142.14V142.96C149.453 142.96 150.079 143.14 150.559 143.5C151.039 143.873 151.279 144.393 151.279 145.06C151.279 145.727 151.039 146.253 150.559 146.64C150.079 147.04 149.473 147.24 148.739 147.24H146.099V145.8H148.279C148.653 145.8 148.933 145.747 149.119 145.64C149.306 145.533 149.399 145.34 149.399 145.06C149.399 144.78 149.306 144.587 149.119 144.48C148.933 144.373 148.653 144.32 148.279 144.32H147.179V142.12C146.273 142.013 145.473 141.713 144.779 141.22C144.086 140.713 143.546 140.06 143.159 139.26C142.786 138.447 142.599 137.52 142.599 136.48C142.599 135.347 142.826 134.353 143.279 133.5C143.746 132.633 144.386 131.967 145.199 131.5C146.013 131.033 146.946 130.8 147.999 130.8C149.333 130.8 150.433 131.12 151.299 131.76C152.179 132.387 152.773 133.287 153.079 134.46H150.619C150.419 133.913 150.099 133.487 149.659 133.18C149.219 132.873 148.666 132.72 147.999 132.72C147.066 132.72 146.319 133.053 145.759 133.72C145.213 134.373 144.939 135.293 144.939 136.48C144.939 137.667 145.213 138.593 145.759 139.26C146.319 139.927 147.066 140.26 147.999 140.26ZM160.132 142.18C159.092 142.18 158.152 141.947 157.312 141.48C156.472 141 155.812 140.333 155.332 139.48C154.852 138.613 154.612 137.613 154.612 136.48C154.612 135.36 154.858 134.367 155.352 133.5C155.845 132.633 156.518 131.967 157.372 131.5C158.225 131.033 159.178 130.8 160.232 130.8C161.285 130.8 162.238 131.033 163.092 131.5C163.945 131.967 164.618 132.633 165.112 133.5C165.605 134.367 165.852 135.36 165.852 136.48C165.852 137.6 165.598 138.593 165.092 139.46C164.585 140.327 163.892 141 163.012 141.48C162.145 141.947 161.185 142.18 160.132 142.18ZM160.132 140.2C160.718 140.2 161.265 140.06 161.772 139.78C162.292 139.5 162.712 139.08 163.032 138.52C163.352 137.96 163.512 137.28 163.512 136.48C163.512 135.68 163.358 135.007 163.052 134.46C162.745 133.9 162.338 133.48 161.832 133.2C161.325 132.92 160.778 132.78 160.192 132.78C159.605 132.78 159.058 132.92 158.552 133.2C158.058 133.48 157.665 133.9 157.372 134.46C157.078 135.007 156.932 135.68 156.932 136.48C156.932 137.667 157.232 138.587 157.832 139.24C158.445 139.88 159.212 140.2 160.132 140.2ZM175.581 132.6C175.967 132.093 176.494 131.667 177.161 131.32C177.827 130.973 178.581 130.8 179.421 130.8C180.381 130.8 181.254 131.04 182.041 131.52C182.841 131.987 183.467 132.647 183.921 133.5C184.374 134.353 184.601 135.333 184.601 136.44C184.601 137.547 184.374 138.54 183.921 139.42C183.467 140.287 182.841 140.967 182.041 141.46C181.254 141.94 180.381 142.18 179.421 142.18C178.581 142.18 177.834 142.013 177.181 141.68C176.527 141.333 175.994 140.907 175.581 140.4V147.24H173.301V130.98H175.581V132.6ZM182.281 136.44C182.281 135.68 182.121 135.027 181.801 134.48C181.494 133.92 181.081 133.5 180.561 133.22C180.054 132.927 179.507 132.78 178.921 132.78C178.347 132.78 177.801 132.927 177.281 133.22C176.774 133.513 176.361 133.94 176.041 134.5C175.734 135.06 175.581 135.72 175.581 136.48C175.581 137.24 175.734 137.907 176.041 138.48C176.361 139.04 176.774 139.467 177.281 139.76C177.801 140.053 178.347 140.2 178.921 140.2C179.507 140.2 180.054 140.053 180.561 139.76C181.081 139.453 181.494 139.013 181.801 138.44C182.121 137.867 182.281 137.2 182.281 136.44ZM186.095 136.44C186.095 135.333 186.322 134.353 186.775 133.5C187.242 132.647 187.869 131.987 188.655 131.52C189.455 131.04 190.335 130.8 191.295 130.8C192.162 130.8 192.915 130.973 193.555 131.32C194.209 131.653 194.729 132.073 195.115 132.58V130.98H197.415V142H195.115V140.36C194.729 140.88 194.202 141.313 193.535 141.66C192.869 142.007 192.109 142.18 191.255 142.18C190.309 142.18 189.442 141.94 188.655 141.46C187.869 140.967 187.242 140.287 186.775 139.42C186.322 138.54 186.095 137.547 186.095 136.44ZM195.115 136.48C195.115 135.72 194.955 135.06 194.635 134.5C194.329 133.94 193.922 133.513 193.415 133.22C192.909 132.927 192.362 132.78 191.775 132.78C191.189 132.78 190.642 132.927 190.135 133.22C189.629 133.5 189.215 133.92 188.895 134.48C188.589 135.027 188.435 135.68 188.435 136.44C188.435 137.2 188.589 137.867 188.895 138.44C189.215 139.013 189.629 139.453 190.135 139.76C190.655 140.053 191.202 140.2 191.775 140.2C192.362 140.2 192.909 140.053 193.415 139.76C193.922 139.467 194.329 139.04 194.635 138.48C194.955 137.907 195.115 137.24 195.115 136.48ZM202.69 132.58C203.023 132.02 203.463 131.587 204.01 131.28C204.57 130.96 205.23 130.8 205.99 130.8V133.16H205.41C204.517 133.16 203.837 133.387 203.37 133.84C202.917 134.293 202.69 135.08 202.69 136.2V142H200.41V130.98H202.69V132.58ZM207.326 136.44C207.326 135.333 207.553 134.353 208.006 133.5C208.473 132.647 209.099 131.987 209.886 131.52C210.686 131.04 211.566 130.8 212.526 130.8C213.393 130.8 214.146 130.973 214.786 131.32C215.439 131.653 215.959 132.073 216.346 132.58V130.98H218.646V142H216.346V140.36C215.959 140.88 215.433 141.313 214.766 141.66C214.099 142.007 213.339 142.18 212.486 142.18C211.539 142.18 210.673 141.94 209.886 141.46C209.099 140.967 208.473 140.287 208.006 139.42C207.553 138.54 207.326 137.547 207.326 136.44ZM216.346 136.48C216.346 135.72 216.186 135.06 215.866 134.5C215.559 133.94 215.153 133.513 214.646 133.22C214.139 132.927 213.593 132.78 213.006 132.78C212.419 132.78 211.873 132.927 211.366 133.22C210.859 133.5 210.446 133.92 210.126 134.48C209.819 135.027 209.666 135.68 209.666 136.44C209.666 137.2 209.819 137.867 210.126 138.44C210.446 139.013 210.859 139.453 211.366 139.76C211.886 140.053 212.433 140.2 213.006 140.2C213.593 140.2 214.139 140.053 214.646 139.76C215.153 139.467 215.559 139.04 215.866 138.48C216.186 137.907 216.346 137.24 216.346 136.48ZM226.076 136.48C226.076 135.347 226.303 134.353 226.756 133.5C227.223 132.633 227.863 131.967 228.676 131.5C229.489 131.033 230.423 130.8 231.476 130.8C232.809 130.8 233.909 131.12 234.776 131.76C235.656 132.387 236.249 133.287 236.556 134.46H234.096C233.896 133.913 233.576 133.487 233.136 133.18C232.696 132.873 232.143 132.72 231.476 132.72C230.543 132.72 229.796 133.053 229.236 133.72C228.689 134.373 228.416 135.293 228.416 136.48C228.416 137.667 228.689 138.593 229.236 139.26C229.796 139.927 230.543 140.26 231.476 140.26C232.796 140.26 233.669 139.68 234.096 138.52H236.556C236.236 139.64 235.636 140.533 234.756 141.2C233.876 141.853 232.783 142.18 231.476 142.18C230.423 142.18 229.489 141.947 228.676 141.48C227.863 141 227.223 140.333 226.756 139.48C226.303 138.613 226.076 137.613 226.076 136.48ZM241.108 132.58C241.441 132.02 241.881 131.587 242.428 131.28C242.988 130.96 243.648 130.8 244.408 130.8V133.16H243.828C242.935 133.16 242.255 133.387 241.788 133.84C241.335 134.293 241.108 135.08 241.108 136.2V142H238.828V130.98H241.108V132.58ZM256.604 136.22C256.604 136.633 256.577 137.007 256.524 137.34H248.104C248.171 138.22 248.497 138.927 249.084 139.46C249.671 139.993 250.391 140.26 251.244 140.26C252.471 140.26 253.337 139.747 253.844 138.72H256.304C255.971 139.733 255.364 140.567 254.484 141.22C253.617 141.86 252.537 142.18 251.244 142.18C250.191 142.18 249.244 141.947 248.404 141.48C247.577 141 246.924 140.333 246.444 139.48C245.977 138.613 245.744 137.613 245.744 136.48C245.744 135.347 245.971 134.353 246.424 133.5C246.891 132.633 247.537 131.967 248.364 131.5C249.204 131.033 250.164 130.8 251.244 130.8C252.284 130.8 253.211 131.027 254.024 131.48C254.837 131.933 255.471 132.573 255.924 133.4C256.377 134.213 256.604 135.153 256.604 136.22ZM254.224 135.5C254.211 134.66 253.911 133.987 253.324 133.48C252.737 132.973 252.011 132.72 251.144 132.72C250.357 132.72 249.684 132.973 249.124 133.48C248.564 133.973 248.231 134.647 248.124 135.5H254.224ZM262.848 142.18C261.981 142.18 261.201 142.027 260.508 141.72C259.828 141.4 259.288 140.973 258.888 140.44C258.488 139.893 258.274 139.287 258.248 138.62H260.608C260.648 139.087 260.868 139.48 261.268 139.8C261.681 140.107 262.194 140.26 262.808 140.26C263.448 140.26 263.941 140.14 264.288 139.9C264.648 139.647 264.828 139.327 264.828 138.94C264.828 138.527 264.628 138.22 264.228 138.02C263.841 137.82 263.221 137.6 262.368 137.36C261.541 137.133 260.868 136.913 260.348 136.7C259.828 136.487 259.374 136.16 258.988 135.72C258.614 135.28 258.428 134.7 258.428 133.98C258.428 133.393 258.601 132.86 258.948 132.38C259.294 131.887 259.788 131.5 260.428 131.22C261.081 130.94 261.828 130.8 262.668 130.8C263.921 130.8 264.928 131.12 265.688 131.76C266.461 132.387 266.874 133.247 266.928 134.34H264.648C264.608 133.847 264.408 133.453 264.048 133.16C263.688 132.867 263.201 132.72 262.588 132.72C261.988 132.72 261.528 132.833 261.208 133.06C260.888 133.287 260.728 133.587 260.728 133.96C260.728 134.253 260.834 134.5 261.048 134.7C261.261 134.9 261.521 135.06 261.828 135.18C262.134 135.287 262.588 135.427 263.188 135.6C263.988 135.813 264.641 136.033 265.148 136.26C265.668 136.473 266.114 136.793 266.488 137.22C266.861 137.647 267.054 138.213 267.068 138.92C267.068 139.547 266.894 140.107 266.548 140.6C266.201 141.093 265.708 141.48 265.068 141.76C264.441 142.04 263.701 142.18 262.848 142.18ZM268.771 136.48C268.771 135.347 268.998 134.353 269.451 133.5C269.918 132.633 270.558 131.967 271.371 131.5C272.185 131.033 273.118 130.8 274.171 130.8C275.505 130.8 276.605 131.12 277.471 131.76C278.351 132.387 278.945 133.287 279.251 134.46H276.791C276.591 133.913 276.271 133.487 275.831 133.18C275.391 132.873 274.838 132.72 274.171 132.72C273.238 132.72 272.491 133.053 271.931 133.72C271.385 134.373 271.111 135.293 271.111 136.48C271.111 137.667 271.385 138.593 271.931 139.26C272.491 139.927 273.238 140.26 274.171 140.26C275.491 140.26 276.365 139.68 276.791 138.52H279.251C278.931 139.64 278.331 140.533 277.451 141.2C276.571 141.853 275.478 142.18 274.171 142.18C273.118 142.18 272.185 141.947 271.371 141.48C270.558 141 269.918 140.333 269.451 139.48C268.998 138.613 268.771 137.613 268.771 136.48ZM282.683 129.52C282.27 129.52 281.923 129.38 281.643 129.1C281.363 128.82 281.223 128.473 281.223 128.06C281.223 127.647 281.363 127.3 281.643 127.02C281.923 126.74 282.27 126.6 282.683 126.6C283.083 126.6 283.423 126.74 283.703 127.02C283.983 127.3 284.123 127.647 284.123 128.06C284.123 128.473 283.983 128.82 283.703 129.1C283.423 129.38 283.083 129.52 282.683 129.52ZM283.803 130.98V142H281.523V130.98H283.803ZM300.137 130.8C301.004 130.8 301.777 130.98 302.457 131.34C303.15 131.7 303.69 132.233 304.077 132.94C304.477 133.647 304.677 134.5 304.677 135.5V142H302.417V135.84C302.417 134.853 302.17 134.1 301.677 133.58C301.184 133.047 300.51 132.78 299.657 132.78C298.804 132.78 298.124 133.047 297.617 133.58C297.124 134.1 296.877 134.853 296.877 135.84V142H294.617V135.84C294.617 134.853 294.37 134.1 293.877 133.58C293.384 133.047 292.71 132.78 291.857 132.78C291.004 132.78 290.324 133.047 289.817 133.58C289.324 134.1 289.077 134.853 289.077 135.84V142H286.797V130.98H289.077V132.24C289.45 131.787 289.924 131.433 290.497 131.18C291.07 130.927 291.684 130.8 292.337 130.8C293.217 130.8 294.004 130.987 294.697 131.36C295.39 131.733 295.924 132.273 296.297 132.98C296.63 132.313 297.15 131.787 297.857 131.4C298.564 131 299.324 130.8 300.137 130.8ZM317.678 136.22C317.678 136.633 317.651 137.007 317.598 137.34H309.178C309.245 138.22 309.571 138.927 310.158 139.46C310.745 139.993 311.465 140.26 312.318 140.26C313.545 140.26 314.411 139.747 314.918 138.72H317.378C317.045 139.733 316.438 140.567 315.558 141.22C314.691 141.86 313.611 142.18 312.318 142.18C311.265 142.18 310.318 141.947 309.478 141.48C308.651 141 307.998 140.333 307.518 139.48C307.051 138.613 306.818 137.613 306.818 136.48C306.818 135.347 307.045 134.353 307.498 133.5C307.965 132.633 308.611 131.967 309.438 131.5C310.278 131.033 311.238 130.8 312.318 130.8C313.358 130.8 314.285 131.027 315.098 131.48C315.911 131.933 316.545 132.573 316.998 133.4C317.451 134.213 317.678 135.153 317.678 136.22ZM315.298 135.5C315.285 134.66 314.985 133.987 314.398 133.48C313.811 132.973 313.085 132.72 312.218 132.72C311.431 132.72 310.758 132.973 310.198 133.48C309.638 133.973 309.305 134.647 309.198 135.5H315.298ZM325.482 130.8C326.349 130.8 327.122 130.98 327.802 131.34C328.495 131.7 329.035 132.233 329.422 132.94C329.809 133.647 330.002 134.5 330.002 135.5V142H327.742V135.84C327.742 134.853 327.495 134.1 327.002 133.58C326.509 133.047 325.835 132.78 324.982 132.78C324.129 132.78 323.449 133.047 322.942 133.58C322.449 134.1 322.202 134.853 322.202 135.84V142H319.922V130.98H322.202V132.24C322.575 131.787 323.049 131.433 323.622 131.18C324.209 130.927 324.829 130.8 325.482 130.8ZM335.57 132.84V138.94C335.57 139.353 335.663 139.653 335.85 139.84C336.05 140.013 336.383 140.1 336.85 140.1H338.25V142H336.45C335.423 142 334.637 141.76 334.09 141.28C333.543 140.8 333.27 140.02 333.27 138.94V132.84H331.97V130.98H333.27V128.24H335.57V130.98H338.25V132.84H335.57ZM345.132 142.18C344.092 142.18 343.152 141.947 342.312 141.48C341.472 141 340.812 140.333 340.332 139.48C339.852 138.613 339.612 137.613 339.612 136.48C339.612 135.36 339.858 134.367 340.352 133.5C340.845 132.633 341.518 131.967 342.372 131.5C343.225 131.033 344.178 130.8 345.232 130.8C346.285 130.8 347.238 131.033 348.092 131.5C348.945 131.967 349.618 132.633 350.112 133.5C350.605 134.367 350.852 135.36 350.852 136.48C350.852 137.6 350.598 138.593 350.092 139.46C349.585 140.327 348.892 141 348.012 141.48C347.145 141.947 346.185 142.18 345.132 142.18ZM345.132 140.2C345.718 140.2 346.265 140.06 346.772 139.78C347.292 139.5 347.712 139.08 348.032 138.52C348.352 137.96 348.512 137.28 348.512 136.48C348.512 135.68 348.358 135.007 348.052 134.46C347.745 133.9 347.338 133.48 346.832 133.2C346.325 132.92 345.778 132.78 345.192 132.78C344.605 132.78 344.058 132.92 343.552 133.2C343.058 133.48 342.665 133.9 342.372 134.46C342.078 135.007 341.932 135.68 341.932 136.48C341.932 137.667 342.232 138.587 342.832 139.24C343.445 139.88 344.212 140.2 345.132 140.2ZM357.541 136.44C357.541 135.333 357.767 134.353 358.221 133.5C358.687 132.647 359.314 131.987 360.101 131.52C360.901 131.04 361.787 130.8 362.761 130.8C363.481 130.8 364.187 130.96 364.881 131.28C365.587 131.587 366.147 132 366.561 132.52V127.2H368.861V142H366.561V140.34C366.187 140.873 365.667 141.313 365.001 141.66C364.347 142.007 363.594 142.18 362.741 142.18C361.781 142.18 360.901 141.94 360.101 141.46C359.314 140.967 358.687 140.287 358.221 139.42C357.767 138.54 357.541 137.547 357.541 136.44ZM366.561 136.48C366.561 135.72 366.401 135.06 366.081 134.5C365.774 133.94 365.367 133.513 364.861 133.22C364.354 132.927 363.807 132.78 363.221 132.78C362.634 132.78 362.087 132.927 361.581 133.22C361.074 133.5 360.661 133.92 360.341 134.48C360.034 135.027 359.881 135.68 359.881 136.44C359.881 137.2 360.034 137.867 360.341 138.44C360.661 139.013 361.074 139.453 361.581 139.76C362.101 140.053 362.647 140.2 363.221 140.2C363.807 140.2 364.354 140.053 364.861 139.76C365.367 139.467 365.774 139.04 366.081 138.48C366.401 137.907 366.561 137.24 366.561 136.48ZM371.095 136.44C371.095 135.333 371.322 134.353 371.775 133.5C372.242 132.647 372.869 131.987 373.655 131.52C374.455 131.04 375.335 130.8 376.295 130.8C377.162 130.8 377.915 130.973 378.555 131.32C379.209 131.653 379.729 132.073 380.115 132.58V130.98H382.415V142H380.115V140.36C379.729 140.88 379.202 141.313 378.535 141.66C377.869 142.007 377.109 142.18 376.255 142.18C375.309 142.18 374.442 141.94 373.655 141.46C372.869 140.967 372.242 140.287 371.775 139.42C371.322 138.54 371.095 137.547 371.095 136.44ZM380.115 136.48C380.115 135.72 379.955 135.06 379.635 134.5C379.329 133.94 378.922 133.513 378.415 133.22C377.909 132.927 377.362 132.78 376.775 132.78C376.189 132.78 375.642 132.927 375.135 133.22C374.629 133.5 374.215 133.92 373.895 134.48C373.589 135.027 373.435 135.68 373.435 136.44C373.435 137.2 373.589 137.867 373.895 138.44C374.215 139.013 374.629 139.453 375.135 139.76C375.655 140.053 376.202 140.2 376.775 140.2C377.362 140.2 377.909 140.053 378.415 139.76C378.922 139.467 379.329 139.04 379.635 138.48C379.955 137.907 380.115 137.24 380.115 136.48ZM389.41 142.18C388.543 142.18 387.763 142.027 387.07 141.72C386.39 141.4 385.85 140.973 385.45 140.44C385.05 139.893 384.837 139.287 384.81 138.62H387.17C387.21 139.087 387.43 139.48 387.83 139.8C388.243 140.107 388.757 140.26 389.37 140.26C390.01 140.26 390.503 140.14 390.85 139.9C391.21 139.647 391.39 139.327 391.39 138.94C391.39 138.527 391.19 138.22 390.79 138.02C390.403 137.82 389.783 137.6 388.93 137.36C388.103 137.133 387.43 136.913 386.91 136.7C386.39 136.487 385.937 136.16 385.55 135.72C385.177 135.28 384.99 134.7 384.99 133.98C384.99 133.393 385.163 132.86 385.51 132.38C385.857 131.887 386.35 131.5 386.99 131.22C387.643 130.94 388.39 130.8 389.23 130.8C390.483 130.8 391.49 131.12 392.25 131.76C393.023 132.387 393.437 133.247 393.49 134.34H391.21C391.17 133.847 390.97 133.453 390.61 133.16C390.25 132.867 389.763 132.72 389.15 132.72C388.55 132.72 388.09 132.833 387.77 133.06C387.45 133.287 387.29 133.587 387.29 133.96C387.29 134.253 387.397 134.5 387.61 134.7C387.823 134.9 388.083 135.06 388.39 135.18C388.697 135.287 389.15 135.427 389.75 135.6C390.55 135.813 391.203 136.033 391.71 136.26C392.23 136.473 392.677 136.793 393.05 137.22C393.423 137.647 393.617 138.213 393.63 138.92C393.63 139.547 393.457 140.107 393.11 140.6C392.763 141.093 392.27 141.48 391.63 141.76C391.003 142.04 390.263 142.18 389.41 142.18ZM44.78 162.6C45.1667 162.093 45.6933 161.667 46.36 161.32C47.0267 160.973 47.78 160.8 48.62 160.8C49.58 160.8 50.4533 161.04 51.24 161.52C52.04 161.987 52.6667 162.647 53.12 163.5C53.5733 164.353 53.8 165.333 53.8 166.44C53.8 167.547 53.5733 168.54 53.12 169.42C52.6667 170.287 52.04 170.967 51.24 171.46C50.4533 171.94 49.58 172.18 48.62 172.18C47.78 172.18 47.0333 172.013 46.38 171.68C45.7267 171.333 45.1933 170.907 44.78 170.4V177.24H42.5V160.98H44.78V162.6ZM51.48 166.44C51.48 165.68 51.32 165.027 51 164.48C50.6933 163.92 50.28 163.5 49.76 163.22C49.2533 162.927 48.7067 162.78 48.12 162.78C47.5467 162.78 47 162.927 46.48 163.22C45.9733 163.513 45.56 163.94 45.24 164.5C44.9333 165.06 44.78 165.72 44.78 166.48C44.78 167.24 44.9333 167.907 45.24 168.48C45.56 169.04 45.9733 169.467 46.48 169.76C47 170.053 47.5467 170.2 48.12 170.2C48.7067 170.2 49.2533 170.053 49.76 169.76C50.28 169.453 50.6933 169.013 51 168.44C51.32 167.867 51.48 167.2 51.48 166.44ZM66.1547 166.22C66.1547 166.633 66.128 167.007 66.0747 167.34H57.6547C57.7214 168.22 58.048 168.927 58.6347 169.46C59.2214 169.993 59.9414 170.26 60.7947 170.26C62.0214 170.26 62.888 169.747 63.3947 168.72H65.8547C65.5214 169.733 64.9147 170.567 64.0347 171.22C63.168 171.86 62.088 172.18 60.7947 172.18C59.7414 172.18 58.7947 171.947 57.9547 171.48C57.128 171 56.4747 170.333 55.9947 169.48C55.528 168.613 55.2947 167.613 55.2947 166.48C55.2947 165.347 55.5214 164.353 55.9747 163.5C56.4414 162.633 57.088 161.967 57.9147 161.5C58.7547 161.033 59.7147 160.8 60.7947 160.8C61.8347 160.8 62.7614 161.027 63.5747 161.48C64.388 161.933 65.0214 162.573 65.4747 163.4C65.928 164.213 66.1547 165.153 66.1547 166.22ZM63.7747 165.5C63.7614 164.66 63.4614 163.987 62.8747 163.48C62.288 162.973 61.5614 162.72 60.6947 162.72C59.908 162.72 59.2347 162.973 58.6747 163.48C58.1147 163.973 57.7814 164.647 57.6747 165.5H63.7747ZM67.6384 166.44C67.6384 165.333 67.8651 164.353 68.3184 163.5C68.7851 162.647 69.4118 161.987 70.1984 161.52C70.9984 161.04 71.8851 160.8 72.8584 160.8C73.7118 160.8 74.4651 160.973 75.1184 161.32C75.7851 161.667 76.2984 162.087 76.6584 162.58V160.98H78.9584V177.24H76.6584V170.4C76.2984 170.893 75.7784 171.313 75.0984 171.66C74.4184 172.007 73.6451 172.18 72.7784 172.18C71.8318 172.18 70.9651 171.94 70.1784 171.46C69.4051 170.967 68.7851 170.287 68.3184 169.42C67.8651 168.54 67.6384 167.547 67.6384 166.44ZM76.6584 166.48C76.6584 165.72 76.4984 165.06 76.1784 164.5C75.8718 163.94 75.4651 163.513 74.9584 163.22C74.4518 162.927 73.9051 162.78 73.3184 162.78C72.7318 162.78 72.1851 162.927 71.6784 163.22C71.1718 163.5 70.7584 163.92 70.4384 164.48C70.1318 165.027 69.9784 165.68 69.9784 166.44C69.9784 167.2 70.1318 167.867 70.4384 168.44C70.7584 169.013 71.1718 169.453 71.6784 169.76C72.1984 170.053 72.7451 170.2 73.3184 170.2C73.9051 170.2 74.4518 170.053 74.9584 169.76C75.4651 169.467 75.8718 169.04 76.1784 168.48C76.4984 167.907 76.6584 167.24 76.6584 166.48ZM91.9331 160.98V172H89.6531V170.7C89.2931 171.153 88.8198 171.513 88.2331 171.78C87.6598 172.033 87.0465 172.16 86.3931 172.16C85.5265 172.16 84.7465 171.98 84.0531 171.62C83.3731 171.26 82.8331 170.727 82.4331 170.02C82.0465 169.313 81.8531 168.46 81.8531 167.46V160.98H84.1131V167.12C84.1131 168.107 84.3598 168.867 84.8531 169.4C85.3465 169.92 86.0198 170.18 86.8731 170.18C87.7265 170.18 88.3998 169.92 88.8931 169.4C89.3998 168.867 89.6531 168.107 89.6531 167.12V160.98H91.9331ZM105.041 166.22C105.041 166.633 105.015 167.007 104.961 167.34H96.5414C96.6081 168.22 96.9347 168.927 97.5214 169.46C98.1081 169.993 98.8281 170.26 99.6814 170.26C100.908 170.26 101.775 169.747 102.281 168.72H104.741C104.408 169.733 103.801 170.567 102.921 171.22C102.055 171.86 100.975 172.18 99.6814 172.18C98.6281 172.18 97.6814 171.947 96.8414 171.48C96.0147 171 95.3614 170.333 94.8814 169.48C94.4147 168.613 94.1814 167.613 94.1814 166.48C94.1814 165.347 94.4081 164.353 94.8614 163.5C95.3281 162.633 95.9747 161.967 96.8014 161.5C97.6414 161.033 98.6014 160.8 99.6814 160.8C100.721 160.8 101.648 161.027 102.461 161.48C103.275 161.933 103.908 162.573 104.361 163.4C104.815 164.213 105.041 165.153 105.041 166.22ZM102.661 165.5C102.648 164.66 102.348 163.987 101.761 163.48C101.175 162.973 100.448 162.72 99.5814 162.72C98.7947 162.72 98.1214 162.973 97.5614 163.48C97.0014 163.973 96.6681 164.647 96.5614 165.5H102.661ZM112.845 160.8C113.712 160.8 114.485 160.98 115.165 161.34C115.858 161.7 116.398 162.233 116.785 162.94C117.172 163.647 117.365 164.5 117.365 165.5V172H115.105V165.84C115.105 164.853 114.858 164.1 114.365 163.58C113.872 163.047 113.198 162.78 112.345 162.78C111.492 162.78 110.812 163.047 110.305 163.58C109.812 164.1 109.565 164.853 109.565 165.84V172H107.285V160.98H109.565V162.24C109.938 161.787 110.412 161.433 110.985 161.18C111.572 160.927 112.192 160.8 112.845 160.8ZM119.513 166.44C119.513 165.333 119.74 164.353 120.193 163.5C120.66 162.647 121.287 161.987 122.073 161.52C122.873 161.04 123.753 160.8 124.713 160.8C125.58 160.8 126.333 160.973 126.973 161.32C127.627 161.653 128.147 162.073 128.533 162.58V160.98H130.833V172H128.533V170.36C128.147 170.88 127.62 171.313 126.953 171.66C126.287 172.007 125.527 172.18 124.673 172.18C123.727 172.18 122.86 171.94 122.073 171.46C121.287 170.967 120.66 170.287 120.193 169.42C119.74 168.54 119.513 167.547 119.513 166.44ZM128.533 166.48C128.533 165.72 128.373 165.06 128.053 164.5C127.747 163.94 127.34 163.513 126.833 163.22C126.327 162.927 125.78 162.78 125.193 162.78C124.607 162.78 124.06 162.927 123.553 163.22C123.047 163.5 122.633 163.92 122.313 164.48C122.007 165.027 121.853 165.68 121.853 166.44C121.853 167.2 122.007 167.867 122.313 168.44C122.633 169.013 123.047 169.453 123.553 169.76C124.073 170.053 124.62 170.2 125.193 170.2C125.78 170.2 126.327 170.053 126.833 169.76C127.34 169.467 127.747 169.04 128.053 168.48C128.373 167.907 128.533 167.24 128.533 166.48ZM137.828 172.18C136.961 172.18 136.181 172.027 135.488 171.72C134.808 171.4 134.268 170.973 133.868 170.44C133.468 169.893 133.255 169.287 133.228 168.62H135.588C135.628 169.087 135.848 169.48 136.248 169.8C136.661 170.107 137.175 170.26 137.788 170.26C138.428 170.26 138.921 170.14 139.268 169.9C139.628 169.647 139.808 169.327 139.808 168.94C139.808 168.527 139.608 168.22 139.208 168.02C138.821 167.82 138.201 167.6 137.348 167.36C136.521 167.133 135.848 166.913 135.328 166.7C134.808 166.487 134.355 166.16 133.968 165.72C133.595 165.28 133.408 164.7 133.408 163.98C133.408 163.393 133.581 162.86 133.928 162.38C134.275 161.887 134.768 161.5 135.408 161.22C136.061 160.94 136.808 160.8 137.648 160.8C138.901 160.8 139.908 161.12 140.668 161.76C141.441 162.387 141.855 163.247 141.908 164.34H139.628C139.588 163.847 139.388 163.453 139.028 163.16C138.668 162.867 138.181 162.72 137.568 162.72C136.968 162.72 136.508 162.833 136.188 163.06C135.868 163.287 135.708 163.587 135.708 163.96C135.708 164.253 135.815 164.5 136.028 164.7C136.241 164.9 136.501 165.06 136.808 165.18C137.115 165.287 137.568 165.427 138.168 165.6C138.968 165.813 139.621 166.033 140.128 166.26C140.648 166.473 141.095 166.793 141.468 167.22C141.841 167.647 142.035 168.213 142.048 168.92C142.048 169.547 141.875 170.107 141.528 170.6C141.181 171.093 140.688 171.48 140.048 171.76C139.421 172.04 138.681 172.18 137.828 172.18ZM159.807 166.22C159.807 166.633 159.78 167.007 159.727 167.34H151.307C151.374 168.22 151.7 168.927 152.287 169.46C152.874 169.993 153.594 170.26 154.447 170.26C155.674 170.26 156.54 169.747 157.047 168.72H159.507C159.174 169.733 158.567 170.567 157.687 171.22C156.82 171.86 155.74 172.18 154.447 172.18C153.394 172.18 152.447 171.947 151.607 171.48C150.78 171 150.127 170.333 149.647 169.48C149.18 168.613 148.947 167.613 148.947 166.48C148.947 165.347 149.174 164.353 149.627 163.5C150.094 162.633 150.74 161.967 151.567 161.5C152.407 161.033 153.367 160.8 154.447 160.8C155.487 160.8 156.414 161.027 157.227 161.48C158.04 161.933 158.674 162.573 159.127 163.4C159.58 164.213 159.807 165.153 159.807 166.22ZM157.427 165.5C157.414 164.66 157.114 163.987 156.527 163.48C155.94 162.973 155.214 162.72 154.347 162.72C153.56 162.72 152.887 162.973 152.327 163.48C151.767 163.973 151.434 164.647 151.327 165.5H157.427ZM180.586 160.8C181.453 160.8 182.226 160.98 182.906 161.34C183.599 161.7 184.139 162.233 184.526 162.94C184.926 163.647 185.126 164.5 185.126 165.5V172H182.866V165.84C182.866 164.853 182.619 164.1 182.126 163.58C181.633 163.047 180.959 162.78 180.106 162.78C179.253 162.78 178.573 163.047 178.066 163.58C177.573 164.1 177.326 164.853 177.326 165.84V172H175.066V165.84C175.066 164.853 174.819 164.1 174.326 163.58C173.833 163.047 173.159 162.78 172.306 162.78C171.453 162.78 170.773 163.047 170.266 163.58C169.773 164.1 169.526 164.853 169.526 165.84V172H167.246V160.98H169.526V162.24C169.899 161.787 170.373 161.433 170.946 161.18C171.519 160.927 172.133 160.8 172.786 160.8C173.666 160.8 174.453 160.987 175.146 161.36C175.839 161.733 176.373 162.273 176.746 162.98C177.079 162.313 177.599 161.787 178.306 161.4C179.013 161 179.773 160.8 180.586 160.8ZM198.127 166.22C198.127 166.633 198.101 167.007 198.047 167.34H189.627C189.694 168.22 190.021 168.927 190.607 169.46C191.194 169.993 191.914 170.26 192.767 170.26C193.994 170.26 194.861 169.747 195.367 168.72H197.827C197.494 169.733 196.887 170.567 196.007 171.22C195.141 171.86 194.061 172.18 192.767 172.18C191.714 172.18 190.767 171.947 189.927 171.48C189.101 171 188.447 170.333 187.967 169.48C187.501 168.613 187.267 167.613 187.267 166.48C187.267 165.347 187.494 164.353 187.947 163.5C188.414 162.633 189.061 161.967 189.887 161.5C190.727 161.033 191.687 160.8 192.767 160.8C193.807 160.8 194.734 161.027 195.547 161.48C196.361 161.933 196.994 162.573 197.447 163.4C197.901 164.213 198.127 165.153 198.127 166.22ZM195.747 165.5C195.734 164.66 195.434 163.987 194.847 163.48C194.261 162.973 193.534 162.72 192.667 162.72C191.881 162.72 191.207 162.973 190.647 163.48C190.087 163.973 189.754 164.647 189.647 165.5H195.747ZM194.767 158.02L190.347 160.2V158.52L194.767 156.08V158.02ZM199.611 166.44C199.611 165.333 199.838 164.353 200.291 163.5C200.758 162.647 201.384 161.987 202.171 161.52C202.971 161.04 203.858 160.8 204.831 160.8C205.551 160.8 206.258 160.96 206.951 161.28C207.658 161.587 208.218 162 208.631 162.52V157.2H210.931V172H208.631V170.34C208.258 170.873 207.738 171.313 207.071 171.66C206.418 172.007 205.664 172.18 204.811 172.18C203.851 172.18 202.971 171.94 202.171 171.46C201.384 170.967 200.758 170.287 200.291 169.42C199.838 168.54 199.611 167.547 199.611 166.44ZM208.631 166.48C208.631 165.72 208.471 165.06 208.151 164.5C207.844 163.94 207.438 163.513 206.931 163.22C206.424 162.927 205.878 162.78 205.291 162.78C204.704 162.78 204.158 162.927 203.651 163.22C203.144 163.5 202.731 163.92 202.411 164.48C202.104 165.027 201.951 165.68 201.951 166.44C201.951 167.2 202.104 167.867 202.411 168.44C202.731 169.013 203.144 169.453 203.651 169.76C204.171 170.053 204.718 170.2 205.291 170.2C205.878 170.2 206.424 170.053 206.931 169.76C207.438 169.467 207.844 169.04 208.151 168.48C208.471 167.907 208.631 167.24 208.631 166.48ZM215.086 159.52C214.672 159.52 214.326 159.38 214.046 159.1C213.766 158.82 213.626 158.473 213.626 158.06C213.626 157.647 213.766 157.3 214.046 157.02C214.326 156.74 214.672 156.6 215.086 156.6C215.486 156.6 215.826 156.74 216.106 157.02C216.386 157.3 216.526 157.647 216.526 158.06C216.526 158.473 216.386 158.82 216.106 159.1C215.826 159.38 215.486 159.52 215.086 159.52ZM216.206 160.98V172H213.926V160.98H216.206ZM218.439 166.44C218.439 165.333 218.666 164.353 219.119 163.5C219.586 162.647 220.213 161.987 220.999 161.52C221.799 161.04 222.679 160.8 223.639 160.8C224.506 160.8 225.259 160.973 225.899 161.32C226.553 161.653 227.073 162.073 227.459 162.58V160.98H229.759V172H227.459V170.36C227.073 170.88 226.546 171.313 225.879 171.66C225.213 172.007 224.453 172.18 223.599 172.18C222.653 172.18 221.786 171.94 220.999 171.46C220.213 170.967 219.586 170.287 219.119 169.42C218.666 168.54 218.439 167.547 218.439 166.44ZM227.459 166.48C227.459 165.72 227.299 165.06 226.979 164.5C226.673 163.94 226.266 163.513 225.759 163.22C225.253 162.927 224.706 162.78 224.119 162.78C223.533 162.78 222.986 162.927 222.479 163.22C221.973 163.5 221.559 163.92 221.239 164.48C220.933 165.027 220.779 165.68 220.779 166.44C220.779 167.2 220.933 167.867 221.239 168.44C221.559 169.013 221.973 169.453 222.479 169.76C222.999 170.053 223.546 170.2 224.119 170.2C224.706 170.2 225.253 170.053 225.759 169.76C226.266 169.467 226.673 169.04 226.979 168.48C227.299 167.907 227.459 167.24 227.459 166.48ZM236.754 172.18C235.887 172.18 235.107 172.027 234.414 171.72C233.734 171.4 233.194 170.973 232.794 170.44C232.394 169.893 232.181 169.287 232.154 168.62H234.514C234.554 169.087 234.774 169.48 235.174 169.8C235.587 170.107 236.101 170.26 236.714 170.26C237.354 170.26 237.847 170.14 238.194 169.9C238.554 169.647 238.734 169.327 238.734 168.94C238.734 168.527 238.534 168.22 238.134 168.02C237.747 167.82 237.127 167.6 236.274 167.36C235.447 167.133 234.774 166.913 234.254 166.7C233.734 166.487 233.281 166.16 232.894 165.72C232.521 165.28 232.334 164.7 232.334 163.98C232.334 163.393 232.507 162.86 232.854 162.38C233.201 161.887 233.694 161.5 234.334 161.22C234.987 160.94 235.734 160.8 236.574 160.8C237.827 160.8 238.834 161.12 239.594 161.76C240.367 162.387 240.781 163.247 240.834 164.34H238.554C238.514 163.847 238.314 163.453 237.954 163.16C237.594 162.867 237.107 162.72 236.494 162.72C235.894 162.72 235.434 162.833 235.114 163.06C234.794 163.287 234.634 163.587 234.634 163.96C234.634 164.253 234.741 164.5 234.954 164.7C235.167 164.9 235.427 165.06 235.734 165.18C236.041 165.287 236.494 165.427 237.094 165.6C237.894 165.813 238.547 166.033 239.054 166.26C239.574 166.473 240.021 166.793 240.394 167.22C240.767 167.647 240.961 168.213 240.974 168.92C240.974 169.547 240.801 170.107 240.454 170.6C240.107 171.093 239.614 171.48 238.974 171.76C238.347 172.04 237.607 172.18 236.754 172.18ZM258.733 166.22C258.733 166.633 258.706 167.007 258.653 167.34H250.233C250.299 168.22 250.626 168.927 251.213 169.46C251.799 169.993 252.519 170.26 253.373 170.26C254.599 170.26 255.466 169.747 255.973 168.72H258.433C258.099 169.733 257.493 170.567 256.613 171.22C255.746 171.86 254.666 172.18 253.373 172.18C252.319 172.18 251.373 171.947 250.533 171.48C249.706 171 249.053 170.333 248.573 169.48C248.106 168.613 247.873 167.613 247.873 166.48C247.873 165.347 248.099 164.353 248.553 163.5C249.019 162.633 249.666 161.967 250.493 161.5C251.333 161.033 252.293 160.8 253.373 160.8C254.413 160.8 255.339 161.027 256.153 161.48C256.966 161.933 257.599 162.573 258.053 163.4C258.506 164.213 258.733 165.153 258.733 166.22ZM256.353 165.5C256.339 164.66 256.039 163.987 255.453 163.48C254.866 162.973 254.139 162.72 253.273 162.72C252.486 162.72 251.813 162.973 251.253 163.48C250.693 163.973 250.359 164.647 250.253 165.5H256.353ZM274.317 160.8C275.183 160.8 275.957 160.98 276.637 161.34C277.33 161.7 277.87 162.233 278.257 162.94C278.657 163.647 278.857 164.5 278.857 165.5V172H276.597V165.84C276.597 164.853 276.35 164.1 275.857 163.58C275.363 163.047 274.69 162.78 273.837 162.78C272.983 162.78 272.303 163.047 271.797 163.58C271.303 164.1 271.057 164.853 271.057 165.84V172H268.797V165.84C268.797 164.853 268.55 164.1 268.057 163.58C267.563 163.047 266.89 162.78 266.037 162.78C265.183 162.78 264.503 163.047 263.997 163.58C263.503 164.1 263.257 164.853 263.257 165.84V172H260.977V160.98H263.257V162.24C263.63 161.787 264.103 161.433 264.677 161.18C265.25 160.927 265.863 160.8 266.517 160.8C267.397 160.8 268.183 160.987 268.877 161.36C269.57 161.733 270.103 162.273 270.477 162.98C270.81 162.313 271.33 161.787 272.037 161.4C272.743 161 273.503 160.8 274.317 160.8ZM284.038 162.6C284.424 162.093 284.951 161.667 285.618 161.32C286.284 160.973 287.038 160.8 287.878 160.8C288.838 160.8 289.711 161.04 290.498 161.52C291.298 161.987 291.924 162.647 292.378 163.5C292.831 164.353 293.058 165.333 293.058 166.44C293.058 167.547 292.831 168.54 292.378 169.42C291.924 170.287 291.298 170.967 290.498 171.46C289.711 171.94 288.838 172.18 287.878 172.18C287.038 172.18 286.291 172.013 285.638 171.68C284.984 171.333 284.451 170.907 284.038 170.4V177.24H281.758V160.98H284.038V162.6ZM290.738 166.44C290.738 165.68 290.578 165.027 290.258 164.48C289.951 163.92 289.538 163.5 289.018 163.22C288.511 162.927 287.964 162.78 287.378 162.78C286.804 162.78 286.258 162.927 285.738 163.22C285.231 163.513 284.818 163.94 284.498 164.5C284.191 165.06 284.038 165.72 284.038 166.48C284.038 167.24 284.191 167.907 284.498 168.48C284.818 169.04 285.231 169.467 285.738 169.76C286.258 170.053 286.804 170.2 287.378 170.2C287.964 170.2 288.511 170.053 289.018 169.76C289.538 169.453 289.951 169.013 290.258 168.44C290.578 167.867 290.738 167.2 290.738 166.44ZM297.593 162.58C297.926 162.02 298.366 161.587 298.913 161.28C299.473 160.96 300.133 160.8 300.893 160.8V163.16H300.313C299.419 163.16 298.739 163.387 298.273 163.84C297.819 164.293 297.593 165.08 297.593 166.2V172H295.313V160.98H297.593V162.58ZM313.088 166.22C313.088 166.633 313.062 167.007 313.008 167.34H304.588C304.655 168.22 304.982 168.927 305.568 169.46C306.155 169.993 306.875 170.26 307.728 170.26C308.955 170.26 309.822 169.747 310.328 168.72H312.788C312.455 169.733 311.848 170.567 310.968 171.22C310.102 171.86 309.022 172.18 307.728 172.18C306.675 172.18 305.728 171.947 304.888 171.48C304.062 171 303.408 170.333 302.928 169.48C302.462 168.613 302.228 167.613 302.228 166.48C302.228 165.347 302.455 164.353 302.908 163.5C303.375 162.633 304.022 161.967 304.848 161.5C305.688 161.033 306.648 160.8 307.728 160.8C308.768 160.8 309.695 161.027 310.508 161.48C311.322 161.933 311.955 162.573 312.408 163.4C312.862 164.213 313.088 165.153 313.088 166.22ZM310.708 165.5C310.695 164.66 310.395 163.987 309.808 163.48C309.222 162.973 308.495 162.72 307.628 162.72C306.842 162.72 306.168 162.973 305.608 163.48C305.048 163.973 304.715 164.647 304.608 165.5H310.708ZM319.332 172.18C318.465 172.18 317.685 172.027 316.992 171.72C316.312 171.4 315.772 170.973 315.372 170.44C314.972 169.893 314.759 169.287 314.732 168.62H317.092C317.132 169.087 317.352 169.48 317.752 169.8C318.165 170.107 318.679 170.26 319.292 170.26C319.932 170.26 320.425 170.14 320.772 169.9C321.132 169.647 321.312 169.327 321.312 168.94C321.312 168.527 321.112 168.22 320.712 168.02C320.325 167.82 319.705 167.6 318.852 167.36C318.025 167.133 317.352 166.913 316.832 166.7C316.312 166.487 315.859 166.16 315.472 165.72C315.099 165.28 314.912 164.7 314.912 163.98C314.912 163.393 315.085 162.86 315.432 162.38C315.779 161.887 316.272 161.5 316.912 161.22C317.565 160.94 318.312 160.8 319.152 160.8C320.405 160.8 321.412 161.12 322.172 161.76C322.945 162.387 323.359 163.247 323.412 164.34H321.132C321.092 163.847 320.892 163.453 320.532 163.16C320.172 162.867 319.685 162.72 319.072 162.72C318.472 162.72 318.012 162.833 317.692 163.06C317.372 163.287 317.212 163.587 317.212 163.96C317.212 164.253 317.319 164.5 317.532 164.7C317.745 164.9 318.005 165.06 318.312 165.18C318.619 165.287 319.072 165.427 319.672 165.6C320.472 165.813 321.125 166.033 321.632 166.26C322.152 166.473 322.599 166.793 322.972 167.22C323.345 167.647 323.539 168.213 323.552 168.92C323.552 169.547 323.379 170.107 323.032 170.6C322.685 171.093 322.192 171.48 321.552 171.76C320.925 172.04 320.185 172.18 319.332 172.18ZM325.256 166.44C325.256 165.333 325.482 164.353 325.936 163.5C326.402 162.647 327.029 161.987 327.816 161.52C328.616 161.04 329.496 160.8 330.456 160.8C331.322 160.8 332.076 160.973 332.716 161.32C333.369 161.653 333.889 162.073 334.276 162.58V160.98H336.576V172H334.276V170.36C333.889 170.88 333.362 171.313 332.696 171.66C332.029 172.007 331.269 172.18 330.416 172.18C329.469 172.18 328.602 171.94 327.816 171.46C327.029 170.967 326.402 170.287 325.936 169.42C325.482 168.54 325.256 167.547 325.256 166.44ZM334.276 166.48C334.276 165.72 334.116 165.06 333.796 164.5C333.489 163.94 333.082 163.513 332.576 163.22C332.069 162.927 331.522 162.78 330.936 162.78C330.349 162.78 329.802 162.927 329.296 163.22C328.789 163.5 328.376 163.92 328.056 164.48C327.749 165.027 327.596 165.68 327.596 166.44C327.596 167.2 327.749 167.867 328.056 168.44C328.376 169.013 328.789 169.453 329.296 169.76C329.816 170.053 330.362 170.2 330.936 170.2C331.522 170.2 332.069 170.053 332.576 169.76C333.082 169.467 333.489 169.04 333.796 168.48C334.116 167.907 334.276 167.24 334.276 166.48ZM343.57 172.18C342.704 172.18 341.924 172.027 341.23 171.72C340.55 171.4 340.01 170.973 339.61 170.44C339.21 169.893 338.997 169.287 338.97 168.62H341.33C341.37 169.087 341.59 169.48 341.99 169.8C342.404 170.107 342.917 170.26 343.53 170.26C344.17 170.26 344.664 170.14 345.01 169.9C345.37 169.647 345.55 169.327 345.55 168.94C345.55 168.527 345.35 168.22 344.95 168.02C344.564 167.82 343.944 167.6 343.09 167.36C342.264 167.133 341.59 166.913 341.07 166.7C340.55 166.487 340.097 166.16 339.71 165.72C339.337 165.28 339.15 164.7 339.15 163.98C339.15 163.393 339.324 162.86 339.67 162.38C340.017 161.887 340.51 161.5 341.15 161.22C341.804 160.94 342.55 160.8 343.39 160.8C344.644 160.8 345.65 161.12 346.41 161.76C347.184 162.387 347.597 163.247 347.65 164.34H345.37C345.33 163.847 345.13 163.453 344.77 163.16C344.41 162.867 343.924 162.72 343.31 162.72C342.71 162.72 342.25 162.833 341.93 163.06C341.61 163.287 341.45 163.587 341.45 163.96C341.45 164.253 341.557 164.5 341.77 164.7C341.984 164.9 342.244 165.06 342.55 165.18C342.857 165.287 343.31 165.427 343.91 165.6C344.71 165.813 345.364 166.033 345.87 166.26C346.39 166.473 346.837 166.793 347.21 167.22C347.584 167.647 347.777 168.213 347.79 168.92C347.79 169.547 347.617 170.107 347.27 170.6C346.924 171.093 346.43 171.48 345.79 171.76C345.164 172.04 344.424 172.18 343.57 172.18ZM361.009 160.8C361.876 160.8 362.649 160.98 363.329 161.34C364.023 161.7 364.563 162.233 364.949 162.94C365.336 163.647 365.529 164.5 365.529 165.5V172H363.269V165.84C363.269 164.853 363.023 164.1 362.529 163.58C362.036 163.047 361.363 162.78 360.509 162.78C359.656 162.78 358.976 163.047 358.469 163.58C357.976 164.1 357.729 164.853 357.729 165.84V172H355.449V160.98H357.729V162.24C358.103 161.787 358.576 161.433 359.149 161.18C359.736 160.927 360.356 160.8 361.009 160.8ZM373.218 172.18C372.178 172.18 371.238 171.947 370.398 171.48C369.558 171 368.898 170.333 368.418 169.48C367.938 168.613 367.698 167.613 367.698 166.48C367.698 165.36 367.944 164.367 368.438 163.5C368.931 162.633 369.604 161.967 370.458 161.5C371.311 161.033 372.264 160.8 373.318 160.8C374.371 160.8 375.324 161.033 376.178 161.5C377.031 161.967 377.704 162.633 378.198 163.5C378.691 164.367 378.938 165.36 378.938 166.48C378.938 167.6 378.684 168.593 378.178 169.46C377.671 170.327 376.978 171 376.098 171.48C375.231 171.947 374.271 172.18 373.218 172.18ZM373.218 170.2C373.804 170.2 374.351 170.06 374.858 169.78C375.378 169.5 375.798 169.08 376.118 168.52C376.438 167.96 376.598 167.28 376.598 166.48C376.598 165.68 376.444 165.007 376.138 164.46C375.831 163.9 375.424 163.48 374.918 163.2C374.411 162.92 373.864 162.78 373.278 162.78C372.691 162.78 372.144 162.92 371.638 163.2C371.144 163.48 370.751 163.9 370.458 164.46C370.164 165.007 370.018 165.68 370.018 166.48C370.018 167.667 370.318 168.587 370.918 169.24C371.531 169.88 372.298 170.2 373.218 170.2ZM388.667 162.6C389.053 162.093 389.58 161.667 390.247 161.32C390.913 160.973 391.667 160.8 392.507 160.8C393.467 160.8 394.34 161.04 395.127 161.52C395.927 161.987 396.553 162.647 397.007 163.5C397.46 164.353 397.687 165.333 397.687 166.44C397.687 167.547 397.46 168.54 397.007 169.42C396.553 170.287 395.927 170.967 395.127 171.46C394.34 171.94 393.467 172.18 392.507 172.18C391.667 172.18 390.92 172.013 390.267 171.68C389.613 171.333 389.08 170.907 388.667 170.4V177.24H386.387V160.98H388.667V162.6ZM395.367 166.44C395.367 165.68 395.207 165.027 394.887 164.48C394.58 163.92 394.167 163.5 393.647 163.22C393.14 162.927 392.593 162.78 392.007 162.78C391.433 162.78 390.887 162.927 390.367 163.22C389.86 163.513 389.447 163.94 389.127 164.5C388.82 165.06 388.667 165.72 388.667 166.48C388.667 167.24 388.82 167.907 389.127 168.48C389.447 169.04 389.86 169.467 390.367 169.76C390.887 170.053 391.433 170.2 392.007 170.2C392.593 170.2 393.14 170.053 393.647 169.76C394.167 169.453 394.58 169.013 394.887 168.44C395.207 167.867 395.367 167.2 395.367 166.44ZM399.181 166.44C399.181 165.333 399.408 164.353 399.861 163.5C400.328 162.647 400.955 161.987 401.741 161.52C402.541 161.04 403.421 160.8 404.381 160.8C405.248 160.8 406.001 160.973 406.641 161.32C407.295 161.653 407.815 162.073 408.201 162.58V160.98H410.501V172H408.201V170.36C407.815 170.88 407.288 171.313 406.621 171.66C405.955 172.007 405.195 172.18 404.341 172.18C403.395 172.18 402.528 171.94 401.741 171.46C400.955 170.967 400.328 170.287 399.861 169.42C399.408 168.54 399.181 167.547 399.181 166.44ZM408.201 166.48C408.201 165.72 408.041 165.06 407.721 164.5C407.415 163.94 407.008 163.513 406.501 163.22C405.995 162.927 405.448 162.78 404.861 162.78C404.275 162.78 403.728 162.927 403.221 163.22C402.715 163.5 402.301 163.92 401.981 164.48C401.675 165.027 401.521 165.68 401.521 166.44C401.521 167.2 401.675 167.867 401.981 168.44C402.301 169.013 402.715 169.453 403.221 169.76C403.741 170.053 404.288 170.2 404.861 170.2C405.448 170.2 405.995 170.053 406.501 169.76C407.008 169.467 407.415 169.04 407.721 168.48C408.041 167.907 408.201 167.24 408.201 166.48ZM415.776 160.98V172H413.496V160.98H415.776ZM416.696 158.02L412.276 160.2V158.52L416.696 156.08V158.02ZM422.77 172.18C421.903 172.18 421.123 172.027 420.43 171.72C419.75 171.4 419.21 170.973 418.81 170.44C418.41 169.893 418.196 169.287 418.17 168.62H420.53C420.57 169.087 420.79 169.48 421.19 169.8C421.603 170.107 422.116 170.26 422.73 170.26C423.37 170.26 423.863 170.14 424.21 169.9C424.57 169.647 424.75 169.327 424.75 168.94C424.75 168.527 424.55 168.22 424.15 168.02C423.763 167.82 423.143 167.6 422.29 167.36C421.463 167.133 420.79 166.913 420.27 166.7C419.75 166.487 419.296 166.16 418.91 165.72C418.536 165.28 418.35 164.7 418.35 163.98C418.35 163.393 418.523 162.86 418.87 162.38C419.216 161.887 419.71 161.5 420.35 161.22C421.003 160.94 421.75 160.8 422.59 160.8C423.843 160.8 424.85 161.12 425.61 161.76C426.383 162.387 426.796 163.247 426.85 164.34H424.57C424.53 163.847 424.33 163.453 423.97 163.16C423.61 162.867 423.123 162.72 422.51 162.72C421.91 162.72 421.45 162.833 421.13 163.06C420.81 163.287 420.65 163.587 420.65 163.96C420.65 164.253 420.756 164.5 420.97 164.7C421.183 164.9 421.443 165.06 421.75 165.18C422.056 165.287 422.51 165.427 423.11 165.6C423.91 165.813 424.563 166.033 425.07 166.26C425.59 166.473 426.036 166.793 426.41 167.22C426.783 167.647 426.976 168.213 426.99 168.92C426.99 169.547 426.816 170.107 426.47 170.6C426.123 171.093 425.63 171.48 424.99 171.76C424.363 172.04 423.623 172.18 422.77 172.18ZM430.373 172.14C429.96 172.14 429.613 172 429.333 171.72C429.053 171.44 428.913 171.093 428.913 170.68C428.913 170.267 429.053 169.92 429.333 169.64C429.613 169.36 429.96 169.22 430.373 169.22C430.773 169.22 431.113 169.36 431.393 169.64C431.673 169.92 431.813 170.267 431.813 170.68C431.813 171.093 431.673 171.44 431.393 171.72C431.113 172 430.773 172.14 430.373 172.14Z" fill="white"/>
</g>
<defs>
<clipPath id="clip0_1004_1483">
<rect width="1440" height="5210" fill="white" transform="translate(-829 -713)"/>
</clipPath>
</defs>
</svg>
