<svg width="1440" height="80" viewBox="0 0 1440 80" fill="none" xmlns="http://www.w3.org/2000/svg">
<rect width="1440" height="80" fill="#1E1E1E"/>
<g clip-path="url(#clip0_1004_1483)">
<rect width="1440" height="5210" transform="translate(0 -5130)" fill="white"/>
<rect width="1440" height="80" fill="#001E27"/>
<path fill-rule="evenodd" clip-rule="evenodd" d="M1107.74 31.7574C1108.86 30.6321 1110.39 30 1111.98 30H1114.98C1115.53 30 1115.98 30.4477 1115.98 31V35C1115.98 35.5523 1115.53 36 1114.98 36H1111.98V37H1114.98C1115.29 37 1115.58 37.1419 1115.77 37.3846C1115.96 37.6273 1116.03 37.9438 1115.95 38.2425L1114.95 42.2425C1114.84 42.6877 1114.44 43 1113.98 43H1111.98V49C1111.98 49.5523 1111.53 50 1110.98 50H1106.98C1106.43 50 1105.98 49.5523 1105.98 49V43H1103.98C1103.43 43 1102.98 42.5523 1102.98 42V38C1102.98 37.4477 1103.43 37 1103.98 37H1105.98V36C1105.98 34.4087 1106.61 32.8826 1107.74 31.7574ZM1111.98 32C1110.92 32 1109.9 32.4214 1109.15 33.1716C1108.4 33.9217 1107.98 34.9391 1107.98 36V38C1107.98 38.5523 1107.53 39 1106.98 39H1104.98V41H1106.98C1107.53 41 1107.98 41.4477 1107.98 42V48H1109.98V42C1109.98 41.4477 1110.43 41 1110.98 41H1113.2L1113.7 39H1110.98C1110.43 39 1109.98 38.5523 1109.98 38V36C1109.98 35.4696 1110.19 34.9609 1110.57 34.5858C1110.94 34.2107 1111.45 34 1111.98 34H1113.98V32H1111.98Z" fill="#00E3F5"/>
<path fill-rule="evenodd" clip-rule="evenodd" d="M1152.48 32C1150.55 32 1148.98 33.567 1148.98 35.5V44.5C1148.98 46.433 1150.55 48 1152.48 48H1161.48C1163.41 48 1164.98 46.433 1164.98 44.5V35.5C1164.98 33.567 1163.41 32 1161.48 32H1152.48ZM1146.98 35.5C1146.98 32.4624 1149.44 30 1152.48 30H1161.48C1164.52 30 1166.98 32.4624 1166.98 35.5V44.5C1166.98 47.5376 1164.52 50 1161.48 50H1152.48C1149.44 50 1146.98 47.5376 1146.98 44.5V35.5ZM1157.42 37.0325C1156.8 36.9399 1156.16 37.0465 1155.6 37.3371C1155.04 37.6278 1154.59 38.0876 1154.3 38.6512C1154.02 39.2149 1153.92 39.8536 1154.02 40.4766C1154.12 41.0996 1154.41 41.6751 1154.86 42.1213C1155.31 42.5675 1155.88 42.8616 1156.51 42.9619C1157.13 43.0621 1157.77 42.9634 1158.33 42.6797C1158.89 42.396 1159.35 41.9418 1159.64 41.3817C1159.94 40.8216 1160.04 40.1841 1159.95 39.5599C1159.86 38.9233 1159.56 38.3338 1159.1 37.8787C1158.65 37.4236 1158.06 37.1269 1157.42 37.0325ZM1154.68 35.5619C1155.61 35.0775 1156.67 34.8998 1157.72 35.0541C1158.78 35.2114 1159.76 35.7059 1160.52 36.4645C1161.28 37.223 1161.77 38.2054 1161.93 39.2666C1162.08 40.3069 1161.9 41.3694 1161.42 42.3028C1160.94 43.2363 1160.17 43.9933 1159.23 44.4662C1158.29 44.939 1157.23 45.1036 1156.19 44.9365C1155.15 44.7694 1154.19 44.2792 1153.45 43.5355C1152.7 42.7919 1152.21 41.8327 1152.05 40.7943C1151.88 39.756 1152.04 38.6915 1152.52 37.7521C1152.99 36.8127 1153.75 36.0463 1154.68 35.5619ZM1162.41 33.5C1161.86 33.5 1161.41 33.9477 1161.41 34.5C1161.41 35.0523 1161.86 35.5 1162.41 35.5H1162.42C1162.97 35.5 1163.42 35.0523 1163.42 34.5C1163.42 33.9477 1162.97 33.5 1162.42 33.5H1162.41Z" fill="#00E3F5"/>
<path fill-rule="evenodd" clip-rule="evenodd" d="M1196.98 33C1196.98 32.4477 1197.43 32 1197.98 32C1198.53 32 1198.98 32.4477 1198.98 33C1198.98 33.5523 1198.53 34 1197.98 34C1197.43 34 1196.98 33.5523 1196.98 33ZM1197.98 30C1196.33 30 1194.98 31.3431 1194.98 33C1194.98 34.6569 1196.33 36 1197.98 36C1199.64 36 1200.98 34.6569 1200.98 33C1200.98 31.3431 1199.64 30 1197.98 30ZM1208.48 38C1207.29 38 1206.15 38.4765 1205.3 39.3268C1204.46 40.1774 1203.98 41.3325 1203.98 42.5385V48H1205.98V42.5385H1206.98C1205.98 42.5385 1205.98 42.538 1205.98 42.5375L1205.98 42.5365L1205.98 42.5343L1205.98 42.5296L1205.98 42.5183L1205.98 42.4887C1205.98 42.4659 1205.98 42.437 1205.99 42.4029C1205.99 42.3349 1206 42.2441 1206.02 42.1377C1206.05 41.9297 1206.12 41.6366 1206.27 41.331C1206.42 41.0221 1206.66 40.6791 1207.05 40.4149C1207.44 40.1456 1207.93 40 1208.48 40C1209.04 40 1209.52 40.1456 1209.91 40.4149C1210.3 40.6791 1210.54 41.0221 1210.69 41.331C1210.84 41.6366 1210.91 41.9297 1210.95 42.1377C1210.96 42.2441 1210.97 42.3349 1210.98 42.4029C1210.98 42.437 1210.98 42.4659 1210.98 42.4887L1210.98 42.5183L1210.98 42.5296L1210.98 42.5343L1210.98 42.5365L1210.98 42.5375C1210.98 42.538 1210.98 42.5385 1209.98 42.5385H1210.98V48H1212.98V42.5385C1212.98 41.3325 1212.51 40.1774 1211.66 39.3268C1210.82 38.4765 1209.67 38 1208.48 38ZM1208.98 42.5502V49C1208.98 49.5523 1209.43 50 1209.98 50H1213.98C1214.53 50 1214.98 49.5523 1214.98 49V42.5385C1214.98 40.8066 1214.3 39.1443 1213.08 37.9175C1211.86 36.6906 1210.21 36 1208.48 36C1206.76 36 1205.1 36.6906 1203.88 37.9175C1202.67 39.1443 1201.98 40.8066 1201.98 42.5385V49C1201.98 49.5523 1202.43 50 1202.98 50H1206.98C1207.53 50 1207.98 49.5523 1207.98 49V42.5502L1207.98 42.5418C1207.98 42.5257 1207.99 42.4963 1207.99 42.4585C1208.01 42.378 1208.03 42.2865 1208.07 42.2074C1208.11 42.1317 1208.14 42.0902 1208.18 42.0659C1208.21 42.0467 1208.29 42 1208.48 42C1208.68 42 1208.76 42.0467 1208.78 42.0659C1208.82 42.0902 1208.86 42.1317 1208.9 42.2074C1208.93 42.2865 1208.96 42.378 1208.97 42.4585C1208.98 42.4963 1208.98 42.5257 1208.98 42.5418L1208.98 42.5502ZM1194.98 38C1194.98 37.4477 1195.43 37 1195.98 37H1199.98C1200.53 37 1200.98 37.4477 1200.98 38V49C1200.98 49.5523 1200.53 50 1199.98 50H1195.98C1195.43 50 1194.98 49.5523 1194.98 49V38ZM1196.98 39V48H1198.98V39H1196.98Z" fill="#00E3F5"/>
<path fill-rule="evenodd" clip-rule="evenodd" d="M1252.98 33.0002C1251.49 33.0002 1249.71 33.0044 1248.18 33.0701C1247.42 33.103 1246.7 33.1518 1246.1 33.226C1245.55 33.2947 1244.95 33.3993 1244.54 33.6057C1243.95 33.9042 1243.64 34.4871 1243.47 34.9428C1243.29 35.432 1243.19 36.0048 1243.12 36.569C1242.98 37.7011 1242.98 39.0122 1242.98 40V40C1242.98 40.9879 1242.98 42.2989 1243.12 43.4311C1243.19 43.9952 1243.29 44.5681 1243.47 45.0573C1243.64 45.5129 1243.95 46.0958 1244.54 46.3944C1244.95 46.6008 1245.55 46.7054 1246.1 46.774C1246.7 46.8483 1247.42 46.8971 1248.18 46.9299C1249.71 46.9957 1251.49 46.9999 1252.98 46.9998L1252.99 46.9998L1252.99 46.9998C1254.48 46.9999 1256.26 46.9957 1257.79 46.9299C1258.55 46.8971 1259.27 46.8483 1259.87 46.774C1260.42 46.7054 1261.02 46.6008 1261.43 46.3944C1262.03 46.0954 1262.33 45.5116 1262.5 45.0557C1262.68 44.5663 1262.78 43.9933 1262.85 43.4293C1262.98 42.3083 1262.98 41.011 1262.98 40.028V40.0279V40V39.9723V39.9722C1262.98 38.9891 1262.98 37.6917 1262.85 36.5707C1262.78 36.0067 1262.68 35.4337 1262.5 34.9443C1262.33 34.4884 1262.03 33.9046 1261.43 33.6057C1261.02 33.3993 1260.42 33.2947 1259.87 33.226C1259.27 33.1518 1258.55 33.103 1257.79 33.0701C1256.26 33.0044 1254.48 33.0002 1252.99 33.0002L1252.99 33.0003L1252.98 33.0002ZM1252.99 44.9998L1252.99 44.9999L1252.98 44.9998C1251.48 44.9999 1249.75 44.9954 1248.27 44.9318C1247.53 44.8999 1246.87 44.854 1246.35 44.7892C1246.09 44.7569 1245.87 44.7214 1245.71 44.6841C1245.62 44.6656 1245.56 44.6481 1245.51 44.6326C1245.5 44.6279 1245.48 44.6236 1245.47 44.6198C1245.45 44.5924 1245.41 44.52 1245.35 44.3646C1245.25 44.0881 1245.16 43.6922 1245.1 43.1939C1244.99 42.201 1244.98 41.0121 1244.98 40V40C1244.98 38.9879 1244.99 37.799 1245.1 36.8062C1245.16 36.3078 1245.25 35.9119 1245.35 35.6355C1245.41 35.4801 1245.45 35.4077 1245.47 35.3803C1245.48 35.3765 1245.5 35.3722 1245.51 35.3675C1245.56 35.352 1245.62 35.3345 1245.71 35.316C1245.87 35.2787 1246.09 35.2432 1246.35 35.2109C1246.87 35.1461 1247.53 35.1001 1248.27 35.0683C1249.75 35.0047 1251.48 35.0002 1252.98 35.0002L1252.99 35.0002L1252.99 35.0002C1254.49 35.0002 1256.22 35.0047 1257.7 35.0683C1258.44 35.1001 1259.1 35.1461 1259.62 35.2109C1259.89 35.2432 1260.1 35.2787 1260.27 35.316C1260.35 35.3345 1260.41 35.352 1260.46 35.3675C1260.48 35.3722 1260.49 35.3764 1260.5 35.3802C1260.52 35.4078 1260.56 35.4799 1260.62 35.634C1260.72 35.9102 1260.81 36.306 1260.86 36.8044C1260.98 37.7978 1260.98 38.9864 1260.98 40C1260.98 41.0136 1260.98 42.2022 1260.86 43.1956C1260.81 43.6941 1260.72 44.0899 1260.62 44.3661C1260.56 44.5201 1260.52 44.5923 1260.5 44.6199C1260.49 44.6237 1260.48 44.6279 1260.46 44.6326C1260.41 44.6481 1260.35 44.6656 1260.27 44.6841C1260.1 44.7214 1259.89 44.7569 1259.62 44.7892C1259.1 44.854 1258.44 44.8999 1257.7 44.9318C1256.22 44.9954 1254.49 44.9999 1252.99 44.9998ZM1251.5 36.1425C1251.19 35.9571 1250.8 35.9523 1250.49 36.1298C1250.18 36.3073 1249.98 36.6397 1249.98 37V43C1249.98 43.0433 1249.98 43.0863 1249.99 43.1286C1250.03 43.438 1250.21 43.714 1250.49 43.8702C1250.74 44.0119 1251.04 44.0374 1251.3 43.9476C1251.37 43.925 1251.43 43.8949 1251.5 43.8575L1256.5 40.8575C1256.8 40.6768 1256.98 40.3513 1256.98 40C1256.98 39.6487 1256.8 39.3232 1256.5 39.1425L1251.5 36.1425ZM1251.98 41.2338V38.7662L1254.04 40L1251.98 41.2338Z" fill="#00E3F5"/>
<path d="M183.096 30.8419H181.07V50.7237H183.096V30.8419Z" fill="white"/>
<path d="M181.175 50.6199H183.026V30.911H181.175V50.6199ZM183.096 50.7928H181.07C181.035 50.7928 181 50.7582 181 50.7236V30.8418C181 30.8072 181.035 30.7726 181.07 30.7726H183.096C183.131 30.7726 183.166 30.8072 183.166 30.8418V50.7236C183.166 50.7582 183.131 50.7928 183.096 50.7928Z" fill="white"/>
<path d="M219.783 46.8857C221.25 45.4334 221.984 43.3934 221.984 40.8001C221.984 38.1723 221.25 36.1322 219.783 34.68C218.315 33.1932 216.184 32.467 213.389 32.467H209.476V49.064H213.424C216.184 49.064 218.315 48.3379 219.783 46.8857ZM219.119 32.0175C220.726 32.8128 221.914 33.9539 222.787 35.4752C223.626 36.9621 224.045 38.7601 224.045 40.8347C224.045 42.8747 223.626 44.6382 222.787 46.125C221.949 47.6118 220.726 48.7528 219.119 49.5481C217.512 50.3434 215.625 50.7237 213.389 50.7237H207.449V30.8419H213.389C215.625 30.8419 217.546 31.2223 219.119 32.0175Z" fill="white"/>
<path d="M209.545 48.9947H213.389C216.149 48.9947 218.28 48.2686 219.713 46.8509C221.145 45.4333 221.879 43.3932 221.879 40.8345C221.879 38.2412 221.145 36.2012 219.713 34.7489C218.28 33.2967 216.149 32.5706 213.389 32.5706H209.545V48.9947ZM213.389 49.133H209.475C209.44 49.133 209.406 49.0984 209.406 49.0638V32.4669C209.406 32.4323 209.44 32.3977 209.475 32.3977H213.424C216.219 32.3977 218.42 33.1584 219.887 34.6106C221.355 36.0974 222.123 38.1721 222.123 40.7999C222.123 43.3932 221.39 45.4678 219.887 46.9201C218.385 48.3723 216.219 49.133 213.389 49.133ZM207.519 50.6198H213.389C215.59 50.6198 217.511 50.2395 219.084 49.4442C220.656 48.6835 221.879 47.5425 222.682 46.0556C223.521 44.5688 223.94 42.8054 223.94 40.7999C223.94 38.7599 223.521 36.9619 222.682 35.4751C221.879 34.0228 220.656 32.8818 219.084 32.0865C217.511 31.2912 215.59 30.9109 213.389 30.9109H207.519V50.6198ZM213.389 50.7927H207.449C207.414 50.7927 207.379 50.7581 207.379 50.7235V30.8417C207.379 30.8072 207.414 30.7726 207.449 30.7726H213.389C215.625 30.7726 217.546 31.1875 219.154 31.9828C220.761 32.7781 221.984 33.9537 222.857 35.4751C223.696 36.9965 224.115 38.7945 224.115 40.8691C224.115 42.9091 223.696 44.7071 222.857 46.2285C222.019 47.7153 220.761 48.891 219.154 49.6862C217.546 50.4123 215.625 50.7927 213.389 50.7927Z" fill="white"/>
<path d="M226.316 30.8073V50.7236H236.798V49.0639H228.308V41.5261H235.924V39.8664H228.308V32.4324H236.798V30.8073H226.316Z" fill="white"/>
<path d="M226.386 50.6198H236.728V49.133H228.343C228.308 49.133 228.273 49.0984 228.273 49.0638V41.526C228.273 41.4914 228.308 41.4569 228.343 41.4569H235.854V39.97H228.308C228.273 39.97 228.238 39.9355 228.238 39.9009V32.4323C228.238 32.3977 228.273 32.3631 228.308 32.3631H236.693V30.8763H226.351V50.6198H226.386ZM236.798 50.7927H226.316C226.281 50.7927 226.246 50.7581 226.246 50.7235V30.8071C226.246 30.7726 226.281 30.738 226.316 30.738H236.798C236.833 30.738 236.868 30.7726 236.868 30.8071V32.4668C236.868 32.5014 236.833 32.536 236.798 32.536H228.412V39.7972H235.959C235.994 39.7972 236.029 39.8317 236.029 39.8663V41.526C236.029 41.5606 235.994 41.5952 235.959 41.5952H228.412V48.9601H236.798C236.833 48.9601 236.868 48.9947 236.868 49.0292V50.6889C236.903 50.7581 236.833 50.7927 236.798 50.7927Z" fill="white"/>
<path d="M249.201 39.486H238.405V40.5925H249.201V39.486Z" fill="white"/>
<path d="M238.51 40.5233H249.131V39.5897H238.475V40.5233H238.51ZM249.236 40.6616H238.44C238.405 40.6616 238.37 40.627 238.37 40.5924V39.486C238.37 39.4514 238.405 39.4168 238.44 39.4168H249.236C249.271 39.4168 249.306 39.4514 249.306 39.486V40.5924C249.306 40.627 249.271 40.6616 249.236 40.6616Z" fill="white"/>
<path d="M262.722 36.3738C262.722 34.9216 262.303 33.8151 261.464 33.0198C260.626 32.2591 259.263 31.8788 257.411 31.8788H253.114V40.7997H257.411C260.975 40.7997 262.722 39.3474 262.722 36.3738ZM262.373 40.4885C261.255 41.4566 259.613 41.9407 257.411 41.9407H253.114V50.6887H251.821V30.7377H257.411C259.648 30.7377 261.29 31.2564 262.373 32.2591C263.456 33.2619 264.015 34.6449 264.015 36.3738C264.015 38.1372 263.491 39.5203 262.373 40.4885Z" fill="white"/>
<path d="M253.184 40.7307H257.411C259.158 40.7307 260.486 40.3503 261.36 39.6242C262.233 38.8981 262.652 37.7916 262.652 36.374C262.652 34.9563 262.233 33.8499 261.429 33.0892C260.591 32.3285 259.263 31.9481 257.446 31.9481H253.219V40.7307H253.184ZM257.411 40.9036H253.114C253.079 40.9036 253.044 40.869 253.044 40.8344V31.879C253.044 31.8444 253.079 31.8098 253.114 31.8098H257.411C259.298 31.8098 260.661 32.1902 261.534 32.9854C262.408 33.7807 262.827 34.9217 262.827 36.374C262.827 39.3822 261.01 40.9036 257.411 40.9036ZM251.891 50.6197H253.009V41.9409C253.009 41.9063 253.044 41.8717 253.079 41.8717H257.377C259.543 41.8717 261.185 41.3876 262.268 40.4195C263.351 39.4513 263.91 38.1028 263.91 36.374C263.91 34.6797 263.351 33.3312 262.303 32.3285C261.255 31.3257 259.613 30.8071 257.411 30.8071H251.891V50.6197ZM253.114 50.7926H251.821C251.786 50.7926 251.751 50.758 251.751 50.7235V30.7379C251.751 30.7033 251.786 30.6688 251.821 30.6688H257.411C259.648 30.6688 261.325 31.1874 262.443 32.2247C263.561 33.262 264.12 34.6451 264.12 36.4086C264.12 38.172 263.561 39.5896 262.408 40.5924C261.29 41.5951 259.613 42.0792 257.411 42.0792H253.184V50.758C253.184 50.758 253.149 50.7926 253.114 50.7926Z" fill="white"/>
<path d="M283.546 31.1531L275.51 49.0294L267.439 31.1531H266.077V50.7237H267.37V33.8501L274.986 50.7237H276.034L283.616 33.8501V50.7237H284.909V31.1531H283.546Z" fill="white"/>
<path d="M283.686 50.6198H284.804V31.2567H283.581L275.545 49.0639C275.545 49.0984 275.51 49.0984 275.475 49.0984C275.44 49.0984 275.406 49.0639 275.406 49.0639L267.37 31.2567H266.112V50.6544H267.23V33.85C267.23 33.8154 267.265 33.7808 267.3 33.7808C267.335 33.7808 267.37 33.7808 267.404 33.8154L274.986 50.6544H275.93L283.511 33.8154C283.511 33.7808 283.581 33.7462 283.616 33.7808C283.651 33.7808 283.686 33.8154 283.686 33.85V50.6198ZM284.909 50.7927H283.616C283.581 50.7927 283.546 50.7581 283.546 50.7236V34.2303L276.104 50.7581C276.104 50.7927 276.069 50.7927 276.034 50.7927H274.986C274.951 50.7927 274.916 50.7581 274.916 50.7581L267.439 34.2303V50.7236C267.439 50.7581 267.404 50.7927 267.37 50.7927H266.077C266.042 50.7927 266.007 50.7581 266.007 50.7236V31.153C266.007 31.1184 266.042 31.0838 266.077 31.0838H267.439C267.474 31.0838 267.509 31.1184 267.509 31.1184L275.475 48.8218L283.442 31.1184C283.442 31.0838 283.476 31.0838 283.511 31.0838H284.874C284.909 31.0838 284.944 31.1184 284.944 31.153V50.689C284.979 50.7581 284.944 50.7927 284.909 50.7927Z" fill="white"/>
<path d="M288.228 30.738V50.7235H298.431V49.6516H289.521V41.2494H297.557V40.1775H289.521V31.8099H298.431V30.738H288.228Z" fill="white"/>
<path d="M288.298 50.6195H298.325V49.6859H289.486C289.451 49.6859 289.416 49.6513 289.416 49.6167V41.2491C289.416 41.2145 289.451 41.1799 289.486 41.1799H297.452V40.2464H289.486C289.451 40.2464 289.416 40.2118 289.416 40.1772V31.8096C289.416 31.775 289.451 31.7404 289.486 31.7404H298.325V30.8068H288.298V50.6195ZM298.43 50.7924H288.228C288.193 50.7924 288.158 50.7578 288.158 50.7232V30.7377C288.158 30.7031 288.193 30.6685 288.228 30.6685H298.43C298.465 30.6685 298.5 30.7031 298.5 30.7377V31.8096C298.5 31.8441 298.465 31.8787 298.43 31.8787H289.591V40.0389H297.557C297.592 40.0389 297.627 40.0735 297.627 40.1081V41.1799C297.627 41.2145 297.592 41.2491 297.557 41.2491H289.591V49.4784H298.43C298.465 49.4784 298.5 49.513 298.5 49.5476V50.6195C298.5 50.7578 298.465 50.7924 298.43 50.7924Z" fill="white"/>
<path d="M303.322 50.2391C302.344 49.7896 301.575 49.1672 301.051 48.4065C300.492 47.6459 300.177 46.7814 300.108 45.8133H301.47C301.61 46.8506 302.134 47.7842 302.938 48.614C303.776 49.4439 305.034 49.8242 306.746 49.8242C307.759 49.8242 308.598 49.6513 309.331 49.271C310.065 48.9252 310.624 48.4065 311.043 47.7842C311.463 47.1618 311.637 46.4702 311.637 45.7095C311.637 44.7414 311.393 43.9807 310.939 43.3929C310.484 42.8396 309.89 42.3901 309.192 42.1135C308.493 41.8369 307.55 41.5257 306.362 41.2145C305.069 40.8688 304.021 40.523 303.217 40.1772C302.414 39.8314 301.75 39.3128 301.191 38.5867C300.632 37.8605 300.387 36.8924 300.387 35.6822C300.387 34.7486 300.632 33.8496 301.156 33.0889C301.68 32.2936 302.379 31.6713 303.322 31.2218C304.265 30.7723 305.348 30.5302 306.571 30.5302C308.353 30.5302 309.786 30.9797 310.869 31.8441C311.952 32.7086 312.616 33.7805 312.825 35.0598H311.428C311.323 34.5412 311.043 34.0225 310.659 33.5038C310.275 32.9852 309.716 32.5357 309.017 32.1899C308.283 31.8441 307.445 31.6713 306.432 31.6713C305.104 31.6713 303.951 32.0516 303.042 32.7777C302.134 33.5038 301.68 34.472 301.68 35.6822C301.68 36.6504 301.924 37.411 302.414 37.9989C302.903 38.5867 303.497 39.0016 304.195 39.3128C304.894 39.624 305.838 39.9006 307.025 40.2118C308.353 40.5576 309.401 40.9033 310.17 41.2491C310.939 41.5949 311.603 42.1135 312.162 42.8051C312.721 43.5312 312.965 44.4648 312.965 45.7095C312.965 46.6085 312.721 47.4384 312.231 48.2337C311.742 49.0289 311.043 49.6859 310.135 50.17C309.192 50.6886 308.074 50.9307 306.746 50.9307C305.418 50.9307 304.265 50.6886 303.322 50.2391Z" fill="white"/>
<path d="M300.177 45.8826C300.247 46.7816 300.562 47.6115 301.086 48.3376C301.61 49.0983 302.379 49.7207 303.322 50.1702C304.3 50.6197 305.418 50.8617 306.711 50.8617C308.004 50.8617 309.122 50.6197 310.065 50.101C310.974 49.6169 311.672 48.96 312.161 48.1647C312.616 47.3694 312.86 46.5396 312.86 45.6751C312.86 44.4995 312.581 43.5314 312.057 42.8398C311.533 42.1483 310.869 41.6296 310.1 41.2839C309.331 40.9381 308.283 40.5923 306.956 40.2465C305.768 39.9354 304.824 39.6587 304.125 39.3475C303.427 39.0364 302.798 38.5868 302.309 37.999C301.82 37.4112 301.575 36.616 301.575 35.6132C301.575 34.3684 302.064 33.3657 302.973 32.6396C303.916 31.9135 305.069 31.5331 306.431 31.5331C307.445 31.5331 308.318 31.706 309.052 32.0518C309.786 32.3976 310.345 32.8471 310.764 33.4003C311.148 33.9189 311.393 34.4376 311.533 34.9217H312.755C312.546 33.7115 311.882 32.6742 310.834 31.8443C309.751 30.9799 308.318 30.565 306.571 30.565C305.348 30.565 304.265 30.807 303.357 31.2565C302.448 31.706 301.715 32.3284 301.226 33.0891C300.736 33.8498 300.492 34.7142 300.492 35.6478C300.492 36.858 300.771 37.8262 301.295 38.5177C301.82 39.2092 302.483 39.7279 303.287 40.0737C304.091 40.4194 305.139 40.7652 306.431 41.0764C307.619 41.3876 308.563 41.6988 309.262 41.9754C309.96 42.252 310.554 42.7015 311.043 43.2893C311.533 43.8771 311.777 44.6724 311.777 45.6406C311.777 46.4013 311.568 47.1274 311.148 47.7498C310.729 48.3722 310.135 48.8908 309.401 49.2712C308.668 49.6515 307.759 49.8244 306.746 49.8244C305.034 49.8244 303.741 49.4095 302.868 48.5796C302.029 47.7843 301.54 46.8508 301.365 45.8135H300.177V45.8826ZM306.711 51C305.418 51 304.23 50.758 303.252 50.3085C302.274 49.859 301.47 49.202 300.946 48.4413C300.387 47.646 300.073 46.7816 300.003 45.8135C300.003 45.7789 300.003 45.7789 300.038 45.7443C300.038 45.7097 300.073 45.7097 300.107 45.7097H301.47C301.505 45.7097 301.54 45.7443 301.54 45.7789C301.68 46.8162 302.169 47.7152 303.007 48.5105C303.811 49.3057 305.069 49.7207 306.746 49.7207C307.724 49.7207 308.598 49.5478 309.296 49.202C310.03 48.8562 310.589 48.3722 310.974 47.7498C311.358 47.1274 311.568 46.4704 311.568 45.7097C311.568 44.7761 311.323 44.0154 310.869 43.4622C310.415 42.909 309.821 42.4941 309.157 42.2174C308.458 41.9408 307.515 41.6296 306.327 41.3184C305.034 40.9727 303.951 40.6269 303.182 40.2811C302.379 39.9354 301.68 39.3821 301.121 38.6906C300.562 37.9645 300.282 36.9617 300.282 35.717C300.282 34.7488 300.527 33.8498 301.051 33.0545C301.575 32.2592 302.309 31.6369 303.252 31.1528C304.195 30.7033 305.313 30.4612 306.536 30.4612C308.318 30.4612 309.786 30.9107 310.904 31.7752C312.022 32.6396 312.686 33.7461 312.895 35.0254C312.895 35.06 312.895 35.06 312.86 35.0946C312.86 35.1291 312.825 35.1291 312.79 35.1291H311.428C311.393 35.1291 311.358 35.0946 311.358 35.06C311.253 34.5759 311.009 34.0573 310.624 33.5386C310.24 33.0199 309.681 32.5704 308.982 32.2247C308.283 31.8789 307.41 31.706 306.431 31.706C305.104 31.706 303.986 32.0518 303.077 32.7779C302.169 33.504 301.715 34.4376 301.715 35.6478C301.715 36.5814 301.959 37.3421 302.413 37.9299C302.868 38.4831 303.462 38.9326 304.16 39.2092C304.859 39.4859 305.803 39.797 306.991 40.1082C308.318 40.454 309.366 40.8344 310.135 41.1456C310.939 41.4913 311.602 42.01 312.161 42.7361C312.721 43.4622 313 44.4304 313 45.6751C313 46.5741 312.755 47.4386 312.266 48.2338C311.777 49.0291 311.043 49.7207 310.135 50.2047C309.192 50.758 308.074 51 306.711 51Z" fill="white"/>
<path d="M184.529 40.5925C184.529 46.7127 189.281 50.8273 195.22 50.8273C201.16 50.8273 205.947 46.7127 205.947 40.5925C205.947 37.6189 204.864 34.9565 203.221 33.3314C198.225 28.2831 193.858 31.1184 192.775 33.6426C192.565 34.1266 192.67 34.5761 193.334 34.8873L202.033 40.2813C202.418 40.4888 202.418 41.042 202.033 41.2495L191.447 46.4015C191.097 46.6089 190.643 46.3323 190.643 45.9174V36.9619C190.643 33.608 191.028 32.3632 191.307 31.5679C191.517 30.9455 191.202 30.7381 190.748 30.9801C190.014 31.3259 184.529 34.8873 184.529 40.5925Z" fill="#00E3F5"/>
<path d="M507.796 36.66V45H506.428V36.66H507.796ZM513.048 38.28C513.568 38.28 514.032 38.388 514.44 38.604C514.856 38.82 515.18 39.14 515.412 39.564C515.644 39.988 515.76 40.5 515.76 41.1V45H514.404V41.304C514.404 40.712 514.256 40.26 513.96 39.948C513.664 39.628 513.26 39.468 512.748 39.468C512.236 39.468 511.828 39.628 511.524 39.948C511.228 40.26 511.08 40.712 511.08 41.304V45H509.712V38.388H511.08V39.144C511.304 38.872 511.588 38.66 511.932 38.508C512.284 38.356 512.656 38.28 513.048 38.28ZM517.169 41.664C517.169 41 517.305 40.412 517.577 39.9C517.857 39.388 518.233 38.992 518.705 38.712C519.185 38.424 519.717 38.28 520.301 38.28C520.733 38.28 521.157 38.376 521.573 38.568C521.997 38.752 522.333 39 522.581 39.312V36.12H523.961V45H522.581V44.004C522.357 44.324 522.045 44.588 521.645 44.796C521.253 45.004 520.801 45.108 520.289 45.108C519.713 45.108 519.185 44.964 518.705 44.676C518.233 44.38 517.857 43.972 517.577 43.452C517.305 42.924 517.169 42.328 517.169 41.664ZM522.581 41.688C522.581 41.232 522.485 40.836 522.293 40.5C522.109 40.164 521.865 39.908 521.561 39.732C521.257 39.556 520.929 39.468 520.577 39.468C520.225 39.468 519.897 39.556 519.593 39.732C519.289 39.9 519.041 40.152 518.849 40.488C518.665 40.816 518.573 41.208 518.573 41.664C518.573 42.12 518.665 42.52 518.849 42.864C519.041 43.208 519.289 43.472 519.593 43.656C519.905 43.832 520.233 43.92 520.577 43.92C520.929 43.92 521.257 43.832 521.561 43.656C521.865 43.48 522.109 43.224 522.293 42.888C522.485 42.544 522.581 42.144 522.581 41.688ZM526.574 37.512C526.326 37.512 526.118 37.428 525.95 37.26C525.782 37.092 525.698 36.884 525.698 36.636C525.698 36.388 525.782 36.18 525.95 36.012C526.118 35.844 526.326 35.76 526.574 35.76C526.814 35.76 527.018 35.844 527.186 36.012C527.354 36.18 527.438 36.388 527.438 36.636C527.438 36.884 527.354 37.092 527.186 37.26C527.018 37.428 526.814 37.512 526.574 37.512ZM527.246 38.388V45H525.878V38.388H527.246ZM528.706 41.664C528.706 41 528.842 40.412 529.114 39.9C529.394 39.388 529.77 38.992 530.242 38.712C530.722 38.424 531.254 38.28 531.838 38.28C532.35 38.28 532.802 38.384 533.194 38.592C533.594 38.8 533.902 39.052 534.118 39.348V38.388H535.498V48.144H534.118V44.04C533.902 44.336 533.59 44.588 533.182 44.796C532.774 45.004 532.31 45.108 531.79 45.108C531.222 45.108 530.702 44.964 530.23 44.676C529.766 44.38 529.394 43.972 529.114 43.452C528.842 42.924 528.706 42.328 528.706 41.664ZM534.118 41.688C534.118 41.232 534.022 40.836 533.83 40.5C533.646 40.164 533.402 39.908 533.098 39.732C532.794 39.556 532.466 39.468 532.114 39.468C531.762 39.468 531.434 39.556 531.13 39.732C530.826 39.9 530.578 40.152 530.386 40.488C530.202 40.816 530.11 41.208 530.11 41.664C530.11 42.12 530.202 42.52 530.386 42.864C530.578 43.208 530.826 43.472 531.13 43.656C531.442 43.832 531.77 43.92 532.114 43.92C532.466 43.92 532.794 43.832 533.098 43.656C533.402 43.48 533.646 43.224 533.83 42.888C534.022 42.544 534.118 42.144 534.118 41.688ZM543.402 38.388V45H542.034V44.22C541.818 44.492 541.534 44.708 541.182 44.868C540.838 45.02 540.47 45.096 540.078 45.096C539.558 45.096 539.09 44.988 538.674 44.772C538.266 44.556 537.942 44.236 537.702 43.812C537.47 43.388 537.354 42.876 537.354 42.276V38.388H538.71V42.072C538.71 42.664 538.858 43.12 539.154 43.44C539.45 43.752 539.854 43.908 540.366 43.908C540.878 43.908 541.282 43.752 541.578 43.44C541.882 43.12 542.034 42.664 542.034 42.072V38.388H543.402ZM551.387 41.532C551.387 41.78 551.371 42.004 551.339 42.204H546.287C546.327 42.732 546.523 43.156 546.875 43.476C547.227 43.796 547.659 43.956 548.171 43.956C548.907 43.956 549.427 43.648 549.731 43.032H551.207C551.007 43.64 550.643 44.14 550.115 44.532C549.595 44.916 548.947 45.108 548.171 45.108C547.539 45.108 546.971 44.968 546.467 44.688C545.971 44.4 545.579 44 545.291 43.488C545.011 42.968 544.871 42.368 544.871 41.688C544.871 41.008 545.007 40.412 545.279 39.9C545.559 39.38 545.947 38.98 546.443 38.7C546.947 38.42 547.523 38.28 548.171 38.28C548.795 38.28 549.351 38.416 549.839 38.688C550.327 38.96 550.707 39.344 550.979 39.84C551.251 40.328 551.387 40.892 551.387 41.532ZM549.959 41.1C549.951 40.596 549.771 40.192 549.419 39.888C549.067 39.584 548.631 39.432 548.111 39.432C547.639 39.432 547.235 39.584 546.899 39.888C546.563 40.184 546.363 40.588 546.299 41.1H549.959ZM559.895 45.084C559.119 45.084 558.403 44.904 557.747 44.544C557.099 44.176 556.583 43.668 556.199 43.02C555.823 42.364 555.635 41.628 555.635 40.812C555.635 39.996 555.823 39.264 556.199 38.616C556.583 37.968 557.099 37.464 557.747 37.104C558.403 36.736 559.119 36.552 559.895 36.552C560.679 36.552 561.395 36.736 562.043 37.104C562.699 37.464 563.215 37.968 563.591 38.616C563.967 39.264 564.155 39.996 564.155 40.812C564.155 41.628 563.967 42.364 563.591 43.02C563.215 43.668 562.699 44.176 562.043 44.544C561.395 44.904 560.679 45.084 559.895 45.084ZM559.895 43.896C560.447 43.896 560.939 43.772 561.371 43.524C561.803 43.268 562.139 42.908 562.379 42.444C562.627 41.972 562.751 41.428 562.751 40.812C562.751 40.196 562.627 39.656 562.379 39.192C562.139 38.728 561.803 38.372 561.371 38.124C560.939 37.876 560.447 37.752 559.895 37.752C559.343 37.752 558.851 37.876 558.419 38.124C557.987 38.372 557.647 38.728 557.399 39.192C557.159 39.656 557.039 40.196 557.039 40.812C557.039 41.428 557.159 41.972 557.399 42.444C557.647 42.908 557.987 43.268 558.419 43.524C558.851 43.772 559.343 43.896 559.895 43.896ZM573.625 38.28C574.145 38.28 574.609 38.388 575.017 38.604C575.433 38.82 575.757 39.14 575.989 39.564C576.229 39.988 576.349 40.5 576.349 41.1V45H574.993V41.304C574.993 40.712 574.845 40.26 574.549 39.948C574.253 39.628 573.849 39.468 573.337 39.468C572.825 39.468 572.417 39.628 572.113 39.948C571.817 40.26 571.669 40.712 571.669 41.304V45H570.313V41.304C570.313 40.712 570.165 40.26 569.869 39.948C569.573 39.628 569.169 39.468 568.657 39.468C568.145 39.468 567.737 39.628 567.433 39.948C567.137 40.26 566.989 40.712 566.989 41.304V45H565.621V38.388H566.989V39.144C567.213 38.872 567.497 38.66 567.841 38.508C568.185 38.356 568.553 38.28 568.945 38.28C569.473 38.28 569.945 38.392 570.361 38.616C570.777 38.84 571.097 39.164 571.321 39.588C571.521 39.188 571.833 38.872 572.257 38.64C572.681 38.4 573.137 38.28 573.625 38.28ZM578.906 37.512C578.658 37.512 578.45 37.428 578.282 37.26C578.114 37.092 578.03 36.884 578.03 36.636C578.03 36.388 578.114 36.18 578.282 36.012C578.45 35.844 578.658 35.76 578.906 35.76C579.146 35.76 579.35 35.844 579.518 36.012C579.686 36.18 579.77 36.388 579.77 36.636C579.77 36.884 579.686 37.092 579.518 37.26C579.35 37.428 579.146 37.512 578.906 37.512ZM579.578 38.388V45H578.21V38.388H579.578ZM587.554 41.532C587.554 41.78 587.538 42.004 587.506 42.204H582.454C582.494 42.732 582.69 43.156 583.042 43.476C583.394 43.796 583.826 43.956 584.338 43.956C585.074 43.956 585.594 43.648 585.898 43.032H587.374C587.174 43.64 586.81 44.14 586.282 44.532C585.762 44.916 585.114 45.108 584.338 45.108C583.706 45.108 583.138 44.968 582.634 44.688C582.138 44.4 581.746 44 581.458 43.488C581.178 42.968 581.038 42.368 581.038 41.688C581.038 41.008 581.174 40.412 581.446 39.9C581.726 39.38 582.114 38.98 582.61 38.7C583.114 38.42 583.69 38.28 584.338 38.28C584.962 38.28 585.518 38.416 586.006 38.688C586.494 38.96 586.874 39.344 587.146 39.84C587.418 40.328 587.554 40.892 587.554 41.532ZM586.126 41.1C586.118 40.596 585.938 40.192 585.586 39.888C585.234 39.584 584.798 39.432 584.278 39.432C583.806 39.432 583.402 39.584 583.066 39.888C582.73 40.184 582.53 40.588 582.466 41.1H586.126Z" fill="white"/>
<path d="M632.709 45L630.789 41.664H629.745V45H628.377V36.66H631.257C631.897 36.66 632.437 36.772 632.877 36.996C633.325 37.22 633.657 37.52 633.873 37.896C634.097 38.272 634.209 38.692 634.209 39.156C634.209 39.7 634.049 40.196 633.729 40.644C633.417 41.084 632.933 41.384 632.277 41.544L634.341 45H632.709ZM629.745 40.572H631.257C631.769 40.572 632.153 40.444 632.409 40.188C632.673 39.932 632.805 39.588 632.805 39.156C632.805 38.724 632.677 38.388 632.421 38.148C632.165 37.9 631.777 37.776 631.257 37.776H629.745V40.572ZM642.139 41.532C642.139 41.78 642.123 42.004 642.091 42.204H637.039C637.079 42.732 637.275 43.156 637.627 43.476C637.979 43.796 638.411 43.956 638.923 43.956C639.659 43.956 640.179 43.648 640.483 43.032H641.959C641.759 43.64 641.395 44.14 640.867 44.532C640.347 44.916 639.699 45.108 638.923 45.108C638.291 45.108 637.723 44.968 637.219 44.688C636.723 44.4 636.331 44 636.043 43.488C635.763 42.968 635.623 42.368 635.623 41.688C635.623 41.008 635.759 40.412 636.031 39.9C636.311 39.38 636.699 38.98 637.195 38.7C637.699 38.42 638.275 38.28 638.923 38.28C639.547 38.28 640.103 38.416 640.591 38.688C641.079 38.96 641.459 39.344 641.731 39.84C642.003 40.328 642.139 40.892 642.139 41.532ZM640.711 41.1C640.703 40.596 640.523 40.192 640.171 39.888C639.819 39.584 639.383 39.432 638.863 39.432C638.391 39.432 637.987 39.584 637.651 39.888C637.315 40.184 637.115 40.588 637.051 41.1H640.711ZM643.149 41.688C643.149 41.008 643.285 40.412 643.557 39.9C643.837 39.38 644.221 38.98 644.709 38.7C645.197 38.42 645.757 38.28 646.389 38.28C647.189 38.28 647.849 38.472 648.369 38.856C648.897 39.232 649.253 39.772 649.437 40.476H647.961C647.841 40.148 647.649 39.892 647.385 39.708C647.121 39.524 646.789 39.432 646.389 39.432C645.829 39.432 645.381 39.632 645.045 40.032C644.717 40.424 644.553 40.976 644.553 41.688C644.553 42.4 644.717 42.956 645.045 43.356C645.381 43.756 645.829 43.956 646.389 43.956C647.181 43.956 647.705 43.608 647.961 42.912H649.437C649.245 43.584 648.885 44.12 648.357 44.52C647.829 44.912 647.173 45.108 646.389 45.108C645.757 45.108 645.197 44.968 644.709 44.688C644.221 44.4 643.837 44 643.557 43.488C643.285 42.968 643.149 42.368 643.149 41.688ZM656.908 38.388V45H655.54V44.22C655.324 44.492 655.04 44.708 654.688 44.868C654.344 45.02 653.976 45.096 653.584 45.096C653.064 45.096 652.596 44.988 652.18 44.772C651.772 44.556 651.448 44.236 651.208 43.812C650.976 43.388 650.86 42.876 650.86 42.276V38.388H652.216V42.072C652.216 42.664 652.364 43.12 652.66 43.44C652.956 43.752 653.36 43.908 653.872 43.908C654.384 43.908 654.788 43.752 655.084 43.44C655.388 43.12 655.54 42.664 655.54 42.072V38.388H656.908ZM660.201 39.348C660.401 39.012 660.665 38.752 660.993 38.568C661.329 38.376 661.725 38.28 662.181 38.28V39.696H661.833C661.297 39.696 660.889 39.832 660.609 40.104C660.337 40.376 660.201 40.848 660.201 41.52V45H658.833V38.388H660.201V39.348ZM665.959 45.108C665.439 45.108 664.971 45.016 664.555 44.832C664.147 44.64 663.823 44.384 663.583 44.064C663.343 43.736 663.215 43.372 663.199 42.972H664.615C664.639 43.252 664.771 43.488 665.011 43.68C665.259 43.864 665.567 43.956 665.935 43.956C666.319 43.956 666.615 43.884 666.823 43.74C667.039 43.588 667.147 43.396 667.147 43.164C667.147 42.916 667.027 42.732 666.787 42.612C666.555 42.492 666.183 42.36 665.671 42.216C665.175 42.08 664.771 41.948 664.459 41.82C664.147 41.692 663.875 41.496 663.643 41.232C663.419 40.968 663.307 40.62 663.307 40.188C663.307 39.836 663.411 39.516 663.619 39.228C663.827 38.932 664.123 38.7 664.507 38.532C664.899 38.364 665.347 38.28 665.851 38.28C666.603 38.28 667.207 38.472 667.663 38.856C668.127 39.232 668.375 39.748 668.407 40.404H667.039C667.015 40.108 666.895 39.872 666.679 39.696C666.463 39.52 666.171 39.432 665.803 39.432C665.443 39.432 665.167 39.5 664.975 39.636C664.783 39.772 664.687 39.952 664.687 40.176C664.687 40.352 664.751 40.5 664.879 40.62C665.007 40.74 665.163 40.836 665.347 40.908C665.531 40.972 665.803 41.056 666.163 41.16C666.643 41.288 667.035 41.42 667.339 41.556C667.651 41.684 667.919 41.876 668.143 42.132C668.367 42.388 668.483 42.728 668.491 43.152C668.491 43.528 668.387 43.864 668.179 44.16C667.971 44.456 667.675 44.688 667.291 44.856C666.915 45.024 666.471 45.108 665.959 45.108ZM672.957 45.108C672.333 45.108 671.769 44.968 671.265 44.688C670.761 44.4 670.365 44 670.077 43.488C669.789 42.968 669.645 42.368 669.645 41.688C669.645 41.016 669.793 40.42 670.089 39.9C670.385 39.38 670.789 38.98 671.301 38.7C671.813 38.42 672.385 38.28 673.017 38.28C673.649 38.28 674.221 38.42 674.733 38.7C675.245 38.98 675.649 39.38 675.945 39.9C676.241 40.42 676.389 41.016 676.389 41.688C676.389 42.36 676.237 42.956 675.933 43.476C675.629 43.996 675.213 44.4 674.685 44.688C674.165 44.968 673.589 45.108 672.957 45.108ZM672.957 43.92C673.309 43.92 673.637 43.836 673.941 43.668C674.253 43.5 674.505 43.248 674.697 42.912C674.889 42.576 674.985 42.168 674.985 41.688C674.985 41.208 674.893 40.804 674.709 40.476C674.525 40.14 674.281 39.888 673.977 39.72C673.673 39.552 673.345 39.468 672.993 39.468C672.641 39.468 672.313 39.552 672.009 39.72C671.713 39.888 671.477 40.14 671.301 40.476C671.125 40.804 671.037 41.208 671.037 41.688C671.037 42.4 671.217 42.952 671.577 43.344C671.945 43.728 672.405 43.92 672.957 43.92ZM680.261 45.108C679.741 45.108 679.273 45.016 678.857 44.832C678.449 44.64 678.125 44.384 677.885 44.064C677.645 43.736 677.517 43.372 677.501 42.972H678.917C678.941 43.252 679.073 43.488 679.313 43.68C679.561 43.864 679.869 43.956 680.237 43.956C680.621 43.956 680.917 43.884 681.125 43.74C681.341 43.588 681.449 43.396 681.449 43.164C681.449 42.916 681.329 42.732 681.089 42.612C680.857 42.492 680.485 42.36 679.973 42.216C679.477 42.08 679.073 41.948 678.761 41.82C678.449 41.692 678.177 41.496 677.945 41.232C677.721 40.968 677.609 40.62 677.609 40.188C677.609 39.836 677.713 39.516 677.921 39.228C678.129 38.932 678.425 38.7 678.809 38.532C679.201 38.364 679.649 38.28 680.153 38.28C680.905 38.28 681.509 38.472 681.965 38.856C682.429 39.232 682.677 39.748 682.709 40.404H681.341C681.317 40.108 681.197 39.872 680.981 39.696C680.765 39.52 680.473 39.432 680.105 39.432C679.745 39.432 679.469 39.5 679.277 39.636C679.085 39.772 678.989 39.952 678.989 40.176C678.989 40.352 679.053 40.5 679.181 40.62C679.309 40.74 679.465 40.836 679.649 40.908C679.833 40.972 680.105 41.056 680.465 41.16C680.945 41.288 681.337 41.42 681.641 41.556C681.953 41.684 682.221 41.876 682.445 42.132C682.669 42.388 682.785 42.728 682.793 43.152C682.793 43.528 682.689 43.864 682.481 44.16C682.273 44.456 681.977 44.688 681.593 44.856C681.217 45.024 680.773 45.108 680.261 45.108ZM687.173 41.664C687.173 41 687.309 40.412 687.581 39.9C687.861 39.388 688.237 38.992 688.709 38.712C689.189 38.424 689.721 38.28 690.305 38.28C690.737 38.28 691.161 38.376 691.577 38.568C692.001 38.752 692.337 39 692.585 39.312V36.12H693.965V45H692.585V44.004C692.361 44.324 692.049 44.588 691.649 44.796C691.257 45.004 690.805 45.108 690.293 45.108C689.717 45.108 689.189 44.964 688.709 44.676C688.237 44.38 687.861 43.972 687.581 43.452C687.309 42.924 687.173 42.328 687.173 41.664ZM692.585 41.688C692.585 41.232 692.489 40.836 692.297 40.5C692.113 40.164 691.869 39.908 691.565 39.732C691.261 39.556 690.933 39.468 690.581 39.468C690.229 39.468 689.901 39.556 689.597 39.732C689.293 39.9 689.045 40.152 688.853 40.488C688.669 40.816 688.577 41.208 688.577 41.664C688.577 42.12 688.669 42.52 688.853 42.864C689.045 43.208 689.293 43.472 689.597 43.656C689.909 43.832 690.237 43.92 690.581 43.92C690.933 43.92 691.261 43.832 691.565 43.656C691.869 43.48 692.113 43.224 692.297 42.888C692.489 42.544 692.585 42.144 692.585 41.688ZM698.749 45.108C698.125 45.108 697.561 44.968 697.057 44.688C696.553 44.4 696.157 44 695.869 43.488C695.581 42.968 695.437 42.368 695.437 41.688C695.437 41.016 695.585 40.42 695.881 39.9C696.177 39.38 696.581 38.98 697.093 38.7C697.605 38.42 698.177 38.28 698.809 38.28C699.441 38.28 700.013 38.42 700.525 38.7C701.037 38.98 701.441 39.38 701.737 39.9C702.033 40.42 702.181 41.016 702.181 41.688C702.181 42.36 702.029 42.956 701.725 43.476C701.421 43.996 701.005 44.4 700.477 44.688C699.957 44.968 699.381 45.108 698.749 45.108ZM698.749 43.92C699.101 43.92 699.429 43.836 699.733 43.668C700.045 43.5 700.297 43.248 700.489 42.912C700.681 42.576 700.777 42.168 700.777 41.688C700.777 41.208 700.685 40.804 700.501 40.476C700.317 40.14 700.073 39.888 699.769 39.72C699.465 39.552 699.137 39.468 698.785 39.468C698.433 39.468 698.105 39.552 697.801 39.72C697.505 39.888 697.269 40.14 697.093 40.476C696.917 40.804 696.829 41.208 696.829 41.688C696.829 42.4 697.009 42.952 697.369 43.344C697.737 43.728 698.197 43.92 698.749 43.92ZM709.639 45.084C709.079 45.084 708.575 44.988 708.127 44.796C707.679 44.596 707.327 44.316 707.071 43.956C706.815 43.596 706.687 43.176 706.687 42.696H708.151C708.183 43.056 708.323 43.352 708.571 43.584C708.827 43.816 709.183 43.932 709.639 43.932C710.111 43.932 710.479 43.82 710.743 43.596C711.007 43.364 711.139 43.068 711.139 42.708C711.139 42.428 711.055 42.2 710.887 42.024C710.727 41.848 710.523 41.712 710.275 41.616C710.035 41.52 709.699 41.416 709.267 41.304C708.723 41.16 708.279 41.016 707.935 40.872C707.599 40.72 707.311 40.488 707.071 40.176C706.831 39.864 706.711 39.448 706.711 38.928C706.711 38.448 706.831 38.028 707.071 37.668C707.311 37.308 707.647 37.032 708.079 36.84C708.511 36.648 709.011 36.552 709.579 36.552C710.387 36.552 711.047 36.756 711.559 37.164C712.079 37.564 712.367 38.116 712.423 38.82H710.911C710.887 38.516 710.743 38.256 710.479 38.04C710.215 37.824 709.867 37.716 709.435 37.716C709.043 37.716 708.723 37.816 708.475 38.016C708.227 38.216 708.103 38.504 708.103 38.88C708.103 39.136 708.179 39.348 708.331 39.516C708.491 39.676 708.691 39.804 708.931 39.9C709.171 39.996 709.499 40.1 709.915 40.212C710.467 40.364 710.915 40.516 711.259 40.668C711.611 40.82 711.907 41.056 712.147 41.376C712.395 41.688 712.519 42.108 712.519 42.636C712.519 43.06 712.403 43.46 712.171 43.836C711.947 44.212 711.615 44.516 711.175 44.748C710.743 44.972 710.231 45.084 709.639 45.084ZM714.949 37.512C714.701 37.512 714.493 37.428 714.325 37.26C714.157 37.092 714.073 36.884 714.073 36.636C714.073 36.388 714.157 36.18 714.325 36.012C714.493 35.844 714.701 35.76 714.949 35.76C715.189 35.76 715.393 35.844 715.561 36.012C715.729 36.18 715.813 36.388 715.813 36.636C715.813 36.884 715.729 37.092 715.561 37.26C715.393 37.428 715.189 37.512 714.949 37.512ZM715.621 38.388V45H714.253V38.388H715.621ZM719.937 45.108C719.417 45.108 718.949 45.016 718.533 44.832C718.125 44.64 717.801 44.384 717.561 44.064C717.321 43.736 717.193 43.372 717.177 42.972H718.593C718.617 43.252 718.749 43.488 718.989 43.68C719.237 43.864 719.545 43.956 719.913 43.956C720.297 43.956 720.593 43.884 720.801 43.74C721.017 43.588 721.125 43.396 721.125 43.164C721.125 42.916 721.005 42.732 720.765 42.612C720.533 42.492 720.161 42.36 719.649 42.216C719.153 42.08 718.749 41.948 718.437 41.82C718.125 41.692 717.853 41.496 717.621 41.232C717.397 40.968 717.285 40.62 717.285 40.188C717.285 39.836 717.389 39.516 717.597 39.228C717.805 38.932 718.101 38.7 718.485 38.532C718.877 38.364 719.325 38.28 719.829 38.28C720.581 38.28 721.185 38.472 721.641 38.856C722.105 39.232 722.353 39.748 722.385 40.404H721.017C720.993 40.108 720.873 39.872 720.657 39.696C720.441 39.52 720.149 39.432 719.781 39.432C719.421 39.432 719.145 39.5 718.953 39.636C718.761 39.772 718.665 39.952 718.665 40.176C718.665 40.352 718.729 40.5 718.857 40.62C718.985 40.74 719.141 40.836 719.325 40.908C719.509 40.972 719.781 41.056 720.141 41.16C720.621 41.288 721.013 41.42 721.317 41.556C721.629 41.684 721.897 41.876 722.121 42.132C722.345 42.388 722.461 42.728 722.469 43.152C722.469 43.528 722.365 43.864 722.157 44.16C721.949 44.456 721.653 44.688 721.269 44.856C720.893 45.024 720.449 45.108 719.937 45.108ZM725.663 39.504V43.164C725.663 43.412 725.719 43.592 725.831 43.704C725.951 43.808 726.151 43.86 726.431 43.86H727.271V45H726.191C725.575 45 725.103 44.856 724.775 44.568C724.447 44.28 724.283 43.812 724.283 43.164V39.504H723.503V38.388H724.283V36.744H725.663V38.388H727.271V39.504H725.663ZM734.712 41.532C734.712 41.78 734.696 42.004 734.664 42.204H729.612C729.652 42.732 729.848 43.156 730.2 43.476C730.552 43.796 730.984 43.956 731.496 43.956C732.232 43.956 732.752 43.648 733.056 43.032H734.532C734.332 43.64 733.968 44.14 733.44 44.532C732.92 44.916 732.272 45.108 731.496 45.108C730.864 45.108 730.296 44.968 729.792 44.688C729.296 44.4 728.904 44 728.616 43.488C728.336 42.968 728.196 42.368 728.196 41.688C728.196 41.008 728.332 40.412 728.604 39.9C728.884 39.38 729.272 38.98 729.768 38.7C730.272 38.42 730.848 38.28 731.496 38.28C732.12 38.28 732.676 38.416 733.164 38.688C733.652 38.96 734.032 39.344 734.304 39.84C734.576 40.328 734.712 40.892 734.712 41.532ZM733.284 41.1C733.276 40.596 733.096 40.192 732.744 39.888C732.392 39.584 731.956 39.432 731.436 39.432C730.964 39.432 730.56 39.584 730.224 39.888C729.888 40.184 729.688 40.588 729.624 41.1H733.284ZM744.182 38.28C744.702 38.28 745.166 38.388 745.574 38.604C745.99 38.82 746.314 39.14 746.546 39.564C746.786 39.988 746.906 40.5 746.906 41.1V45H745.55V41.304C745.55 40.712 745.402 40.26 745.106 39.948C744.81 39.628 744.406 39.468 743.894 39.468C743.382 39.468 742.974 39.628 742.67 39.948C742.374 40.26 742.226 40.712 742.226 41.304V45H740.87V41.304C740.87 40.712 740.722 40.26 740.426 39.948C740.13 39.628 739.726 39.468 739.214 39.468C738.702 39.468 738.294 39.628 737.99 39.948C737.694 40.26 737.546 40.712 737.546 41.304V45H736.178V38.388H737.546V39.144C737.77 38.872 738.054 38.66 738.398 38.508C738.742 38.356 739.11 38.28 739.502 38.28C740.03 38.28 740.502 38.392 740.918 38.616C741.334 38.84 741.654 39.164 741.878 39.588C742.078 39.188 742.39 38.872 742.814 38.64C743.238 38.4 743.694 38.28 744.182 38.28ZM748.311 41.664C748.311 41 748.447 40.412 748.719 39.9C748.999 39.388 749.375 38.992 749.847 38.712C750.327 38.424 750.855 38.28 751.431 38.28C751.951 38.28 752.403 38.384 752.787 38.592C753.179 38.792 753.491 39.044 753.723 39.348V38.388H755.103V45H753.723V44.016C753.491 44.328 753.175 44.588 752.775 44.796C752.375 45.004 751.919 45.108 751.407 45.108C750.839 45.108 750.319 44.964 749.847 44.676C749.375 44.38 748.999 43.972 748.719 43.452C748.447 42.924 748.311 42.328 748.311 41.664ZM753.723 41.688C753.723 41.232 753.627 40.836 753.435 40.5C753.251 40.164 753.007 39.908 752.703 39.732C752.399 39.556 752.071 39.468 751.719 39.468C751.367 39.468 751.039 39.556 750.735 39.732C750.431 39.9 750.183 40.152 749.991 40.488C749.807 40.816 749.715 41.208 749.715 41.664C749.715 42.12 749.807 42.52 749.991 42.864C750.183 43.208 750.431 43.472 750.735 43.656C751.047 43.832 751.375 43.92 751.719 43.92C752.071 43.92 752.399 43.832 752.703 43.656C753.007 43.48 753.251 43.224 753.435 42.888C753.627 42.544 753.723 42.144 753.723 41.688Z" fill="white"/>
<path d="M798.817 45.084C798.257 45.084 797.753 44.988 797.305 44.796C796.857 44.596 796.505 44.316 796.249 43.956C795.993 43.596 795.865 43.176 795.865 42.696H797.329C797.361 43.056 797.501 43.352 797.749 43.584C798.005 43.816 798.361 43.932 798.817 43.932C799.289 43.932 799.657 43.82 799.921 43.596C800.185 43.364 800.317 43.068 800.317 42.708C800.317 42.428 800.233 42.2 800.065 42.024C799.905 41.848 799.701 41.712 799.453 41.616C799.213 41.52 798.877 41.416 798.445 41.304C797.901 41.16 797.457 41.016 797.113 40.872C796.777 40.72 796.489 40.488 796.249 40.176C796.009 39.864 795.889 39.448 795.889 38.928C795.889 38.448 796.009 38.028 796.249 37.668C796.489 37.308 796.825 37.032 797.257 36.84C797.689 36.648 798.189 36.552 798.757 36.552C799.565 36.552 800.225 36.756 800.737 37.164C801.257 37.564 801.545 38.116 801.601 38.82H800.089C800.065 38.516 799.921 38.256 799.657 38.04C799.393 37.824 799.045 37.716 798.613 37.716C798.221 37.716 797.901 37.816 797.653 38.016C797.405 38.216 797.281 38.504 797.281 38.88C797.281 39.136 797.357 39.348 797.509 39.516C797.669 39.676 797.869 39.804 798.109 39.9C798.349 39.996 798.677 40.1 799.093 40.212C799.645 40.364 800.093 40.516 800.437 40.668C800.789 40.82 801.085 41.056 801.325 41.376C801.573 41.688 801.697 42.108 801.697 42.636C801.697 43.06 801.581 43.46 801.349 43.836C801.125 44.212 800.793 44.516 800.353 44.748C799.921 44.972 799.409 45.084 798.817 45.084ZM809.491 41.532C809.491 41.78 809.475 42.004 809.443 42.204H804.391C804.431 42.732 804.627 43.156 804.979 43.476C805.331 43.796 805.763 43.956 806.275 43.956C807.011 43.956 807.531 43.648 807.835 43.032H809.311C809.111 43.64 808.747 44.14 808.219 44.532C807.699 44.916 807.051 45.108 806.275 45.108C805.643 45.108 805.075 44.968 804.571 44.688C804.075 44.4 803.683 44 803.395 43.488C803.115 42.968 802.975 42.368 802.975 41.688C802.975 41.008 803.111 40.412 803.383 39.9C803.663 39.38 804.051 38.98 804.547 38.7C805.051 38.42 805.627 38.28 806.275 38.28C806.899 38.28 807.455 38.416 807.943 38.688C808.431 38.96 808.811 39.344 809.083 39.84C809.355 40.328 809.491 40.892 809.491 41.532ZM808.063 41.1C808.055 40.596 807.875 40.192 807.523 39.888C807.171 39.584 806.735 39.432 806.215 39.432C805.743 39.432 805.339 39.584 805.003 39.888C804.667 40.184 804.467 40.588 804.403 41.1H808.063ZM813.621 38.28C814.133 38.28 814.585 38.384 814.977 38.592C815.377 38.792 815.689 39.044 815.913 39.348V38.388H817.293V45.108C817.293 45.716 817.165 46.256 816.909 46.728C816.653 47.208 816.281 47.584 815.793 47.856C815.313 48.128 814.737 48.264 814.065 48.264C813.169 48.264 812.425 48.052 811.833 47.628C811.241 47.212 810.905 46.644 810.825 45.924H812.181C812.285 46.268 812.505 46.544 812.841 46.752C813.185 46.968 813.593 47.076 814.065 47.076C814.617 47.076 815.061 46.908 815.397 46.572C815.741 46.236 815.913 45.748 815.913 45.108V44.004C815.681 44.316 815.365 44.58 814.965 44.796C814.573 45.004 814.125 45.108 813.621 45.108C813.045 45.108 812.517 44.964 812.037 44.676C811.565 44.38 811.189 43.972 810.909 43.452C810.637 42.924 810.501 42.328 810.501 41.664C810.501 41 810.637 40.412 810.909 39.9C811.189 39.388 811.565 38.992 812.037 38.712C812.517 38.424 813.045 38.28 813.621 38.28ZM815.913 41.688C815.913 41.232 815.817 40.836 815.625 40.5C815.441 40.164 815.197 39.908 814.893 39.732C814.589 39.556 814.261 39.468 813.909 39.468C813.557 39.468 813.229 39.556 812.925 39.732C812.621 39.9 812.373 40.152 812.181 40.488C811.997 40.816 811.905 41.208 811.905 41.664C811.905 42.12 811.997 42.52 812.181 42.864C812.373 43.208 812.621 43.472 812.925 43.656C813.237 43.832 813.565 43.92 813.909 43.92C814.261 43.92 814.589 43.832 814.893 43.656C815.197 43.48 815.441 43.224 815.625 42.888C815.817 42.544 815.913 42.144 815.913 41.688ZM825.198 38.388V45H823.83V44.22C823.614 44.492 823.33 44.708 822.978 44.868C822.634 45.02 822.266 45.096 821.874 45.096C821.354 45.096 820.886 44.988 820.47 44.772C820.062 44.556 819.738 44.236 819.498 43.812C819.266 43.388 819.15 42.876 819.15 42.276V38.388H820.506V42.072C820.506 42.664 820.654 43.12 820.95 43.44C821.246 43.752 821.65 43.908 822.162 43.908C822.674 43.908 823.078 43.752 823.374 43.44C823.678 43.12 823.83 42.664 823.83 42.072V38.388H825.198ZM828.491 39.348C828.691 39.012 828.955 38.752 829.283 38.568C829.619 38.376 830.015 38.28 830.471 38.28V39.696H830.123C829.587 39.696 829.179 39.832 828.899 40.104C828.627 40.376 828.491 40.848 828.491 41.52V45H827.123V38.388H828.491V39.348ZM831.392 41.664C831.392 41 831.528 40.412 831.8 39.9C832.08 39.388 832.456 38.992 832.928 38.712C833.408 38.424 833.936 38.28 834.512 38.28C835.032 38.28 835.484 38.384 835.868 38.592C836.26 38.792 836.572 39.044 836.804 39.348V38.388H838.184V45H836.804V44.016C836.572 44.328 836.256 44.588 835.856 44.796C835.456 45.004 835 45.108 834.488 45.108C833.92 45.108 833.4 44.964 832.928 44.676C832.456 44.38 832.08 43.972 831.8 43.452C831.528 42.924 831.392 42.328 831.392 41.664ZM836.804 41.688C836.804 41.232 836.708 40.836 836.516 40.5C836.332 40.164 836.088 39.908 835.784 39.732C835.48 39.556 835.152 39.468 834.8 39.468C834.448 39.468 834.12 39.556 833.816 39.732C833.512 39.9 833.264 40.152 833.072 40.488C832.888 40.816 832.796 41.208 832.796 41.664C832.796 42.12 832.888 42.52 833.072 42.864C833.264 43.208 833.512 43.472 833.816 43.656C834.128 43.832 834.456 43.92 834.8 43.92C835.152 43.92 835.48 43.832 835.784 43.656C836.088 43.48 836.332 43.224 836.516 42.888C836.708 42.544 836.804 42.144 836.804 41.688ZM843.437 38.28C843.957 38.28 844.421 38.388 844.829 38.604C845.245 38.82 845.569 39.14 845.801 39.564C846.033 39.988 846.149 40.5 846.149 41.1V45H844.793V41.304C844.793 40.712 844.645 40.26 844.349 39.948C844.053 39.628 843.649 39.468 843.137 39.468C842.625 39.468 842.217 39.628 841.913 39.948C841.617 40.26 841.469 40.712 841.469 41.304V45H840.101V38.388H841.469V39.144C841.693 38.872 841.977 38.66 842.321 38.508C842.673 38.356 843.045 38.28 843.437 38.28ZM850.798 43.956C851.59 43.956 852.114 43.608 852.37 42.912H853.846C853.67 43.52 853.354 44.02 852.898 44.412C852.45 44.796 851.886 45.02 851.206 45.084V45.576C851.67 45.576 852.046 45.684 852.334 45.9C852.622 46.124 852.766 46.436 852.766 46.836C852.766 47.236 852.622 47.552 852.334 47.784C852.046 48.024 851.682 48.144 851.242 48.144H849.658V47.28H850.966C851.19 47.28 851.358 47.248 851.47 47.184C851.582 47.12 851.638 47.004 851.638 46.836C851.638 46.668 851.582 46.552 851.47 46.488C851.358 46.424 851.19 46.392 850.966 46.392H850.306V45.072C849.762 45.008 849.282 44.828 848.866 44.532C848.45 44.228 848.126 43.836 847.894 43.356C847.67 42.868 847.558 42.312 847.558 41.688C847.558 41.008 847.694 40.412 847.966 39.9C848.246 39.38 848.63 38.98 849.118 38.7C849.606 38.42 850.166 38.28 850.798 38.28C851.598 38.28 852.258 38.472 852.778 38.856C853.306 39.232 853.662 39.772 853.846 40.476H852.37C852.25 40.148 852.058 39.892 851.794 39.708C851.53 39.524 851.198 39.432 850.798 39.432C850.238 39.432 849.79 39.632 849.454 40.032C849.126 40.424 848.962 40.976 848.962 41.688C848.962 42.4 849.126 42.956 849.454 43.356C849.79 43.756 850.238 43.956 850.798 43.956ZM854.873 41.664C854.873 41 855.009 40.412 855.281 39.9C855.561 39.388 855.937 38.992 856.409 38.712C856.889 38.424 857.417 38.28 857.993 38.28C858.513 38.28 858.965 38.384 859.349 38.592C859.741 38.792 860.053 39.044 860.285 39.348V38.388H861.665V45H860.285V44.016C860.053 44.328 859.737 44.588 859.337 44.796C858.937 45.004 858.481 45.108 857.969 45.108C857.401 45.108 856.881 44.964 856.409 44.676C855.937 44.38 855.561 43.972 855.281 43.452C855.009 42.924 854.873 42.328 854.873 41.664ZM860.285 41.688C860.285 41.232 860.189 40.836 859.997 40.5C859.813 40.164 859.569 39.908 859.265 39.732C858.961 39.556 858.633 39.468 858.281 39.468C857.929 39.468 857.601 39.556 857.297 39.732C856.993 39.9 856.745 40.152 856.553 40.488C856.369 40.816 856.277 41.208 856.277 41.664C856.277 42.12 856.369 42.52 856.553 42.864C856.745 43.208 856.993 43.472 857.297 43.656C857.609 43.832 857.937 43.92 858.281 43.92C858.633 43.92 858.961 43.832 859.265 43.656C859.569 43.48 859.813 43.224 859.997 42.888C860.189 42.544 860.285 42.144 860.285 41.688ZM872.879 41.532C872.879 41.78 872.863 42.004 872.831 42.204H867.779C867.819 42.732 868.015 43.156 868.367 43.476C868.719 43.796 869.151 43.956 869.663 43.956C870.399 43.956 870.919 43.648 871.223 43.032H872.699C872.499 43.64 872.135 44.14 871.607 44.532C871.087 44.916 870.439 45.108 869.663 45.108C869.031 45.108 868.463 44.968 867.959 44.688C867.463 44.4 867.071 44 866.783 43.488C866.503 42.968 866.363 42.368 866.363 41.688C866.363 41.008 866.499 40.412 866.771 39.9C867.051 39.38 867.439 38.98 867.935 38.7C868.439 38.42 869.015 38.28 869.663 38.28C870.287 38.28 870.843 38.416 871.331 38.688C871.819 38.96 872.199 39.344 872.471 39.84C872.743 40.328 872.879 40.892 872.879 41.532ZM871.451 41.1C871.443 40.596 871.263 40.192 870.911 39.888C870.559 39.584 870.123 39.432 869.603 39.432C869.131 39.432 868.727 39.584 868.391 39.888C868.055 40.184 867.855 40.588 867.791 41.1H871.451ZM883.415 39.144C883.415 39.568 883.315 39.968 883.115 40.344C882.915 40.72 882.595 41.028 882.155 41.268C881.715 41.5 881.151 41.616 880.463 41.616H878.951V45H877.583V36.66H880.463C881.103 36.66 881.643 36.772 882.083 36.996C882.531 37.212 882.863 37.508 883.079 37.884C883.303 38.26 883.415 38.68 883.415 39.144ZM880.463 40.5C880.983 40.5 881.371 40.384 881.627 40.152C881.883 39.912 882.011 39.576 882.011 39.144C882.011 38.232 881.495 37.776 880.463 37.776H878.951V40.5H880.463ZM886.208 39.348C886.408 39.012 886.672 38.752 887 38.568C887.336 38.376 887.732 38.28 888.188 38.28V39.696H887.84C887.304 39.696 886.896 39.832 886.616 40.104C886.344 40.376 886.208 40.848 886.208 41.52V45H884.84V38.388H886.208V39.348ZM890.261 37.512C890.013 37.512 889.805 37.428 889.637 37.26C889.469 37.092 889.385 36.884 889.385 36.636C889.385 36.388 889.469 36.18 889.637 36.012C889.805 35.844 890.013 35.76 890.261 35.76C890.501 35.76 890.705 35.844 890.873 36.012C891.041 36.18 891.125 36.388 891.125 36.636C891.125 36.884 891.041 37.092 890.873 37.26C890.705 37.428 890.501 37.512 890.261 37.512ZM890.933 38.388V45H889.565V38.388H890.933ZM895.405 43.776L897.277 38.388H898.729L896.209 45H894.577L892.069 38.388H893.533L895.405 43.776ZM899.427 41.664C899.427 41 899.563 40.412 899.835 39.9C900.115 39.388 900.491 38.992 900.963 38.712C901.443 38.424 901.971 38.28 902.547 38.28C903.067 38.28 903.519 38.384 903.903 38.592C904.295 38.792 904.607 39.044 904.839 39.348V38.388H906.219V45H904.839V44.016C904.607 44.328 904.291 44.588 903.891 44.796C903.491 45.004 903.035 45.108 902.523 45.108C901.955 45.108 901.435 44.964 900.963 44.676C900.491 44.38 900.115 43.972 899.835 43.452C899.563 42.924 899.427 42.328 899.427 41.664ZM904.839 41.688C904.839 41.232 904.743 40.836 904.551 40.5C904.367 40.164 904.123 39.908 903.819 39.732C903.515 39.556 903.187 39.468 902.835 39.468C902.483 39.468 902.155 39.556 901.851 39.732C901.547 39.9 901.299 40.152 901.107 40.488C900.923 40.816 900.831 41.208 900.831 41.664C900.831 42.12 900.923 42.52 901.107 42.864C901.299 43.208 901.547 43.472 901.851 43.656C902.163 43.832 902.491 43.92 902.835 43.92C903.187 43.92 903.515 43.832 903.819 43.656C904.123 43.48 904.367 43.224 904.551 42.888C904.743 42.544 904.839 42.144 904.839 41.688ZM907.68 41.688C907.68 41.008 907.816 40.412 908.088 39.9C908.368 39.38 908.752 38.98 909.24 38.7C909.728 38.42 910.288 38.28 910.92 38.28C911.72 38.28 912.38 38.472 912.9 38.856C913.428 39.232 913.784 39.772 913.968 40.476H912.492C912.372 40.148 912.18 39.892 911.916 39.708C911.652 39.524 911.32 39.432 910.92 39.432C910.36 39.432 909.912 39.632 909.576 40.032C909.248 40.424 909.084 40.976 909.084 41.688C909.084 42.4 909.248 42.956 909.576 43.356C909.912 43.756 910.36 43.956 910.92 43.956C911.712 43.956 912.236 43.608 912.492 42.912H913.968C913.776 43.584 913.416 44.12 912.888 44.52C912.36 44.912 911.704 45.108 910.92 45.108C910.288 45.108 909.728 44.968 909.24 44.688C908.752 44.4 908.368 44 908.088 43.488C907.816 42.968 907.68 42.368 907.68 41.688ZM916.147 37.512C915.899 37.512 915.691 37.428 915.523 37.26C915.355 37.092 915.271 36.884 915.271 36.636C915.271 36.388 915.355 36.18 915.523 36.012C915.691 35.844 915.899 35.76 916.147 35.76C916.387 35.76 916.591 35.844 916.759 36.012C916.927 36.18 917.011 36.388 917.011 36.636C917.011 36.884 916.927 37.092 916.759 37.26C916.591 37.428 916.387 37.512 916.147 37.512ZM916.819 38.388V45H915.451V38.388H916.819ZM918.279 41.664C918.279 41 918.415 40.412 918.687 39.9C918.967 39.388 919.343 38.992 919.815 38.712C920.295 38.424 920.827 38.28 921.411 38.28C921.843 38.28 922.267 38.376 922.683 38.568C923.107 38.752 923.443 39 923.691 39.312V36.12H925.071V45H923.691V44.004C923.467 44.324 923.155 44.588 922.755 44.796C922.363 45.004 921.911 45.108 921.399 45.108C920.823 45.108 920.295 44.964 919.815 44.676C919.343 44.38 918.967 43.972 918.687 43.452C918.415 42.924 918.279 42.328 918.279 41.664ZM923.691 41.688C923.691 41.232 923.595 40.836 923.403 40.5C923.219 40.164 922.975 39.908 922.671 39.732C922.367 39.556 922.039 39.468 921.687 39.468C921.335 39.468 921.007 39.556 920.703 39.732C920.399 39.9 920.151 40.152 919.959 40.488C919.775 40.816 919.683 41.208 919.683 41.664C919.683 42.12 919.775 42.52 919.959 42.864C920.151 43.208 920.399 43.472 920.703 43.656C921.015 43.832 921.343 43.92 921.687 43.92C922.039 43.92 922.367 43.832 922.671 43.656C922.975 43.48 923.219 43.224 923.403 42.888C923.595 42.544 923.691 42.144 923.691 41.688ZM926.532 41.664C926.532 41 926.668 40.412 926.94 39.9C927.22 39.388 927.596 38.992 928.068 38.712C928.548 38.424 929.076 38.28 929.652 38.28C930.172 38.28 930.624 38.384 931.008 38.592C931.4 38.792 931.712 39.044 931.944 39.348V38.388H933.324V45H931.944V44.016C931.712 44.328 931.396 44.588 930.996 44.796C930.596 45.004 930.14 45.108 929.628 45.108C929.06 45.108 928.54 44.964 928.068 44.676C927.596 44.38 927.22 43.972 926.94 43.452C926.668 42.924 926.532 42.328 926.532 41.664ZM931.944 41.688C931.944 41.232 931.848 40.836 931.656 40.5C931.472 40.164 931.228 39.908 930.924 39.732C930.62 39.556 930.292 39.468 929.94 39.468C929.588 39.468 929.26 39.556 928.956 39.732C928.652 39.9 928.404 40.152 928.212 40.488C928.028 40.816 927.936 41.208 927.936 41.664C927.936 42.12 928.028 42.52 928.212 42.864C928.404 43.208 928.652 43.472 928.956 43.656C929.268 43.832 929.596 43.92 929.94 43.92C930.292 43.92 930.62 43.832 930.924 43.656C931.228 43.48 931.472 43.224 931.656 42.888C931.848 42.544 931.944 42.144 931.944 41.688ZM934.785 41.664C934.785 41 934.921 40.412 935.193 39.9C935.473 39.388 935.849 38.992 936.321 38.712C936.801 38.424 937.333 38.28 937.917 38.28C938.349 38.28 938.773 38.376 939.189 38.568C939.613 38.752 939.949 39 940.197 39.312V36.12H941.577V45H940.197V44.004C939.973 44.324 939.661 44.588 939.261 44.796C938.869 45.004 938.417 45.108 937.905 45.108C937.329 45.108 936.801 44.964 936.321 44.676C935.849 44.38 935.473 43.972 935.193 43.452C934.921 42.924 934.785 42.328 934.785 41.664ZM940.197 41.688C940.197 41.232 940.101 40.836 939.909 40.5C939.725 40.164 939.481 39.908 939.177 39.732C938.873 39.556 938.545 39.468 938.193 39.468C937.841 39.468 937.513 39.556 937.209 39.732C936.905 39.9 936.657 40.152 936.465 40.488C936.281 40.816 936.189 41.208 936.189 41.664C936.189 42.12 936.281 42.52 936.465 42.864C936.657 43.208 936.905 43.472 937.209 43.656C937.521 43.832 937.849 43.92 938.193 43.92C938.545 43.92 938.873 43.832 939.177 43.656C939.481 43.48 939.725 43.224 939.909 42.888C940.101 42.544 940.197 42.144 940.197 41.688ZM949.554 41.532C949.554 41.78 949.538 42.004 949.506 42.204H944.454C944.494 42.732 944.69 43.156 945.042 43.476C945.394 43.796 945.826 43.956 946.338 43.956C947.074 43.956 947.594 43.648 947.898 43.032H949.374C949.174 43.64 948.81 44.14 948.282 44.532C947.762 44.916 947.114 45.108 946.338 45.108C945.706 45.108 945.138 44.968 944.634 44.688C944.138 44.4 943.746 44 943.458 43.488C943.178 42.968 943.038 42.368 943.038 41.688C943.038 41.008 943.174 40.412 943.446 39.9C943.726 39.38 944.114 38.98 944.61 38.7C945.114 38.42 945.69 38.28 946.338 38.28C946.962 38.28 947.518 38.416 948.006 38.688C948.494 38.96 948.874 39.344 949.146 39.84C949.418 40.328 949.554 40.892 949.554 41.532ZM948.126 41.1C948.118 40.596 947.938 40.192 947.586 39.888C947.234 39.584 946.798 39.432 946.278 39.432C945.806 39.432 945.402 39.584 945.066 39.888C944.73 40.184 944.53 40.588 944.466 41.1H948.126Z" fill="white"/>
<ellipse cx="608.635" cy="41.5" rx="2.63543" ry="2.5" fill="white"/>
<ellipse cx="776.635" cy="41.5" rx="2.63543" ry="2.5" fill="white"/>
</g>
<defs>
<clipPath id="clip0_1004_1483">
<rect width="1440" height="5210" fill="white" transform="translate(0 -5130)"/>
</clipPath>
</defs>
</svg>
