<svg width="900" height="35" viewBox="0 0 900 35" fill="none" xmlns="http://www.w3.org/2000/svg">
<path d="M15 21.25C17.0711 21.25 18.75 19.5711 18.75 17.5C18.75 15.4289 17.0711 13.75 15 13.75C12.9289 13.75 11.25 15.4289 11.25 17.5C11.25 19.5711 12.9289 21.25 15 21.25Z" fill="#D8FE00"/>
<path d="M10.6813 12.9931L8.95062 11.1875C7.28938 12.78 6.25 15.0169 6.25 17.5C6.25 19.9831 7.28938 22.22 8.95062 23.8125L10.6813 22.0069C9.49375 20.8681 8.75 19.2706 8.75 17.5C8.75 15.7294 9.49375 14.1312 10.6813 12.9931Z" fill="#D8FE00"/>
<path d="M21.0494 11.1875L19.3187 12.9931C20.5062 14.1319 21.25 15.7294 21.25 17.5C21.25 19.2706 20.5062 20.8681 19.3187 22.0069L21.0494 23.8125C22.7106 22.22 23.75 19.9831 23.75 17.5C23.75 15.0169 22.7106 12.78 21.0494 11.1875Z" fill="#D8FE00"/>
<path d="M7.22563 9.38818L5.48875 7.57568C2.87812 10.0782 1.25 13.5982 1.25 17.5001C1.25 21.4019 2.87812 24.9219 5.48875 27.4244L7.22563 25.6119C5.08875 23.5632 3.75 20.6876 3.75 17.5001C3.75 14.3126 5.08875 11.4369 7.22563 9.38818Z" fill="#D8FE00"/>
<path d="M24.5112 7.57568L22.7744 9.38818C24.9112 11.4369 26.25 14.3126 26.25 17.5001C26.25 20.6876 24.9112 23.5632 22.7744 25.6119L24.5112 27.4244C27.1219 24.9219 28.75 21.4019 28.75 17.5001C28.75 13.5982 27.1219 10.0782 24.5112 7.57568Z" fill="#D8FE00"/>
<path d="M49.262 20.152H52.398V22H46.868V12.172H49.262V20.152ZM55.9339 12.172V22H53.5399V12.172H55.9339ZM66.8948 12.172L63.4088 22H60.4128L56.9268 12.172H59.4748L61.9108 19.592L64.3608 12.172H66.8948ZM70.2893 14.09V16.078H73.4953V17.926H70.2893V20.082H73.9153V22H67.8953V12.172H73.9153V14.09H70.2893ZM86.3184 16.092V18.08H78.5484V16.092H86.3184ZM97.5355 12.172V14.09H93.5315V16.162H96.5275V18.024H93.5315V22H91.1375V12.172H97.5355ZM98.3178 18.08C98.3178 17.2773 98.4671 16.5727 98.7658 15.966C99.0738 15.3593 99.4891 14.8927 100.012 14.566C100.534 14.2393 101.118 14.076 101.762 14.076C102.312 14.076 102.793 14.188 103.204 14.412C103.624 14.636 103.946 14.93 104.17 15.294V14.188H106.564V22H104.17V20.894C103.936 21.258 103.61 21.552 103.19 21.776C102.779 22 102.298 22.112 101.748 22.112C101.113 22.112 100.534 21.9487 100.012 21.622C99.4891 21.286 99.0738 20.8147 98.7658 20.208C98.4671 19.592 98.3178 18.8827 98.3178 18.08ZM104.17 18.094C104.17 17.4967 104.002 17.0253 103.666 16.68C103.339 16.3347 102.938 16.162 102.462 16.162C101.986 16.162 101.58 16.3347 101.244 16.68C100.917 17.016 100.754 17.4827 100.754 18.08C100.754 18.6773 100.917 19.1533 101.244 19.508C101.58 19.8533 101.986 20.026 102.462 20.026C102.938 20.026 103.339 19.8533 103.666 19.508C104.002 19.1627 104.17 18.6913 104.17 18.094ZM110.69 11.64V22H108.296V11.64H110.69ZM111.949 18.08C111.949 17.2773 112.098 16.5727 112.397 15.966C112.705 15.3593 113.12 14.8927 113.643 14.566C114.165 14.2393 114.749 14.076 115.393 14.076C115.943 14.076 116.424 14.188 116.835 14.412C117.255 14.636 117.577 14.93 117.801 15.294V14.188H120.195V22H117.801V20.894C117.567 21.258 117.241 21.552 116.821 21.776C116.41 22 115.929 22.112 115.379 22.112C114.744 22.112 114.165 21.9487 113.643 21.622C113.12 21.286 112.705 20.8147 112.397 20.208C112.098 19.592 111.949 18.8827 111.949 18.08ZM117.801 18.094C117.801 17.4967 117.633 17.0253 117.297 16.68C116.97 16.3347 116.569 16.162 116.093 16.162C115.617 16.162 115.211 16.3347 114.875 16.68C114.548 17.016 114.385 17.4827 114.385 18.08C114.385 18.6773 114.548 19.1533 114.875 19.508C115.211 19.8533 115.617 20.026 116.093 20.026C116.569 20.026 116.97 19.8533 117.297 19.508C117.633 19.1627 117.801 18.6913 117.801 18.094ZM124.503 19.788L122.949 23.806H121.423L122.235 19.788H124.503ZM131.307 14.09V16.078H134.513V17.926H131.307V20.082H134.933V22H128.913V12.172H134.933V14.09H131.307ZM136.011 18.094C136.011 17.282 136.174 16.5727 136.501 15.966C136.837 15.3593 137.299 14.8927 137.887 14.566C138.484 14.2393 139.166 14.076 139.931 14.076C140.911 14.076 141.728 14.3327 142.381 14.846C143.044 15.3593 143.478 16.0827 143.683 17.016H141.135C140.92 16.4187 140.505 16.12 139.889 16.12C139.45 16.12 139.1 16.2927 138.839 16.638C138.578 16.974 138.447 17.4593 138.447 18.094C138.447 18.7287 138.578 19.2187 138.839 19.564C139.1 19.9 139.45 20.068 139.889 20.068C140.505 20.068 140.92 19.7693 141.135 19.172H143.683C143.478 20.0867 143.044 20.8053 142.381 21.328C141.718 21.8507 140.902 22.112 139.931 22.112C139.166 22.112 138.484 21.9487 137.887 21.622C137.299 21.2953 136.837 20.8287 136.501 20.222C136.174 19.6153 136.011 18.906 136.011 18.094ZM148.52 22.112C147.754 22.112 147.064 21.9487 146.448 21.622C145.841 21.2953 145.36 20.8287 145.006 20.222C144.66 19.6153 144.488 18.906 144.488 18.094C144.488 17.2913 144.665 16.5867 145.02 15.98C145.374 15.364 145.86 14.8927 146.476 14.566C147.092 14.2393 147.782 14.076 148.548 14.076C149.313 14.076 150.004 14.2393 150.62 14.566C151.236 14.8927 151.721 15.364 152.076 15.98C152.43 16.5867 152.608 17.2913 152.608 18.094C152.608 18.8967 152.426 19.606 152.062 20.222C151.707 20.8287 151.217 21.2953 150.592 21.622C149.976 21.9487 149.285 22.112 148.52 22.112ZM148.52 20.04C148.977 20.04 149.364 19.872 149.682 19.536C150.008 19.2 150.172 18.7193 150.172 18.094C150.172 17.4687 150.013 16.988 149.696 16.652C149.388 16.316 149.005 16.148 148.548 16.148C148.081 16.148 147.694 16.316 147.386 16.652C147.078 16.9787 146.924 17.4593 146.924 18.094C146.924 18.7193 147.073 19.2 147.372 19.536C147.68 19.872 148.062 20.04 148.52 20.04ZM158.638 14.104C159.552 14.104 160.28 14.4027 160.822 15C161.372 15.588 161.648 16.4 161.648 17.436V22H159.268V17.758C159.268 17.2353 159.132 16.8293 158.862 16.54C158.591 16.2507 158.227 16.106 157.77 16.106C157.312 16.106 156.948 16.2507 156.678 16.54C156.407 16.8293 156.272 17.2353 156.272 17.758V22H153.878V14.188H156.272V15.224C156.514 14.8787 156.841 14.608 157.252 14.412C157.662 14.2067 158.124 14.104 158.638 14.104ZM166.867 22.112C166.102 22.112 165.411 21.9487 164.795 21.622C164.189 21.2953 163.708 20.8287 163.353 20.222C163.008 19.6153 162.835 18.906 162.835 18.094C162.835 17.2913 163.013 16.5867 163.367 15.98C163.722 15.364 164.207 14.8927 164.823 14.566C165.439 14.2393 166.13 14.076 166.895 14.076C167.661 14.076 168.351 14.2393 168.967 14.566C169.583 14.8927 170.069 15.364 170.423 15.98C170.778 16.5867 170.955 17.2913 170.955 18.094C170.955 18.8967 170.773 19.606 170.409 20.222C170.055 20.8287 169.565 21.2953 168.939 21.622C168.323 21.9487 167.633 22.112 166.867 22.112ZM166.867 20.04C167.325 20.04 167.712 19.872 168.029 19.536C168.356 19.2 168.519 18.7193 168.519 18.094C168.519 17.4687 168.361 16.988 168.043 16.652C167.735 16.316 167.353 16.148 166.895 16.148C166.429 16.148 166.041 16.316 165.733 16.652C165.425 16.9787 165.271 17.4593 165.271 18.094C165.271 18.7193 165.421 19.2 165.719 19.536C166.027 19.872 166.41 20.04 166.867 20.04ZM182.193 14.104C183.164 14.104 183.934 14.398 184.503 14.986C185.082 15.574 185.371 16.3907 185.371 17.436V22H182.991V17.758C182.991 17.254 182.856 16.8667 182.585 16.596C182.324 16.316 181.96 16.176 181.493 16.176C181.027 16.176 180.658 16.316 180.387 16.596C180.126 16.8667 179.995 17.254 179.995 17.758V22H177.615V17.758C177.615 17.254 177.48 16.8667 177.209 16.596C176.948 16.316 176.584 16.176 176.117 16.176C175.651 16.176 175.282 16.316 175.011 16.596C174.75 16.8667 174.619 17.254 174.619 17.758V22H172.225V14.188H174.619V15.168C174.862 14.8413 175.179 14.5847 175.571 14.398C175.963 14.202 176.407 14.104 176.901 14.104C177.489 14.104 178.012 14.23 178.469 14.482C178.936 14.734 179.3 15.0933 179.561 15.56C179.832 15.1307 180.201 14.7807 180.667 14.51C181.134 14.2393 181.643 14.104 182.193 14.104ZM188.25 13.376C187.83 13.376 187.484 13.2547 187.214 13.012C186.952 12.76 186.822 12.452 186.822 12.088C186.822 11.7147 186.952 11.4067 187.214 11.164C187.484 10.912 187.83 10.786 188.25 10.786C188.66 10.786 188.996 10.912 189.258 11.164C189.528 11.4067 189.664 11.7147 189.664 12.088C189.664 12.452 189.528 12.76 189.258 13.012C188.996 13.2547 188.66 13.376 188.25 13.376ZM189.44 14.188V22H187.046V14.188H189.44ZM190.699 18.08C190.699 17.2773 190.848 16.5727 191.147 15.966C191.455 15.3593 191.87 14.8927 192.393 14.566C192.915 14.2393 193.499 14.076 194.143 14.076C194.693 14.076 195.174 14.188 195.585 14.412C196.005 14.636 196.327 14.93 196.551 15.294V14.188H198.945V22H196.551V20.894C196.317 21.258 195.991 21.552 195.571 21.776C195.16 22 194.679 22.112 194.129 22.112C193.494 22.112 192.915 21.9487 192.393 21.622C191.87 21.286 191.455 20.8147 191.147 20.208C190.848 19.592 190.699 18.8827 190.699 18.08ZM196.551 18.094C196.551 17.4967 196.383 17.0253 196.047 16.68C195.72 16.3347 195.319 16.162 194.843 16.162C194.367 16.162 193.961 16.3347 193.625 16.68C193.298 17.016 193.135 17.4827 193.135 18.08C193.135 18.6773 193.298 19.1533 193.625 19.508C193.961 19.8533 194.367 20.026 194.843 20.026C195.319 20.026 195.72 19.8533 196.047 19.508C196.383 19.1627 196.551 18.6913 196.551 18.094ZM203.827 11.822L203.547 18.528H201.517L201.237 11.822H203.827ZM202.567 22.112C202.147 22.112 201.801 21.9907 201.531 21.748C201.269 21.496 201.139 21.188 201.139 20.824C201.139 20.4507 201.269 20.138 201.531 19.886C201.801 19.634 202.147 19.508 202.567 19.508C202.977 19.508 203.313 19.634 203.575 19.886C203.845 20.138 203.981 20.4507 203.981 20.824C203.981 21.188 203.845 21.496 203.575 21.748C203.313 21.9907 202.977 22.112 202.567 22.112ZM217.492 22.098C216.587 22.098 215.761 21.888 215.014 21.468C214.268 21.0387 213.675 20.446 213.236 19.69C212.807 18.9247 212.592 18.066 212.592 17.114C212.592 16.162 212.807 15.308 213.236 14.552C213.675 13.7867 214.268 13.194 215.014 12.774C215.761 12.3447 216.587 12.13 217.492 12.13C218.407 12.13 219.238 12.3447 219.984 12.774C220.731 13.194 221.319 13.782 221.748 14.538C222.178 15.294 222.392 16.1527 222.392 17.114C222.392 18.0753 222.178 18.934 221.748 19.69C221.319 20.446 220.731 21.0387 219.984 21.468C219.238 21.888 218.407 22.098 217.492 22.098ZM217.492 20.992C218.174 20.992 218.785 20.8333 219.326 20.516C219.877 20.1987 220.306 19.746 220.614 19.158C220.932 18.57 221.09 17.8887 221.09 17.114C221.09 16.33 220.932 15.6487 220.614 15.07C220.306 14.482 219.882 14.0293 219.34 13.712C218.799 13.3947 218.183 13.236 217.492 13.236C216.802 13.236 216.186 13.3947 215.644 13.712C215.103 14.0293 214.674 14.482 214.356 15.07C214.048 15.6487 213.894 16.33 213.894 17.114C213.894 17.8887 214.048 18.57 214.356 19.158C214.674 19.746 215.103 20.1987 215.644 20.516C216.195 20.8333 216.811 20.992 217.492 20.992ZM227.331 18.136C227.331 17.352 227.489 16.666 227.807 16.078C228.124 15.4807 228.558 15.0187 229.109 14.692C229.669 14.3653 230.294 14.202 230.985 14.202C231.647 14.202 232.226 14.3513 232.721 14.65C233.225 14.9393 233.593 15.2987 233.827 15.728V14.328H235.115V25.64H233.827V20.586C233.584 21.0153 233.211 21.3793 232.707 21.678C232.203 21.9767 231.615 22.126 230.943 22.126C230.271 22.126 229.659 21.958 229.109 21.622C228.558 21.286 228.124 20.8147 227.807 20.208C227.489 19.6013 227.331 18.9107 227.331 18.136ZM233.827 18.15C233.827 17.5713 233.71 17.0673 233.477 16.638C233.243 16.2087 232.926 15.882 232.525 15.658C232.133 15.4247 231.699 15.308 231.223 15.308C230.747 15.308 230.313 15.42 229.921 15.644C229.529 15.868 229.216 16.1947 228.983 16.624C228.749 17.0533 228.633 17.5573 228.633 18.136C228.633 18.724 228.749 19.2373 228.983 19.676C229.216 20.1053 229.529 20.4367 229.921 20.67C230.313 20.894 230.747 21.006 231.223 21.006C231.699 21.006 232.133 20.894 232.525 20.67C232.926 20.4367 233.243 20.1053 233.477 19.676C233.71 19.2373 233.827 18.7287 233.827 18.15ZM244.071 14.328V22H242.797V20.866C242.555 21.258 242.214 21.566 241.775 21.79C241.346 22.0047 240.87 22.112 240.347 22.112C239.75 22.112 239.213 21.9907 238.737 21.748C238.261 21.496 237.883 21.1227 237.603 20.628C237.333 20.1333 237.197 19.5313 237.197 18.822V14.328H238.457V18.654C238.457 19.41 238.649 19.9933 239.031 20.404C239.414 20.8053 239.937 21.006 240.599 21.006C241.281 21.006 241.817 20.796 242.209 20.376C242.601 19.956 242.797 19.3447 242.797 18.542V14.328H244.071ZM253.223 17.87C253.223 18.1127 253.209 18.3693 253.181 18.64H247.049C247.095 19.396 247.352 19.9887 247.819 20.418C248.295 20.838 248.869 21.048 249.541 21.048C250.091 21.048 250.549 20.922 250.913 20.67C251.286 20.4087 251.547 20.0633 251.697 19.634H253.069C252.863 20.3713 252.453 20.9733 251.837 21.44C251.221 21.8973 250.455 22.126 249.541 22.126C248.813 22.126 248.159 21.9627 247.581 21.636C247.011 21.3093 246.563 20.8473 246.237 20.25C245.91 19.6433 245.747 18.9433 245.747 18.15C245.747 17.3567 245.905 16.6613 246.223 16.064C246.54 15.4667 246.983 15.0093 247.553 14.692C248.131 14.3653 248.794 14.202 249.541 14.202C250.269 14.202 250.913 14.3607 251.473 14.678C252.033 14.9953 252.462 15.434 252.761 15.994C253.069 16.5447 253.223 17.17 253.223 17.87ZM251.907 17.604C251.907 17.1187 251.799 16.7033 251.585 16.358C251.37 16.0033 251.076 15.7373 250.703 15.56C250.339 15.3733 249.933 15.28 249.485 15.28C248.841 15.28 248.29 15.4853 247.833 15.896C247.385 16.3067 247.128 16.876 247.063 17.604H251.907ZM261.983 22.126C261.264 22.126 260.611 21.9627 260.023 21.636C259.444 21.3093 258.987 20.8473 258.651 20.25C258.324 19.6433 258.161 18.9433 258.161 18.15C258.161 17.366 258.329 16.6753 258.665 16.078C259.01 15.4713 259.477 15.0093 260.065 14.692C260.653 14.3653 261.311 14.202 262.039 14.202C262.767 14.202 263.425 14.3653 264.013 14.692C264.601 15.0093 265.063 15.4667 265.399 16.064C265.744 16.6613 265.917 17.3567 265.917 18.15C265.917 18.9433 265.739 19.6433 265.385 20.25C265.039 20.8473 264.568 21.3093 263.971 21.636C263.373 21.9627 262.711 22.126 261.983 22.126ZM261.983 21.006C262.44 21.006 262.869 20.8987 263.271 20.684C263.672 20.4693 263.994 20.1473 264.237 19.718C264.489 19.2887 264.615 18.766 264.615 18.15C264.615 17.534 264.493 17.0113 264.251 16.582C264.008 16.1527 263.691 15.8353 263.299 15.63C262.907 15.4153 262.482 15.308 262.025 15.308C261.558 15.308 261.129 15.4153 260.737 15.63C260.354 15.8353 260.046 16.1527 259.813 16.582C259.579 17.0113 259.463 17.534 259.463 18.15C259.463 18.7753 259.575 19.3027 259.799 19.732C260.032 20.1613 260.34 20.4833 260.723 20.698C261.105 20.9033 261.525 21.006 261.983 21.006ZM270.848 18.15C270.848 17.3567 271.007 16.666 271.324 16.078C271.641 15.4807 272.08 15.0187 272.64 14.692C273.209 14.3653 273.858 14.202 274.586 14.202C275.529 14.202 276.303 14.4307 276.91 14.888C277.526 15.3453 277.932 15.98 278.128 16.792H276.756C276.625 16.3253 276.369 15.9567 275.986 15.686C275.613 15.4153 275.146 15.28 274.586 15.28C273.858 15.28 273.27 15.532 272.822 16.036C272.374 16.5307 272.15 17.2353 272.15 18.15C272.15 19.074 272.374 19.788 272.822 20.292C273.27 20.796 273.858 21.048 274.586 21.048C275.146 21.048 275.613 20.9173 275.986 20.656C276.359 20.3947 276.616 20.0213 276.756 19.536H278.128C277.923 20.32 277.512 20.95 276.896 21.426C276.28 21.8927 275.51 22.126 274.586 22.126C273.858 22.126 273.209 21.9627 272.64 21.636C272.08 21.3093 271.641 20.8473 271.324 20.25C271.007 19.6527 270.848 18.9527 270.848 18.15ZM286.828 17.87C286.828 18.1127 286.814 18.3693 286.786 18.64H280.654C280.701 19.396 280.957 19.9887 281.424 20.418C281.9 20.838 282.474 21.048 283.146 21.048C283.697 21.048 284.154 20.922 284.518 20.67C284.891 20.4087 285.153 20.0633 285.302 19.634H286.674C286.469 20.3713 286.058 20.9733 285.442 21.44C284.826 21.8973 284.061 22.126 283.146 22.126C282.418 22.126 281.765 21.9627 281.186 21.636C280.617 21.3093 280.169 20.8473 279.842 20.25C279.515 19.6433 279.352 18.9433 279.352 18.15C279.352 17.3567 279.511 16.6613 279.828 16.064C280.145 15.4667 280.589 15.0093 281.158 14.692C281.737 14.3653 282.399 14.202 283.146 14.202C283.874 14.202 284.518 14.3607 285.078 14.678C285.638 14.9953 286.067 15.434 286.366 15.994C286.674 16.5447 286.828 17.17 286.828 17.87ZM285.512 17.604C285.512 17.1187 285.405 16.7033 285.19 16.358C284.975 16.0033 284.681 15.7373 284.308 15.56C283.944 15.3733 283.538 15.28 283.09 15.28C282.446 15.28 281.895 15.4853 281.438 15.896C280.99 16.3067 280.733 16.876 280.668 17.604H285.512ZM292.248 14.188C293.181 14.188 293.937 14.4727 294.516 15.042C295.094 15.602 295.384 16.414 295.384 17.478V22H294.124V17.66C294.124 16.8947 293.932 16.3113 293.55 15.91C293.167 15.4993 292.644 15.294 291.982 15.294C291.31 15.294 290.773 15.504 290.372 15.924C289.98 16.344 289.784 16.9553 289.784 17.758V22H288.51V14.328H289.784V15.42C290.036 15.028 290.376 14.7247 290.806 14.51C291.244 14.2953 291.725 14.188 292.248 14.188ZM296.989 18.136C296.989 17.352 297.147 16.666 297.465 16.078C297.782 15.4807 298.216 15.0187 298.767 14.692C299.327 14.3653 299.947 14.202 300.629 14.202C301.301 14.202 301.884 14.3467 302.379 14.636C302.873 14.9253 303.242 15.2893 303.485 15.728V14.328H304.773V22H303.485V20.572C303.233 21.02 302.855 21.3933 302.351 21.692C301.856 21.9813 301.277 22.126 300.615 22.126C299.933 22.126 299.317 21.958 298.767 21.622C298.216 21.286 297.782 20.8147 297.465 20.208C297.147 19.6013 296.989 18.9107 296.989 18.136ZM303.485 18.15C303.485 17.5713 303.368 17.0673 303.135 16.638C302.901 16.2087 302.584 15.882 302.183 15.658C301.791 15.4247 301.357 15.308 300.881 15.308C300.405 15.308 299.971 15.42 299.579 15.644C299.187 15.868 298.874 16.1947 298.641 16.624C298.407 17.0533 298.291 17.5573 298.291 18.136C298.291 18.724 298.407 19.2373 298.641 19.676C298.874 20.1053 299.187 20.4367 299.579 20.67C299.971 20.894 300.405 21.006 300.881 21.006C301.357 21.006 301.791 20.894 302.183 20.67C302.584 20.4367 302.901 20.1053 303.135 19.676C303.368 19.2373 303.485 18.7287 303.485 18.15ZM302.491 12.158L299.509 13.754V12.802L302.491 11.052V12.158ZM308.2 15.574C308.424 15.1353 308.741 14.7947 309.152 14.552C309.572 14.3093 310.08 14.188 310.678 14.188V15.504H310.342C308.914 15.504 308.2 16.2787 308.2 17.828V22H306.926V14.328H308.2V15.574ZM312.806 13.082C312.564 13.082 312.358 12.998 312.19 12.83C312.022 12.662 311.938 12.4567 311.938 12.214C311.938 11.9713 312.022 11.766 312.19 11.598C312.358 11.43 312.564 11.346 312.806 11.346C313.04 11.346 313.236 11.43 313.394 11.598C313.562 11.766 313.646 11.9713 313.646 12.214C313.646 12.4567 313.562 12.662 313.394 12.83C313.236 12.998 313.04 13.082 312.806 13.082ZM313.422 14.328V22H312.148V14.328H313.422ZM318.94 22.126C318.221 22.126 317.568 21.9627 316.98 21.636C316.401 21.3093 315.944 20.8473 315.608 20.25C315.281 19.6433 315.118 18.9433 315.118 18.15C315.118 17.366 315.286 16.6753 315.622 16.078C315.967 15.4713 316.434 15.0093 317.022 14.692C317.61 14.3653 318.268 14.202 318.996 14.202C319.724 14.202 320.382 14.3653 320.97 14.692C321.558 15.0093 322.02 15.4667 322.356 16.064C322.701 16.6613 322.874 17.3567 322.874 18.15C322.874 18.9433 322.696 19.6433 322.342 20.25C321.996 20.8473 321.525 21.3093 320.928 21.636C320.33 21.9627 319.668 22.126 318.94 22.126ZM318.94 21.006C319.397 21.006 319.826 20.8987 320.228 20.684C320.629 20.4693 320.951 20.1473 321.194 19.718C321.446 19.2887 321.572 18.766 321.572 18.15C321.572 17.534 321.45 17.0113 321.208 16.582C320.965 16.1527 320.648 15.8353 320.256 15.63C319.864 15.4153 319.439 15.308 318.982 15.308C318.515 15.308 318.086 15.4153 317.694 15.63C317.311 15.8353 317.003 16.1527 316.77 16.582C316.536 17.0113 316.42 17.534 316.42 18.15C316.42 18.7753 316.532 19.3027 316.756 19.732C316.989 20.1613 317.297 20.4833 317.68 20.698C318.062 20.9033 318.482 21.006 318.94 21.006ZM335.281 17.87C335.281 18.1127 335.267 18.3693 335.239 18.64H329.107C329.154 19.396 329.41 19.9887 329.877 20.418C330.353 20.838 330.927 21.048 331.599 21.048C332.15 21.048 332.607 20.922 332.971 20.67C333.344 20.4087 333.606 20.0633 333.755 19.634H335.127C334.922 20.3713 334.511 20.9733 333.895 21.44C333.279 21.8973 332.514 22.126 331.599 22.126C330.871 22.126 330.218 21.9627 329.639 21.636C329.07 21.3093 328.622 20.8473 328.295 20.25C327.968 19.6433 327.805 18.9433 327.805 18.15C327.805 17.3567 327.964 16.6613 328.281 16.064C328.598 15.4667 329.042 15.0093 329.611 14.692C330.19 14.3653 330.852 14.202 331.599 14.202C332.327 14.202 332.971 14.3607 333.531 14.678C334.091 14.9953 334.52 15.434 334.819 15.994C335.127 16.5447 335.281 17.17 335.281 17.87ZM333.965 17.604C333.965 17.1187 333.858 16.7033 333.643 16.358C333.428 16.0033 333.134 15.7373 332.761 15.56C332.397 15.3733 331.991 15.28 331.543 15.28C330.899 15.28 330.348 15.4853 329.891 15.896C329.443 16.3067 329.186 16.876 329.121 17.604H333.965ZM336.487 18.15C336.487 17.3567 336.645 16.666 336.963 16.078C337.28 15.4807 337.719 15.0187 338.279 14.692C338.848 14.3653 339.497 14.202 340.225 14.202C341.167 14.202 341.942 14.4307 342.549 14.888C343.165 15.3453 343.571 15.98 343.767 16.792H342.395C342.264 16.3253 342.007 15.9567 341.625 15.686C341.251 15.4153 340.785 15.28 340.225 15.28C339.497 15.28 338.909 15.532 338.461 16.036C338.013 16.5307 337.789 17.2353 337.789 18.15C337.789 19.074 338.013 19.788 338.461 20.292C338.909 20.796 339.497 21.048 340.225 21.048C340.785 21.048 341.251 20.9173 341.625 20.656C341.998 20.3947 342.255 20.0213 342.395 19.536H343.767C343.561 20.32 343.151 20.95 342.535 21.426C341.919 21.8927 341.149 22.126 340.225 22.126C339.497 22.126 338.848 21.9627 338.279 21.636C337.719 21.3093 337.28 20.8473 336.963 20.25C336.645 19.6527 336.487 18.9527 336.487 18.15ZM348.813 22.126C348.094 22.126 347.441 21.9627 346.853 21.636C346.274 21.3093 345.817 20.8473 345.481 20.25C345.154 19.6433 344.991 18.9433 344.991 18.15C344.991 17.366 345.159 16.6753 345.495 16.078C345.84 15.4713 346.307 15.0093 346.895 14.692C347.483 14.3653 348.141 14.202 348.869 14.202C349.597 14.202 350.255 14.3653 350.843 14.692C351.431 15.0093 351.893 15.4667 352.229 16.064C352.574 16.6613 352.747 17.3567 352.747 18.15C352.747 18.9433 352.569 19.6433 352.215 20.25C351.869 20.8473 351.398 21.3093 350.801 21.636C350.203 21.9627 349.541 22.126 348.813 22.126ZM348.813 21.006C349.27 21.006 349.699 20.8987 350.101 20.684C350.502 20.4693 350.824 20.1473 351.067 19.718C351.319 19.2887 351.445 18.766 351.445 18.15C351.445 17.534 351.323 17.0113 351.081 16.582C350.838 16.1527 350.521 15.8353 350.129 15.63C349.737 15.4153 349.312 15.308 348.855 15.308C348.388 15.308 347.959 15.4153 347.567 15.63C347.184 15.8353 346.876 16.1527 346.643 16.582C346.409 17.0113 346.293 17.534 346.293 18.15C346.293 18.7753 346.405 19.3027 346.629 19.732C346.862 20.1613 347.17 20.4833 347.553 20.698C347.935 20.9033 348.355 21.006 348.813 21.006ZM358.16 14.188C359.093 14.188 359.849 14.4727 360.428 15.042C361.006 15.602 361.296 16.414 361.296 17.478V22H360.036V17.66C360.036 16.8947 359.844 16.3113 359.462 15.91C359.079 15.4993 358.556 15.294 357.894 15.294C357.222 15.294 356.685 15.504 356.284 15.924C355.892 16.344 355.696 16.9553 355.696 17.758V22H354.422V14.328H355.696V15.42C355.948 15.028 356.288 14.7247 356.718 14.51C357.156 14.2953 357.637 14.188 358.16 14.188ZM366.723 22.126C366.004 22.126 365.351 21.9627 364.763 21.636C364.184 21.3093 363.727 20.8473 363.391 20.25C363.064 19.6433 362.901 18.9433 362.901 18.15C362.901 17.366 363.069 16.6753 363.405 16.078C363.75 15.4713 364.217 15.0093 364.805 14.692C365.393 14.3653 366.051 14.202 366.779 14.202C367.507 14.202 368.165 14.3653 368.753 14.692C369.341 15.0093 369.803 15.4667 370.139 16.064C370.484 16.6613 370.657 17.3567 370.657 18.15C370.657 18.9433 370.479 19.6433 370.125 20.25C369.779 20.8473 369.308 21.3093 368.711 21.636C368.113 21.9627 367.451 22.126 366.723 22.126ZM366.723 21.006C367.18 21.006 367.609 20.8987 368.011 20.684C368.412 20.4693 368.734 20.1473 368.977 19.718C369.229 19.2887 369.355 18.766 369.355 18.15C369.355 17.534 369.233 17.0113 368.991 16.582C368.748 16.1527 368.431 15.8353 368.039 15.63C367.647 15.4153 367.222 15.308 366.765 15.308C366.298 15.308 365.869 15.4153 365.477 15.63C365.094 15.8353 364.786 16.1527 364.553 16.582C364.319 17.0113 364.203 17.534 364.203 18.15C364.203 18.7753 364.315 19.3027 364.539 19.732C364.772 20.1613 365.08 20.4833 365.463 20.698C365.845 20.9033 366.265 21.006 366.723 21.006ZM366.793 12.354L364.847 13.544V12.536L366.793 11.374L368.725 12.536V13.544L366.793 12.354ZM381.558 14.188C382.155 14.188 382.687 14.314 383.154 14.566C383.621 14.8087 383.989 15.1773 384.26 15.672C384.531 16.1667 384.666 16.7687 384.666 17.478V22H383.406V17.66C383.406 16.8947 383.215 16.3113 382.832 15.91C382.459 15.4993 381.95 15.294 381.306 15.294C380.643 15.294 380.116 15.5087 379.724 15.938C379.332 16.358 379.136 16.9693 379.136 17.772V22H377.876V17.66C377.876 16.8947 377.685 16.3113 377.302 15.91C376.929 15.4993 376.42 15.294 375.776 15.294C375.113 15.294 374.586 15.5087 374.194 15.938C373.802 16.358 373.606 16.9693 373.606 17.772V22H372.332V14.328H373.606V15.434C373.858 15.0327 374.194 14.7247 374.614 14.51C375.043 14.2953 375.515 14.188 376.028 14.188C376.672 14.188 377.241 14.3327 377.736 14.622C378.231 14.9113 378.599 15.336 378.842 15.896C379.057 15.3547 379.411 14.9347 379.906 14.636C380.401 14.3373 380.951 14.188 381.558 14.188ZM387.414 13.082C387.171 13.082 386.966 12.998 386.798 12.83C386.63 12.662 386.546 12.4567 386.546 12.214C386.546 11.9713 386.63 11.766 386.798 11.598C386.966 11.43 387.171 11.346 387.414 11.346C387.647 11.346 387.843 11.43 388.002 11.598C388.17 11.766 388.254 11.9713 388.254 12.214C388.254 12.4567 388.17 12.662 388.002 12.83C387.843 12.998 387.647 13.082 387.414 13.082ZM388.03 14.328V22H386.756V14.328H388.03ZM389.725 18.15C389.725 17.3567 389.884 16.666 390.201 16.078C390.518 15.4807 390.957 15.0187 391.517 14.692C392.086 14.3653 392.735 14.202 393.463 14.202C394.406 14.202 395.18 14.4307 395.787 14.888C396.403 15.3453 396.809 15.98 397.005 16.792H395.633C395.502 16.3253 395.246 15.9567 394.863 15.686C394.49 15.4153 394.023 15.28 393.463 15.28C392.735 15.28 392.147 15.532 391.699 16.036C391.251 16.5307 391.027 17.2353 391.027 18.15C391.027 19.074 391.251 19.788 391.699 20.292C392.147 20.796 392.735 21.048 393.463 21.048C394.023 21.048 394.49 20.9173 394.863 20.656C395.236 20.3947 395.493 20.0213 395.633 19.536H397.005C396.8 20.32 396.389 20.95 395.773 21.426C395.157 21.8927 394.387 22.126 393.463 22.126C392.735 22.126 392.086 21.9627 391.517 21.636C390.957 21.3093 390.518 20.8473 390.201 20.25C389.884 19.6527 389.725 18.9527 389.725 18.15ZM402.051 22.126C401.332 22.126 400.679 21.9627 400.091 21.636C399.512 21.3093 399.055 20.8473 398.719 20.25C398.392 19.6433 398.229 18.9433 398.229 18.15C398.229 17.366 398.397 16.6753 398.733 16.078C399.078 15.4713 399.545 15.0093 400.133 14.692C400.721 14.3653 401.379 14.202 402.107 14.202C402.835 14.202 403.493 14.3653 404.081 14.692C404.669 15.0093 405.131 15.4667 405.467 16.064C405.812 16.6613 405.985 17.3567 405.985 18.15C405.985 18.9433 405.808 19.6433 405.453 20.25C405.108 20.8473 404.636 21.3093 404.039 21.636C403.442 21.9627 402.779 22.126 402.051 22.126ZM402.051 21.006C402.508 21.006 402.938 20.8987 403.339 20.684C403.74 20.4693 404.062 20.1473 404.305 19.718C404.557 19.2887 404.683 18.766 404.683 18.15C404.683 17.534 404.562 17.0113 404.319 16.582C404.076 16.1527 403.759 15.8353 403.367 15.63C402.975 15.4153 402.55 15.308 402.093 15.308C401.626 15.308 401.197 15.4153 400.805 15.63C400.422 15.8353 400.114 16.1527 399.881 16.582C399.648 17.0113 399.531 17.534 399.531 18.15C399.531 18.7753 399.643 19.3027 399.867 19.732C400.1 20.1613 400.408 20.4833 400.791 20.698C401.174 20.9033 401.594 21.006 402.051 21.006ZM412.946 15.378V19.9C412.946 20.2733 413.026 20.5393 413.184 20.698C413.343 20.8473 413.618 20.922 414.01 20.922H414.948V22H413.8C413.091 22 412.559 21.8367 412.204 21.51C411.85 21.1833 411.672 20.6467 411.672 19.9V15.378H410.678V14.328H411.672V12.396H412.946V14.328H414.948V15.378H412.946ZM423.492 17.87C423.492 18.1127 423.478 18.3693 423.45 18.64H417.318C417.365 19.396 417.621 19.9887 418.088 20.418C418.564 20.838 419.138 21.048 419.81 21.048C420.361 21.048 420.818 20.922 421.182 20.67C421.555 20.4087 421.817 20.0633 421.966 19.634H423.338C423.133 20.3713 422.722 20.9733 422.106 21.44C421.49 21.8973 420.725 22.126 419.81 22.126C419.082 22.126 418.429 21.9627 417.85 21.636C417.281 21.3093 416.833 20.8473 416.506 20.25C416.179 19.6433 416.016 18.9433 416.016 18.15C416.016 17.3567 416.175 16.6613 416.492 16.064C416.809 15.4667 417.253 15.0093 417.822 14.692C418.401 14.3653 419.063 14.202 419.81 14.202C420.538 14.202 421.182 14.3607 421.742 14.678C422.302 14.9953 422.731 15.434 423.03 15.994C423.338 16.5447 423.492 17.17 423.492 17.87ZM422.176 17.604C422.176 17.1187 422.069 16.7033 421.854 16.358C421.639 16.0033 421.345 15.7373 420.972 15.56C420.608 15.3733 420.202 15.28 419.754 15.28C419.11 15.28 418.559 15.4853 418.102 15.896C417.654 16.3067 417.397 16.876 417.332 17.604H422.176ZM434.4 14.188C434.997 14.188 435.529 14.314 435.996 14.566C436.462 14.8087 436.831 15.1773 437.102 15.672C437.372 16.1667 437.508 16.7687 437.508 17.478V22H436.248V17.66C436.248 16.8947 436.056 16.3113 435.674 15.91C435.3 15.4993 434.792 15.294 434.148 15.294C433.485 15.294 432.958 15.5087 432.566 15.938C432.174 16.358 431.978 16.9693 431.978 17.772V22H430.718V17.66C430.718 16.8947 430.526 16.3113 430.144 15.91C429.77 15.4993 429.262 15.294 428.618 15.294C427.955 15.294 427.428 15.5087 427.036 15.938C426.644 16.358 426.448 16.9693 426.448 17.772V22H425.174V14.328H426.448V15.434C426.7 15.0327 427.036 14.7247 427.456 14.51C427.885 14.2953 428.356 14.188 428.87 14.188C429.514 14.188 430.083 14.3327 430.578 14.622C431.072 14.9113 431.441 15.336 431.684 15.896C431.898 15.3547 432.253 14.9347 432.748 14.636C433.242 14.3373 433.793 14.188 434.4 14.188ZM442.854 18.136C442.854 17.352 443.013 16.666 443.33 16.078C443.647 15.4807 444.081 15.0187 444.632 14.692C445.192 14.3653 445.813 14.202 446.494 14.202C447.166 14.202 447.749 14.3467 448.244 14.636C448.739 14.9253 449.107 15.2893 449.35 15.728V14.328H450.638V22H449.35V20.572C449.098 21.02 448.72 21.3933 448.216 21.692C447.721 21.9813 447.143 22.126 446.48 22.126C445.799 22.126 445.183 21.958 444.632 21.622C444.081 21.286 443.647 20.8147 443.33 20.208C443.013 19.6013 442.854 18.9107 442.854 18.136ZM449.35 18.15C449.35 17.5713 449.233 17.0673 449 16.638C448.767 16.2087 448.449 15.882 448.048 15.658C447.656 15.4247 447.222 15.308 446.746 15.308C446.27 15.308 445.836 15.42 445.444 15.644C445.052 15.868 444.739 16.1947 444.506 16.624C444.273 17.0533 444.156 17.5573 444.156 18.136C444.156 18.724 444.273 19.2373 444.506 19.676C444.739 20.1053 445.052 20.4367 445.444 20.67C445.836 20.894 446.27 21.006 446.746 21.006C447.222 21.006 447.656 20.894 448.048 20.67C448.449 20.4367 448.767 20.1053 449 19.676C449.233 19.2373 449.35 18.7287 449.35 18.15ZM456.047 18.136C456.047 17.352 456.206 16.666 456.523 16.078C456.841 15.4807 457.275 15.0187 457.825 14.692C458.385 14.3653 459.011 14.202 459.701 14.202C460.299 14.202 460.854 14.342 461.367 14.622C461.881 14.8927 462.273 15.252 462.543 15.7V11.64H463.831V22H462.543V20.558C462.291 21.0153 461.918 21.3933 461.423 21.692C460.929 21.9813 460.35 22.126 459.687 22.126C459.006 22.126 458.385 21.958 457.825 21.622C457.275 21.286 456.841 20.8147 456.523 20.208C456.206 19.6013 456.047 18.9107 456.047 18.136ZM462.543 18.15C462.543 17.5713 462.427 17.0673 462.193 16.638C461.96 16.2087 461.643 15.882 461.241 15.658C460.849 15.4247 460.415 15.308 459.939 15.308C459.463 15.308 459.029 15.42 458.637 15.644C458.245 15.868 457.933 16.1947 457.699 16.624C457.466 17.0533 457.349 17.5573 457.349 18.136C457.349 18.724 457.466 19.2373 457.699 19.676C457.933 20.1053 458.245 20.4367 458.637 20.67C459.029 20.894 459.463 21.006 459.939 21.006C460.415 21.006 460.849 20.894 461.241 20.67C461.643 20.4367 461.96 20.1053 462.193 19.676C462.427 19.2373 462.543 18.7287 462.543 18.15ZM466.642 13.082C466.4 13.082 466.194 12.998 466.026 12.83C465.858 12.662 465.774 12.4567 465.774 12.214C465.774 11.9713 465.858 11.766 466.026 11.598C466.194 11.43 466.4 11.346 466.642 11.346C466.876 11.346 467.072 11.43 467.23 11.598C467.398 11.766 467.482 11.9713 467.482 12.214C467.482 12.4567 467.398 12.662 467.23 12.83C467.072 12.998 466.876 13.082 466.642 13.082ZM467.258 14.328V22H465.984V14.328H467.258ZM470.382 20.95H474.148V22H468.926V20.95L472.65 15.364H468.954V14.328H474.12V15.364L470.382 20.95ZM482.801 17.87C482.801 18.1127 482.787 18.3693 482.759 18.64H476.627C476.673 19.396 476.93 19.9887 477.397 20.418C477.873 20.838 478.447 21.048 479.119 21.048C479.669 21.048 480.127 20.922 480.491 20.67C480.864 20.4087 481.125 20.0633 481.275 19.634H482.647C482.441 20.3713 482.031 20.9733 481.415 21.44C480.799 21.8973 480.033 22.126 479.119 22.126C478.391 22.126 477.737 21.9627 477.159 21.636C476.589 21.3093 476.141 20.8473 475.815 20.25C475.488 19.6433 475.325 18.9433 475.325 18.15C475.325 17.3567 475.483 16.6613 475.801 16.064C476.118 15.4667 476.561 15.0093 477.131 14.692C477.709 14.3653 478.372 14.202 479.119 14.202C479.847 14.202 480.491 14.3607 481.051 14.678C481.611 14.9953 482.04 15.434 482.339 15.994C482.647 16.5447 482.801 17.17 482.801 17.87ZM481.485 17.604C481.485 17.1187 481.377 16.7033 481.163 16.358C480.948 16.0033 480.654 15.7373 480.281 15.56C479.917 15.3733 479.511 15.28 479.063 15.28C478.419 15.28 477.868 15.4853 477.411 15.896C476.963 16.3067 476.706 16.876 476.641 17.604H481.485ZM485.756 15.574C485.98 15.1353 486.298 14.7947 486.708 14.552C487.128 14.3093 487.637 14.188 488.234 14.188V15.504H487.898C486.47 15.504 485.756 16.2787 485.756 17.828V22H484.482V14.328H485.756V15.574ZM494.711 15.742C494.963 15.3033 495.337 14.9393 495.831 14.65C496.335 14.3513 496.919 14.202 497.581 14.202C498.263 14.202 498.879 14.3653 499.429 14.692C499.989 15.0187 500.428 15.4807 500.745 16.078C501.063 16.666 501.221 17.352 501.221 18.136C501.221 18.9107 501.063 19.6013 500.745 20.208C500.428 20.8147 499.989 21.286 499.429 21.622C498.879 21.958 498.263 22.126 497.581 22.126C496.928 22.126 496.349 21.9813 495.845 21.692C495.351 21.3933 494.973 21.0247 494.711 20.586V25.64H493.437V14.328H494.711V15.742ZM499.919 18.136C499.919 17.5573 499.803 17.0533 499.569 16.624C499.336 16.1947 499.019 15.868 498.617 15.644C498.225 15.42 497.791 15.308 497.315 15.308C496.849 15.308 496.415 15.4247 496.013 15.658C495.621 15.882 495.304 16.2133 495.061 16.652C494.828 17.0813 494.711 17.5807 494.711 18.15C494.711 18.7287 494.828 19.2373 495.061 19.676C495.304 20.1053 495.621 20.4367 496.013 20.67C496.415 20.894 496.849 21.006 497.315 21.006C497.791 21.006 498.225 20.894 498.617 20.67C499.019 20.4367 499.336 20.1053 499.569 19.676C499.803 19.2373 499.919 18.724 499.919 18.136ZM502.422 18.136C502.422 17.352 502.581 16.666 502.898 16.078C503.216 15.4807 503.65 15.0187 504.2 14.692C504.76 14.3653 505.381 14.202 506.062 14.202C506.734 14.202 507.318 14.3467 507.812 14.636C508.307 14.9253 508.676 15.2893 508.918 15.728V14.328H510.206V22H508.918V20.572C508.666 21.02 508.288 21.3933 507.784 21.692C507.29 21.9813 506.711 22.126 506.048 22.126C505.367 22.126 504.751 21.958 504.2 21.622C503.65 21.286 503.216 20.8147 502.898 20.208C502.581 19.6013 502.422 18.9107 502.422 18.136ZM508.918 18.15C508.918 17.5713 508.802 17.0673 508.568 16.638C508.335 16.2087 508.018 15.882 507.616 15.658C507.224 15.4247 506.79 15.308 506.314 15.308C505.838 15.308 505.404 15.42 505.012 15.644C504.62 15.868 504.308 16.1947 504.074 16.624C503.841 17.0533 503.724 17.5573 503.724 18.136C503.724 18.724 503.841 19.2373 504.074 19.676C504.308 20.1053 504.62 20.4367 505.012 20.67C505.404 20.894 505.838 21.006 506.314 21.006C506.79 21.006 507.224 20.894 507.616 20.67C508.018 20.4367 508.335 20.1053 508.568 19.676C508.802 19.2373 508.918 18.7287 508.918 18.15ZM513.633 15.574C513.857 15.1353 514.175 14.7947 514.585 14.552C515.005 14.3093 515.514 14.188 516.111 14.188V15.504H515.775C514.347 15.504 513.633 16.2787 513.633 17.828V22H512.359V14.328H513.633V15.574ZM517.106 18.136C517.106 17.352 517.265 16.666 517.582 16.078C517.899 15.4807 518.333 15.0187 518.884 14.692C519.444 14.3653 520.065 14.202 520.746 14.202C521.418 14.202 522.001 14.3467 522.496 14.636C522.991 14.9253 523.359 15.2893 523.602 15.728V14.328H524.89V22H523.602V20.572C523.35 21.02 522.972 21.3933 522.468 21.692C521.973 21.9813 521.395 22.126 520.732 22.126C520.051 22.126 519.435 21.958 518.884 21.622C518.333 21.286 517.899 20.8147 517.582 20.208C517.265 19.6013 517.106 18.9107 517.106 18.136ZM523.602 18.15C523.602 17.5713 523.485 17.0673 523.252 16.638C523.019 16.2087 522.701 15.882 522.3 15.658C521.908 15.4247 521.474 15.308 520.998 15.308C520.522 15.308 520.088 15.42 519.696 15.644C519.304 15.868 518.991 16.1947 518.758 16.624C518.525 17.0533 518.408 17.5573 518.408 18.136C518.408 18.724 518.525 19.2373 518.758 19.676C518.991 20.1053 519.304 20.4367 519.696 20.67C520.088 20.894 520.522 21.006 520.998 21.006C521.474 21.006 521.908 20.894 522.3 20.67C522.701 20.4367 523.019 20.1053 523.252 19.676C523.485 19.2373 523.602 18.7287 523.602 18.15ZM534.121 22.126C533.403 22.126 532.749 21.9627 532.161 21.636C531.583 21.3093 531.125 20.8473 530.789 20.25C530.463 19.6433 530.299 18.9433 530.299 18.15C530.299 17.366 530.467 16.6753 530.803 16.078C531.149 15.4713 531.615 15.0093 532.203 14.692C532.791 14.3653 533.449 14.202 534.177 14.202C534.905 14.202 535.563 14.3653 536.151 14.692C536.739 15.0093 537.201 15.4667 537.537 16.064C537.883 16.6613 538.055 17.3567 538.055 18.15C538.055 18.9433 537.878 19.6433 537.523 20.25C537.178 20.8473 536.707 21.3093 536.109 21.636C535.512 21.9627 534.849 22.126 534.121 22.126ZM534.121 21.006C534.579 21.006 535.008 20.8987 535.409 20.684C535.811 20.4693 536.133 20.1473 536.375 19.718C536.627 19.2887 536.753 18.766 536.753 18.15C536.753 17.534 536.632 17.0113 536.389 16.582C536.147 16.1527 535.829 15.8353 535.437 15.63C535.045 15.4153 534.621 15.308 534.163 15.308C533.697 15.308 533.267 15.4153 532.875 15.63C532.493 15.8353 532.185 16.1527 531.951 16.582C531.718 17.0113 531.601 17.534 531.601 18.15C531.601 18.7753 531.713 19.3027 531.937 19.732C532.171 20.1613 532.479 20.4833 532.861 20.698C533.244 20.9033 533.664 21.006 534.121 21.006ZM550.463 17.87C550.463 18.1127 550.449 18.3693 550.421 18.64H544.289C544.335 19.396 544.592 19.9887 545.059 20.418C545.535 20.838 546.109 21.048 546.781 21.048C547.331 21.048 547.789 20.922 548.153 20.67C548.526 20.4087 548.787 20.0633 548.937 19.634H550.309C550.103 20.3713 549.693 20.9733 549.077 21.44C548.461 21.8973 547.695 22.126 546.781 22.126C546.053 22.126 545.399 21.9627 544.821 21.636C544.251 21.3093 543.803 20.8473 543.477 20.25C543.15 19.6433 542.987 18.9433 542.987 18.15C542.987 17.3567 543.145 16.6613 543.463 16.064C543.78 15.4667 544.223 15.0093 544.793 14.692C545.371 14.3653 546.034 14.202 546.781 14.202C547.509 14.202 548.153 14.3607 548.713 14.678C549.273 14.9953 549.702 15.434 550.001 15.994C550.309 16.5447 550.463 17.17 550.463 17.87ZM549.147 17.604C549.147 17.1187 549.039 16.7033 548.825 16.358C548.61 16.0033 548.316 15.7373 547.943 15.56C547.579 15.3733 547.173 15.28 546.725 15.28C546.081 15.28 545.53 15.4853 545.073 15.896C544.625 16.3067 544.368 16.876 544.303 17.604H549.147ZM561.37 14.188C561.968 14.188 562.5 14.314 562.966 14.566C563.433 14.8087 563.802 15.1773 564.072 15.672C564.343 16.1667 564.478 16.7687 564.478 17.478V22H563.218V17.66C563.218 16.8947 563.027 16.3113 562.644 15.91C562.271 15.4993 561.762 15.294 561.118 15.294C560.456 15.294 559.928 15.5087 559.536 15.938C559.144 16.358 558.948 16.9693 558.948 17.772V22H557.688V17.66C557.688 16.8947 557.497 16.3113 557.114 15.91C556.741 15.4993 556.232 15.294 555.588 15.294C554.926 15.294 554.398 15.5087 554.006 15.938C553.614 16.358 553.418 16.9693 553.418 17.772V22H552.144V14.328H553.418V15.434C553.67 15.0327 554.006 14.7247 554.426 14.51C554.856 14.2953 555.327 14.188 555.84 14.188C556.484 14.188 557.054 14.3327 557.548 14.622C558.043 14.9113 558.412 15.336 558.654 15.896C558.869 15.3547 559.224 14.9347 559.718 14.636C560.213 14.3373 560.764 14.188 561.37 14.188ZM567.842 15.742C568.094 15.3033 568.468 14.9393 568.962 14.65C569.466 14.3513 570.05 14.202 570.712 14.202C571.394 14.202 572.01 14.3653 572.56 14.692C573.12 15.0187 573.559 15.4807 573.876 16.078C574.194 16.666 574.352 17.352 574.352 18.136C574.352 18.9107 574.194 19.6013 573.876 20.208C573.559 20.8147 573.12 21.286 572.56 21.622C572.01 21.958 571.394 22.126 570.712 22.126C570.059 22.126 569.48 21.9813 568.976 21.692C568.482 21.3933 568.104 21.0247 567.842 20.586V25.64H566.568V14.328H567.842V15.742ZM573.05 18.136C573.05 17.5573 572.934 17.0533 572.7 16.624C572.467 16.1947 572.15 15.868 571.748 15.644C571.356 15.42 570.922 15.308 570.446 15.308C569.98 15.308 569.546 15.4247 569.144 15.658C568.752 15.882 568.435 16.2133 568.192 16.652C567.959 17.0813 567.842 17.5807 567.842 18.15C567.842 18.7287 567.959 19.2373 568.192 19.676C568.435 20.1053 568.752 20.4367 569.144 20.67C569.546 20.894 569.98 21.006 570.446 21.006C570.922 21.006 571.356 20.894 571.748 20.67C572.15 20.4367 572.467 20.1053 572.7 19.676C572.934 19.2373 573.05 18.724 573.05 18.136ZM577.303 15.574C577.527 15.1353 577.845 14.7947 578.255 14.552C578.675 14.3093 579.184 14.188 579.781 14.188V15.504H579.445C578.017 15.504 577.303 16.2787 577.303 17.828V22H576.029V14.328H577.303V15.574ZM588.252 17.87C588.252 18.1127 588.238 18.3693 588.21 18.64H582.078C582.124 19.396 582.381 19.9887 582.848 20.418C583.324 20.838 583.898 21.048 584.57 21.048C585.12 21.048 585.578 20.922 585.942 20.67C586.315 20.4087 586.576 20.0633 586.726 19.634H588.098C587.892 20.3713 587.482 20.9733 586.866 21.44C586.25 21.8973 585.484 22.126 584.57 22.126C583.842 22.126 583.188 21.9627 582.61 21.636C582.04 21.3093 581.592 20.8473 581.266 20.25C580.939 19.6433 580.776 18.9433 580.776 18.15C580.776 17.3567 580.934 16.6613 581.252 16.064C581.569 15.4667 582.012 15.0093 582.582 14.692C583.16 14.3653 583.823 14.202 584.57 14.202C585.298 14.202 585.942 14.3607 586.502 14.678C587.062 14.9953 587.491 15.434 587.79 15.994C588.098 16.5447 588.252 17.17 588.252 17.87ZM586.936 17.604C586.936 17.1187 586.828 16.7033 586.614 16.358C586.399 16.0033 586.105 15.7373 585.732 15.56C585.368 15.3733 584.962 15.28 584.514 15.28C583.87 15.28 583.319 15.4853 582.862 15.896C582.414 16.3067 582.157 16.876 582.092 17.604H586.936ZM596.933 17.87C596.933 18.1127 596.919 18.3693 596.891 18.64H590.759C590.806 19.396 591.063 19.9887 591.529 20.418C592.005 20.838 592.579 21.048 593.251 21.048C593.802 21.048 594.259 20.922 594.623 20.67C594.997 20.4087 595.258 20.0633 595.407 19.634H596.779C596.574 20.3713 596.163 20.9733 595.547 21.44C594.931 21.8973 594.166 22.126 593.251 22.126C592.523 22.126 591.87 21.9627 591.291 21.636C590.722 21.3093 590.274 20.8473 589.947 20.25C589.621 19.6433 589.457 18.9433 589.457 18.15C589.457 17.3567 589.616 16.6613 589.933 16.064C590.251 15.4667 590.694 15.0093 591.263 14.692C591.842 14.3653 592.505 14.202 593.251 14.202C593.979 14.202 594.623 14.3607 595.183 14.678C595.743 14.9953 596.173 15.434 596.471 15.994C596.779 16.5447 596.933 17.17 596.933 17.87ZM595.617 17.604C595.617 17.1187 595.51 16.7033 595.295 16.358C595.081 16.0033 594.787 15.7373 594.413 15.56C594.049 15.3733 593.643 15.28 593.195 15.28C592.551 15.28 592.001 15.4853 591.543 15.896C591.095 16.3067 590.839 16.876 590.773 17.604H595.617ZM602.353 14.188C603.286 14.188 604.042 14.4727 604.621 15.042C605.2 15.602 605.489 16.414 605.489 17.478V22H604.229V17.66C604.229 16.8947 604.038 16.3113 603.655 15.91C603.272 15.4993 602.75 15.294 602.087 15.294C601.415 15.294 600.878 15.504 600.477 15.924C600.085 16.344 599.889 16.9553 599.889 17.758V22H598.615V14.328H599.889V15.42C600.141 15.028 600.482 14.7247 600.911 14.51C601.35 14.2953 601.83 14.188 602.353 14.188ZM607.094 18.136C607.094 17.352 607.253 16.666 607.57 16.078C607.888 15.4807 608.322 15.0187 608.872 14.692C609.432 14.3653 610.058 14.202 610.748 14.202C611.346 14.202 611.901 14.342 612.414 14.622C612.928 14.8927 613.32 15.252 613.59 15.7V11.64H614.878V22H613.59V20.558C613.338 21.0153 612.965 21.3933 612.47 21.692C611.976 21.9813 611.397 22.126 610.734 22.126C610.053 22.126 609.432 21.958 608.872 21.622C608.322 21.286 607.888 20.8147 607.57 20.208C607.253 19.6013 607.094 18.9107 607.094 18.136ZM613.59 18.15C613.59 17.5713 613.474 17.0673 613.24 16.638C613.007 16.2087 612.69 15.882 612.288 15.658C611.896 15.4247 611.462 15.308 610.986 15.308C610.51 15.308 610.076 15.42 609.684 15.644C609.292 15.868 608.98 16.1947 608.746 16.624C608.513 17.0533 608.396 17.5573 608.396 18.136C608.396 18.724 608.513 19.2373 608.746 19.676C608.98 20.1053 609.292 20.4367 609.684 20.67C610.076 20.894 610.51 21.006 610.986 21.006C611.462 21.006 611.896 20.894 612.288 20.67C612.69 20.4367 613.007 20.1053 613.24 19.676C613.474 19.2373 613.59 18.7287 613.59 18.15ZM624.031 17.87C624.031 18.1127 624.017 18.3693 623.989 18.64H617.857C617.904 19.396 618.16 19.9887 618.627 20.418C619.103 20.838 619.677 21.048 620.349 21.048C620.9 21.048 621.357 20.922 621.721 20.67C622.094 20.4087 622.356 20.0633 622.505 19.634H623.877C623.672 20.3713 623.261 20.9733 622.645 21.44C622.029 21.8973 621.264 22.126 620.349 22.126C619.621 22.126 618.968 21.9627 618.389 21.636C617.82 21.3093 617.372 20.8473 617.045 20.25C616.718 19.6433 616.555 18.9433 616.555 18.15C616.555 17.3567 616.714 16.6613 617.031 16.064C617.348 15.4667 617.792 15.0093 618.361 14.692C618.94 14.3653 619.602 14.202 620.349 14.202C621.077 14.202 621.721 14.3607 622.281 14.678C622.841 14.9953 623.27 15.434 623.569 15.994C623.877 16.5447 624.031 17.17 624.031 17.87ZM622.715 17.604C622.715 17.1187 622.608 16.7033 622.393 16.358C622.178 16.0033 621.884 15.7373 621.511 15.56C621.147 15.3733 620.741 15.28 620.293 15.28C619.649 15.28 619.098 15.4853 618.641 15.896C618.193 16.3067 617.936 16.876 617.871 17.604H622.715ZM625.237 18.136C625.237 17.352 625.395 16.666 625.713 16.078C626.03 15.4807 626.464 15.0187 627.015 14.692C627.575 14.3653 628.2 14.202 628.891 14.202C629.488 14.202 630.043 14.342 630.557 14.622C631.07 14.8927 631.462 15.252 631.733 15.7V11.64H633.021V22H631.733V20.558C631.481 21.0153 631.107 21.3933 630.613 21.692C630.118 21.9813 629.539 22.126 628.877 22.126C628.195 22.126 627.575 21.958 627.015 21.622C626.464 21.286 626.03 20.8147 625.713 20.208C625.395 19.6013 625.237 18.9107 625.237 18.136ZM631.733 18.15C631.733 17.5713 631.616 17.0673 631.383 16.638C631.149 16.2087 630.832 15.882 630.431 15.658C630.039 15.4247 629.605 15.308 629.129 15.308C628.653 15.308 628.219 15.42 627.827 15.644C627.435 15.868 627.122 16.1947 626.889 16.624C626.655 17.0533 626.539 17.5573 626.539 18.136C626.539 18.724 626.655 19.2373 626.889 19.676C627.122 20.1053 627.435 20.4367 627.827 20.67C628.219 20.894 628.653 21.006 629.129 21.006C629.605 21.006 630.039 20.894 630.431 20.67C630.832 20.4367 631.149 20.1053 631.383 19.676C631.616 19.2373 631.733 18.7287 631.733 18.15ZM638.52 22.126C637.801 22.126 637.148 21.9627 636.56 21.636C635.981 21.3093 635.524 20.8473 635.188 20.25C634.861 19.6433 634.698 18.9433 634.698 18.15C634.698 17.366 634.866 16.6753 635.202 16.078C635.547 15.4713 636.014 15.0093 636.602 14.692C637.19 14.3653 637.848 14.202 638.576 14.202C639.304 14.202 639.962 14.3653 640.55 14.692C641.138 15.0093 641.6 15.4667 641.936 16.064C642.281 16.6613 642.454 17.3567 642.454 18.15C642.454 18.9433 642.276 19.6433 641.922 20.25C641.576 20.8473 641.105 21.3093 640.508 21.636C639.91 21.9627 639.248 22.126 638.52 22.126ZM638.52 21.006C638.977 21.006 639.406 20.8987 639.808 20.684C640.209 20.4693 640.531 20.1473 640.774 19.718C641.026 19.2887 641.152 18.766 641.152 18.15C641.152 17.534 641.03 17.0113 640.788 16.582C640.545 16.1527 640.228 15.8353 639.836 15.63C639.444 15.4153 639.019 15.308 638.562 15.308C638.095 15.308 637.666 15.4153 637.274 15.63C636.891 15.8353 636.583 16.1527 636.35 16.582C636.116 17.0113 636 17.534 636 18.15C636 18.7753 636.112 19.3027 636.336 19.732C636.569 20.1613 636.877 20.4833 637.26 20.698C637.642 20.9033 638.062 21.006 638.52 21.006ZM645.403 15.574C645.627 15.1353 645.944 14.7947 646.355 14.552C646.775 14.3093 647.283 14.188 647.881 14.188V15.504H647.545C646.117 15.504 645.403 16.2787 645.403 17.828V22H644.129V14.328H645.403V15.574ZM649.757 22.084C649.515 22.084 649.309 22 649.141 21.832C648.973 21.664 648.889 21.4587 648.889 21.216C648.889 20.9733 648.973 20.768 649.141 20.6C649.309 20.432 649.515 20.348 649.757 20.348C649.991 20.348 650.187 20.432 650.345 20.6C650.513 20.768 650.597 20.9733 650.597 21.216C650.597 21.4587 650.513 21.664 650.345 21.832C650.187 22 649.991 22.084 649.757 22.084Z" fill="#001E27"/>
<path d="M679.292 17.398C679.292 16.4967 679.479 15.695 679.851 14.993C680.233 14.2823 680.77 13.732 681.463 13.342C682.157 12.9433 682.954 12.744 683.855 12.744C684.999 12.744 685.961 13.0517 686.741 13.667C687.521 14.2737 688.024 15.1013 688.249 16.15H685.506C685.342 15.8033 685.112 15.539 684.817 15.357C684.531 15.175 684.198 15.084 683.816 15.084C683.227 15.084 682.755 15.2963 682.399 15.721C682.053 16.137 681.879 16.696 681.879 17.398C681.879 18.1087 682.053 18.6763 682.399 19.101C682.755 19.517 683.227 19.725 683.816 19.725C684.198 19.725 684.531 19.634 684.817 19.452C685.112 19.27 685.342 19.0057 685.506 18.659H688.249C688.024 19.7077 687.521 20.5397 686.741 21.155C685.961 21.7617 684.999 22.065 683.855 22.065C682.954 22.065 682.157 21.87 681.463 21.48C680.77 21.0813 680.233 20.531 679.851 19.829C679.479 19.1183 679.292 18.308 679.292 17.398ZM694.604 20.05H697.451V22H692.056V12.835H694.604V20.05ZM703.59 12.835V22H701.042V12.835H703.59ZM713.92 23.534L712.906 22.013C712.62 22.065 712.329 22.091 712.035 22.091C711.177 22.091 710.388 21.8917 709.669 21.493C708.949 21.0857 708.377 20.5267 707.953 19.816C707.537 19.0967 707.329 18.2863 707.329 17.385C707.329 16.4837 707.537 15.6777 707.953 14.967C708.377 14.2477 708.949 13.6887 709.669 13.29C710.388 12.8913 711.177 12.692 712.035 12.692C712.901 12.692 713.69 12.8913 714.401 13.29C715.12 13.6887 715.688 14.2477 716.104 14.967C716.52 15.6777 716.728 16.4837 716.728 17.385C716.728 18.139 716.576 18.8367 716.273 19.478C715.969 20.1107 715.553 20.6393 715.025 21.064L716.962 23.534H713.92ZM709.929 17.385C709.929 18.1043 710.115 18.6763 710.488 19.101C710.86 19.517 711.376 19.725 712.035 19.725C712.685 19.725 713.196 19.5127 713.569 19.088C713.95 18.6633 714.141 18.0957 714.141 17.385C714.141 16.657 713.95 16.085 713.569 15.669C713.196 15.2443 712.685 15.032 712.035 15.032C711.376 15.032 710.86 15.2443 710.488 15.669C710.115 16.085 709.929 16.657 709.929 17.385ZM722.982 12.835V18.152C722.982 18.646 723.094 19.0273 723.32 19.296C723.554 19.5647 723.905 19.699 724.373 19.699C724.841 19.699 725.192 19.5647 725.426 19.296C725.668 19.0187 725.79 18.6373 725.79 18.152V12.835H728.338V18.152C728.338 18.9927 728.16 19.712 727.805 20.31C727.449 20.8993 726.964 21.3457 726.349 21.649C725.742 21.9437 725.066 22.091 724.321 22.091C723.575 22.091 722.908 21.9437 722.319 21.649C721.738 21.3457 721.279 20.8993 720.941 20.31C720.611 19.7207 720.447 19.0013 720.447 18.152V12.835H722.982ZM734.889 14.876V16.371H737.814V18.308H734.889V19.959H738.204V22H732.341V12.835H738.204V14.876H734.889ZM749.699 14.876V16.371H752.624V18.308H749.699V19.959H753.014V22H747.151V12.835H753.014V14.876H749.699ZM765.419 22.091C764.353 22.091 763.478 21.8397 762.793 21.337C762.109 20.8257 761.74 20.0977 761.688 19.153H764.405C764.431 19.4737 764.527 19.7077 764.691 19.855C764.856 20.0023 765.068 20.076 765.328 20.076C765.562 20.076 765.753 20.0197 765.9 19.907C766.056 19.7857 766.134 19.621 766.134 19.413C766.134 19.1443 766.009 18.9363 765.757 18.789C765.506 18.6417 765.099 18.477 764.535 18.295C763.937 18.0957 763.452 17.905 763.079 17.723C762.715 17.5323 762.395 17.2593 762.117 16.904C761.849 16.54 761.714 16.0677 761.714 15.487C761.714 14.8977 761.862 14.395 762.156 13.979C762.451 13.5543 762.858 13.2337 763.378 13.017C763.898 12.8003 764.488 12.692 765.146 12.692C766.212 12.692 767.062 12.9433 767.694 13.446C768.336 13.94 768.678 14.6377 768.721 15.539H765.952C765.944 15.2617 765.857 15.0537 765.692 14.915C765.536 14.7763 765.333 14.707 765.081 14.707C764.891 14.707 764.735 14.7633 764.613 14.876C764.492 14.9887 764.431 15.149 764.431 15.357C764.431 15.5303 764.496 15.682 764.626 15.812C764.765 15.9333 764.934 16.0417 765.133 16.137C765.333 16.2237 765.627 16.3363 766.017 16.475C766.598 16.6743 767.075 16.8737 767.447 17.073C767.829 17.2637 768.154 17.5367 768.422 17.892C768.7 18.2387 768.838 18.6807 768.838 19.218C768.838 19.764 768.7 20.2537 768.422 20.687C768.154 21.1203 767.759 21.4627 767.239 21.714C766.728 21.9653 766.121 22.091 765.419 22.091ZM775.171 14.876V16.371H778.096V18.308H775.171V19.959H778.486V22H772.623V12.835H778.486V14.876H775.171ZM789.981 12.835V22H787.433V12.835H789.981ZM802.521 22H799.973L796.58 16.878V22H794.032V12.835H796.58L799.973 18.022V12.835H802.521V22ZM810.031 22.091C808.965 22.091 808.089 21.8397 807.405 21.337C806.72 20.8257 806.352 20.0977 806.3 19.153H809.017C809.043 19.4737 809.138 19.7077 809.303 19.855C809.467 20.0023 809.68 20.076 809.94 20.076C810.174 20.076 810.364 20.0197 810.512 19.907C810.668 19.7857 810.746 19.621 810.746 19.413C810.746 19.1443 810.62 18.9363 810.369 18.789C810.117 18.6417 809.71 18.477 809.147 18.295C808.549 18.0957 808.063 17.905 807.691 17.723C807.327 17.5323 807.006 17.2593 806.729 16.904C806.46 16.54 806.326 16.0677 806.326 15.487C806.326 14.8977 806.473 14.395 806.768 13.979C807.062 13.5543 807.47 13.2337 807.99 13.017C808.51 12.8003 809.099 12.692 809.758 12.692C810.824 12.692 811.673 12.9433 812.306 13.446C812.947 13.94 813.289 14.6377 813.333 15.539H810.564C810.555 15.2617 810.468 15.0537 810.304 14.915C810.148 14.7763 809.944 14.707 809.693 14.707C809.502 14.707 809.346 14.7633 809.225 14.876C809.103 14.9887 809.043 15.149 809.043 15.357C809.043 15.5303 809.108 15.682 809.238 15.812C809.376 15.9333 809.545 16.0417 809.745 16.137C809.944 16.2237 810.239 16.3363 810.629 16.475C811.209 16.6743 811.686 16.8737 812.059 17.073C812.44 17.2637 812.765 17.5367 813.034 17.892C813.311 18.2387 813.45 18.6807 813.45 19.218C813.45 19.764 813.311 20.2537 813.034 20.687C812.765 21.1203 812.371 21.4627 811.851 21.714C811.339 21.9653 810.733 22.091 810.031 22.091ZM816.922 17.398C816.922 16.4967 817.109 15.695 817.481 14.993C817.863 14.2823 818.4 13.732 819.093 13.342C819.787 12.9433 820.584 12.744 821.485 12.744C822.629 12.744 823.591 13.0517 824.371 13.667C825.151 14.2737 825.654 15.1013 825.879 16.15H823.136C822.972 15.8033 822.742 15.539 822.447 15.357C822.161 15.175 821.828 15.084 821.446 15.084C820.857 15.084 820.385 15.2963 820.029 15.721C819.683 16.137 819.509 16.696 819.509 17.398C819.509 18.1087 819.683 18.6763 820.029 19.101C820.385 19.517 820.857 19.725 821.446 19.725C821.828 19.725 822.161 19.634 822.447 19.452C822.742 19.27 822.972 19.0057 823.136 18.659H825.879C825.654 19.7077 825.151 20.5397 824.371 21.155C823.591 21.7617 822.629 22.065 821.485 22.065C820.584 22.065 819.787 21.87 819.093 21.48C818.4 21.0813 817.863 20.531 817.481 19.829C817.109 19.1183 816.922 18.308 816.922 17.398ZM834.327 22L832.507 18.62H832.234V22H829.686V12.835H833.703C834.439 12.835 835.063 12.965 835.575 13.225C836.086 13.4763 836.472 13.8273 836.732 14.278C836.992 14.72 837.122 15.2183 837.122 15.773C837.122 16.397 836.948 16.9473 836.602 17.424C836.264 17.892 835.765 18.2257 835.107 18.425L837.174 22H834.327ZM832.234 16.878H833.495C833.841 16.878 834.101 16.7957 834.275 16.631C834.448 16.4663 834.535 16.228 834.535 15.916C834.535 15.6213 834.444 15.3917 834.262 15.227C834.088 15.0537 833.833 14.967 833.495 14.967H832.234V16.878ZM843.429 14.876V16.371H846.354V18.308H843.429V19.959H846.744V22H840.881V12.835H846.744V14.876H843.429ZM859.521 12.835L856.362 22H853.099L849.927 12.835H852.657L854.737 19.452L856.804 12.835H859.521ZM868.713 20.505H865.463L864.969 22H862.291L865.632 12.835H868.57L871.898 22H869.207L868.713 20.505ZM868.076 18.555L867.088 15.591L866.113 18.555H868.076Z" fill="#001E27"/>
<g clip-path="url(#clip0_1122_2022)">
<path d="M861 17.5L890 17.5M890 17.5L886.5 14M890 17.5L886.5 21" stroke="#001E27" stroke-width="2"/>
</g>
<defs>
<clipPath id="clip0_1122_2022">
<rect width="18" height="27" fill="white" transform="translate(900 31) rotate(-180)"/>
</clipPath>
</defs>
</svg>
