<svg width="1440" height="43" viewBox="0 0 1440 43" fill="none" xmlns="http://www.w3.org/2000/svg">
<rect width="1440" height="43" fill="#1E1E1E"/>
<g clip-path="url(#clip0_1004_1483)">
<rect width="1440" height="5210" fill="white"/>
<rect width="1440" height="43" fill="#00E2F4"/>
<path d="M294 25.25C296.071 25.25 297.75 23.5711 297.75 21.5C297.75 19.4289 296.071 17.75 294 17.75C291.929 17.75 290.25 19.4289 290.25 21.5C290.25 23.5711 291.929 25.25 294 25.25Z" fill="#D8FE00"/>
<path d="M289.681 16.9931L287.951 15.1875C286.289 16.78 285.25 19.0169 285.25 21.5C285.25 23.9831 286.289 26.22 287.951 27.8125L289.681 26.0069C288.494 24.8681 287.75 23.2706 287.75 21.5C287.75 19.7294 288.494 18.1312 289.681 16.9931Z" fill="#D8FE00"/>
<path d="M300.049 15.1875L298.319 16.9931C299.506 18.1319 300.25 19.7294 300.25 21.5C300.25 23.2706 299.506 24.8681 298.319 26.0069L300.049 27.8125C301.711 26.22 302.75 23.9831 302.75 21.5C302.75 19.0169 301.711 16.78 300.049 15.1875Z" fill="#D8FE00"/>
<path d="M286.226 13.3882L284.489 11.5757C281.878 14.0782 280.25 17.5982 280.25 21.5001C280.25 25.4019 281.878 28.9219 284.489 31.4244L286.226 29.6119C284.089 27.5632 282.75 24.6876 282.75 21.5001C282.75 18.3126 284.089 15.4369 286.226 13.3882Z" fill="#D8FE00"/>
<path d="M303.511 11.5757L301.774 13.3882C303.911 15.4369 305.25 18.3126 305.25 21.5001C305.25 24.6876 303.911 27.5632 301.774 29.6119L303.511 31.4244C306.122 28.9219 307.75 25.4019 307.75 21.5001C307.75 17.5982 306.122 14.0782 303.511 11.5757Z" fill="#D8FE00"/>
<path d="M328.262 24.152H331.398V26H325.868V16.172H328.262V24.152ZM334.934 16.172V26H332.54V16.172H334.934ZM345.895 16.172L342.409 26H339.413L335.927 16.172H338.475L340.911 23.592L343.361 16.172H345.895ZM349.289 18.09V20.078H352.495V21.926H349.289V24.082H352.915V26H346.895V16.172H352.915V18.09H349.289ZM365.318 20.092V22.08H357.548V20.092H365.318ZM376.536 16.172V18.09H372.532V20.162H375.528V22.024H372.532V26H370.138V16.172H376.536ZM377.318 22.08C377.318 21.2773 377.467 20.5727 377.766 19.966C378.074 19.3593 378.489 18.8927 379.012 18.566C379.534 18.2393 380.118 18.076 380.762 18.076C381.312 18.076 381.793 18.188 382.204 18.412C382.624 18.636 382.946 18.93 383.17 19.294V18.188H385.564V26H383.17V24.894C382.936 25.258 382.61 25.552 382.19 25.776C381.779 26 381.298 26.112 380.748 26.112C380.113 26.112 379.534 25.9487 379.012 25.622C378.489 25.286 378.074 24.8147 377.766 24.208C377.467 23.592 377.318 22.8827 377.318 22.08ZM383.17 22.094C383.17 21.4967 383.002 21.0253 382.666 20.68C382.339 20.3347 381.938 20.162 381.462 20.162C380.986 20.162 380.58 20.3347 380.244 20.68C379.917 21.016 379.754 21.4827 379.754 22.08C379.754 22.6773 379.917 23.1533 380.244 23.508C380.58 23.8533 380.986 24.026 381.462 24.026C381.938 24.026 382.339 23.8533 382.666 23.508C383.002 23.1627 383.17 22.6913 383.17 22.094ZM389.69 15.64V26H387.296V15.64H389.69ZM390.949 22.08C390.949 21.2773 391.098 20.5727 391.397 19.966C391.705 19.3593 392.12 18.8927 392.643 18.566C393.165 18.2393 393.749 18.076 394.393 18.076C394.943 18.076 395.424 18.188 395.835 18.412C396.255 18.636 396.577 18.93 396.801 19.294V18.188H399.195V26H396.801V24.894C396.567 25.258 396.241 25.552 395.821 25.776C395.41 26 394.929 26.112 394.379 26.112C393.744 26.112 393.165 25.9487 392.643 25.622C392.12 25.286 391.705 24.8147 391.397 24.208C391.098 23.592 390.949 22.8827 390.949 22.08ZM396.801 22.094C396.801 21.4967 396.633 21.0253 396.297 20.68C395.97 20.3347 395.569 20.162 395.093 20.162C394.617 20.162 394.211 20.3347 393.875 20.68C393.548 21.016 393.385 21.4827 393.385 22.08C393.385 22.6773 393.548 23.1533 393.875 23.508C394.211 23.8533 394.617 24.026 395.093 24.026C395.569 24.026 395.97 23.8533 396.297 23.508C396.633 23.1627 396.801 22.6913 396.801 22.094ZM403.503 23.788L401.949 27.806H400.423L401.235 23.788H403.503ZM410.307 18.09V20.078H413.513V21.926H410.307V24.082H413.933V26H407.913V16.172H413.933V18.09H410.307ZM415.011 22.094C415.011 21.282 415.174 20.5727 415.501 19.966C415.837 19.3593 416.299 18.8927 416.887 18.566C417.484 18.2393 418.166 18.076 418.931 18.076C419.911 18.076 420.728 18.3327 421.381 18.846C422.044 19.3593 422.478 20.0827 422.683 21.016H420.135C419.92 20.4187 419.505 20.12 418.889 20.12C418.45 20.12 418.1 20.2927 417.839 20.638C417.578 20.974 417.447 21.4593 417.447 22.094C417.447 22.7287 417.578 23.2187 417.839 23.564C418.1 23.9 418.45 24.068 418.889 24.068C419.505 24.068 419.92 23.7693 420.135 23.172H422.683C422.478 24.0867 422.044 24.8053 421.381 25.328C420.718 25.8507 419.902 26.112 418.931 26.112C418.166 26.112 417.484 25.9487 416.887 25.622C416.299 25.2953 415.837 24.8287 415.501 24.222C415.174 23.6153 415.011 22.906 415.011 22.094ZM427.52 26.112C426.754 26.112 426.064 25.9487 425.448 25.622C424.841 25.2953 424.36 24.8287 424.006 24.222C423.66 23.6153 423.488 22.906 423.488 22.094C423.488 21.2913 423.665 20.5867 424.02 19.98C424.374 19.364 424.86 18.8927 425.476 18.566C426.092 18.2393 426.782 18.076 427.548 18.076C428.313 18.076 429.004 18.2393 429.62 18.566C430.236 18.8927 430.721 19.364 431.076 19.98C431.43 20.5867 431.608 21.2913 431.608 22.094C431.608 22.8967 431.426 23.606 431.062 24.222C430.707 24.8287 430.217 25.2953 429.592 25.622C428.976 25.9487 428.285 26.112 427.52 26.112ZM427.52 24.04C427.977 24.04 428.364 23.872 428.682 23.536C429.008 23.2 429.172 22.7193 429.172 22.094C429.172 21.4687 429.013 20.988 428.696 20.652C428.388 20.316 428.005 20.148 427.548 20.148C427.081 20.148 426.694 20.316 426.386 20.652C426.078 20.9787 425.924 21.4593 425.924 22.094C425.924 22.7193 426.073 23.2 426.372 23.536C426.68 23.872 427.062 24.04 427.52 24.04ZM437.638 18.104C438.552 18.104 439.28 18.4027 439.822 19C440.372 19.588 440.648 20.4 440.648 21.436V26H438.268V21.758C438.268 21.2353 438.132 20.8293 437.862 20.54C437.591 20.2507 437.227 20.106 436.77 20.106C436.312 20.106 435.948 20.2507 435.678 20.54C435.407 20.8293 435.272 21.2353 435.272 21.758V26H432.878V18.188H435.272V19.224C435.514 18.8787 435.841 18.608 436.252 18.412C436.662 18.2067 437.124 18.104 437.638 18.104ZM445.867 26.112C445.102 26.112 444.411 25.9487 443.795 25.622C443.189 25.2953 442.708 24.8287 442.353 24.222C442.008 23.6153 441.835 22.906 441.835 22.094C441.835 21.2913 442.013 20.5867 442.367 19.98C442.722 19.364 443.207 18.8927 443.823 18.566C444.439 18.2393 445.13 18.076 445.895 18.076C446.661 18.076 447.351 18.2393 447.967 18.566C448.583 18.8927 449.069 19.364 449.423 19.98C449.778 20.5867 449.955 21.2913 449.955 22.094C449.955 22.8967 449.773 23.606 449.409 24.222C449.055 24.8287 448.565 25.2953 447.939 25.622C447.323 25.9487 446.633 26.112 445.867 26.112ZM445.867 24.04C446.325 24.04 446.712 23.872 447.029 23.536C447.356 23.2 447.519 22.7193 447.519 22.094C447.519 21.4687 447.361 20.988 447.043 20.652C446.735 20.316 446.353 20.148 445.895 20.148C445.429 20.148 445.041 20.316 444.733 20.652C444.425 20.9787 444.271 21.4593 444.271 22.094C444.271 22.7193 444.421 23.2 444.719 23.536C445.027 23.872 445.41 24.04 445.867 24.04ZM461.193 18.104C462.164 18.104 462.934 18.398 463.503 18.986C464.082 19.574 464.371 20.3907 464.371 21.436V26H461.991V21.758C461.991 21.254 461.856 20.8667 461.585 20.596C461.324 20.316 460.96 20.176 460.493 20.176C460.027 20.176 459.658 20.316 459.387 20.596C459.126 20.8667 458.995 21.254 458.995 21.758V26H456.615V21.758C456.615 21.254 456.48 20.8667 456.209 20.596C455.948 20.316 455.584 20.176 455.117 20.176C454.651 20.176 454.282 20.316 454.011 20.596C453.75 20.8667 453.619 21.254 453.619 21.758V26H451.225V18.188H453.619V19.168C453.862 18.8413 454.179 18.5847 454.571 18.398C454.963 18.202 455.407 18.104 455.901 18.104C456.489 18.104 457.012 18.23 457.469 18.482C457.936 18.734 458.3 19.0933 458.561 19.56C458.832 19.1307 459.201 18.7807 459.667 18.51C460.134 18.2393 460.643 18.104 461.193 18.104ZM467.25 17.376C466.83 17.376 466.484 17.2547 466.214 17.012C465.952 16.76 465.822 16.452 465.822 16.088C465.822 15.7147 465.952 15.4067 466.214 15.164C466.484 14.912 466.83 14.786 467.25 14.786C467.66 14.786 467.996 14.912 468.258 15.164C468.528 15.4067 468.664 15.7147 468.664 16.088C468.664 16.452 468.528 16.76 468.258 17.012C467.996 17.2547 467.66 17.376 467.25 17.376ZM468.44 18.188V26H466.046V18.188H468.44ZM469.699 22.08C469.699 21.2773 469.848 20.5727 470.147 19.966C470.455 19.3593 470.87 18.8927 471.393 18.566C471.915 18.2393 472.499 18.076 473.143 18.076C473.693 18.076 474.174 18.188 474.585 18.412C475.005 18.636 475.327 18.93 475.551 19.294V18.188H477.945V26H475.551V24.894C475.317 25.258 474.991 25.552 474.571 25.776C474.16 26 473.679 26.112 473.129 26.112C472.494 26.112 471.915 25.9487 471.393 25.622C470.87 25.286 470.455 24.8147 470.147 24.208C469.848 23.592 469.699 22.8827 469.699 22.08ZM475.551 22.094C475.551 21.4967 475.383 21.0253 475.047 20.68C474.72 20.3347 474.319 20.162 473.843 20.162C473.367 20.162 472.961 20.3347 472.625 20.68C472.298 21.016 472.135 21.4827 472.135 22.08C472.135 22.6773 472.298 23.1533 472.625 23.508C472.961 23.8533 473.367 24.026 473.843 24.026C474.319 24.026 474.72 23.8533 475.047 23.508C475.383 23.1627 475.551 22.6913 475.551 22.094ZM482.827 15.822L482.547 22.528H480.517L480.237 15.822H482.827ZM481.567 26.112C481.147 26.112 480.801 25.9907 480.531 25.748C480.269 25.496 480.139 25.188 480.139 24.824C480.139 24.4507 480.269 24.138 480.531 23.886C480.801 23.634 481.147 23.508 481.567 23.508C481.977 23.508 482.313 23.634 482.575 23.886C482.845 24.138 482.981 24.4507 482.981 24.824C482.981 25.188 482.845 25.496 482.575 25.748C482.313 25.9907 481.977 26.112 481.567 26.112ZM496.492 26.098C495.587 26.098 494.761 25.888 494.014 25.468C493.268 25.0387 492.675 24.446 492.236 23.69C491.807 22.9247 491.592 22.066 491.592 21.114C491.592 20.162 491.807 19.308 492.236 18.552C492.675 17.7867 493.268 17.194 494.014 16.774C494.761 16.3447 495.587 16.13 496.492 16.13C497.407 16.13 498.238 16.3447 498.984 16.774C499.731 17.194 500.319 17.782 500.748 18.538C501.178 19.294 501.392 20.1527 501.392 21.114C501.392 22.0753 501.178 22.934 500.748 23.69C500.319 24.446 499.731 25.0387 498.984 25.468C498.238 25.888 497.407 26.098 496.492 26.098ZM496.492 24.992C497.174 24.992 497.785 24.8333 498.326 24.516C498.877 24.1987 499.306 23.746 499.614 23.158C499.932 22.57 500.09 21.8887 500.09 21.114C500.09 20.33 499.932 19.6487 499.614 19.07C499.306 18.482 498.882 18.0293 498.34 17.712C497.799 17.3947 497.183 17.236 496.492 17.236C495.802 17.236 495.186 17.3947 494.644 17.712C494.103 18.0293 493.674 18.482 493.356 19.07C493.048 19.6487 492.894 20.33 492.894 21.114C492.894 21.8887 493.048 22.57 493.356 23.158C493.674 23.746 494.103 24.1987 494.644 24.516C495.195 24.8333 495.811 24.992 496.492 24.992ZM506.331 22.136C506.331 21.352 506.489 20.666 506.807 20.078C507.124 19.4807 507.558 19.0187 508.109 18.692C508.669 18.3653 509.294 18.202 509.985 18.202C510.647 18.202 511.226 18.3513 511.721 18.65C512.225 18.9393 512.593 19.2987 512.827 19.728V18.328H514.115V29.64H512.827V24.586C512.584 25.0153 512.211 25.3793 511.707 25.678C511.203 25.9767 510.615 26.126 509.943 26.126C509.271 26.126 508.659 25.958 508.109 25.622C507.558 25.286 507.124 24.8147 506.807 24.208C506.489 23.6013 506.331 22.9107 506.331 22.136ZM512.827 22.15C512.827 21.5713 512.71 21.0673 512.477 20.638C512.243 20.2087 511.926 19.882 511.525 19.658C511.133 19.4247 510.699 19.308 510.223 19.308C509.747 19.308 509.313 19.42 508.921 19.644C508.529 19.868 508.216 20.1947 507.983 20.624C507.749 21.0533 507.633 21.5573 507.633 22.136C507.633 22.724 507.749 23.2373 507.983 23.676C508.216 24.1053 508.529 24.4367 508.921 24.67C509.313 24.894 509.747 25.006 510.223 25.006C510.699 25.006 511.133 24.894 511.525 24.67C511.926 24.4367 512.243 24.1053 512.477 23.676C512.71 23.2373 512.827 22.7287 512.827 22.15ZM523.071 18.328V26H521.797V24.866C521.555 25.258 521.214 25.566 520.775 25.79C520.346 26.0047 519.87 26.112 519.347 26.112C518.75 26.112 518.213 25.9907 517.737 25.748C517.261 25.496 516.883 25.1227 516.603 24.628C516.333 24.1333 516.197 23.5313 516.197 22.822V18.328H517.457V22.654C517.457 23.41 517.649 23.9933 518.031 24.404C518.414 24.8053 518.937 25.006 519.599 25.006C520.281 25.006 520.817 24.796 521.209 24.376C521.601 23.956 521.797 23.3447 521.797 22.542V18.328H523.071ZM532.223 21.87C532.223 22.1127 532.209 22.3693 532.181 22.64H526.049C526.095 23.396 526.352 23.9887 526.819 24.418C527.295 24.838 527.869 25.048 528.541 25.048C529.091 25.048 529.549 24.922 529.913 24.67C530.286 24.4087 530.547 24.0633 530.697 23.634H532.069C531.863 24.3713 531.453 24.9733 530.837 25.44C530.221 25.8973 529.455 26.126 528.541 26.126C527.813 26.126 527.159 25.9627 526.581 25.636C526.011 25.3093 525.563 24.8473 525.237 24.25C524.91 23.6433 524.747 22.9433 524.747 22.15C524.747 21.3567 524.905 20.6613 525.223 20.064C525.54 19.4667 525.983 19.0093 526.553 18.692C527.131 18.3653 527.794 18.202 528.541 18.202C529.269 18.202 529.913 18.3607 530.473 18.678C531.033 18.9953 531.462 19.434 531.761 19.994C532.069 20.5447 532.223 21.17 532.223 21.87ZM530.907 21.604C530.907 21.1187 530.799 20.7033 530.585 20.358C530.37 20.0033 530.076 19.7373 529.703 19.56C529.339 19.3733 528.933 19.28 528.485 19.28C527.841 19.28 527.29 19.4853 526.833 19.896C526.385 20.3067 526.128 20.876 526.063 21.604H530.907ZM540.983 26.126C540.264 26.126 539.611 25.9627 539.023 25.636C538.444 25.3093 537.987 24.8473 537.651 24.25C537.324 23.6433 537.161 22.9433 537.161 22.15C537.161 21.366 537.329 20.6753 537.665 20.078C538.01 19.4713 538.477 19.0093 539.065 18.692C539.653 18.3653 540.311 18.202 541.039 18.202C541.767 18.202 542.425 18.3653 543.013 18.692C543.601 19.0093 544.063 19.4667 544.399 20.064C544.744 20.6613 544.917 21.3567 544.917 22.15C544.917 22.9433 544.739 23.6433 544.385 24.25C544.039 24.8473 543.568 25.3093 542.971 25.636C542.373 25.9627 541.711 26.126 540.983 26.126ZM540.983 25.006C541.44 25.006 541.869 24.8987 542.271 24.684C542.672 24.4693 542.994 24.1473 543.237 23.718C543.489 23.2887 543.615 22.766 543.615 22.15C543.615 21.534 543.493 21.0113 543.251 20.582C543.008 20.1527 542.691 19.8353 542.299 19.63C541.907 19.4153 541.482 19.308 541.025 19.308C540.558 19.308 540.129 19.4153 539.737 19.63C539.354 19.8353 539.046 20.1527 538.813 20.582C538.579 21.0113 538.463 21.534 538.463 22.15C538.463 22.7753 538.575 23.3027 538.799 23.732C539.032 24.1613 539.34 24.4833 539.723 24.698C540.105 24.9033 540.525 25.006 540.983 25.006ZM549.848 22.15C549.848 21.3567 550.007 20.666 550.324 20.078C550.641 19.4807 551.08 19.0187 551.64 18.692C552.209 18.3653 552.858 18.202 553.586 18.202C554.529 18.202 555.303 18.4307 555.91 18.888C556.526 19.3453 556.932 19.98 557.128 20.792H555.756C555.625 20.3253 555.369 19.9567 554.986 19.686C554.613 19.4153 554.146 19.28 553.586 19.28C552.858 19.28 552.27 19.532 551.822 20.036C551.374 20.5307 551.15 21.2353 551.15 22.15C551.15 23.074 551.374 23.788 551.822 24.292C552.27 24.796 552.858 25.048 553.586 25.048C554.146 25.048 554.613 24.9173 554.986 24.656C555.359 24.3947 555.616 24.0213 555.756 23.536H557.128C556.923 24.32 556.512 24.95 555.896 25.426C555.28 25.8927 554.51 26.126 553.586 26.126C552.858 26.126 552.209 25.9627 551.64 25.636C551.08 25.3093 550.641 24.8473 550.324 24.25C550.007 23.6527 549.848 22.9527 549.848 22.15ZM565.828 21.87C565.828 22.1127 565.814 22.3693 565.786 22.64H559.654C559.701 23.396 559.957 23.9887 560.424 24.418C560.9 24.838 561.474 25.048 562.146 25.048C562.697 25.048 563.154 24.922 563.518 24.67C563.891 24.4087 564.153 24.0633 564.302 23.634H565.674C565.469 24.3713 565.058 24.9733 564.442 25.44C563.826 25.8973 563.061 26.126 562.146 26.126C561.418 26.126 560.765 25.9627 560.186 25.636C559.617 25.3093 559.169 24.8473 558.842 24.25C558.515 23.6433 558.352 22.9433 558.352 22.15C558.352 21.3567 558.511 20.6613 558.828 20.064C559.145 19.4667 559.589 19.0093 560.158 18.692C560.737 18.3653 561.399 18.202 562.146 18.202C562.874 18.202 563.518 18.3607 564.078 18.678C564.638 18.9953 565.067 19.434 565.366 19.994C565.674 20.5447 565.828 21.17 565.828 21.87ZM564.512 21.604C564.512 21.1187 564.405 20.7033 564.19 20.358C563.975 20.0033 563.681 19.7373 563.308 19.56C562.944 19.3733 562.538 19.28 562.09 19.28C561.446 19.28 560.895 19.4853 560.438 19.896C559.99 20.3067 559.733 20.876 559.668 21.604H564.512ZM571.248 18.188C572.181 18.188 572.937 18.4727 573.516 19.042C574.094 19.602 574.384 20.414 574.384 21.478V26H573.124V21.66C573.124 20.8947 572.932 20.3113 572.55 19.91C572.167 19.4993 571.644 19.294 570.982 19.294C570.31 19.294 569.773 19.504 569.372 19.924C568.98 20.344 568.784 20.9553 568.784 21.758V26H567.51V18.328H568.784V19.42C569.036 19.028 569.376 18.7247 569.806 18.51C570.244 18.2953 570.725 18.188 571.248 18.188ZM575.989 22.136C575.989 21.352 576.147 20.666 576.465 20.078C576.782 19.4807 577.216 19.0187 577.767 18.692C578.327 18.3653 578.947 18.202 579.629 18.202C580.301 18.202 580.884 18.3467 581.379 18.636C581.873 18.9253 582.242 19.2893 582.485 19.728V18.328H583.773V26H582.485V24.572C582.233 25.02 581.855 25.3933 581.351 25.692C580.856 25.9813 580.277 26.126 579.615 26.126C578.933 26.126 578.317 25.958 577.767 25.622C577.216 25.286 576.782 24.8147 576.465 24.208C576.147 23.6013 575.989 22.9107 575.989 22.136ZM582.485 22.15C582.485 21.5713 582.368 21.0673 582.135 20.638C581.901 20.2087 581.584 19.882 581.183 19.658C580.791 19.4247 580.357 19.308 579.881 19.308C579.405 19.308 578.971 19.42 578.579 19.644C578.187 19.868 577.874 20.1947 577.641 20.624C577.407 21.0533 577.291 21.5573 577.291 22.136C577.291 22.724 577.407 23.2373 577.641 23.676C577.874 24.1053 578.187 24.4367 578.579 24.67C578.971 24.894 579.405 25.006 579.881 25.006C580.357 25.006 580.791 24.894 581.183 24.67C581.584 24.4367 581.901 24.1053 582.135 23.676C582.368 23.2373 582.485 22.7287 582.485 22.15ZM581.491 16.158L578.509 17.754V16.802L581.491 15.052V16.158ZM587.2 19.574C587.424 19.1353 587.741 18.7947 588.152 18.552C588.572 18.3093 589.08 18.188 589.678 18.188V19.504H589.342C587.914 19.504 587.2 20.2787 587.2 21.828V26H585.926V18.328H587.2V19.574ZM591.806 17.082C591.564 17.082 591.358 16.998 591.19 16.83C591.022 16.662 590.938 16.4567 590.938 16.214C590.938 15.9713 591.022 15.766 591.19 15.598C591.358 15.43 591.564 15.346 591.806 15.346C592.04 15.346 592.236 15.43 592.394 15.598C592.562 15.766 592.646 15.9713 592.646 16.214C592.646 16.4567 592.562 16.662 592.394 16.83C592.236 16.998 592.04 17.082 591.806 17.082ZM592.422 18.328V26H591.148V18.328H592.422ZM597.94 26.126C597.221 26.126 596.568 25.9627 595.98 25.636C595.401 25.3093 594.944 24.8473 594.608 24.25C594.281 23.6433 594.118 22.9433 594.118 22.15C594.118 21.366 594.286 20.6753 594.622 20.078C594.967 19.4713 595.434 19.0093 596.022 18.692C596.61 18.3653 597.268 18.202 597.996 18.202C598.724 18.202 599.382 18.3653 599.97 18.692C600.558 19.0093 601.02 19.4667 601.356 20.064C601.701 20.6613 601.874 21.3567 601.874 22.15C601.874 22.9433 601.696 23.6433 601.342 24.25C600.996 24.8473 600.525 25.3093 599.928 25.636C599.33 25.9627 598.668 26.126 597.94 26.126ZM597.94 25.006C598.397 25.006 598.826 24.8987 599.228 24.684C599.629 24.4693 599.951 24.1473 600.194 23.718C600.446 23.2887 600.572 22.766 600.572 22.15C600.572 21.534 600.45 21.0113 600.208 20.582C599.965 20.1527 599.648 19.8353 599.256 19.63C598.864 19.4153 598.439 19.308 597.982 19.308C597.515 19.308 597.086 19.4153 596.694 19.63C596.311 19.8353 596.003 20.1527 595.77 20.582C595.536 21.0113 595.42 21.534 595.42 22.15C595.42 22.7753 595.532 23.3027 595.756 23.732C595.989 24.1613 596.297 24.4833 596.68 24.698C597.062 24.9033 597.482 25.006 597.94 25.006ZM614.281 21.87C614.281 22.1127 614.267 22.3693 614.239 22.64H608.107C608.154 23.396 608.41 23.9887 608.877 24.418C609.353 24.838 609.927 25.048 610.599 25.048C611.15 25.048 611.607 24.922 611.971 24.67C612.344 24.4087 612.606 24.0633 612.755 23.634H614.127C613.922 24.3713 613.511 24.9733 612.895 25.44C612.279 25.8973 611.514 26.126 610.599 26.126C609.871 26.126 609.218 25.9627 608.639 25.636C608.07 25.3093 607.622 24.8473 607.295 24.25C606.968 23.6433 606.805 22.9433 606.805 22.15C606.805 21.3567 606.964 20.6613 607.281 20.064C607.598 19.4667 608.042 19.0093 608.611 18.692C609.19 18.3653 609.852 18.202 610.599 18.202C611.327 18.202 611.971 18.3607 612.531 18.678C613.091 18.9953 613.52 19.434 613.819 19.994C614.127 20.5447 614.281 21.17 614.281 21.87ZM612.965 21.604C612.965 21.1187 612.858 20.7033 612.643 20.358C612.428 20.0033 612.134 19.7373 611.761 19.56C611.397 19.3733 610.991 19.28 610.543 19.28C609.899 19.28 609.348 19.4853 608.891 19.896C608.443 20.3067 608.186 20.876 608.121 21.604H612.965ZM615.487 22.15C615.487 21.3567 615.645 20.666 615.963 20.078C616.28 19.4807 616.719 19.0187 617.279 18.692C617.848 18.3653 618.497 18.202 619.225 18.202C620.167 18.202 620.942 18.4307 621.549 18.888C622.165 19.3453 622.571 19.98 622.767 20.792H621.395C621.264 20.3253 621.007 19.9567 620.625 19.686C620.251 19.4153 619.785 19.28 619.225 19.28C618.497 19.28 617.909 19.532 617.461 20.036C617.013 20.5307 616.789 21.2353 616.789 22.15C616.789 23.074 617.013 23.788 617.461 24.292C617.909 24.796 618.497 25.048 619.225 25.048C619.785 25.048 620.251 24.9173 620.625 24.656C620.998 24.3947 621.255 24.0213 621.395 23.536H622.767C622.561 24.32 622.151 24.95 621.535 25.426C620.919 25.8927 620.149 26.126 619.225 26.126C618.497 26.126 617.848 25.9627 617.279 25.636C616.719 25.3093 616.28 24.8473 615.963 24.25C615.645 23.6527 615.487 22.9527 615.487 22.15ZM627.813 26.126C627.094 26.126 626.441 25.9627 625.853 25.636C625.274 25.3093 624.817 24.8473 624.481 24.25C624.154 23.6433 623.991 22.9433 623.991 22.15C623.991 21.366 624.159 20.6753 624.495 20.078C624.84 19.4713 625.307 19.0093 625.895 18.692C626.483 18.3653 627.141 18.202 627.869 18.202C628.597 18.202 629.255 18.3653 629.843 18.692C630.431 19.0093 630.893 19.4667 631.229 20.064C631.574 20.6613 631.747 21.3567 631.747 22.15C631.747 22.9433 631.569 23.6433 631.215 24.25C630.869 24.8473 630.398 25.3093 629.801 25.636C629.203 25.9627 628.541 26.126 627.813 26.126ZM627.813 25.006C628.27 25.006 628.699 24.8987 629.101 24.684C629.502 24.4693 629.824 24.1473 630.067 23.718C630.319 23.2887 630.445 22.766 630.445 22.15C630.445 21.534 630.323 21.0113 630.081 20.582C629.838 20.1527 629.521 19.8353 629.129 19.63C628.737 19.4153 628.312 19.308 627.855 19.308C627.388 19.308 626.959 19.4153 626.567 19.63C626.184 19.8353 625.876 20.1527 625.643 20.582C625.409 21.0113 625.293 21.534 625.293 22.15C625.293 22.7753 625.405 23.3027 625.629 23.732C625.862 24.1613 626.17 24.4833 626.553 24.698C626.935 24.9033 627.355 25.006 627.813 25.006ZM637.16 18.188C638.093 18.188 638.849 18.4727 639.428 19.042C640.006 19.602 640.296 20.414 640.296 21.478V26H639.036V21.66C639.036 20.8947 638.844 20.3113 638.462 19.91C638.079 19.4993 637.556 19.294 636.894 19.294C636.222 19.294 635.685 19.504 635.284 19.924C634.892 20.344 634.696 20.9553 634.696 21.758V26H633.422V18.328H634.696V19.42C634.948 19.028 635.288 18.7247 635.718 18.51C636.156 18.2953 636.637 18.188 637.16 18.188ZM645.723 26.126C645.004 26.126 644.351 25.9627 643.763 25.636C643.184 25.3093 642.727 24.8473 642.391 24.25C642.064 23.6433 641.901 22.9433 641.901 22.15C641.901 21.366 642.069 20.6753 642.405 20.078C642.75 19.4713 643.217 19.0093 643.805 18.692C644.393 18.3653 645.051 18.202 645.779 18.202C646.507 18.202 647.165 18.3653 647.753 18.692C648.341 19.0093 648.803 19.4667 649.139 20.064C649.484 20.6613 649.657 21.3567 649.657 22.15C649.657 22.9433 649.479 23.6433 649.125 24.25C648.779 24.8473 648.308 25.3093 647.711 25.636C647.113 25.9627 646.451 26.126 645.723 26.126ZM645.723 25.006C646.18 25.006 646.609 24.8987 647.011 24.684C647.412 24.4693 647.734 24.1473 647.977 23.718C648.229 23.2887 648.355 22.766 648.355 22.15C648.355 21.534 648.233 21.0113 647.991 20.582C647.748 20.1527 647.431 19.8353 647.039 19.63C646.647 19.4153 646.222 19.308 645.765 19.308C645.298 19.308 644.869 19.4153 644.477 19.63C644.094 19.8353 643.786 20.1527 643.553 20.582C643.319 21.0113 643.203 21.534 643.203 22.15C643.203 22.7753 643.315 23.3027 643.539 23.732C643.772 24.1613 644.08 24.4833 644.463 24.698C644.845 24.9033 645.265 25.006 645.723 25.006ZM645.793 16.354L643.847 17.544V16.536L645.793 15.374L647.725 16.536V17.544L645.793 16.354ZM660.558 18.188C661.155 18.188 661.687 18.314 662.154 18.566C662.621 18.8087 662.989 19.1773 663.26 19.672C663.531 20.1667 663.666 20.7687 663.666 21.478V26H662.406V21.66C662.406 20.8947 662.215 20.3113 661.832 19.91C661.459 19.4993 660.95 19.294 660.306 19.294C659.643 19.294 659.116 19.5087 658.724 19.938C658.332 20.358 658.136 20.9693 658.136 21.772V26H656.876V21.66C656.876 20.8947 656.685 20.3113 656.302 19.91C655.929 19.4993 655.42 19.294 654.776 19.294C654.113 19.294 653.586 19.5087 653.194 19.938C652.802 20.358 652.606 20.9693 652.606 21.772V26H651.332V18.328H652.606V19.434C652.858 19.0327 653.194 18.7247 653.614 18.51C654.043 18.2953 654.515 18.188 655.028 18.188C655.672 18.188 656.241 18.3327 656.736 18.622C657.231 18.9113 657.599 19.336 657.842 19.896C658.057 19.3547 658.411 18.9347 658.906 18.636C659.401 18.3373 659.951 18.188 660.558 18.188ZM666.414 17.082C666.171 17.082 665.966 16.998 665.798 16.83C665.63 16.662 665.546 16.4567 665.546 16.214C665.546 15.9713 665.63 15.766 665.798 15.598C665.966 15.43 666.171 15.346 666.414 15.346C666.647 15.346 666.843 15.43 667.002 15.598C667.17 15.766 667.254 15.9713 667.254 16.214C667.254 16.4567 667.17 16.662 667.002 16.83C666.843 16.998 666.647 17.082 666.414 17.082ZM667.03 18.328V26H665.756V18.328H667.03ZM668.725 22.15C668.725 21.3567 668.884 20.666 669.201 20.078C669.518 19.4807 669.957 19.0187 670.517 18.692C671.086 18.3653 671.735 18.202 672.463 18.202C673.406 18.202 674.18 18.4307 674.787 18.888C675.403 19.3453 675.809 19.98 676.005 20.792H674.633C674.502 20.3253 674.246 19.9567 673.863 19.686C673.49 19.4153 673.023 19.28 672.463 19.28C671.735 19.28 671.147 19.532 670.699 20.036C670.251 20.5307 670.027 21.2353 670.027 22.15C670.027 23.074 670.251 23.788 670.699 24.292C671.147 24.796 671.735 25.048 672.463 25.048C673.023 25.048 673.49 24.9173 673.863 24.656C674.236 24.3947 674.493 24.0213 674.633 23.536H676.005C675.8 24.32 675.389 24.95 674.773 25.426C674.157 25.8927 673.387 26.126 672.463 26.126C671.735 26.126 671.086 25.9627 670.517 25.636C669.957 25.3093 669.518 24.8473 669.201 24.25C668.884 23.6527 668.725 22.9527 668.725 22.15ZM681.051 26.126C680.332 26.126 679.679 25.9627 679.091 25.636C678.512 25.3093 678.055 24.8473 677.719 24.25C677.392 23.6433 677.229 22.9433 677.229 22.15C677.229 21.366 677.397 20.6753 677.733 20.078C678.078 19.4713 678.545 19.0093 679.133 18.692C679.721 18.3653 680.379 18.202 681.107 18.202C681.835 18.202 682.493 18.3653 683.081 18.692C683.669 19.0093 684.131 19.4667 684.467 20.064C684.812 20.6613 684.985 21.3567 684.985 22.15C684.985 22.9433 684.808 23.6433 684.453 24.25C684.108 24.8473 683.636 25.3093 683.039 25.636C682.442 25.9627 681.779 26.126 681.051 26.126ZM681.051 25.006C681.508 25.006 681.938 24.8987 682.339 24.684C682.74 24.4693 683.062 24.1473 683.305 23.718C683.557 23.2887 683.683 22.766 683.683 22.15C683.683 21.534 683.562 21.0113 683.319 20.582C683.076 20.1527 682.759 19.8353 682.367 19.63C681.975 19.4153 681.55 19.308 681.093 19.308C680.626 19.308 680.197 19.4153 679.805 19.63C679.422 19.8353 679.114 20.1527 678.881 20.582C678.648 21.0113 678.531 21.534 678.531 22.15C678.531 22.7753 678.643 23.3027 678.867 23.732C679.1 24.1613 679.408 24.4833 679.791 24.698C680.174 24.9033 680.594 25.006 681.051 25.006ZM691.946 19.378V23.9C691.946 24.2733 692.026 24.5393 692.184 24.698C692.343 24.8473 692.618 24.922 693.01 24.922H693.948V26H692.8C692.091 26 691.559 25.8367 691.204 25.51C690.85 25.1833 690.672 24.6467 690.672 23.9V19.378H689.678V18.328H690.672V16.396H691.946V18.328H693.948V19.378H691.946ZM702.492 21.87C702.492 22.1127 702.478 22.3693 702.45 22.64H696.318C696.365 23.396 696.621 23.9887 697.088 24.418C697.564 24.838 698.138 25.048 698.81 25.048C699.361 25.048 699.818 24.922 700.182 24.67C700.555 24.4087 700.817 24.0633 700.966 23.634H702.338C702.133 24.3713 701.722 24.9733 701.106 25.44C700.49 25.8973 699.725 26.126 698.81 26.126C698.082 26.126 697.429 25.9627 696.85 25.636C696.281 25.3093 695.833 24.8473 695.506 24.25C695.179 23.6433 695.016 22.9433 695.016 22.15C695.016 21.3567 695.175 20.6613 695.492 20.064C695.809 19.4667 696.253 19.0093 696.822 18.692C697.401 18.3653 698.063 18.202 698.81 18.202C699.538 18.202 700.182 18.3607 700.742 18.678C701.302 18.9953 701.731 19.434 702.03 19.994C702.338 20.5447 702.492 21.17 702.492 21.87ZM701.176 21.604C701.176 21.1187 701.069 20.7033 700.854 20.358C700.639 20.0033 700.345 19.7373 699.972 19.56C699.608 19.3733 699.202 19.28 698.754 19.28C698.11 19.28 697.559 19.4853 697.102 19.896C696.654 20.3067 696.397 20.876 696.332 21.604H701.176ZM713.4 18.188C713.997 18.188 714.529 18.314 714.996 18.566C715.462 18.8087 715.831 19.1773 716.102 19.672C716.372 20.1667 716.508 20.7687 716.508 21.478V26H715.248V21.66C715.248 20.8947 715.056 20.3113 714.674 19.91C714.3 19.4993 713.792 19.294 713.148 19.294C712.485 19.294 711.958 19.5087 711.566 19.938C711.174 20.358 710.978 20.9693 710.978 21.772V26H709.718V21.66C709.718 20.8947 709.526 20.3113 709.144 19.91C708.77 19.4993 708.262 19.294 707.618 19.294C706.955 19.294 706.428 19.5087 706.036 19.938C705.644 20.358 705.448 20.9693 705.448 21.772V26H704.174V18.328H705.448V19.434C705.7 19.0327 706.036 18.7247 706.456 18.51C706.885 18.2953 707.356 18.188 707.87 18.188C708.514 18.188 709.083 18.3327 709.578 18.622C710.072 18.9113 710.441 19.336 710.684 19.896C710.898 19.3547 711.253 18.9347 711.748 18.636C712.242 18.3373 712.793 18.188 713.4 18.188ZM721.854 22.136C721.854 21.352 722.013 20.666 722.33 20.078C722.647 19.4807 723.081 19.0187 723.632 18.692C724.192 18.3653 724.813 18.202 725.494 18.202C726.166 18.202 726.749 18.3467 727.244 18.636C727.739 18.9253 728.107 19.2893 728.35 19.728V18.328H729.638V26H728.35V24.572C728.098 25.02 727.72 25.3933 727.216 25.692C726.721 25.9813 726.143 26.126 725.48 26.126C724.799 26.126 724.183 25.958 723.632 25.622C723.081 25.286 722.647 24.8147 722.33 24.208C722.013 23.6013 721.854 22.9107 721.854 22.136ZM728.35 22.15C728.35 21.5713 728.233 21.0673 728 20.638C727.767 20.2087 727.449 19.882 727.048 19.658C726.656 19.4247 726.222 19.308 725.746 19.308C725.27 19.308 724.836 19.42 724.444 19.644C724.052 19.868 723.739 20.1947 723.506 20.624C723.273 21.0533 723.156 21.5573 723.156 22.136C723.156 22.724 723.273 23.2373 723.506 23.676C723.739 24.1053 724.052 24.4367 724.444 24.67C724.836 24.894 725.27 25.006 725.746 25.006C726.222 25.006 726.656 24.894 727.048 24.67C727.449 24.4367 727.767 24.1053 728 23.676C728.233 23.2373 728.35 22.7287 728.35 22.15ZM735.047 22.136C735.047 21.352 735.206 20.666 735.523 20.078C735.841 19.4807 736.275 19.0187 736.825 18.692C737.385 18.3653 738.011 18.202 738.701 18.202C739.299 18.202 739.854 18.342 740.367 18.622C740.881 18.8927 741.273 19.252 741.543 19.7V15.64H742.831V26H741.543V24.558C741.291 25.0153 740.918 25.3933 740.423 25.692C739.929 25.9813 739.35 26.126 738.687 26.126C738.006 26.126 737.385 25.958 736.825 25.622C736.275 25.286 735.841 24.8147 735.523 24.208C735.206 23.6013 735.047 22.9107 735.047 22.136ZM741.543 22.15C741.543 21.5713 741.427 21.0673 741.193 20.638C740.96 20.2087 740.643 19.882 740.241 19.658C739.849 19.4247 739.415 19.308 738.939 19.308C738.463 19.308 738.029 19.42 737.637 19.644C737.245 19.868 736.933 20.1947 736.699 20.624C736.466 21.0533 736.349 21.5573 736.349 22.136C736.349 22.724 736.466 23.2373 736.699 23.676C736.933 24.1053 737.245 24.4367 737.637 24.67C738.029 24.894 738.463 25.006 738.939 25.006C739.415 25.006 739.849 24.894 740.241 24.67C740.643 24.4367 740.96 24.1053 741.193 23.676C741.427 23.2373 741.543 22.7287 741.543 22.15ZM745.642 17.082C745.4 17.082 745.194 16.998 745.026 16.83C744.858 16.662 744.774 16.4567 744.774 16.214C744.774 15.9713 744.858 15.766 745.026 15.598C745.194 15.43 745.4 15.346 745.642 15.346C745.876 15.346 746.072 15.43 746.23 15.598C746.398 15.766 746.482 15.9713 746.482 16.214C746.482 16.4567 746.398 16.662 746.23 16.83C746.072 16.998 745.876 17.082 745.642 17.082ZM746.258 18.328V26H744.984V18.328H746.258ZM749.382 24.95H753.148V26H747.926V24.95L751.65 19.364H747.954V18.328H753.12V19.364L749.382 24.95ZM761.801 21.87C761.801 22.1127 761.787 22.3693 761.759 22.64H755.627C755.673 23.396 755.93 23.9887 756.397 24.418C756.873 24.838 757.447 25.048 758.119 25.048C758.669 25.048 759.127 24.922 759.491 24.67C759.864 24.4087 760.125 24.0633 760.275 23.634H761.647C761.441 24.3713 761.031 24.9733 760.415 25.44C759.799 25.8973 759.033 26.126 758.119 26.126C757.391 26.126 756.737 25.9627 756.159 25.636C755.589 25.3093 755.141 24.8473 754.815 24.25C754.488 23.6433 754.325 22.9433 754.325 22.15C754.325 21.3567 754.483 20.6613 754.801 20.064C755.118 19.4667 755.561 19.0093 756.131 18.692C756.709 18.3653 757.372 18.202 758.119 18.202C758.847 18.202 759.491 18.3607 760.051 18.678C760.611 18.9953 761.04 19.434 761.339 19.994C761.647 20.5447 761.801 21.17 761.801 21.87ZM760.485 21.604C760.485 21.1187 760.377 20.7033 760.163 20.358C759.948 20.0033 759.654 19.7373 759.281 19.56C758.917 19.3733 758.511 19.28 758.063 19.28C757.419 19.28 756.868 19.4853 756.411 19.896C755.963 20.3067 755.706 20.876 755.641 21.604H760.485ZM764.756 19.574C764.98 19.1353 765.298 18.7947 765.708 18.552C766.128 18.3093 766.637 18.188 767.234 18.188V19.504H766.898C765.47 19.504 764.756 20.2787 764.756 21.828V26H763.482V18.328H764.756V19.574ZM773.711 19.742C773.963 19.3033 774.337 18.9393 774.831 18.65C775.335 18.3513 775.919 18.202 776.581 18.202C777.263 18.202 777.879 18.3653 778.429 18.692C778.989 19.0187 779.428 19.4807 779.745 20.078C780.063 20.666 780.221 21.352 780.221 22.136C780.221 22.9107 780.063 23.6013 779.745 24.208C779.428 24.8147 778.989 25.286 778.429 25.622C777.879 25.958 777.263 26.126 776.581 26.126C775.928 26.126 775.349 25.9813 774.845 25.692C774.351 25.3933 773.973 25.0247 773.711 24.586V29.64H772.437V18.328H773.711V19.742ZM778.919 22.136C778.919 21.5573 778.803 21.0533 778.569 20.624C778.336 20.1947 778.019 19.868 777.617 19.644C777.225 19.42 776.791 19.308 776.315 19.308C775.849 19.308 775.415 19.4247 775.013 19.658C774.621 19.882 774.304 20.2133 774.061 20.652C773.828 21.0813 773.711 21.5807 773.711 22.15C773.711 22.7287 773.828 23.2373 774.061 23.676C774.304 24.1053 774.621 24.4367 775.013 24.67C775.415 24.894 775.849 25.006 776.315 25.006C776.791 25.006 777.225 24.894 777.617 24.67C778.019 24.4367 778.336 24.1053 778.569 23.676C778.803 23.2373 778.919 22.724 778.919 22.136ZM781.422 22.136C781.422 21.352 781.581 20.666 781.898 20.078C782.216 19.4807 782.65 19.0187 783.2 18.692C783.76 18.3653 784.381 18.202 785.062 18.202C785.734 18.202 786.318 18.3467 786.812 18.636C787.307 18.9253 787.676 19.2893 787.918 19.728V18.328H789.206V26H787.918V24.572C787.666 25.02 787.288 25.3933 786.784 25.692C786.29 25.9813 785.711 26.126 785.048 26.126C784.367 26.126 783.751 25.958 783.2 25.622C782.65 25.286 782.216 24.8147 781.898 24.208C781.581 23.6013 781.422 22.9107 781.422 22.136ZM787.918 22.15C787.918 21.5713 787.802 21.0673 787.568 20.638C787.335 20.2087 787.018 19.882 786.616 19.658C786.224 19.4247 785.79 19.308 785.314 19.308C784.838 19.308 784.404 19.42 784.012 19.644C783.62 19.868 783.308 20.1947 783.074 20.624C782.841 21.0533 782.724 21.5573 782.724 22.136C782.724 22.724 782.841 23.2373 783.074 23.676C783.308 24.1053 783.62 24.4367 784.012 24.67C784.404 24.894 784.838 25.006 785.314 25.006C785.79 25.006 786.224 24.894 786.616 24.67C787.018 24.4367 787.335 24.1053 787.568 23.676C787.802 23.2373 787.918 22.7287 787.918 22.15ZM792.633 19.574C792.857 19.1353 793.175 18.7947 793.585 18.552C794.005 18.3093 794.514 18.188 795.111 18.188V19.504H794.775C793.347 19.504 792.633 20.2787 792.633 21.828V26H791.359V18.328H792.633V19.574ZM796.106 22.136C796.106 21.352 796.265 20.666 796.582 20.078C796.899 19.4807 797.333 19.0187 797.884 18.692C798.444 18.3653 799.065 18.202 799.746 18.202C800.418 18.202 801.001 18.3467 801.496 18.636C801.991 18.9253 802.359 19.2893 802.602 19.728V18.328H803.89V26H802.602V24.572C802.35 25.02 801.972 25.3933 801.468 25.692C800.973 25.9813 800.395 26.126 799.732 26.126C799.051 26.126 798.435 25.958 797.884 25.622C797.333 25.286 796.899 24.8147 796.582 24.208C796.265 23.6013 796.106 22.9107 796.106 22.136ZM802.602 22.15C802.602 21.5713 802.485 21.0673 802.252 20.638C802.019 20.2087 801.701 19.882 801.3 19.658C800.908 19.4247 800.474 19.308 799.998 19.308C799.522 19.308 799.088 19.42 798.696 19.644C798.304 19.868 797.991 20.1947 797.758 20.624C797.525 21.0533 797.408 21.5573 797.408 22.136C797.408 22.724 797.525 23.2373 797.758 23.676C797.991 24.1053 798.304 24.4367 798.696 24.67C799.088 24.894 799.522 25.006 799.998 25.006C800.474 25.006 800.908 24.894 801.3 24.67C801.701 24.4367 802.019 24.1053 802.252 23.676C802.485 23.2373 802.602 22.7287 802.602 22.15ZM813.121 26.126C812.403 26.126 811.749 25.9627 811.161 25.636C810.583 25.3093 810.125 24.8473 809.789 24.25C809.463 23.6433 809.299 22.9433 809.299 22.15C809.299 21.366 809.467 20.6753 809.803 20.078C810.149 19.4713 810.615 19.0093 811.203 18.692C811.791 18.3653 812.449 18.202 813.177 18.202C813.905 18.202 814.563 18.3653 815.151 18.692C815.739 19.0093 816.201 19.4667 816.537 20.064C816.883 20.6613 817.055 21.3567 817.055 22.15C817.055 22.9433 816.878 23.6433 816.523 24.25C816.178 24.8473 815.707 25.3093 815.109 25.636C814.512 25.9627 813.849 26.126 813.121 26.126ZM813.121 25.006C813.579 25.006 814.008 24.8987 814.409 24.684C814.811 24.4693 815.133 24.1473 815.375 23.718C815.627 23.2887 815.753 22.766 815.753 22.15C815.753 21.534 815.632 21.0113 815.389 20.582C815.147 20.1527 814.829 19.8353 814.437 19.63C814.045 19.4153 813.621 19.308 813.163 19.308C812.697 19.308 812.267 19.4153 811.875 19.63C811.493 19.8353 811.185 20.1527 810.951 20.582C810.718 21.0113 810.601 21.534 810.601 22.15C810.601 22.7753 810.713 23.3027 810.937 23.732C811.171 24.1613 811.479 24.4833 811.861 24.698C812.244 24.9033 812.664 25.006 813.121 25.006ZM829.463 21.87C829.463 22.1127 829.449 22.3693 829.421 22.64H823.289C823.335 23.396 823.592 23.9887 824.059 24.418C824.535 24.838 825.109 25.048 825.781 25.048C826.331 25.048 826.789 24.922 827.153 24.67C827.526 24.4087 827.787 24.0633 827.937 23.634H829.309C829.103 24.3713 828.693 24.9733 828.077 25.44C827.461 25.8973 826.695 26.126 825.781 26.126C825.053 26.126 824.399 25.9627 823.821 25.636C823.251 25.3093 822.803 24.8473 822.477 24.25C822.15 23.6433 821.987 22.9433 821.987 22.15C821.987 21.3567 822.145 20.6613 822.463 20.064C822.78 19.4667 823.223 19.0093 823.793 18.692C824.371 18.3653 825.034 18.202 825.781 18.202C826.509 18.202 827.153 18.3607 827.713 18.678C828.273 18.9953 828.702 19.434 829.001 19.994C829.309 20.5447 829.463 21.17 829.463 21.87ZM828.147 21.604C828.147 21.1187 828.039 20.7033 827.825 20.358C827.61 20.0033 827.316 19.7373 826.943 19.56C826.579 19.3733 826.173 19.28 825.725 19.28C825.081 19.28 824.53 19.4853 824.073 19.896C823.625 20.3067 823.368 20.876 823.303 21.604H828.147ZM840.37 18.188C840.968 18.188 841.5 18.314 841.966 18.566C842.433 18.8087 842.802 19.1773 843.072 19.672C843.343 20.1667 843.478 20.7687 843.478 21.478V26H842.218V21.66C842.218 20.8947 842.027 20.3113 841.644 19.91C841.271 19.4993 840.762 19.294 840.118 19.294C839.456 19.294 838.928 19.5087 838.536 19.938C838.144 20.358 837.948 20.9693 837.948 21.772V26H836.688V21.66C836.688 20.8947 836.497 20.3113 836.114 19.91C835.741 19.4993 835.232 19.294 834.588 19.294C833.926 19.294 833.398 19.5087 833.006 19.938C832.614 20.358 832.418 20.9693 832.418 21.772V26H831.144V18.328H832.418V19.434C832.67 19.0327 833.006 18.7247 833.426 18.51C833.856 18.2953 834.327 18.188 834.84 18.188C835.484 18.188 836.054 18.3327 836.548 18.622C837.043 18.9113 837.412 19.336 837.654 19.896C837.869 19.3547 838.224 18.9347 838.718 18.636C839.213 18.3373 839.764 18.188 840.37 18.188ZM846.842 19.742C847.094 19.3033 847.468 18.9393 847.962 18.65C848.466 18.3513 849.05 18.202 849.712 18.202C850.394 18.202 851.01 18.3653 851.56 18.692C852.12 19.0187 852.559 19.4807 852.876 20.078C853.194 20.666 853.352 21.352 853.352 22.136C853.352 22.9107 853.194 23.6013 852.876 24.208C852.559 24.8147 852.12 25.286 851.56 25.622C851.01 25.958 850.394 26.126 849.712 26.126C849.059 26.126 848.48 25.9813 847.976 25.692C847.482 25.3933 847.104 25.0247 846.842 24.586V29.64H845.568V18.328H846.842V19.742ZM852.05 22.136C852.05 21.5573 851.934 21.0533 851.7 20.624C851.467 20.1947 851.15 19.868 850.748 19.644C850.356 19.42 849.922 19.308 849.446 19.308C848.98 19.308 848.546 19.4247 848.144 19.658C847.752 19.882 847.435 20.2133 847.192 20.652C846.959 21.0813 846.842 21.5807 846.842 22.15C846.842 22.7287 846.959 23.2373 847.192 23.676C847.435 24.1053 847.752 24.4367 848.144 24.67C848.546 24.894 848.98 25.006 849.446 25.006C849.922 25.006 850.356 24.894 850.748 24.67C851.15 24.4367 851.467 24.1053 851.7 23.676C851.934 23.2373 852.05 22.724 852.05 22.136ZM856.303 19.574C856.527 19.1353 856.845 18.7947 857.255 18.552C857.675 18.3093 858.184 18.188 858.781 18.188V19.504H858.445C857.017 19.504 856.303 20.2787 856.303 21.828V26H855.029V18.328H856.303V19.574ZM867.252 21.87C867.252 22.1127 867.238 22.3693 867.21 22.64H861.078C861.124 23.396 861.381 23.9887 861.848 24.418C862.324 24.838 862.898 25.048 863.57 25.048C864.12 25.048 864.578 24.922 864.942 24.67C865.315 24.4087 865.576 24.0633 865.726 23.634H867.098C866.892 24.3713 866.482 24.9733 865.866 25.44C865.25 25.8973 864.484 26.126 863.57 26.126C862.842 26.126 862.188 25.9627 861.61 25.636C861.04 25.3093 860.592 24.8473 860.266 24.25C859.939 23.6433 859.776 22.9433 859.776 22.15C859.776 21.3567 859.934 20.6613 860.252 20.064C860.569 19.4667 861.012 19.0093 861.582 18.692C862.16 18.3653 862.823 18.202 863.57 18.202C864.298 18.202 864.942 18.3607 865.502 18.678C866.062 18.9953 866.491 19.434 866.79 19.994C867.098 20.5447 867.252 21.17 867.252 21.87ZM865.936 21.604C865.936 21.1187 865.828 20.7033 865.614 20.358C865.399 20.0033 865.105 19.7373 864.732 19.56C864.368 19.3733 863.962 19.28 863.514 19.28C862.87 19.28 862.319 19.4853 861.862 19.896C861.414 20.3067 861.157 20.876 861.092 21.604H865.936ZM875.933 21.87C875.933 22.1127 875.919 22.3693 875.891 22.64H869.759C869.806 23.396 870.063 23.9887 870.529 24.418C871.005 24.838 871.579 25.048 872.251 25.048C872.802 25.048 873.259 24.922 873.623 24.67C873.997 24.4087 874.258 24.0633 874.407 23.634H875.779C875.574 24.3713 875.163 24.9733 874.547 25.44C873.931 25.8973 873.166 26.126 872.251 26.126C871.523 26.126 870.87 25.9627 870.291 25.636C869.722 25.3093 869.274 24.8473 868.947 24.25C868.621 23.6433 868.457 22.9433 868.457 22.15C868.457 21.3567 868.616 20.6613 868.933 20.064C869.251 19.4667 869.694 19.0093 870.263 18.692C870.842 18.3653 871.505 18.202 872.251 18.202C872.979 18.202 873.623 18.3607 874.183 18.678C874.743 18.9953 875.173 19.434 875.471 19.994C875.779 20.5447 875.933 21.17 875.933 21.87ZM874.617 21.604C874.617 21.1187 874.51 20.7033 874.295 20.358C874.081 20.0033 873.787 19.7373 873.413 19.56C873.049 19.3733 872.643 19.28 872.195 19.28C871.551 19.28 871.001 19.4853 870.543 19.896C870.095 20.3067 869.839 20.876 869.773 21.604H874.617ZM881.353 18.188C882.286 18.188 883.042 18.4727 883.621 19.042C884.2 19.602 884.489 20.414 884.489 21.478V26H883.229V21.66C883.229 20.8947 883.038 20.3113 882.655 19.91C882.272 19.4993 881.75 19.294 881.087 19.294C880.415 19.294 879.878 19.504 879.477 19.924C879.085 20.344 878.889 20.9553 878.889 21.758V26H877.615V18.328H878.889V19.42C879.141 19.028 879.482 18.7247 879.911 18.51C880.35 18.2953 880.83 18.188 881.353 18.188ZM886.094 22.136C886.094 21.352 886.253 20.666 886.57 20.078C886.888 19.4807 887.322 19.0187 887.872 18.692C888.432 18.3653 889.058 18.202 889.748 18.202C890.346 18.202 890.901 18.342 891.414 18.622C891.928 18.8927 892.32 19.252 892.59 19.7V15.64H893.878V26H892.59V24.558C892.338 25.0153 891.965 25.3933 891.47 25.692C890.976 25.9813 890.397 26.126 889.734 26.126C889.053 26.126 888.432 25.958 887.872 25.622C887.322 25.286 886.888 24.8147 886.57 24.208C886.253 23.6013 886.094 22.9107 886.094 22.136ZM892.59 22.15C892.59 21.5713 892.474 21.0673 892.24 20.638C892.007 20.2087 891.69 19.882 891.288 19.658C890.896 19.4247 890.462 19.308 889.986 19.308C889.51 19.308 889.076 19.42 888.684 19.644C888.292 19.868 887.98 20.1947 887.746 20.624C887.513 21.0533 887.396 21.5573 887.396 22.136C887.396 22.724 887.513 23.2373 887.746 23.676C887.98 24.1053 888.292 24.4367 888.684 24.67C889.076 24.894 889.51 25.006 889.986 25.006C890.462 25.006 890.896 24.894 891.288 24.67C891.69 24.4367 892.007 24.1053 892.24 23.676C892.474 23.2373 892.59 22.7287 892.59 22.15ZM903.031 21.87C903.031 22.1127 903.017 22.3693 902.989 22.64H896.857C896.904 23.396 897.16 23.9887 897.627 24.418C898.103 24.838 898.677 25.048 899.349 25.048C899.9 25.048 900.357 24.922 900.721 24.67C901.094 24.4087 901.356 24.0633 901.505 23.634H902.877C902.672 24.3713 902.261 24.9733 901.645 25.44C901.029 25.8973 900.264 26.126 899.349 26.126C898.621 26.126 897.968 25.9627 897.389 25.636C896.82 25.3093 896.372 24.8473 896.045 24.25C895.718 23.6433 895.555 22.9433 895.555 22.15C895.555 21.3567 895.714 20.6613 896.031 20.064C896.348 19.4667 896.792 19.0093 897.361 18.692C897.94 18.3653 898.602 18.202 899.349 18.202C900.077 18.202 900.721 18.3607 901.281 18.678C901.841 18.9953 902.27 19.434 902.569 19.994C902.877 20.5447 903.031 21.17 903.031 21.87ZM901.715 21.604C901.715 21.1187 901.608 20.7033 901.393 20.358C901.178 20.0033 900.884 19.7373 900.511 19.56C900.147 19.3733 899.741 19.28 899.293 19.28C898.649 19.28 898.098 19.4853 897.641 19.896C897.193 20.3067 896.936 20.876 896.871 21.604H901.715ZM904.237 22.136C904.237 21.352 904.395 20.666 904.713 20.078C905.03 19.4807 905.464 19.0187 906.015 18.692C906.575 18.3653 907.2 18.202 907.891 18.202C908.488 18.202 909.043 18.342 909.557 18.622C910.07 18.8927 910.462 19.252 910.733 19.7V15.64H912.021V26H910.733V24.558C910.481 25.0153 910.107 25.3933 909.613 25.692C909.118 25.9813 908.539 26.126 907.877 26.126C907.195 26.126 906.575 25.958 906.015 25.622C905.464 25.286 905.03 24.8147 904.713 24.208C904.395 23.6013 904.237 22.9107 904.237 22.136ZM910.733 22.15C910.733 21.5713 910.616 21.0673 910.383 20.638C910.149 20.2087 909.832 19.882 909.431 19.658C909.039 19.4247 908.605 19.308 908.129 19.308C907.653 19.308 907.219 19.42 906.827 19.644C906.435 19.868 906.122 20.1947 905.889 20.624C905.655 21.0533 905.539 21.5573 905.539 22.136C905.539 22.724 905.655 23.2373 905.889 23.676C906.122 24.1053 906.435 24.4367 906.827 24.67C907.219 24.894 907.653 25.006 908.129 25.006C908.605 25.006 909.039 24.894 909.431 24.67C909.832 24.4367 910.149 24.1053 910.383 23.676C910.616 23.2373 910.733 22.7287 910.733 22.15ZM917.52 26.126C916.801 26.126 916.148 25.9627 915.56 25.636C914.981 25.3093 914.524 24.8473 914.188 24.25C913.861 23.6433 913.698 22.9433 913.698 22.15C913.698 21.366 913.866 20.6753 914.202 20.078C914.547 19.4713 915.014 19.0093 915.602 18.692C916.19 18.3653 916.848 18.202 917.576 18.202C918.304 18.202 918.962 18.3653 919.55 18.692C920.138 19.0093 920.6 19.4667 920.936 20.064C921.281 20.6613 921.454 21.3567 921.454 22.15C921.454 22.9433 921.276 23.6433 920.922 24.25C920.576 24.8473 920.105 25.3093 919.508 25.636C918.91 25.9627 918.248 26.126 917.52 26.126ZM917.52 25.006C917.977 25.006 918.406 24.8987 918.808 24.684C919.209 24.4693 919.531 24.1473 919.774 23.718C920.026 23.2887 920.152 22.766 920.152 22.15C920.152 21.534 920.03 21.0113 919.788 20.582C919.545 20.1527 919.228 19.8353 918.836 19.63C918.444 19.4153 918.019 19.308 917.562 19.308C917.095 19.308 916.666 19.4153 916.274 19.63C915.891 19.8353 915.583 20.1527 915.35 20.582C915.116 21.0113 915 21.534 915 22.15C915 22.7753 915.112 23.3027 915.336 23.732C915.569 24.1613 915.877 24.4833 916.26 24.698C916.642 24.9033 917.062 25.006 917.52 25.006ZM924.403 19.574C924.627 19.1353 924.944 18.7947 925.355 18.552C925.775 18.3093 926.283 18.188 926.881 18.188V19.504H926.545C925.117 19.504 924.403 20.2787 924.403 21.828V26H923.129V18.328H924.403V19.574ZM928.757 26.084C928.515 26.084 928.309 26 928.141 25.832C927.973 25.664 927.889 25.4587 927.889 25.216C927.889 24.9733 927.973 24.768 928.141 24.6C928.309 24.432 928.515 24.348 928.757 24.348C928.991 24.348 929.187 24.432 929.345 24.6C929.513 24.768 929.597 24.9733 929.597 25.216C929.597 25.4587 929.513 25.664 929.345 25.832C929.187 26 928.991 26.084 928.757 26.084Z" fill="#001E27"/>
<path d="M958.292 21.398C958.292 20.4967 958.479 19.695 958.851 18.993C959.233 18.2823 959.77 17.732 960.463 17.342C961.157 16.9433 961.954 16.744 962.855 16.744C963.999 16.744 964.961 17.0517 965.741 17.667C966.521 18.2737 967.024 19.1013 967.249 20.15H964.506C964.342 19.8033 964.112 19.539 963.817 19.357C963.531 19.175 963.198 19.084 962.816 19.084C962.227 19.084 961.755 19.2963 961.399 19.721C961.053 20.137 960.879 20.696 960.879 21.398C960.879 22.1087 961.053 22.6763 961.399 23.101C961.755 23.517 962.227 23.725 962.816 23.725C963.198 23.725 963.531 23.634 963.817 23.452C964.112 23.27 964.342 23.0057 964.506 22.659H967.249C967.024 23.7077 966.521 24.5397 965.741 25.155C964.961 25.7617 963.999 26.065 962.855 26.065C961.954 26.065 961.157 25.87 960.463 25.48C959.77 25.0813 959.233 24.531 958.851 23.829C958.479 23.1183 958.292 22.308 958.292 21.398ZM973.604 24.05H976.451V26H971.056V16.835H973.604V24.05ZM982.59 16.835V26H980.042V16.835H982.59ZM992.92 27.534L991.906 26.013C991.62 26.065 991.329 26.091 991.035 26.091C990.177 26.091 989.388 25.8917 988.669 25.493C987.949 25.0857 987.377 24.5267 986.953 23.816C986.537 23.0967 986.329 22.2863 986.329 21.385C986.329 20.4837 986.537 19.6777 986.953 18.967C987.377 18.2477 987.949 17.6887 988.669 17.29C989.388 16.8913 990.177 16.692 991.035 16.692C991.901 16.692 992.69 16.8913 993.401 17.29C994.12 17.6887 994.688 18.2477 995.104 18.967C995.52 19.6777 995.728 20.4837 995.728 21.385C995.728 22.139 995.576 22.8367 995.273 23.478C994.969 24.1107 994.553 24.6393 994.025 25.064L995.962 27.534H992.92ZM988.929 21.385C988.929 22.1043 989.115 22.6763 989.488 23.101C989.86 23.517 990.376 23.725 991.035 23.725C991.685 23.725 992.196 23.5127 992.569 23.088C992.95 22.6633 993.141 22.0957 993.141 21.385C993.141 20.657 992.95 20.085 992.569 19.669C992.196 19.2443 991.685 19.032 991.035 19.032C990.376 19.032 989.86 19.2443 989.488 19.669C989.115 20.085 988.929 20.657 988.929 21.385ZM1001.98 16.835V22.152C1001.98 22.646 1002.09 23.0273 1002.32 23.296C1002.55 23.5647 1002.9 23.699 1003.37 23.699C1003.84 23.699 1004.19 23.5647 1004.43 23.296C1004.67 23.0187 1004.79 22.6373 1004.79 22.152V16.835H1007.34V22.152C1007.34 22.9927 1007.16 23.712 1006.8 24.31C1006.45 24.8993 1005.96 25.3457 1005.35 25.649C1004.74 25.9437 1004.07 26.091 1003.32 26.091C1002.58 26.091 1001.91 25.9437 1001.32 25.649C1000.74 25.3457 1000.28 24.8993 999.941 24.31C999.611 23.7207 999.447 23.0013 999.447 22.152V16.835H1001.98ZM1013.89 18.876V20.371H1016.81V22.308H1013.89V23.959H1017.2V26H1011.34V16.835H1017.2V18.876H1013.89ZM1028.7 18.876V20.371H1031.62V22.308H1028.7V23.959H1032.01V26H1026.15V16.835H1032.01V18.876H1028.7ZM1044.42 26.091C1043.35 26.091 1042.48 25.8397 1041.79 25.337C1041.11 24.8257 1040.74 24.0977 1040.69 23.153H1043.41C1043.43 23.4737 1043.53 23.7077 1043.69 23.855C1043.86 24.0023 1044.07 24.076 1044.33 24.076C1044.56 24.076 1044.75 24.0197 1044.9 23.907C1045.06 23.7857 1045.13 23.621 1045.13 23.413C1045.13 23.1443 1045.01 22.9363 1044.76 22.789C1044.51 22.6417 1044.1 22.477 1043.54 22.295C1042.94 22.0957 1042.45 21.905 1042.08 21.723C1041.72 21.5323 1041.39 21.2593 1041.12 20.904C1040.85 20.54 1040.71 20.0677 1040.71 19.487C1040.71 18.8977 1040.86 18.395 1041.16 17.979C1041.45 17.5543 1041.86 17.2337 1042.38 17.017C1042.9 16.8003 1043.49 16.692 1044.15 16.692C1045.21 16.692 1046.06 16.9433 1046.69 17.446C1047.34 17.94 1047.68 18.6377 1047.72 19.539H1044.95C1044.94 19.2617 1044.86 19.0537 1044.69 18.915C1044.54 18.7763 1044.33 18.707 1044.08 18.707C1043.89 18.707 1043.73 18.7633 1043.61 18.876C1043.49 18.9887 1043.43 19.149 1043.43 19.357C1043.43 19.5303 1043.5 19.682 1043.63 19.812C1043.77 19.9333 1043.93 20.0417 1044.13 20.137C1044.33 20.2237 1044.63 20.3363 1045.02 20.475C1045.6 20.6743 1046.07 20.8737 1046.45 21.073C1046.83 21.2637 1047.15 21.5367 1047.42 21.892C1047.7 22.2387 1047.84 22.6807 1047.84 23.218C1047.84 23.764 1047.7 24.2537 1047.42 24.687C1047.15 25.1203 1046.76 25.4627 1046.24 25.714C1045.73 25.9653 1045.12 26.091 1044.42 26.091ZM1054.17 18.876V20.371H1057.1V22.308H1054.17V23.959H1057.49V26H1051.62V16.835H1057.49V18.876H1054.17ZM1068.98 16.835V26H1066.43V16.835H1068.98ZM1081.52 26H1078.97L1075.58 20.878V26H1073.03V16.835H1075.58L1078.97 22.022V16.835H1081.52V26ZM1089.03 26.091C1087.96 26.091 1087.09 25.8397 1086.4 25.337C1085.72 24.8257 1085.35 24.0977 1085.3 23.153H1088.02C1088.04 23.4737 1088.14 23.7077 1088.3 23.855C1088.47 24.0023 1088.68 24.076 1088.94 24.076C1089.17 24.076 1089.36 24.0197 1089.51 23.907C1089.67 23.7857 1089.75 23.621 1089.75 23.413C1089.75 23.1443 1089.62 22.9363 1089.37 22.789C1089.12 22.6417 1088.71 22.477 1088.15 22.295C1087.55 22.0957 1087.06 21.905 1086.69 21.723C1086.33 21.5323 1086.01 21.2593 1085.73 20.904C1085.46 20.54 1085.33 20.0677 1085.33 19.487C1085.33 18.8977 1085.47 18.395 1085.77 17.979C1086.06 17.5543 1086.47 17.2337 1086.99 17.017C1087.51 16.8003 1088.1 16.692 1088.76 16.692C1089.82 16.692 1090.67 16.9433 1091.31 17.446C1091.95 17.94 1092.29 18.6377 1092.33 19.539H1089.56C1089.56 19.2617 1089.47 19.0537 1089.3 18.915C1089.15 18.7763 1088.94 18.707 1088.69 18.707C1088.5 18.707 1088.35 18.7633 1088.22 18.876C1088.1 18.9887 1088.04 19.149 1088.04 19.357C1088.04 19.5303 1088.11 19.682 1088.24 19.812C1088.38 19.9333 1088.55 20.0417 1088.74 20.137C1088.94 20.2237 1089.24 20.3363 1089.63 20.475C1090.21 20.6743 1090.69 20.8737 1091.06 21.073C1091.44 21.2637 1091.77 21.5367 1092.03 21.892C1092.31 22.2387 1092.45 22.6807 1092.45 23.218C1092.45 23.764 1092.31 24.2537 1092.03 24.687C1091.77 25.1203 1091.37 25.4627 1090.85 25.714C1090.34 25.9653 1089.73 26.091 1089.03 26.091ZM1095.92 21.398C1095.92 20.4967 1096.11 19.695 1096.48 18.993C1096.86 18.2823 1097.4 17.732 1098.09 17.342C1098.79 16.9433 1099.58 16.744 1100.49 16.744C1101.63 16.744 1102.59 17.0517 1103.37 17.667C1104.15 18.2737 1104.65 19.1013 1104.88 20.15H1102.14C1101.97 19.8033 1101.74 19.539 1101.45 19.357C1101.16 19.175 1100.83 19.084 1100.45 19.084C1099.86 19.084 1099.38 19.2963 1099.03 19.721C1098.68 20.137 1098.51 20.696 1098.51 21.398C1098.51 22.1087 1098.68 22.6763 1099.03 23.101C1099.38 23.517 1099.86 23.725 1100.45 23.725C1100.83 23.725 1101.16 23.634 1101.45 23.452C1101.74 23.27 1101.97 23.0057 1102.14 22.659H1104.88C1104.65 23.7077 1104.15 24.5397 1103.37 25.155C1102.59 25.7617 1101.63 26.065 1100.49 26.065C1099.58 26.065 1098.79 25.87 1098.09 25.48C1097.4 25.0813 1096.86 24.531 1096.48 23.829C1096.11 23.1183 1095.92 22.308 1095.92 21.398ZM1113.33 26L1111.51 22.62H1111.23V26H1108.69V16.835H1112.7C1113.44 16.835 1114.06 16.965 1114.57 17.225C1115.09 17.4763 1115.47 17.8273 1115.73 18.278C1115.99 18.72 1116.12 19.2183 1116.12 19.773C1116.12 20.397 1115.95 20.9473 1115.6 21.424C1115.26 21.892 1114.77 22.2257 1114.11 22.425L1116.17 26H1113.33ZM1111.23 20.878H1112.49C1112.84 20.878 1113.1 20.7957 1113.27 20.631C1113.45 20.4663 1113.53 20.228 1113.53 19.916C1113.53 19.6213 1113.44 19.3917 1113.26 19.227C1113.09 19.0537 1112.83 18.967 1112.49 18.967H1111.23V20.878ZM1122.43 18.876V20.371H1125.35V22.308H1122.43V23.959H1125.74V26H1119.88V16.835H1125.74V18.876H1122.43ZM1138.52 16.835L1135.36 26H1132.1L1128.93 16.835H1131.66L1133.74 23.452L1135.8 16.835H1138.52ZM1147.71 24.505H1144.46L1143.97 26H1141.29L1144.63 16.835H1147.57L1150.9 26H1148.21L1147.71 24.505ZM1147.08 22.555L1146.09 19.591L1145.11 22.555H1147.08Z" fill="#001E27"/>
<g clip-path="url(#clip1_1004_1483)">
<path d="M1140 21.5L1169 21.5M1169 21.5L1165.5 18M1169 21.5L1165.5 25" stroke="#001E27" stroke-width="2"/>
</g>
</g>
<defs>
<clipPath id="clip0_1004_1483">
<rect width="1440" height="5210" fill="white"/>
</clipPath>
<clipPath id="clip1_1004_1483">
<rect width="18" height="27" fill="white" transform="translate(1179 35) rotate(-180)"/>
</clipPath>
</defs>
</svg>
