<svg width="323" height="304" viewBox="0 0 323 304" fill="none" xmlns="http://www.w3.org/2000/svg">
<rect width="323" height="304" fill="#1E1E1E"/>
<g clip-path="url(#clip0_1004_1483)">
<rect width="1440" height="5210" transform="translate(-128 -1205)" fill="white"/>
<rect x="-128" y="-1162" width="1440" height="1975" fill="#001E27"/>
<rect width="323" height="304" fill="#00475D"/>
<path d="M38.688 42.848V54H37.232V42.848H38.688ZM49.4255 54.112C48.3908 54.112 47.4468 53.872 46.5935 53.392C45.7402 52.9013 45.0628 52.224 44.5615 51.36C44.0708 50.4853 43.8255 49.504 43.8255 48.416C43.8255 47.328 44.0708 46.352 44.5615 45.488C45.0628 44.6133 45.7402 43.936 46.5935 43.456C47.4468 42.9653 48.3908 42.72 49.4255 42.72C50.4708 42.72 51.4202 42.9653 52.2735 43.456C53.1268 43.936 53.7988 44.608 54.2895 45.472C54.7802 46.336 55.0255 47.3173 55.0255 48.416C55.0255 49.5147 54.7802 50.496 54.2895 51.36C53.7988 52.224 53.1268 52.9013 52.2735 53.392C51.4202 53.872 50.4708 54.112 49.4255 54.112ZM49.4255 52.848C50.2042 52.848 50.9028 52.6667 51.5215 52.304C52.1508 51.9413 52.6415 51.424 52.9935 50.752C53.3562 50.08 53.5375 49.3013 53.5375 48.416C53.5375 47.52 53.3562 46.7413 52.9935 46.08C52.6415 45.408 52.1562 44.8907 51.5375 44.528C50.9188 44.1653 50.2148 43.984 49.4255 43.984C48.6362 43.984 47.9322 44.1653 47.3135 44.528C46.6948 44.8907 46.2042 45.408 45.8415 46.08C45.4895 46.7413 45.3135 47.52 45.3135 48.416C45.3135 49.3013 45.4895 50.08 45.8415 50.752C46.2042 51.424 46.6948 51.9413 47.3135 52.304C47.9428 52.6667 48.6468 52.848 49.4255 52.848ZM63.6196 42.848C64.8356 42.848 65.8863 43.0773 66.7716 43.536C67.6676 43.984 68.3503 44.6293 68.8196 45.472C69.2996 46.3147 69.5396 47.3067 69.5396 48.448C69.5396 49.5893 69.2996 50.5813 68.8196 51.424C68.3503 52.256 67.6676 52.896 66.7716 53.344C65.8863 53.7813 64.8356 54 63.6196 54H60.1476V42.848H63.6196ZM63.6196 52.8C65.0596 52.8 66.1583 52.4213 66.9156 51.664C67.673 50.896 68.0516 49.824 68.0516 48.448C68.0516 47.0613 67.6676 45.9787 66.8996 45.2C66.1423 44.4213 65.049 44.032 63.6196 44.032H61.6036V52.8H63.6196ZM76.1161 44.032V47.76H80.1801V48.96H76.1161V52.8H80.6601V54H74.6601V42.832H80.6601V44.032H76.1161ZM92.1432 47.52V48.752H85.7592V47.52H92.1432ZM105.532 46.112C105.532 47.04 105.212 47.8133 104.572 48.432C103.942 49.04 102.977 49.344 101.676 49.344H99.5318V54H98.0758V42.848H101.676C102.934 42.848 103.889 43.152 104.54 43.76C105.201 44.368 105.532 45.152 105.532 46.112ZM101.676 48.144C102.486 48.144 103.084 47.968 103.468 47.616C103.852 47.264 104.044 46.7627 104.044 46.112C104.044 44.736 103.254 44.048 101.676 44.048H99.5318V48.144H101.676ZM121.853 42.928V54H120.397V45.744L116.717 54H115.693L111.997 45.728V54H110.541V42.928H112.109L116.205 52.08L120.301 42.928H121.853ZM128.979 44.032V47.76H133.043V48.96H128.979V52.8H133.523V54H127.523V42.832H133.523V44.032H128.979ZM142.462 54.112C141.726 54.112 141.064 53.984 140.478 53.728C139.902 53.4613 139.448 53.0987 139.118 52.64C138.787 52.1707 138.616 51.632 138.606 51.024H140.158C140.211 51.5467 140.424 51.9893 140.798 52.352C141.182 52.704 141.736 52.88 142.462 52.88C143.155 52.88 143.699 52.7093 144.094 52.368C144.499 52.016 144.702 51.568 144.702 51.024C144.702 50.5973 144.584 50.2507 144.35 49.984C144.115 49.7173 143.822 49.5147 143.47 49.376C143.118 49.2373 142.643 49.088 142.046 48.928C141.31 48.736 140.718 48.544 140.27 48.352C139.832 48.16 139.454 47.8613 139.134 47.456C138.824 47.04 138.67 46.4853 138.67 45.792C138.67 45.184 138.824 44.6453 139.134 44.176C139.443 43.7067 139.875 43.344 140.43 43.088C140.995 42.832 141.64 42.704 142.366 42.704C143.411 42.704 144.264 42.9653 144.926 43.488C145.598 44.0107 145.976 44.704 146.062 45.568H144.462C144.408 45.1413 144.184 44.768 143.79 44.448C143.395 44.1173 142.872 43.952 142.222 43.952C141.614 43.952 141.118 44.112 140.734 44.432C140.35 44.7413 140.158 45.1787 140.158 45.744C140.158 46.1493 140.27 46.48 140.494 46.736C140.728 46.992 141.011 47.1893 141.342 47.328C141.683 47.456 142.158 47.6053 142.766 47.776C143.502 47.9787 144.094 48.1813 144.542 48.384C144.99 48.576 145.374 48.88 145.694 49.296C146.014 49.7013 146.174 50.256 146.174 50.96C146.174 51.504 146.03 52.016 145.742 52.496C145.454 52.976 145.027 53.3653 144.462 53.664C143.896 53.9627 143.23 54.112 142.462 54.112Z" fill="white"/>
<path d="M45.52 93.04V102.84C45.52 104.2 45.1267 105.26 44.34 106.02C43.5533 106.767 42.5 107.14 41.18 107.14C39.8467 107.14 38.7667 106.753 37.94 105.98C37.1267 105.207 36.72 104.127 36.72 102.74H39.52C39.5333 103.34 39.6733 103.807 39.94 104.14C40.22 104.473 40.62 104.64 41.14 104.64C41.6467 104.64 42.0333 104.48 42.3 104.16C42.5667 103.84 42.7 103.4 42.7 102.84V93.04H45.52ZM57.3463 104.34H51.7863L50.8663 107H47.9263L52.9463 93.02H56.2063L61.2263 107H58.2663L57.3463 104.34ZM56.5863 102.1L54.5663 96.26L52.5462 102.1H56.5863ZM75.0427 107H72.2427L65.9027 97.42V107H63.1027V93.02H65.9027L72.2427 102.62V93.02H75.0427V107ZM83.1353 103.84C84.4153 102.773 85.4353 101.887 86.1953 101.18C86.9553 100.46 87.5886 99.7133 88.0953 98.94C88.602 98.1667 88.8553 97.4067 88.8553 96.66C88.8553 95.98 88.6953 95.4467 88.3753 95.06C88.0553 94.6733 87.562 94.48 86.8953 94.48C86.2286 94.48 85.7153 94.7067 85.3553 95.16C84.9953 95.6 84.8086 96.2067 84.7953 96.98H82.0753C82.1286 95.38 82.602 94.1667 83.4953 93.34C84.402 92.5133 85.5486 92.1 86.9353 92.1C88.4553 92.1 89.622 92.5067 90.4353 93.32C91.2486 94.12 91.6553 95.18 91.6553 96.5C91.6553 97.54 91.3753 98.5333 90.8153 99.48C90.2553 100.427 89.6153 101.253 88.8953 101.96C88.1753 102.653 87.2353 103.493 86.0753 104.48H91.9753V106.8H82.0953V104.72L83.1353 103.84ZM93.7397 99.52C93.7397 97.2133 94.153 95.4067 94.9797 94.1C95.8197 92.7933 97.2064 92.14 99.1397 92.14C101.073 92.14 102.453 92.7933 103.28 94.1C104.12 95.4067 104.54 97.2133 104.54 99.52C104.54 101.84 104.12 103.66 103.28 104.98C102.453 106.3 101.073 106.96 99.1397 106.96C97.2064 106.96 95.8197 106.3 94.9797 104.98C94.153 103.66 93.7397 101.84 93.7397 99.52ZM101.78 99.52C101.78 98.5333 101.713 97.7067 101.58 97.04C101.46 96.36 101.206 95.8067 100.82 95.38C100.446 94.9533 99.8864 94.74 99.1397 94.74C98.393 94.74 97.8264 94.9533 97.4397 95.38C97.0664 95.8067 96.813 96.36 96.6797 97.04C96.5597 97.7067 96.4997 98.5333 96.4997 99.52C96.4997 100.533 96.5597 101.387 96.6797 102.08C96.7997 102.76 97.053 103.313 97.4397 103.74C97.8264 104.153 98.393 104.36 99.1397 104.36C99.8864 104.36 100.453 104.153 100.84 103.74C101.226 103.313 101.48 102.76 101.6 102.08C101.72 101.387 101.78 100.533 101.78 99.52ZM107.549 103.84C108.829 102.773 109.849 101.887 110.609 101.18C111.369 100.46 112.003 99.7133 112.509 98.94C113.016 98.1667 113.269 97.4067 113.269 96.66C113.269 95.98 113.109 95.4467 112.789 95.06C112.469 94.6733 111.976 94.48 111.309 94.48C110.643 94.48 110.129 94.7067 109.769 95.16C109.409 95.6 109.223 96.2067 109.209 96.98H106.489C106.543 95.38 107.016 94.1667 107.909 93.34C108.816 92.5133 109.963 92.1 111.349 92.1C112.869 92.1 114.036 92.5067 114.849 93.32C115.663 94.12 116.069 95.18 116.069 96.5C116.069 97.54 115.789 98.5333 115.229 99.48C114.669 100.427 114.029 101.253 113.309 101.96C112.589 102.653 111.649 103.493 110.489 104.48H116.389V106.8H106.509V104.72L107.549 103.84ZM118.194 96.26C118.26 94.9267 118.727 93.9 119.594 93.18C120.474 92.4467 121.627 92.08 123.054 92.08C124.027 92.08 124.86 92.2533 125.554 92.6C126.247 92.9333 126.767 93.3933 127.114 93.98C127.474 94.5533 127.654 95.2067 127.654 95.94C127.654 96.78 127.434 97.4933 126.994 98.08C126.567 98.6533 126.054 99.04 125.454 99.24V99.32C126.227 99.56 126.827 99.9867 127.254 100.6C127.694 101.213 127.914 102 127.914 102.96C127.914 103.76 127.727 104.473 127.354 105.1C126.994 105.727 126.454 106.22 125.734 106.58C125.027 106.927 124.174 107.1 123.174 107.1C121.667 107.1 120.44 106.72 119.494 105.96C118.547 105.2 118.047 104.08 117.994 102.6H120.714C120.74 103.253 120.96 103.78 121.374 104.18C121.8 104.567 122.38 104.76 123.114 104.76C123.794 104.76 124.314 104.573 124.674 104.2C125.047 103.813 125.234 103.32 125.234 102.72C125.234 101.92 124.98 101.347 124.474 101C123.967 100.653 123.18 100.48 122.114 100.48H121.534V98.18H122.114C124.007 98.18 124.954 97.5467 124.954 96.28C124.954 95.7067 124.78 95.26 124.434 94.94C124.1 94.62 123.614 94.46 122.974 94.46C122.347 94.46 121.86 94.6333 121.514 94.98C121.18 95.3133 120.987 95.74 120.934 96.26H118.194Z" fill="white"/>
<path d="M203.28 98.456C201.275 97.3893 200.272 95.7147 200.272 93.432C200.272 92.28 200.571 91.2347 201.168 90.296C201.765 89.336 202.672 88.5787 203.888 88.024C205.104 87.448 206.597 87.16 208.368 87.16C210.139 87.16 211.621 87.448 212.816 88.024C214.032 88.5787 214.939 89.336 215.536 90.296C216.133 91.2347 216.432 92.28 216.432 93.432C216.432 94.584 216.155 95.5867 215.6 96.44C215.067 97.2933 214.341 97.9653 213.424 98.456C214.576 99.0107 215.461 99.7787 216.08 100.76C216.699 101.72 217.008 102.851 217.008 104.152C217.008 105.667 216.624 106.979 215.856 108.088C215.088 109.176 214.043 110.008 212.72 110.584C211.419 111.16 209.968 111.448 208.368 111.448C206.768 111.448 205.307 111.16 203.984 110.584C202.683 110.008 201.648 109.176 200.88 108.088C200.112 106.979 199.728 105.667 199.728 104.152C199.728 102.829 200.037 101.688 200.656 100.728C201.275 99.7467 202.149 98.9893 203.28 98.456ZM211.12 94.264C211.12 93.3893 210.864 92.7173 210.352 92.248C209.861 91.7573 209.2 91.512 208.368 91.512C207.536 91.512 206.864 91.7573 206.352 92.248C205.861 92.7387 205.616 93.4213 205.616 94.296C205.616 95.128 205.872 95.7893 206.384 96.28C206.896 96.7493 207.557 96.984 208.368 96.984C209.179 96.984 209.84 96.7387 210.352 96.248C210.864 95.7573 211.12 95.096 211.12 94.264ZM208.368 100.824C207.365 100.824 206.555 101.101 205.936 101.656C205.317 102.189 205.008 102.936 205.008 103.896C205.008 104.792 205.307 105.528 205.904 106.104C206.523 106.68 207.344 106.968 208.368 106.968C209.392 106.968 210.192 106.68 210.768 106.104C211.365 105.528 211.664 104.792 211.664 103.896C211.664 102.957 211.355 102.211 210.736 101.656C210.139 101.101 209.349 100.824 208.368 100.824ZM235.102 91.736L227.07 111H221.47L229.598 92.344H219.646V87.672H235.102V91.736ZM243.747 105.944L240.195 115.128H236.707L238.563 105.944H243.747ZM250.343 98.456C248.337 97.3893 247.335 95.7147 247.335 93.432C247.335 92.28 247.633 91.2347 248.231 90.296C248.828 89.336 249.735 88.5787 250.951 88.024C252.167 87.448 253.66 87.16 255.431 87.16C257.201 87.16 258.684 87.448 259.879 88.024C261.095 88.5787 262.001 89.336 262.599 90.296C263.196 91.2347 263.495 92.28 263.495 93.432C263.495 94.584 263.217 95.5867 262.663 96.44C262.129 97.2933 261.404 97.9653 260.487 98.456C261.639 99.0107 262.524 99.7787 263.142 100.76C263.761 101.72 264.071 102.851 264.071 104.152C264.071 105.667 263.687 106.979 262.919 108.088C262.151 109.176 261.105 110.008 259.783 110.584C258.481 111.16 257.031 111.448 255.431 111.448C253.831 111.448 252.369 111.16 251.047 110.584C249.745 110.008 248.711 109.176 247.943 108.088C247.175 106.979 246.791 105.667 246.791 104.152C246.791 102.829 247.1 101.688 247.719 100.728C248.337 99.7467 249.212 98.9893 250.343 98.456ZM258.183 94.264C258.183 93.3893 257.927 92.7173 257.415 92.248C256.924 91.7573 256.263 91.512 255.431 91.512C254.599 91.512 253.927 91.7573 253.415 92.248C252.924 92.7387 252.679 93.4213 252.679 94.296C252.679 95.128 252.935 95.7893 253.447 96.28C253.959 96.7493 254.62 96.984 255.431 96.984C256.241 96.984 256.903 96.7387 257.415 96.248C257.927 95.7573 258.183 95.096 258.183 94.264ZM255.431 100.824C254.428 100.824 253.617 101.101 252.999 101.656C252.38 102.189 252.071 102.936 252.071 103.896C252.071 104.792 252.369 105.528 252.967 106.104C253.585 106.68 254.407 106.968 255.431 106.968C256.455 106.968 257.255 106.68 257.831 106.104C258.428 105.528 258.727 104.792 258.727 103.896C258.727 102.957 258.417 102.211 257.799 101.656C257.201 101.101 256.412 100.824 255.431 100.824ZM271.093 98.456C269.087 97.3893 268.085 95.7147 268.085 93.432C268.085 92.28 268.383 91.2347 268.981 90.296C269.578 89.336 270.485 88.5787 271.701 88.024C272.917 87.448 274.41 87.16 276.181 87.16C277.951 87.16 279.434 87.448 280.629 88.024C281.845 88.5787 282.751 89.336 283.349 90.296C283.946 91.2347 284.245 92.28 284.245 93.432C284.245 94.584 283.967 95.5867 283.413 96.44C282.879 97.2933 282.154 97.9653 281.237 98.456C282.389 99.0107 283.274 99.7787 283.892 100.76C284.511 101.72 284.821 102.851 284.821 104.152C284.821 105.667 284.437 106.979 283.669 108.088C282.901 109.176 281.855 110.008 280.533 110.584C279.231 111.16 277.781 111.448 276.181 111.448C274.581 111.448 273.119 111.16 271.797 110.584C270.495 110.008 269.461 109.176 268.693 108.088C267.925 106.979 267.541 105.667 267.541 104.152C267.541 102.829 267.85 101.688 268.469 100.728C269.087 99.7467 269.962 98.9893 271.093 98.456ZM278.933 94.264C278.933 93.3893 278.677 92.7173 278.165 92.248C277.674 91.7573 277.013 91.512 276.181 91.512C275.349 91.512 274.677 91.7573 274.165 92.248C273.674 92.7387 273.429 93.4213 273.429 94.296C273.429 95.128 273.685 95.7893 274.197 96.28C274.709 96.7493 275.37 96.984 276.181 96.984C276.991 96.984 277.653 96.7387 278.165 96.248C278.677 95.7573 278.933 95.096 278.933 94.264ZM276.181 100.824C275.178 100.824 274.367 101.101 273.749 101.656C273.13 102.189 272.821 102.936 272.821 103.896C272.821 104.792 273.119 105.528 273.717 106.104C274.335 106.68 275.157 106.968 276.181 106.968C277.205 106.968 278.005 106.68 278.581 106.104C279.178 105.528 279.477 104.792 279.477 103.896C279.477 102.957 279.167 102.211 278.549 101.656C277.951 101.101 277.162 100.824 276.181 100.824Z" fill="#00E2F4"/>
<path d="M42.26 151.04C43.7267 151.04 45.0133 151.327 46.12 151.9C47.24 152.473 48.1 153.293 48.7 154.36C49.3133 155.413 49.62 156.64 49.62 158.04C49.62 159.44 49.3133 160.667 48.7 161.72C48.1 162.76 47.24 163.567 46.12 164.14C45.0133 164.713 43.7267 165 42.26 165H37.38V151.04H42.26ZM42.16 162.62C43.6267 162.62 44.76 162.22 45.56 161.42C46.36 160.62 46.76 159.493 46.76 158.04C46.76 156.587 46.36 155.453 45.56 154.64C44.76 153.813 43.6267 153.4 42.16 153.4H40.18V162.62H42.16ZM54.5159 153.3V156.8H59.2159V159.02H54.5159V162.72H59.8159V165H51.7159V151.02H59.8159V153.3H54.5159ZM65.2205 162.64H71.5005V165H61.9805V162.84L68.2205 153.4H61.9805V151.04H71.5005V153.2L65.2205 162.64ZM79.2095 161.84C80.4895 160.773 81.5095 159.887 82.2695 159.18C83.0295 158.46 83.6629 157.713 84.1695 156.94C84.6762 156.167 84.9295 155.407 84.9295 154.66C84.9295 153.98 84.7695 153.447 84.4495 153.06C84.1295 152.673 83.6362 152.48 82.9695 152.48C82.3029 152.48 81.7895 152.707 81.4295 153.16C81.0695 153.6 80.8829 154.207 80.8695 154.98H78.1495C78.2029 153.38 78.6762 152.167 79.5695 151.34C80.4762 150.513 81.6229 150.1 83.0095 150.1C84.5295 150.1 85.6962 150.507 86.5095 151.32C87.3229 152.12 87.7295 153.18 87.7295 154.5C87.7295 155.54 87.4495 156.533 86.8895 157.48C86.3295 158.427 85.6895 159.253 84.9695 159.96C84.2495 160.653 83.3095 161.493 82.1495 162.48H88.0495V164.8H78.1695V162.72L79.2095 161.84ZM89.8139 157.52C89.8139 155.213 90.2272 153.407 91.0539 152.1C91.8939 150.793 93.2806 150.14 95.2139 150.14C97.1472 150.14 98.5272 150.793 99.3539 152.1C100.194 153.407 100.614 155.213 100.614 157.52C100.614 159.84 100.194 161.66 99.3539 162.98C98.5272 164.3 97.1472 164.96 95.2139 164.96C93.2806 164.96 91.8939 164.3 91.0539 162.98C90.2272 161.66 89.8139 159.84 89.8139 157.52ZM97.8539 157.52C97.8539 156.533 97.7872 155.707 97.6539 155.04C97.5339 154.36 97.2806 153.807 96.8939 153.38C96.5206 152.953 95.9606 152.74 95.2139 152.74C94.4672 152.74 93.9006 152.953 93.5139 153.38C93.1406 153.807 92.8872 154.36 92.7539 155.04C92.6339 155.707 92.5739 156.533 92.5739 157.52C92.5739 158.533 92.6339 159.387 92.7539 160.08C92.8739 160.76 93.1272 161.313 93.5139 161.74C93.9006 162.153 94.4672 162.36 95.2139 162.36C95.9606 162.36 96.5272 162.153 96.9139 161.74C97.3006 161.313 97.5539 160.76 97.6739 160.08C97.7939 159.387 97.8539 158.533 97.8539 157.52ZM103.624 161.84C104.904 160.773 105.924 159.887 106.684 159.18C107.444 158.46 108.077 157.713 108.584 156.94C109.09 156.167 109.344 155.407 109.344 154.66C109.344 153.98 109.184 153.447 108.864 153.06C108.544 152.673 108.05 152.48 107.384 152.48C106.717 152.48 106.204 152.707 105.844 153.16C105.484 153.6 105.297 154.207 105.284 154.98H102.564C102.617 153.38 103.09 152.167 103.984 151.34C104.89 150.513 106.037 150.1 107.424 150.1C108.944 150.1 110.11 150.507 110.924 151.32C111.737 152.12 112.144 153.18 112.144 154.5C112.144 155.54 111.864 156.533 111.304 157.48C110.744 158.427 110.104 159.253 109.384 159.96C108.664 160.653 107.724 161.493 106.564 162.48H112.464V164.8H102.584V162.72L103.624 161.84ZM115.108 161.84C116.388 160.773 117.408 159.887 118.168 159.18C118.928 158.46 119.561 157.713 120.068 156.94C120.575 156.167 120.828 155.407 120.828 154.66C120.828 153.98 120.668 153.447 120.348 153.06C120.028 152.673 119.535 152.48 118.868 152.48C118.201 152.48 117.688 152.707 117.328 153.16C116.968 153.6 116.781 154.207 116.768 154.98H114.048C114.101 153.38 114.575 152.167 115.468 151.34C116.375 150.513 117.521 150.1 118.908 150.1C120.428 150.1 121.595 150.507 122.408 151.32C123.221 152.12 123.628 153.18 123.628 154.5C123.628 155.54 123.348 156.533 122.788 157.48C122.228 158.427 121.588 159.253 120.868 159.96C120.148 160.653 119.208 161.493 118.048 162.48H123.948V164.8H114.068V162.72L115.108 161.84Z" fill="white"/>
<path d="M221.648 152.296V148.48H228.296V166H224.024V152.296H221.648ZM231.103 157C231.103 154.248 231.631 152.08 232.687 150.496C233.759 148.912 235.479 148.12 237.847 148.12C240.215 148.12 241.927 148.912 242.983 150.496C244.055 152.08 244.591 154.248 244.591 157C244.591 159.784 244.055 161.968 242.983 163.552C241.927 165.136 240.215 165.928 237.847 165.928C235.479 165.928 233.759 165.136 232.687 163.552C231.631 161.968 231.103 159.784 231.103 157ZM240.559 157C240.559 155.384 240.383 154.144 240.031 153.28C239.679 152.4 238.951 151.96 237.847 151.96C236.743 151.96 236.015 152.4 235.663 153.28C235.311 154.144 235.135 155.384 235.135 157C235.135 158.088 235.199 158.992 235.327 159.712C235.455 160.416 235.711 160.992 236.095 161.44C236.495 161.872 237.079 162.088 237.847 162.088C238.615 162.088 239.191 161.872 239.575 161.44C239.975 160.992 240.239 160.416 240.367 159.712C240.495 158.992 240.559 158.088 240.559 157ZM246.328 152.296V148.48H252.976V166H248.704V152.296H246.328ZM260.607 162.208L257.943 169.096H255.327L256.719 162.208H260.607ZM262.242 152.296V148.48H268.89V166H264.618V152.296H262.242ZM274.577 156.592C273.073 155.792 272.321 154.536 272.321 152.824C272.321 151.96 272.545 151.176 272.993 150.472C273.441 149.752 274.121 149.184 275.033 148.768C275.945 148.336 277.065 148.12 278.393 148.12C279.721 148.12 280.833 148.336 281.729 148.768C282.641 149.184 283.321 149.752 283.769 150.472C284.217 151.176 284.441 151.96 284.441 152.824C284.441 153.688 284.233 154.44 283.817 155.08C283.417 155.72 282.873 156.224 282.185 156.592C283.049 157.008 283.713 157.584 284.177 158.32C284.641 159.04 284.873 159.888 284.873 160.864C284.873 162 284.585 162.984 284.009 163.816C283.433 164.632 282.649 165.256 281.657 165.688C280.681 166.12 279.593 166.336 278.393 166.336C277.193 166.336 276.097 166.12 275.105 165.688C274.129 165.256 273.353 164.632 272.777 163.816C272.201 162.984 271.913 162 271.913 160.864C271.913 159.872 272.145 159.016 272.609 158.296C273.073 157.56 273.729 156.992 274.577 156.592ZM280.457 153.448C280.457 152.792 280.265 152.288 279.881 151.936C279.513 151.568 279.017 151.384 278.393 151.384C277.769 151.384 277.265 151.568 276.881 151.936C276.513 152.304 276.329 152.816 276.329 153.472C276.329 154.096 276.521 154.592 276.905 154.96C277.289 155.312 277.785 155.488 278.393 155.488C279.001 155.488 279.497 155.304 279.881 154.936C280.265 154.568 280.457 154.072 280.457 153.448ZM278.393 158.368C277.641 158.368 277.033 158.576 276.569 158.992C276.105 159.392 275.873 159.952 275.873 160.672C275.873 161.344 276.097 161.896 276.545 162.328C277.009 162.76 277.625 162.976 278.393 162.976C279.161 162.976 279.761 162.76 280.193 162.328C280.641 161.896 280.865 161.344 280.865 160.672C280.865 159.968 280.633 159.408 280.169 158.992C279.721 158.576 279.129 158.368 278.393 158.368Z" fill="#00E2F4" fill-opacity="0.8"/>
<path d="M294.979 22C293.782 22 292.894 22.39 292.331 22.99C291.768 23.59 291.57 24.34 291.5 24.91L292.908 25.105C292.965 24.73 293.077 24.355 293.345 24.07C293.613 23.785 294.035 23.5 294.979 23.5C295.908 23.5 296.415 23.74 296.697 24.01C296.979 24.28 297.092 24.61 297.092 25C297.092 26.245 296.613 26.59 295.908 27.25C295.204 27.91 294.275 28.87 294.275 30.625V31H295.683V30.625C295.683 29.38 296.12 29.035 296.824 28.375C297.528 27.715 298.5 26.755 298.5 25C298.5 24.28 298.261 23.47 297.669 22.885C297.063 22.3 296.162 22 294.979 22ZM294.275 32.5V34H295.683V32.5H294.275Z" fill="white"/>
<rect x="283.5" y="16.5" width="23" height="23" rx="11.5" stroke="white"/>
<path d="M49.28 198.832V210H47.04V202.736L44.048 210H42.352L39.344 202.736V210H37.104V198.832H39.648L43.2 207.136L46.752 198.832H49.28ZM55.4306 210.144C54.5773 210.144 53.8093 209.957 53.1266 209.584C52.444 209.2 51.9053 208.661 51.5106 207.968C51.1266 207.275 50.9346 206.475 50.9346 205.568C50.9346 204.661 51.132 203.861 51.5266 203.168C51.932 202.475 52.4813 201.941 53.1746 201.568C53.868 201.184 54.6413 200.992 55.4946 200.992C56.348 200.992 57.1213 201.184 57.8146 201.568C58.508 201.941 59.052 202.475 59.4466 203.168C59.852 203.861 60.0546 204.661 60.0546 205.568C60.0546 206.475 59.8466 207.275 59.4306 207.968C59.0253 208.661 58.4706 209.2 57.7666 209.584C57.0733 209.957 56.2946 210.144 55.4306 210.144ZM55.4306 208.192C55.836 208.192 56.2146 208.096 56.5666 207.904C56.9293 207.701 57.2173 207.403 57.4306 207.008C57.644 206.613 57.7506 206.133 57.7506 205.568C57.7506 204.725 57.5266 204.08 57.0786 203.632C56.6413 203.173 56.1026 202.944 55.4626 202.944C54.8226 202.944 54.284 203.173 53.8466 203.632C53.42 204.08 53.2066 204.725 53.2066 205.568C53.2066 206.411 53.4146 207.061 53.8306 207.52C54.2573 207.968 54.7906 208.192 55.4306 208.192ZM73.8738 198.832V210H71.6338V202.736L68.6418 210H66.9458L63.9378 202.736V210H61.6978V198.832H64.2418L67.7938 207.136L71.3458 198.832H73.8738ZM75.5764 201.2C75.5764 200.389 75.811 199.755 76.2804 199.296C76.7604 198.837 77.3737 198.608 78.1204 198.608C78.867 198.608 79.475 198.837 79.9444 199.296C80.4244 199.755 80.6644 200.389 80.6644 201.2C80.6644 202.021 80.4244 202.661 79.9444 203.12C79.475 203.579 78.867 203.808 78.1204 203.808C77.3737 203.808 76.7604 203.579 76.2804 203.12C75.811 202.661 75.5764 202.021 75.5764 201.2ZM85.8484 198.8L79.5604 210H77.3844L83.6564 198.8H85.8484ZM78.1044 199.952C77.5177 199.952 77.2244 200.368 77.2244 201.2C77.2244 202.043 77.5177 202.464 78.1044 202.464C78.3924 202.464 78.6164 202.363 78.7764 202.16C78.9364 201.947 79.0164 201.627 79.0164 201.2C79.0164 200.368 78.7124 199.952 78.1044 199.952ZM82.6004 207.584C82.6004 206.763 82.835 206.128 83.3044 205.68C83.7844 205.221 84.3977 204.992 85.1444 204.992C85.891 204.992 86.4937 205.221 86.9524 205.68C87.4217 206.128 87.6564 206.763 87.6564 207.584C87.6564 208.405 87.4217 209.045 86.9524 209.504C86.4937 209.963 85.891 210.192 85.1444 210.192C84.387 210.192 83.7737 209.963 83.3044 209.504C82.835 209.045 82.6004 208.405 82.6004 207.584ZM85.1284 206.336C84.5204 206.336 84.2164 206.752 84.2164 207.584C84.2164 208.427 84.5204 208.848 85.1284 208.848C85.7257 208.848 86.0244 208.427 86.0244 207.584C86.0244 206.752 85.7257 206.336 85.1284 206.336Z" fill="white"/>
<path d="M210.386 205.56V208.4H201.586V205.56H210.386ZM212.687 202.58V199.4H218.227V214H214.667V202.58H212.687ZM220.687 203.52C220.74 202.093 221.207 200.993 222.087 200.22C222.967 199.447 224.16 199.06 225.667 199.06C226.667 199.06 227.52 199.233 228.227 199.58C228.947 199.927 229.487 200.4 229.847 201C230.22 201.6 230.407 202.273 230.407 203.02C230.407 203.9 230.187 204.62 229.747 205.18C229.307 205.727 228.793 206.1 228.207 206.3V206.38C228.967 206.633 229.567 207.053 230.007 207.64C230.447 208.227 230.667 208.98 230.667 209.9C230.667 210.727 230.473 211.46 230.087 212.1C229.713 212.727 229.16 213.22 228.427 213.58C227.707 213.94 226.847 214.12 225.847 214.12C224.247 214.12 222.967 213.727 222.007 212.94C221.06 212.153 220.56 210.967 220.507 209.38H223.827C223.84 209.967 224.007 210.433 224.327 210.78C224.647 211.113 225.113 211.28 225.727 211.28C226.247 211.28 226.647 211.133 226.927 210.84C227.22 210.533 227.367 210.133 227.367 209.64C227.367 209 227.16 208.54 226.747 208.26C226.347 207.967 225.7 207.82 224.807 207.82H224.167V205.04H224.807C225.487 205.04 226.033 204.927 226.447 204.7C226.873 204.46 227.087 204.04 227.087 203.44C227.087 202.96 226.953 202.587 226.687 202.32C226.42 202.053 226.053 201.92 225.587 201.92C225.08 201.92 224.7 202.073 224.447 202.38C224.207 202.687 224.067 203.067 224.027 203.52H220.687ZM236.696 210.84L234.476 216.58H232.296L233.456 210.84H236.696ZM238.058 202.58V199.4H243.598V214H240.038V202.58H238.058ZM245.658 203.08C245.658 202 245.964 201.167 246.578 200.58C247.204 199.993 248.011 199.7 248.998 199.7C249.984 199.7 250.784 199.993 251.398 200.58C252.011 201.167 252.318 202 252.318 203.08C252.318 204.16 252.011 204.993 251.398 205.58C250.784 206.167 249.984 206.46 248.998 206.46C248.011 206.46 247.204 206.167 246.578 205.58C245.964 204.993 245.658 204.16 245.658 203.08ZM259.238 199.92L251.538 214H248.238L255.938 199.92H259.238ZM248.978 201.7C248.338 201.7 248.018 202.16 248.018 203.08C248.018 203.987 248.338 204.44 248.978 204.44C249.284 204.44 249.524 204.327 249.698 204.1C249.871 203.873 249.958 203.533 249.958 203.08C249.958 202.16 249.631 201.7 248.978 201.7ZM255.178 210.84C255.178 209.76 255.484 208.927 256.098 208.34C256.711 207.753 257.511 207.46 258.498 207.46C259.484 207.46 260.284 207.753 260.898 208.34C261.511 208.927 261.818 209.76 261.818 210.84C261.818 211.92 261.511 212.753 260.898 213.34C260.284 213.927 259.484 214.22 258.498 214.22C257.511 214.22 256.711 213.927 256.098 213.34C255.484 212.753 255.178 211.92 255.178 210.84ZM258.478 209.46C258.171 209.46 257.931 209.573 257.758 209.8C257.598 210.027 257.518 210.373 257.518 210.84C257.518 211.747 257.838 212.2 258.478 212.2C258.784 212.2 259.024 212.087 259.198 211.86C259.371 211.633 259.458 211.293 259.458 210.84C259.458 210.387 259.371 210.047 259.198 209.82C259.024 209.58 258.784 209.46 258.478 209.46Z" fill="#FF6565"/>
<path d="M278.773 214.125L270.546 199.875L287 199.875L278.773 214.125Z" fill="#FF6565"/>
<path d="M45.984 244.832L42.208 252.112V256H39.968V252.112L36.176 244.832H38.704L41.104 249.936L43.488 244.832H45.984ZM54.8759 244.832V246.64H51.8999V256H49.6599V246.64H46.6839V244.832H54.8759ZM60.4143 244.832C61.5876 244.832 62.6169 245.061 63.5023 245.52C64.3983 245.979 65.0863 246.635 65.5663 247.488C66.0569 248.331 66.3023 249.312 66.3023 250.432C66.3023 251.552 66.0569 252.533 65.5663 253.376C65.0863 254.208 64.3983 254.853 63.5023 255.312C62.6169 255.771 61.5876 256 60.4143 256H56.5103V244.832H60.4143ZM60.3343 254.096C61.5076 254.096 62.4143 253.776 63.0543 253.136C63.6943 252.496 64.0143 251.595 64.0143 250.432C64.0143 249.269 63.6943 248.363 63.0543 247.712C62.4143 247.051 61.5076 246.72 60.3343 246.72H58.7503V254.096H60.3343ZM67.467 247.2C67.467 246.389 67.7017 245.755 68.171 245.296C68.651 244.837 69.2643 244.608 70.011 244.608C70.7577 244.608 71.3657 244.837 71.835 245.296C72.315 245.755 72.555 246.389 72.555 247.2C72.555 248.021 72.315 248.661 71.835 249.12C71.3657 249.579 70.7577 249.808 70.011 249.808C69.2643 249.808 68.651 249.579 68.171 249.12C67.7017 248.661 67.467 248.021 67.467 247.2ZM77.739 244.8L71.451 256H69.275L75.547 244.8H77.739ZM69.995 245.952C69.4083 245.952 69.115 246.368 69.115 247.2C69.115 248.043 69.4083 248.464 69.995 248.464C70.283 248.464 70.507 248.363 70.667 248.16C70.827 247.947 70.907 247.627 70.907 247.2C70.907 246.368 70.603 245.952 69.995 245.952ZM74.491 253.584C74.491 252.763 74.7257 252.128 75.195 251.68C75.675 251.221 76.2883 250.992 77.035 250.992C77.7817 250.992 78.3843 251.221 78.843 251.68C79.3123 252.128 79.547 252.763 79.547 253.584C79.547 254.405 79.3123 255.045 78.843 255.504C78.3843 255.963 77.7817 256.192 77.035 256.192C76.2777 256.192 75.6643 255.963 75.195 255.504C74.7257 255.045 74.491 254.405 74.491 253.584ZM77.019 252.336C76.411 252.336 76.107 252.752 76.107 253.584C76.107 254.427 76.411 254.848 77.019 254.848C77.6163 254.848 77.915 254.427 77.915 253.584C77.915 252.752 77.6163 252.336 77.019 252.336Z" fill="white"/>
<path d="M218.386 251.56V254.4H209.586V251.56H218.386ZM220.687 248.58V245.4H226.227V260H222.667V248.58H220.687ZM232.587 256.84L230.367 262.58H228.187L229.347 256.84H232.587ZM234.189 257.26C234.642 256.9 234.849 256.733 234.809 256.76C236.115 255.68 237.142 254.793 237.889 254.1C238.649 253.407 239.289 252.68 239.809 251.92C240.329 251.16 240.589 250.42 240.589 249.7C240.589 249.153 240.462 248.727 240.209 248.42C239.955 248.113 239.575 247.96 239.069 247.96C238.562 247.96 238.162 248.153 237.869 248.54C237.589 248.913 237.449 249.447 237.449 250.14H234.149C234.175 249.007 234.415 248.06 234.869 247.3C235.335 246.54 235.942 245.98 236.689 245.62C237.449 245.26 238.289 245.08 239.209 245.08C240.795 245.08 241.989 245.487 242.789 246.3C243.602 247.113 244.009 248.173 244.009 249.48C244.009 250.907 243.522 252.233 242.549 253.46C241.575 254.673 240.335 255.86 238.829 257.02H244.229V259.8H234.189V257.26ZM245.455 249.08C245.455 248 245.761 247.167 246.375 246.58C247.001 245.993 247.808 245.7 248.795 245.7C249.781 245.7 250.581 245.993 251.195 246.58C251.808 247.167 252.115 248 252.115 249.08C252.115 250.16 251.808 250.993 251.195 251.58C250.581 252.167 249.781 252.46 248.795 252.46C247.808 252.46 247.001 252.167 246.375 251.58C245.761 250.993 245.455 250.16 245.455 249.08ZM259.035 245.92L251.335 260H248.035L255.735 245.92H259.035ZM248.775 247.7C248.135 247.7 247.815 248.16 247.815 249.08C247.815 249.987 248.135 250.44 248.775 250.44C249.081 250.44 249.321 250.327 249.495 250.1C249.668 249.873 249.755 249.533 249.755 249.08C249.755 248.16 249.428 247.7 248.775 247.7ZM254.975 256.84C254.975 255.76 255.281 254.927 255.895 254.34C256.508 253.753 257.308 253.46 258.295 253.46C259.281 253.46 260.081 253.753 260.695 254.34C261.308 254.927 261.615 255.76 261.615 256.84C261.615 257.92 261.308 258.753 260.695 259.34C260.081 259.927 259.281 260.22 258.295 260.22C257.308 260.22 256.508 259.927 255.895 259.34C255.281 258.753 254.975 257.92 254.975 256.84ZM258.275 255.46C257.968 255.46 257.728 255.573 257.555 255.8C257.395 256.027 257.315 256.373 257.315 256.84C257.315 257.747 257.635 258.2 258.275 258.2C258.581 258.2 258.821 258.087 258.995 257.86C259.168 257.633 259.255 257.293 259.255 256.84C259.255 256.387 259.168 256.047 258.995 255.82C258.821 255.58 258.581 255.46 258.275 255.46Z" fill="#FF6565"/>
<path d="M278.773 260.125L270.546 245.875L287 245.875L278.773 260.125Z" fill="#FF6565"/>
</g>
<defs>
<clipPath id="clip0_1004_1483">
<rect width="1440" height="5210" fill="white" transform="translate(-128 -1205)"/>
</clipPath>
</defs>
</svg>
